%TF.GenerationSoftware,KiCad,Pcbnew,8.0.3*%
%TF.CreationDate,2024-06-21T15:52:04+03:00*%
%TF.ProjectId,pm,706d2e6b-6963-4616-945f-706362585858,rev?*%
%TF.SameCoordinates,Original*%
%TF.FileFunction,Soldermask,Bot*%
%TF.FilePolarity,Negative*%
%FSLAX46Y46*%
G04 Gerber Fmt 4.6, Leading zero omitted, Abs format (unit mm)*
G04 Created by KiCad (PCBNEW 8.0.3) date 2024-06-21 15:52:04*
%MOMM*%
%LPD*%
G01*
G04 APERTURE LIST*
G04 Aperture macros list*
%AMRoundRect*
0 Rectangle with rounded corners*
0 $1 Rounding radius*
0 $2 $3 $4 $5 $6 $7 $8 $9 X,Y pos of 4 corners*
0 Add a 4 corners polygon primitive as box body*
4,1,4,$2,$3,$4,$5,$6,$7,$8,$9,$2,$3,0*
0 Add four circle primitives for the rounded corners*
1,1,$1+$1,$2,$3*
1,1,$1+$1,$4,$5*
1,1,$1+$1,$6,$7*
1,1,$1+$1,$8,$9*
0 Add four rect primitives between the rounded corners*
20,1,$1+$1,$2,$3,$4,$5,0*
20,1,$1+$1,$4,$5,$6,$7,0*
20,1,$1+$1,$6,$7,$8,$9,0*
20,1,$1+$1,$8,$9,$2,$3,0*%
G04 Aperture macros list end*
%ADD10C,2.000000*%
%ADD11RoundRect,0.237500X0.300000X0.237500X-0.300000X0.237500X-0.300000X-0.237500X0.300000X-0.237500X0*%
%ADD12R,1.700000X1.700000*%
%ADD13O,1.700000X1.700000*%
%ADD14C,1.500000*%
%ADD15RoundRect,0.237500X0.250000X0.237500X-0.250000X0.237500X-0.250000X-0.237500X0.250000X-0.237500X0*%
%ADD16RoundRect,0.237500X-0.250000X-0.237500X0.250000X-0.237500X0.250000X0.237500X-0.250000X0.237500X0*%
%ADD17RoundRect,0.250000X0.475000X-0.337500X0.475000X0.337500X-0.475000X0.337500X-0.475000X-0.337500X0*%
%ADD18RoundRect,0.250000X-0.650000X-1.550000X0.650000X-1.550000X0.650000X1.550000X-0.650000X1.550000X0*%
%ADD19O,1.800000X3.600000*%
%ADD20RoundRect,0.250000X0.650000X1.550000X-0.650000X1.550000X-0.650000X-1.550000X0.650000X-1.550000X0*%
%ADD21RoundRect,0.237500X0.237500X-0.300000X0.237500X0.300000X-0.237500X0.300000X-0.237500X-0.300000X0*%
%ADD22RoundRect,0.237500X-0.237500X0.300000X-0.237500X-0.300000X0.237500X-0.300000X0.237500X0.300000X0*%
%ADD23RoundRect,0.237500X-0.300000X-0.237500X0.300000X-0.237500X0.300000X0.237500X-0.300000X0.237500X0*%
%ADD24RoundRect,0.250000X-0.475000X0.337500X-0.475000X-0.337500X0.475000X-0.337500X0.475000X0.337500X0*%
%ADD25RoundRect,0.250000X-0.337500X-0.475000X0.337500X-0.475000X0.337500X0.475000X-0.337500X0.475000X0*%
%ADD26C,0.650000*%
%ADD27O,2.100000X1.000000*%
%ADD28O,1.800000X1.000000*%
%ADD29RoundRect,0.075000X-0.075000X-0.700000X0.075000X-0.700000X0.075000X0.700000X-0.075000X0.700000X0*%
%ADD30RoundRect,0.075000X-0.700000X-0.075000X0.700000X-0.075000X0.700000X0.075000X-0.700000X0.075000X0*%
G04 APERTURE END LIST*
D10*
%TO.C,TP1*%
X121158000Y-89662000D03*
%TD*%
D11*
%TO.C,C13*%
X90831500Y-86106000D03*
X92556500Y-86106000D03*
%TD*%
D12*
%TO.C,J21*%
X85090000Y-96520000D03*
D13*
X82550000Y-96520000D03*
X85090000Y-93980000D03*
X82550000Y-93980000D03*
X85090000Y-91440000D03*
X82550000Y-91440000D03*
X85090000Y-88900000D03*
X82550000Y-88900000D03*
X85090000Y-86360000D03*
X82550000Y-86360000D03*
%TD*%
D14*
%TO.C,Y1*%
X96520000Y-89080000D03*
X96520000Y-93980000D03*
%TD*%
D15*
%TO.C,R16*%
X99972500Y-82550000D03*
X98147500Y-82550000D03*
%TD*%
%TO.C,R15*%
X142898500Y-93218000D03*
X141073500Y-93218000D03*
%TD*%
D16*
%TO.C,R14*%
X140970000Y-90170000D03*
X142795000Y-90170000D03*
%TD*%
D11*
%TO.C,C24*%
X104748500Y-98044000D03*
X103023500Y-98044000D03*
%TD*%
D17*
%TO.C,C23*%
X123444000Y-110955000D03*
X123444000Y-113030000D03*
%TD*%
D18*
%TO.C,J14*%
X83820000Y-129540000D03*
D19*
X88900000Y-129540000D03*
X93980000Y-129540000D03*
%TD*%
D20*
%TO.C,J8*%
X124460000Y-50800000D03*
D19*
X119380000Y-50800000D03*
X114300000Y-50800000D03*
%TD*%
D16*
%TO.C,R12*%
X96520000Y-86360000D03*
X98345000Y-86360000D03*
%TD*%
D21*
%TO.C,C17*%
X100330000Y-97790000D03*
X100330000Y-96065000D03*
%TD*%
D18*
%TO.C,J16*%
X99060000Y-129540000D03*
D19*
X104140000Y-129540000D03*
X109220000Y-129540000D03*
%TD*%
D12*
%TO.C,JP2*%
X86360000Y-63840000D03*
D13*
X83820000Y-63840000D03*
%TD*%
D12*
%TO.C,JP7*%
X91440000Y-116840000D03*
D13*
X93980000Y-116840000D03*
%TD*%
D21*
%TO.C,C15*%
X93980000Y-90170000D03*
X93980000Y-88445000D03*
%TD*%
D12*
%TO.C,JP3*%
X101600000Y-63840000D03*
D13*
X99060000Y-63840000D03*
%TD*%
D11*
%TO.C,C16*%
X98398500Y-84582000D03*
X96673500Y-84582000D03*
%TD*%
D12*
%TO.C,JP1*%
X71120000Y-63840000D03*
D13*
X68580000Y-63840000D03*
%TD*%
D22*
%TO.C,C14*%
X93980000Y-92255000D03*
X93980000Y-93980000D03*
%TD*%
D20*
%TO.C,J2*%
X78740000Y-50800000D03*
D19*
X73660000Y-50800000D03*
X68580000Y-50800000D03*
%TD*%
D20*
%TO.C,J6*%
X109220000Y-50800000D03*
D19*
X104140000Y-50800000D03*
X99060000Y-50800000D03*
%TD*%
D12*
%TO.C,J19*%
X129540000Y-121920000D03*
D13*
X132080000Y-121920000D03*
X134620000Y-121920000D03*
%TD*%
D20*
%TO.C,J4*%
X93980000Y-50800000D03*
D19*
X88900000Y-50800000D03*
X83820000Y-50800000D03*
%TD*%
D12*
%TO.C,J3*%
X93980000Y-58760000D03*
D13*
X91440000Y-58760000D03*
X88900000Y-58760000D03*
%TD*%
D12*
%TO.C,JP4*%
X116840000Y-63840000D03*
D13*
X114300000Y-63840000D03*
%TD*%
D23*
%TO.C,C20*%
X102261500Y-81026000D03*
X103986500Y-81026000D03*
%TD*%
D12*
%TO.C,JP5*%
X132080000Y-63840000D03*
D13*
X129540000Y-63840000D03*
%TD*%
D12*
%TO.C,J7*%
X124460000Y-58760000D03*
D13*
X121920000Y-58760000D03*
X119380000Y-58760000D03*
%TD*%
D12*
%TO.C,JP6*%
X76200000Y-116840000D03*
D13*
X78740000Y-116840000D03*
%TD*%
D18*
%TO.C,J18*%
X114300000Y-129540000D03*
D19*
X119380000Y-129540000D03*
X124460000Y-129540000D03*
%TD*%
D18*
%TO.C,J12*%
X68580000Y-129540000D03*
D19*
X73660000Y-129540000D03*
X78740000Y-129540000D03*
%TD*%
D18*
%TO.C,J20*%
X129540000Y-129540000D03*
D19*
X134620000Y-129540000D03*
X139700000Y-129540000D03*
%TD*%
D12*
%TO.C,J1*%
X78740000Y-58760000D03*
D13*
X76200000Y-58760000D03*
X73660000Y-58760000D03*
%TD*%
D12*
%TO.C,JP9*%
X121920000Y-116840000D03*
D13*
X124460000Y-116840000D03*
%TD*%
D12*
%TO.C,JP10*%
X137160000Y-116840000D03*
D13*
X139700000Y-116840000D03*
%TD*%
D12*
%TO.C,J9*%
X139700000Y-58760000D03*
D13*
X137160000Y-58760000D03*
X134620000Y-58760000D03*
%TD*%
D12*
%TO.C,J13*%
X83820000Y-121920000D03*
D13*
X86360000Y-121920000D03*
X88900000Y-121920000D03*
%TD*%
D12*
%TO.C,J15*%
X99060000Y-121920000D03*
D13*
X101600000Y-121920000D03*
X104140000Y-121920000D03*
%TD*%
D20*
%TO.C,J10*%
X139700000Y-50800000D03*
D19*
X134620000Y-50800000D03*
X129540000Y-50800000D03*
%TD*%
D12*
%TO.C,J5*%
X109220000Y-58760000D03*
D13*
X106680000Y-58760000D03*
X104140000Y-58760000D03*
%TD*%
D12*
%TO.C,JP8*%
X106680000Y-116840000D03*
D13*
X109220000Y-116840000D03*
%TD*%
D12*
%TO.C,J17*%
X114300000Y-121920000D03*
D13*
X116840000Y-121920000D03*
X119380000Y-121920000D03*
%TD*%
D12*
%TO.C,J11*%
X68580000Y-121920000D03*
D13*
X71120000Y-121920000D03*
X73660000Y-121920000D03*
%TD*%
D16*
%TO.C,R11*%
X104544500Y-100838000D03*
X102719500Y-100838000D03*
%TD*%
%TO.C,R13*%
X102719500Y-102362000D03*
X104544500Y-102362000D03*
%TD*%
D11*
%TO.C,C21*%
X113691500Y-83312000D03*
X115416500Y-83312000D03*
%TD*%
D24*
%TO.C,C11*%
X117094000Y-94191000D03*
X117094000Y-96266000D03*
%TD*%
D25*
%TO.C,C12*%
X113516500Y-81026000D03*
X115591500Y-81026000D03*
%TD*%
D26*
%TO.C,J25*%
X138560000Y-94840000D03*
X138560000Y-89060000D03*
D27*
X138060000Y-96270000D03*
D28*
X142240000Y-96270000D03*
D27*
X138060000Y-87630000D03*
D28*
X142240000Y-87630000D03*
%TD*%
D12*
%TO.C,J23*%
X129540000Y-88910000D03*
D13*
X129540000Y-91450000D03*
X129540000Y-93990000D03*
X129540000Y-96530000D03*
%TD*%
D29*
%TO.C,U11*%
X104180000Y-95482500D03*
X104680000Y-95482500D03*
X105180000Y-95482500D03*
X105680000Y-95482500D03*
X106180000Y-95482500D03*
X106680000Y-95482500D03*
X107180000Y-95482500D03*
X107680000Y-95482500D03*
X108180000Y-95482500D03*
X108680000Y-95482500D03*
X109180000Y-95482500D03*
X109680000Y-95482500D03*
X110180000Y-95482500D03*
X110680000Y-95482500D03*
X111180000Y-95482500D03*
X111680000Y-95482500D03*
D30*
X113605000Y-93557500D03*
X113605000Y-93057500D03*
X113605000Y-92557500D03*
X113605000Y-92057500D03*
X113605000Y-91557500D03*
X113605000Y-91057500D03*
X113605000Y-90557500D03*
X113605000Y-90057500D03*
X113605000Y-89557500D03*
X113605000Y-89057500D03*
X113605000Y-88557500D03*
X113605000Y-88057500D03*
X113605000Y-87557500D03*
X113605000Y-87057500D03*
X113605000Y-86557500D03*
X113605000Y-86057500D03*
D29*
X111680000Y-84132500D03*
X111180000Y-84132500D03*
X110680000Y-84132500D03*
X110180000Y-84132500D03*
X109680000Y-84132500D03*
X109180000Y-84132500D03*
X108680000Y-84132500D03*
X108180000Y-84132500D03*
X107680000Y-84132500D03*
X107180000Y-84132500D03*
X106680000Y-84132500D03*
X106180000Y-84132500D03*
X105680000Y-84132500D03*
X105180000Y-84132500D03*
X104680000Y-84132500D03*
X104180000Y-84132500D03*
D30*
X102255000Y-86057500D03*
X102255000Y-86557500D03*
X102255000Y-87057500D03*
X102255000Y-87557500D03*
X102255000Y-88057500D03*
X102255000Y-88557500D03*
X102255000Y-89057500D03*
X102255000Y-89557500D03*
X102255000Y-90057500D03*
X102255000Y-90557500D03*
X102255000Y-91057500D03*
X102255000Y-91557500D03*
X102255000Y-92057500D03*
X102255000Y-92557500D03*
X102255000Y-93057500D03*
X102255000Y-93557500D03*
%TD*%
D12*
%TO.C,J24*%
X142240000Y-107950000D03*
D13*
X142240000Y-105410000D03*
X142240000Y-102870000D03*
X142240000Y-100330000D03*
%TD*%
M02*
