%TF.GenerationSoftware,KiCad,Pcbnew,8.0.3*%
%TF.CreationDate,2024-06-21T15:52:04+03:00*%
%TF.ProjectId,pm,706d2e6b-6963-4616-945f-706362585858,rev?*%
%TF.SameCoordinates,Original*%
%TF.FileFunction,Copper,L2,Bot*%
%TF.FilePolarity,Positive*%
%FSLAX46Y46*%
G04 Gerber Fmt 4.6, Leading zero omitted, Abs format (unit mm)*
G04 Created by KiCad (PCBNEW 8.0.3) date 2024-06-21 15:52:04*
%MOMM*%
%LPD*%
G01*
G04 APERTURE LIST*
G04 Aperture macros list*
%AMRoundRect*
0 Rectangle with rounded corners*
0 $1 Rounding radius*
0 $2 $3 $4 $5 $6 $7 $8 $9 X,Y pos of 4 corners*
0 Add a 4 corners polygon primitive as box body*
4,1,4,$2,$3,$4,$5,$6,$7,$8,$9,$2,$3,0*
0 Add four circle primitives for the rounded corners*
1,1,$1+$1,$2,$3*
1,1,$1+$1,$4,$5*
1,1,$1+$1,$6,$7*
1,1,$1+$1,$8,$9*
0 Add four rect primitives between the rounded corners*
20,1,$1+$1,$2,$3,$4,$5,0*
20,1,$1+$1,$4,$5,$6,$7,0*
20,1,$1+$1,$6,$7,$8,$9,0*
20,1,$1+$1,$8,$9,$2,$3,0*%
G04 Aperture macros list end*
%ADD10C,0.300000*%
%TA.AperFunction,NonConductor*%
%ADD11C,0.300000*%
%TD*%
%TA.AperFunction,ComponentPad*%
%ADD12C,2.000000*%
%TD*%
%TA.AperFunction,SMDPad,CuDef*%
%ADD13RoundRect,0.237500X0.300000X0.237500X-0.300000X0.237500X-0.300000X-0.237500X0.300000X-0.237500X0*%
%TD*%
%TA.AperFunction,ComponentPad*%
%ADD14R,1.700000X1.700000*%
%TD*%
%TA.AperFunction,ComponentPad*%
%ADD15O,1.700000X1.700000*%
%TD*%
%TA.AperFunction,ComponentPad*%
%ADD16C,1.500000*%
%TD*%
%TA.AperFunction,SMDPad,CuDef*%
%ADD17RoundRect,0.237500X0.250000X0.237500X-0.250000X0.237500X-0.250000X-0.237500X0.250000X-0.237500X0*%
%TD*%
%TA.AperFunction,SMDPad,CuDef*%
%ADD18RoundRect,0.237500X-0.250000X-0.237500X0.250000X-0.237500X0.250000X0.237500X-0.250000X0.237500X0*%
%TD*%
%TA.AperFunction,SMDPad,CuDef*%
%ADD19RoundRect,0.250000X0.475000X-0.337500X0.475000X0.337500X-0.475000X0.337500X-0.475000X-0.337500X0*%
%TD*%
%TA.AperFunction,ComponentPad*%
%ADD20RoundRect,0.250000X-0.650000X-1.550000X0.650000X-1.550000X0.650000X1.550000X-0.650000X1.550000X0*%
%TD*%
%TA.AperFunction,ComponentPad*%
%ADD21O,1.800000X3.600000*%
%TD*%
%TA.AperFunction,ComponentPad*%
%ADD22RoundRect,0.250000X0.650000X1.550000X-0.650000X1.550000X-0.650000X-1.550000X0.650000X-1.550000X0*%
%TD*%
%TA.AperFunction,SMDPad,CuDef*%
%ADD23RoundRect,0.237500X0.237500X-0.300000X0.237500X0.300000X-0.237500X0.300000X-0.237500X-0.300000X0*%
%TD*%
%TA.AperFunction,SMDPad,CuDef*%
%ADD24RoundRect,0.237500X-0.237500X0.300000X-0.237500X-0.300000X0.237500X-0.300000X0.237500X0.300000X0*%
%TD*%
%TA.AperFunction,SMDPad,CuDef*%
%ADD25RoundRect,0.237500X-0.300000X-0.237500X0.300000X-0.237500X0.300000X0.237500X-0.300000X0.237500X0*%
%TD*%
%TA.AperFunction,SMDPad,CuDef*%
%ADD26RoundRect,0.250000X-0.475000X0.337500X-0.475000X-0.337500X0.475000X-0.337500X0.475000X0.337500X0*%
%TD*%
%TA.AperFunction,SMDPad,CuDef*%
%ADD27RoundRect,0.250000X-0.337500X-0.475000X0.337500X-0.475000X0.337500X0.475000X-0.337500X0.475000X0*%
%TD*%
%TA.AperFunction,ComponentPad*%
%ADD28O,2.100000X1.000000*%
%TD*%
%TA.AperFunction,ComponentPad*%
%ADD29O,1.800000X1.000000*%
%TD*%
%TA.AperFunction,SMDPad,CuDef*%
%ADD30RoundRect,0.075000X-0.075000X-0.700000X0.075000X-0.700000X0.075000X0.700000X-0.075000X0.700000X0*%
%TD*%
%TA.AperFunction,SMDPad,CuDef*%
%ADD31RoundRect,0.075000X-0.700000X-0.075000X0.700000X-0.075000X0.700000X0.075000X-0.700000X0.075000X0*%
%TD*%
%TA.AperFunction,ViaPad*%
%ADD32C,0.800000*%
%TD*%
%TA.AperFunction,ViaPad*%
%ADD33C,0.600000*%
%TD*%
%TA.AperFunction,Conductor*%
%ADD34C,0.254000*%
%TD*%
%TA.AperFunction,Conductor*%
%ADD35C,0.762000*%
%TD*%
%TA.AperFunction,Conductor*%
%ADD36C,1.270000*%
%TD*%
%TA.AperFunction,Conductor*%
%ADD37C,0.203200*%
%TD*%
%TA.AperFunction,Conductor*%
%ADD38C,0.304800*%
%TD*%
G04 APERTURE END LIST*
D10*
D11*
X72698828Y-87422510D02*
X71198828Y-87422510D01*
X71198828Y-87422510D02*
X72270257Y-87922510D01*
X72270257Y-87922510D02*
X71198828Y-88422510D01*
X71198828Y-88422510D02*
X72698828Y-88422510D01*
X72698828Y-89136796D02*
X71198828Y-89136796D01*
X71198828Y-89136796D02*
X71198828Y-89708225D01*
X71198828Y-89708225D02*
X71270257Y-89851082D01*
X71270257Y-89851082D02*
X71341685Y-89922511D01*
X71341685Y-89922511D02*
X71484542Y-89993939D01*
X71484542Y-89993939D02*
X71698828Y-89993939D01*
X71698828Y-89993939D02*
X71841685Y-89922511D01*
X71841685Y-89922511D02*
X71913114Y-89851082D01*
X71913114Y-89851082D02*
X71984542Y-89708225D01*
X71984542Y-89708225D02*
X71984542Y-89136796D01*
X72698828Y-90636796D02*
X71198828Y-90636796D01*
X71198828Y-90636796D02*
X72270257Y-91136796D01*
X72270257Y-91136796D02*
X71198828Y-91636796D01*
X71198828Y-91636796D02*
X72698828Y-91636796D01*
X71698828Y-93351082D02*
X72698828Y-93708225D01*
X72698828Y-93708225D02*
X71698828Y-94065368D01*
X71198828Y-94922511D02*
X71198828Y-95065368D01*
X71198828Y-95065368D02*
X71270257Y-95208225D01*
X71270257Y-95208225D02*
X71341685Y-95279654D01*
X71341685Y-95279654D02*
X71484542Y-95351082D01*
X71484542Y-95351082D02*
X71770257Y-95422511D01*
X71770257Y-95422511D02*
X72127400Y-95422511D01*
X72127400Y-95422511D02*
X72413114Y-95351082D01*
X72413114Y-95351082D02*
X72555971Y-95279654D01*
X72555971Y-95279654D02*
X72627400Y-95208225D01*
X72627400Y-95208225D02*
X72698828Y-95065368D01*
X72698828Y-95065368D02*
X72698828Y-94922511D01*
X72698828Y-94922511D02*
X72627400Y-94779654D01*
X72627400Y-94779654D02*
X72555971Y-94708225D01*
X72555971Y-94708225D02*
X72413114Y-94636796D01*
X72413114Y-94636796D02*
X72127400Y-94565368D01*
X72127400Y-94565368D02*
X71770257Y-94565368D01*
X71770257Y-94565368D02*
X71484542Y-94636796D01*
X71484542Y-94636796D02*
X71341685Y-94708225D01*
X71341685Y-94708225D02*
X71270257Y-94779654D01*
X71270257Y-94779654D02*
X71198828Y-94922511D01*
X72555971Y-96065367D02*
X72627400Y-96136796D01*
X72627400Y-96136796D02*
X72698828Y-96065367D01*
X72698828Y-96065367D02*
X72627400Y-95993939D01*
X72627400Y-95993939D02*
X72555971Y-96065367D01*
X72555971Y-96065367D02*
X72698828Y-96065367D01*
X72698828Y-97565368D02*
X72698828Y-96708225D01*
X72698828Y-97136796D02*
X71198828Y-97136796D01*
X71198828Y-97136796D02*
X71413114Y-96993939D01*
X71413114Y-96993939D02*
X71555971Y-96851082D01*
X71555971Y-96851082D02*
X71627400Y-96708225D01*
D12*
%TO.P,TP1,1,1*%
%TO.N,Net-(U11-PA9)*%
X121158000Y-89662000D03*
%TD*%
D13*
%TO.P,C13,2*%
%TO.N,GND*%
X90831500Y-86106000D03*
%TO.P,C13,1*%
%TO.N,/nRST*%
X92556500Y-86106000D03*
%TD*%
D14*
%TO.P,J21,1,Pin_1*%
%TO.N,+3V3*%
X85090000Y-96520000D03*
D15*
%TO.P,J21,2,Pin_2*%
%TO.N,/SWDIO*%
X82550000Y-96520000D03*
%TO.P,J21,3,Pin_3*%
%TO.N,GND*%
X85090000Y-93980000D03*
%TO.P,J21,4,Pin_4*%
%TO.N,/SWDCLK*%
X82550000Y-93980000D03*
%TO.P,J21,5,Pin_5*%
%TO.N,GND*%
X85090000Y-91440000D03*
%TO.P,J21,6,Pin_6*%
%TO.N,/SWO*%
X82550000Y-91440000D03*
%TO.P,J21,7,Pin_7*%
%TO.N,unconnected-(J21-Pin_7-Pad7)*%
X85090000Y-88900000D03*
%TO.P,J21,8,Pin_8*%
%TO.N,unconnected-(J21-Pin_8-Pad8)*%
X82550000Y-88900000D03*
%TO.P,J21,9,Pin_9*%
%TO.N,unconnected-(J21-Pin_9-Pad9)*%
X85090000Y-86360000D03*
%TO.P,J21,10,Pin_10*%
%TO.N,/nRST*%
X82550000Y-86360000D03*
%TD*%
D16*
%TO.P,Y1,1,1*%
%TO.N,Net-(U11-PH1)*%
X96520000Y-89080000D03*
%TO.P,Y1,2,2*%
%TO.N,Net-(U11-PH0)*%
X96520000Y-93980000D03*
%TD*%
D17*
%TO.P,R16,1*%
%TO.N,Net-(U11-PA0)*%
X99972500Y-82550000D03*
%TO.P,R16,2*%
%TO.N,Net-(D1-A)*%
X98147500Y-82550000D03*
%TD*%
%TO.P,R15,1*%
%TO.N,GND*%
X142898500Y-93218000D03*
%TO.P,R15,2*%
%TO.N,Net-(J25-CC1)*%
X141073500Y-93218000D03*
%TD*%
D18*
%TO.P,R14,1*%
%TO.N,Net-(J25-CC2)*%
X140970000Y-90170000D03*
%TO.P,R14,2*%
%TO.N,GND*%
X142795000Y-90170000D03*
%TD*%
D13*
%TO.P,C24,1*%
%TO.N,GND*%
X104748500Y-98044000D03*
%TO.P,C24,2*%
%TO.N,+3V3*%
X103023500Y-98044000D03*
%TD*%
D19*
%TO.P,C23,2*%
%TO.N,GND*%
X123444000Y-110955000D03*
%TO.P,C23,1*%
%TO.N,+3V3*%
X123444000Y-113030000D03*
%TD*%
D20*
%TO.P,J14,1,Pin_1*%
%TO.N,Net-(J13-Pin_1)*%
X83820000Y-129540000D03*
D21*
%TO.P,J14,2,Pin_2*%
%TO.N,Net-(J13-Pin_2)*%
X88900000Y-129540000D03*
%TO.P,J14,3,Pin_3*%
%TO.N,Net-(J13-Pin_3)*%
X93980000Y-129540000D03*
%TD*%
D22*
%TO.P,J8,1,Pin_1*%
%TO.N,Net-(J7-Pin_1)*%
X124460000Y-50800000D03*
D21*
%TO.P,J8,2,Pin_2*%
%TO.N,Net-(J7-Pin_2)*%
X119380000Y-50800000D03*
%TO.P,J8,3,Pin_3*%
%TO.N,Net-(J7-Pin_3)*%
X114300000Y-50800000D03*
%TD*%
D18*
%TO.P,R12,1*%
%TO.N,+3V3*%
X96520000Y-86360000D03*
%TO.P,R12,2*%
%TO.N,Net-(U11-VDDA)*%
X98345000Y-86360000D03*
%TD*%
D23*
%TO.P,C17,1*%
%TO.N,GND*%
X100330000Y-97790000D03*
%TO.P,C17,2*%
%TO.N,+3V3*%
X100330000Y-96065000D03*
%TD*%
D20*
%TO.P,J16,1,Pin_1*%
%TO.N,Net-(J15-Pin_1)*%
X99060000Y-129540000D03*
D21*
%TO.P,J16,2,Pin_2*%
%TO.N,Net-(J15-Pin_2)*%
X104140000Y-129540000D03*
%TO.P,J16,3,Pin_3*%
%TO.N,Net-(J15-Pin_3)*%
X109220000Y-129540000D03*
%TD*%
D14*
%TO.P,JP2,1,A*%
%TO.N,Net-(J3-Pin_2)*%
X86360000Y-63840000D03*
D15*
%TO.P,JP2,2,B*%
%TO.N,Net-(J3-Pin_3)*%
X83820000Y-63840000D03*
%TD*%
D14*
%TO.P,JP7,1,A*%
%TO.N,Net-(J13-Pin_2)*%
X91440000Y-116840000D03*
D15*
%TO.P,JP7,2,B*%
%TO.N,Net-(J13-Pin_3)*%
X93980000Y-116840000D03*
%TD*%
D23*
%TO.P,C15,1*%
%TO.N,GND*%
X93980000Y-90170000D03*
%TO.P,C15,2*%
%TO.N,Net-(U11-PH1)*%
X93980000Y-88445000D03*
%TD*%
D14*
%TO.P,JP3,1,A*%
%TO.N,Net-(J5-Pin_2)*%
X101600000Y-63840000D03*
D15*
%TO.P,JP3,2,B*%
%TO.N,Net-(J5-Pin_3)*%
X99060000Y-63840000D03*
%TD*%
D13*
%TO.P,C16,1*%
%TO.N,Net-(U11-VDDA)*%
X98398500Y-84582000D03*
%TO.P,C16,2*%
%TO.N,GND*%
X96673500Y-84582000D03*
%TD*%
D14*
%TO.P,JP1,1,A*%
%TO.N,Net-(J1-Pin_2)*%
X71120000Y-63840000D03*
D15*
%TO.P,JP1,2,B*%
%TO.N,Net-(J1-Pin_3)*%
X68580000Y-63840000D03*
%TD*%
D24*
%TO.P,C14,1*%
%TO.N,GND*%
X93980000Y-92255000D03*
%TO.P,C14,2*%
%TO.N,Net-(U11-PH0)*%
X93980000Y-93980000D03*
%TD*%
D22*
%TO.P,J2,1,Pin_1*%
%TO.N,Net-(J1-Pin_1)*%
X78740000Y-50800000D03*
D21*
%TO.P,J2,2,Pin_2*%
%TO.N,Net-(J1-Pin_2)*%
X73660000Y-50800000D03*
%TO.P,J2,3,Pin_3*%
%TO.N,Net-(J1-Pin_3)*%
X68580000Y-50800000D03*
%TD*%
D22*
%TO.P,J6,1,Pin_1*%
%TO.N,Net-(J5-Pin_1)*%
X109220000Y-50800000D03*
D21*
%TO.P,J6,2,Pin_2*%
%TO.N,Net-(J5-Pin_2)*%
X104140000Y-50800000D03*
%TO.P,J6,3,Pin_3*%
%TO.N,Net-(J5-Pin_3)*%
X99060000Y-50800000D03*
%TD*%
D14*
%TO.P,J19,1,Pin_1*%
%TO.N,Net-(J19-Pin_1)*%
X129540000Y-121920000D03*
D15*
%TO.P,J19,2,Pin_2*%
%TO.N,Net-(J19-Pin_2)*%
X132080000Y-121920000D03*
%TO.P,J19,3,Pin_3*%
%TO.N,Net-(J19-Pin_3)*%
X134620000Y-121920000D03*
%TD*%
D22*
%TO.P,J4,1,Pin_1*%
%TO.N,Net-(J3-Pin_1)*%
X93980000Y-50800000D03*
D21*
%TO.P,J4,2,Pin_2*%
%TO.N,Net-(J3-Pin_2)*%
X88900000Y-50800000D03*
%TO.P,J4,3,Pin_3*%
%TO.N,Net-(J3-Pin_3)*%
X83820000Y-50800000D03*
%TD*%
D14*
%TO.P,J3,1,Pin_1*%
%TO.N,Net-(J3-Pin_1)*%
X93980000Y-58760000D03*
D15*
%TO.P,J3,2,Pin_2*%
%TO.N,Net-(J3-Pin_2)*%
X91440000Y-58760000D03*
%TO.P,J3,3,Pin_3*%
%TO.N,Net-(J3-Pin_3)*%
X88900000Y-58760000D03*
%TD*%
D14*
%TO.P,JP4,1,A*%
%TO.N,Net-(J7-Pin_2)*%
X116840000Y-63840000D03*
D15*
%TO.P,JP4,2,B*%
%TO.N,Net-(J7-Pin_3)*%
X114300000Y-63840000D03*
%TD*%
D25*
%TO.P,C20,1*%
%TO.N,GND*%
X102261500Y-81026000D03*
%TO.P,C20,2*%
%TO.N,+3V3*%
X103986500Y-81026000D03*
%TD*%
D14*
%TO.P,JP5,1,A*%
%TO.N,Net-(J10-Pin_2)*%
X132080000Y-63840000D03*
D15*
%TO.P,JP5,2,B*%
%TO.N,Net-(J10-Pin_3)*%
X129540000Y-63840000D03*
%TD*%
D14*
%TO.P,J7,1,Pin_1*%
%TO.N,Net-(J7-Pin_1)*%
X124460000Y-58760000D03*
D15*
%TO.P,J7,2,Pin_2*%
%TO.N,Net-(J7-Pin_2)*%
X121920000Y-58760000D03*
%TO.P,J7,3,Pin_3*%
%TO.N,Net-(J7-Pin_3)*%
X119380000Y-58760000D03*
%TD*%
D14*
%TO.P,JP6,1,A*%
%TO.N,Net-(J11-Pin_2)*%
X76200000Y-116840000D03*
D15*
%TO.P,JP6,2,B*%
%TO.N,Net-(J11-Pin_3)*%
X78740000Y-116840000D03*
%TD*%
D20*
%TO.P,J18,1,Pin_1*%
%TO.N,Net-(J17-Pin_1)*%
X114300000Y-129540000D03*
D21*
%TO.P,J18,2,Pin_2*%
%TO.N,Net-(J17-Pin_2)*%
X119380000Y-129540000D03*
%TO.P,J18,3,Pin_3*%
%TO.N,Net-(J17-Pin_3)*%
X124460000Y-129540000D03*
%TD*%
D20*
%TO.P,J12,1,Pin_1*%
%TO.N,Net-(J11-Pin_1)*%
X68580000Y-129540000D03*
D21*
%TO.P,J12,2,Pin_2*%
%TO.N,Net-(J11-Pin_2)*%
X73660000Y-129540000D03*
%TO.P,J12,3,Pin_3*%
%TO.N,Net-(J11-Pin_3)*%
X78740000Y-129540000D03*
%TD*%
D20*
%TO.P,J20,1,Pin_1*%
%TO.N,Net-(J19-Pin_1)*%
X129540000Y-129540000D03*
D21*
%TO.P,J20,2,Pin_2*%
%TO.N,Net-(J19-Pin_2)*%
X134620000Y-129540000D03*
%TO.P,J20,3,Pin_3*%
%TO.N,Net-(J19-Pin_3)*%
X139700000Y-129540000D03*
%TD*%
D14*
%TO.P,J1,1,Pin_1*%
%TO.N,Net-(J1-Pin_1)*%
X78740000Y-58760000D03*
D15*
%TO.P,J1,2,Pin_2*%
%TO.N,Net-(J1-Pin_2)*%
X76200000Y-58760000D03*
%TO.P,J1,3,Pin_3*%
%TO.N,Net-(J1-Pin_3)*%
X73660000Y-58760000D03*
%TD*%
D14*
%TO.P,JP9,1,A*%
%TO.N,Net-(J17-Pin_2)*%
X121920000Y-116840000D03*
D15*
%TO.P,JP9,2,B*%
%TO.N,Net-(J17-Pin_3)*%
X124460000Y-116840000D03*
%TD*%
D14*
%TO.P,JP10,1,A*%
%TO.N,Net-(J19-Pin_2)*%
X137160000Y-116840000D03*
D15*
%TO.P,JP10,2,B*%
%TO.N,Net-(J19-Pin_3)*%
X139700000Y-116840000D03*
%TD*%
D14*
%TO.P,J9,1,Pin_1*%
%TO.N,Net-(J10-Pin_1)*%
X139700000Y-58760000D03*
D15*
%TO.P,J9,2,Pin_2*%
%TO.N,Net-(J10-Pin_2)*%
X137160000Y-58760000D03*
%TO.P,J9,3,Pin_3*%
%TO.N,Net-(J10-Pin_3)*%
X134620000Y-58760000D03*
%TD*%
D14*
%TO.P,J13,1,Pin_1*%
%TO.N,Net-(J13-Pin_1)*%
X83820000Y-121920000D03*
D15*
%TO.P,J13,2,Pin_2*%
%TO.N,Net-(J13-Pin_2)*%
X86360000Y-121920000D03*
%TO.P,J13,3,Pin_3*%
%TO.N,Net-(J13-Pin_3)*%
X88900000Y-121920000D03*
%TD*%
D14*
%TO.P,J15,1,Pin_1*%
%TO.N,Net-(J15-Pin_1)*%
X99060000Y-121920000D03*
D15*
%TO.P,J15,2,Pin_2*%
%TO.N,Net-(J15-Pin_2)*%
X101600000Y-121920000D03*
%TO.P,J15,3,Pin_3*%
%TO.N,Net-(J15-Pin_3)*%
X104140000Y-121920000D03*
%TD*%
D22*
%TO.P,J10,1,Pin_1*%
%TO.N,Net-(J10-Pin_1)*%
X139700000Y-50800000D03*
D21*
%TO.P,J10,2,Pin_2*%
%TO.N,Net-(J10-Pin_2)*%
X134620000Y-50800000D03*
%TO.P,J10,3,Pin_3*%
%TO.N,Net-(J10-Pin_3)*%
X129540000Y-50800000D03*
%TD*%
D14*
%TO.P,J5,1,Pin_1*%
%TO.N,Net-(J5-Pin_1)*%
X109220000Y-58760000D03*
D15*
%TO.P,J5,2,Pin_2*%
%TO.N,Net-(J5-Pin_2)*%
X106680000Y-58760000D03*
%TO.P,J5,3,Pin_3*%
%TO.N,Net-(J5-Pin_3)*%
X104140000Y-58760000D03*
%TD*%
D14*
%TO.P,JP8,1,A*%
%TO.N,Net-(J15-Pin_2)*%
X106680000Y-116840000D03*
D15*
%TO.P,JP8,2,B*%
%TO.N,Net-(J15-Pin_3)*%
X109220000Y-116840000D03*
%TD*%
D14*
%TO.P,J17,1,Pin_1*%
%TO.N,Net-(J17-Pin_1)*%
X114300000Y-121920000D03*
D15*
%TO.P,J17,2,Pin_2*%
%TO.N,Net-(J17-Pin_2)*%
X116840000Y-121920000D03*
%TO.P,J17,3,Pin_3*%
%TO.N,Net-(J17-Pin_3)*%
X119380000Y-121920000D03*
%TD*%
D14*
%TO.P,J11,1,Pin_1*%
%TO.N,Net-(J11-Pin_1)*%
X68580000Y-121920000D03*
D15*
%TO.P,J11,2,Pin_2*%
%TO.N,Net-(J11-Pin_2)*%
X71120000Y-121920000D03*
%TO.P,J11,3,Pin_3*%
%TO.N,Net-(J11-Pin_3)*%
X73660000Y-121920000D03*
%TD*%
D18*
%TO.P,R11,2*%
%TO.N,Net-(U11-BOOT0)*%
X104544500Y-100838000D03*
%TO.P,R11,1*%
%TO.N,+3V3*%
X102719500Y-100838000D03*
%TD*%
%TO.P,R13,1*%
%TO.N,GND*%
X102719500Y-102362000D03*
%TO.P,R13,2*%
%TO.N,Net-(U11-BOOT0)*%
X104544500Y-102362000D03*
%TD*%
D13*
%TO.P,C21,2*%
%TO.N,+3V3*%
X113691500Y-83312000D03*
%TO.P,C21,1*%
%TO.N,GND*%
X115416500Y-83312000D03*
%TD*%
D26*
%TO.P,C11,1*%
%TO.N,Net-(U11-VCAP_2)*%
X117094000Y-94191000D03*
%TO.P,C11,2*%
%TO.N,GND*%
X117094000Y-96266000D03*
%TD*%
D27*
%TO.P,C12,1*%
%TO.N,Net-(U11-VCAP_1)*%
X113516500Y-81026000D03*
%TO.P,C12,2*%
%TO.N,GND*%
X115591500Y-81026000D03*
%TD*%
D28*
%TO.P,J25,S1,SHIELD*%
%TO.N,GND*%
X138060000Y-96270000D03*
D29*
X142240000Y-96270000D03*
D28*
X138060000Y-87630000D03*
D29*
X142240000Y-87630000D03*
%TD*%
D14*
%TO.P,J23,1,Pin_1*%
%TO.N,+5V*%
X129540000Y-88910000D03*
D15*
%TO.P,J23,2,Pin_2*%
%TO.N,/DM*%
X129540000Y-91450000D03*
%TO.P,J23,3,Pin_3*%
%TO.N,/DP*%
X129540000Y-93990000D03*
%TO.P,J23,4,Pin_4*%
%TO.N,GND*%
X129540000Y-96530000D03*
%TD*%
D30*
%TO.P,U11,64,VDD*%
%TO.N,+3V3*%
X104180000Y-95482500D03*
%TO.P,U11,63,VSS*%
%TO.N,GND*%
X104680000Y-95482500D03*
%TO.P,U11,62,PB9*%
%TO.N,unconnected-(U11-PB9-Pad62)*%
X105180000Y-95482500D03*
%TO.P,U11,61,PB8*%
%TO.N,unconnected-(U11-PB8-Pad61)*%
X105680000Y-95482500D03*
%TO.P,U11,60,BOOT0*%
%TO.N,Net-(U11-BOOT0)*%
X106180000Y-95482500D03*
%TO.P,U11,59,PB7*%
%TO.N,Net-(J24-Pin_2)*%
X106680000Y-95482500D03*
%TO.P,U11,58,PB6*%
%TO.N,Net-(J24-Pin_3)*%
X107180000Y-95482500D03*
%TO.P,U11,57,PB5*%
%TO.N,unconnected-(U11-PB5-Pad57)*%
X107680000Y-95482500D03*
%TO.P,U11,56,PB4*%
%TO.N,unconnected-(U11-PB4-Pad56)*%
X108180000Y-95482500D03*
%TO.P,U11,55,PB3*%
%TO.N,/SWO*%
X108680000Y-95482500D03*
%TO.P,U11,54,PD2*%
%TO.N,unconnected-(U11-PD2-Pad54)*%
X109180000Y-95482500D03*
%TO.P,U11,53,PC12*%
%TO.N,/SPI1_CS1*%
X109680000Y-95482500D03*
%TO.P,U11,52,PC11*%
%TO.N,/SPI1_CS0*%
X110180000Y-95482500D03*
%TO.P,U11,51,PC10*%
%TO.N,/SPI0_CS4*%
X110680000Y-95482500D03*
%TO.P,U11,50,PA15*%
%TO.N,unconnected-(U11-PA15-Pad50)*%
X111180000Y-95482500D03*
%TO.P,U11,49,PA14*%
%TO.N,/SWDCLK*%
X111680000Y-95482500D03*
D31*
%TO.P,U11,48,VDD*%
%TO.N,+3V3*%
X113605000Y-93557500D03*
%TO.P,U11,47,VCAP_2*%
%TO.N,Net-(U11-VCAP_2)*%
X113605000Y-93057500D03*
%TO.P,U11,46,PA13*%
%TO.N,/SWDIO*%
X113605000Y-92557500D03*
%TO.P,U11,45,PA12*%
%TO.N,/DP*%
X113605000Y-92057500D03*
%TO.P,U11,44,PA11*%
%TO.N,/DM*%
X113605000Y-91557500D03*
%TO.P,U11,43,PA10*%
%TO.N,unconnected-(U11-PA10-Pad43)*%
X113605000Y-91057500D03*
%TO.P,U11,42,PA9*%
%TO.N,Net-(U11-PA9)*%
X113605000Y-90557500D03*
%TO.P,U11,41,PA8*%
%TO.N,unconnected-(U11-PA8-Pad41)*%
X113605000Y-90057500D03*
%TO.P,U11,40,PC9*%
%TO.N,/SPI0_CS3*%
X113605000Y-89557500D03*
%TO.P,U11,39,PC8*%
%TO.N,/SPI0_CS2*%
X113605000Y-89057500D03*
%TO.P,U11,38,PC7*%
%TO.N,/SPI0_CS1*%
X113605000Y-88557500D03*
%TO.P,U11,37,PC6*%
%TO.N,/SPI0_CS0*%
X113605000Y-88057500D03*
%TO.P,U11,36,PB15*%
%TO.N,unconnected-(U11-PB15-Pad36)*%
X113605000Y-87557500D03*
%TO.P,U11,35,PB14*%
%TO.N,unconnected-(U11-PB14-Pad35)*%
X113605000Y-87057500D03*
%TO.P,U11,34,PB13*%
%TO.N,unconnected-(U11-PB13-Pad34)*%
X113605000Y-86557500D03*
%TO.P,U11,33,PB12*%
%TO.N,unconnected-(U11-PB12-Pad33)*%
X113605000Y-86057500D03*
D30*
%TO.P,U11,32,VDD*%
%TO.N,+3V3*%
X111680000Y-84132500D03*
%TO.P,U11,31,VCAP_1*%
%TO.N,Net-(U11-VCAP_1)*%
X111180000Y-84132500D03*
%TO.P,U11,30,PB11*%
%TO.N,unconnected-(U11-PB11-Pad30)*%
X110680000Y-84132500D03*
%TO.P,U11,29,PB10*%
%TO.N,/SPI1_SCLK*%
X110180000Y-84132500D03*
%TO.P,U11,28,PB2*%
%TO.N,unconnected-(U11-PB2-Pad28)*%
X109680000Y-84132500D03*
%TO.P,U11,27,PB1*%
%TO.N,unconnected-(U11-PB1-Pad27)*%
X109180000Y-84132500D03*
%TO.P,U11,26,PB0*%
%TO.N,unconnected-(U11-PB0-Pad26)*%
X108680000Y-84132500D03*
%TO.P,U11,25,PC5*%
%TO.N,unconnected-(U11-PC5-Pad25)*%
X108180000Y-84132500D03*
%TO.P,U11,24,PC4*%
%TO.N,unconnected-(U11-PC4-Pad24)*%
X107680000Y-84132500D03*
%TO.P,U11,23,PA7*%
%TO.N,/SPI0_MOSI*%
X107180000Y-84132500D03*
%TO.P,U11,22,PA6*%
%TO.N,/SPI0_MISO*%
X106680000Y-84132500D03*
%TO.P,U11,21,PA5*%
%TO.N,/SPI0_SCLK*%
X106180000Y-84132500D03*
%TO.P,U11,20,PA4*%
%TO.N,unconnected-(U11-PA4-Pad20)*%
X105680000Y-84132500D03*
%TO.P,U11,19,VDD*%
%TO.N,+3V3*%
X105180000Y-84132500D03*
%TO.P,U11,18,VSS*%
%TO.N,GND*%
X104680000Y-84132500D03*
%TO.P,U11,17,PA3*%
%TO.N,unconnected-(U11-PA3-Pad17)*%
X104180000Y-84132500D03*
D31*
%TO.P,U11,16,PA2*%
%TO.N,unconnected-(U11-PA2-Pad16)*%
X102255000Y-86057500D03*
%TO.P,U11,15,PA1*%
%TO.N,unconnected-(U11-PA1-Pad15)*%
X102255000Y-86557500D03*
%TO.P,U11,14,PA0*%
%TO.N,Net-(U11-PA0)*%
X102255000Y-87057500D03*
%TO.P,U11,13,VDDA*%
%TO.N,Net-(U11-VDDA)*%
X102255000Y-87557500D03*
%TO.P,U11,12,VSSA*%
%TO.N,GND*%
X102255000Y-88057500D03*
%TO.P,U11,11,PC3*%
%TO.N,/SPI1_MOSI*%
X102255000Y-88557500D03*
%TO.P,U11,10,PC2*%
%TO.N,/SPI1_MISO*%
X102255000Y-89057500D03*
%TO.P,U11,9,PC1*%
%TO.N,unconnected-(U11-PC1-Pad9)*%
X102255000Y-89557500D03*
%TO.P,U11,8,PC0*%
%TO.N,unconnected-(U11-PC0-Pad8)*%
X102255000Y-90057500D03*
%TO.P,U11,7,NRST*%
%TO.N,/nRST*%
X102255000Y-90557500D03*
%TO.P,U11,6,PH1*%
%TO.N,Net-(U11-PH1)*%
X102255000Y-91057500D03*
%TO.P,U11,5,PH0*%
%TO.N,Net-(U11-PH0)*%
X102255000Y-91557500D03*
%TO.P,U11,4,PC15*%
%TO.N,/SPI1_CS4*%
X102255000Y-92057500D03*
%TO.P,U11,3,PC14*%
%TO.N,/SPI1_CS3*%
X102255000Y-92557500D03*
%TO.P,U11,2,PC13*%
%TO.N,/SPI1_CS2*%
X102255000Y-93057500D03*
%TO.P,U11,1,VBAT*%
%TO.N,+3V3*%
X102255000Y-93557500D03*
%TD*%
D14*
%TO.P,J24,1,Pin_1*%
%TO.N,GND*%
X142240000Y-107950000D03*
D15*
%TO.P,J24,2,Pin_2*%
%TO.N,Net-(J24-Pin_2)*%
X142240000Y-105410000D03*
%TO.P,J24,3,Pin_3*%
%TO.N,Net-(J24-Pin_3)*%
X142240000Y-102870000D03*
%TO.P,J24,4,Pin_4*%
%TO.N,+3V3*%
X142240000Y-100330000D03*
%TD*%
D32*
%TO.N,GND*%
X137160000Y-106680000D03*
X112776000Y-102362000D03*
X106934000Y-106680000D03*
X111760000Y-106680000D03*
X93726000Y-108966000D03*
X125222000Y-96266000D03*
X115570000Y-72644000D03*
X98552000Y-72644000D03*
X83566000Y-72898000D03*
X79248000Y-107950000D03*
X92202000Y-100584000D03*
X136398000Y-108204000D03*
X125476000Y-107442000D03*
X112014000Y-77724000D03*
X121920000Y-77470000D03*
X125730000Y-85090000D03*
X76200000Y-96520000D03*
X76200000Y-86614000D03*
%TO.N,/SPI1_CS0*%
X103124000Y-106426000D03*
%TO.N,/SWO*%
X103632000Y-104648000D03*
%TO.N,/SPI1_CS1*%
X104648000Y-108204000D03*
%TO.N,/SPI1_CS0*%
X112268000Y-99314000D03*
%TO.N,/SPI1_CS1*%
X110490000Y-99060000D03*
%TO.N,/SWO*%
X108712000Y-97028000D03*
%TO.N,GND*%
X68072000Y-103124000D03*
X99314000Y-100076000D03*
%TO.N,/SPI1_SCLK*%
X119380000Y-102108000D03*
%TO.N,/SPI1_CS1*%
X88392000Y-107442000D03*
%TO.N,/SPI1_CS0*%
X72898000Y-107442000D03*
%TO.N,/SWDCLK*%
X112522000Y-95504000D03*
%TO.N,+3V3*%
X99822000Y-94742000D03*
X103378000Y-79502000D03*
%TO.N,/SWDIO*%
X109982000Y-91948000D03*
%TO.N,/SPI1_CS4*%
X106426000Y-92964000D03*
%TO.N,/SPI1_CS3*%
X118110000Y-106680000D03*
%TO.N,/SPI1_MOSI*%
X128016000Y-106680000D03*
X131572000Y-105664000D03*
%TO.N,/SPI1_SCLK*%
X119380000Y-106172000D03*
X109728000Y-81788000D03*
%TO.N,/SPI0_MOSI*%
X125984000Y-72390000D03*
X122682000Y-74168000D03*
X109982000Y-74168000D03*
%TO.N,/SPI0_CS3*%
X119888000Y-72644000D03*
%TO.N,/SPI0_MISO*%
X138176000Y-75184000D03*
X135382000Y-72644000D03*
X105664000Y-75946000D03*
%TO.N,/SPI0_CS1*%
X115824000Y-88646000D03*
X97028000Y-78994000D03*
%TO.N,+3V3*%
X66040000Y-100838000D03*
%TO.N,/SPI0_MOSI*%
X101346000Y-75946000D03*
%TO.N,/SPI0_CS1*%
X90424000Y-72390000D03*
%TO.N,/SPI0_MOSI*%
X89408000Y-75946000D03*
X89662000Y-73914000D03*
%TO.N,/SPI0_CS0*%
X108712000Y-88646000D03*
%TO.N,+3V3*%
X95250000Y-85598000D03*
X66040000Y-82550000D03*
%TO.N,Net-(D1-A)*%
X96774000Y-82550000D03*
%TO.N,/nRST*%
X93980000Y-86106000D03*
%TO.N,/SPI0_CS4*%
X122174000Y-97790000D03*
%TO.N,/SPI0_CS2*%
X110998000Y-89154000D03*
%TO.N,/SPI0_MISO*%
X108458000Y-75438000D03*
%TO.N,/SPI0_MOSI*%
X107696000Y-77978000D03*
%TO.N,/SPI0_SCLK*%
X103378000Y-75184000D03*
%TO.N,/SPI1_MOSI*%
X86106000Y-106172000D03*
X100838000Y-106172000D03*
X116078000Y-106172000D03*
X83312000Y-106172000D03*
%TO.N,/SPI1_CS2*%
X104648000Y-93218000D03*
%TO.N,/SPI1_MOSI*%
X103886000Y-88900000D03*
%TO.N,/SPI1_MISO*%
X100330000Y-88646000D03*
%TO.N,GND*%
X128778000Y-110998000D03*
X113792000Y-110998000D03*
X97282000Y-110998000D03*
X82550000Y-111252000D03*
X69088000Y-111252000D03*
X79756000Y-69596000D03*
X94742000Y-69596000D03*
X109982000Y-69596000D03*
X125222000Y-69596000D03*
X139192000Y-69596000D03*
X134366000Y-77724000D03*
X133350000Y-77724000D03*
%TO.N,+3V3*%
X113284000Y-113030000D03*
X97536000Y-113030000D03*
X82804000Y-113030000D03*
X67564000Y-113030000D03*
X79756000Y-67564000D03*
X95250000Y-67564000D03*
X110490000Y-67564000D03*
X125730000Y-67564000D03*
X140970000Y-67564000D03*
X139954000Y-80010000D03*
X138176000Y-80010000D03*
X124968000Y-113030000D03*
%TO.N,/DM*%
X133858000Y-93218000D03*
%TO.N,+5V*%
X134874000Y-94996000D03*
D33*
%TO.N,Net-(J25-CC1)*%
X139446000Y-93218000D03*
%TO.N,Net-(J25-CC2)*%
X139446000Y-90170000D03*
%TD*%
D34*
%TO.N,Net-(U11-PA9)*%
X120262500Y-90557500D02*
X121158000Y-89662000D01*
X113605000Y-90557500D02*
X120262500Y-90557500D01*
%TO.N,/SPI1_MOSI*%
X114300000Y-104394000D02*
X116078000Y-106172000D01*
X106680000Y-104394000D02*
X114300000Y-104394000D01*
X103632000Y-107442000D02*
X106680000Y-104394000D01*
X102108000Y-107442000D02*
X103632000Y-107442000D01*
X100838000Y-106172000D02*
X102108000Y-107442000D01*
%TO.N,/SPI1_CS3*%
X118110000Y-105410000D02*
X118110000Y-106680000D01*
X116078000Y-103378000D02*
X118110000Y-105410000D01*
X101092000Y-103378000D02*
X116078000Y-103378000D01*
X99974500Y-92557500D02*
X98298000Y-94234000D01*
X98298000Y-100584000D02*
X101092000Y-103378000D01*
X102255000Y-92557500D02*
X99974500Y-92557500D01*
X98298000Y-94234000D02*
X98298000Y-100584000D01*
%TO.N,/SPI1_CS1*%
X101346000Y-108204000D02*
X104648000Y-108204000D01*
X100711000Y-107569000D02*
X101346000Y-108204000D01*
X88519000Y-107569000D02*
X100711000Y-107569000D01*
X88392000Y-107442000D02*
X88519000Y-107569000D01*
%TO.N,/SPI1_CS0*%
X101600000Y-105156000D02*
X102870000Y-106426000D01*
X75184000Y-105156000D02*
X101600000Y-105156000D01*
X72898000Y-107442000D02*
X75184000Y-105156000D01*
%TO.N,/SWO*%
X103124000Y-104140000D02*
X103632000Y-104648000D01*
X100838000Y-104140000D02*
X103124000Y-104140000D01*
D35*
%TO.N,GND*%
X125222000Y-96266000D02*
X129276000Y-96266000D01*
X115591500Y-72622500D02*
X115591500Y-70104000D01*
X115570000Y-72644000D02*
X115591500Y-72622500D01*
X115591500Y-72665500D02*
X115570000Y-72644000D01*
D36*
X136144000Y-107950000D02*
X132334000Y-107950000D01*
X136398000Y-108204000D02*
X136144000Y-107950000D01*
X136652000Y-107950000D02*
X136398000Y-108204000D01*
D34*
%TO.N,/SPI1_MOSI*%
X83312000Y-106172000D02*
X100838000Y-106172000D01*
%TO.N,/SWO*%
X95250000Y-98552000D02*
X100838000Y-104140000D01*
X81280000Y-98552000D02*
X95250000Y-98552000D01*
X80264000Y-91948000D02*
X80264000Y-97536000D01*
X80772000Y-91440000D02*
X80264000Y-91948000D01*
X80264000Y-97536000D02*
X81280000Y-98552000D01*
X82550000Y-91440000D02*
X80772000Y-91440000D01*
X108680000Y-96996000D02*
X108712000Y-97028000D01*
X108680000Y-95482500D02*
X108680000Y-96996000D01*
%TO.N,/SPI1_CS1*%
X109680000Y-98250000D02*
X110490000Y-99060000D01*
X109680000Y-95482500D02*
X109680000Y-98250000D01*
%TO.N,/SPI1_CS0*%
X110180000Y-97226000D02*
X112268000Y-99314000D01*
X110180000Y-95482500D02*
X110180000Y-97226000D01*
%TO.N,GND*%
X103378000Y-101854000D02*
X103227500Y-101854000D01*
X103632000Y-101600000D02*
X103632000Y-101854000D01*
X103632000Y-101600000D02*
X103378000Y-101854000D01*
X103227500Y-101854000D02*
X102719500Y-102362000D01*
X103632000Y-100023000D02*
X103632000Y-101600000D01*
%TO.N,Net-(U11-BOOT0)*%
X104544500Y-100838000D02*
X104544500Y-102362000D01*
%TO.N,GND*%
X100330000Y-100076000D02*
X99314000Y-100076000D01*
%TO.N,Net-(J24-Pin_3)*%
X107180000Y-97274000D02*
X107180000Y-95482500D01*
X110490000Y-100584000D02*
X107180000Y-97274000D01*
X138684000Y-102870000D02*
X136398000Y-100584000D01*
X136398000Y-100584000D02*
X110490000Y-100584000D01*
X142240000Y-102870000D02*
X138684000Y-102870000D01*
%TO.N,Net-(J24-Pin_2)*%
X142240000Y-105410000D02*
X140208000Y-105410000D01*
X135890000Y-101092000D02*
X140208000Y-105410000D01*
X110236000Y-101092000D02*
X135890000Y-101092000D01*
X106680000Y-97536000D02*
X110236000Y-101092000D01*
X106680000Y-95482500D02*
X106680000Y-97536000D01*
%TO.N,/SPI1_SCLK*%
X119380000Y-106172000D02*
X119380000Y-102108000D01*
%TO.N,/SPI0_CS4*%
X112141908Y-97790000D02*
X122174000Y-97790000D01*
X110680000Y-96328092D02*
X112141908Y-97790000D01*
X110680000Y-95482500D02*
X110680000Y-96328092D01*
%TO.N,Net-(U11-BOOT0)*%
X106180000Y-98044000D02*
X106180000Y-98663500D01*
X106180000Y-98044000D02*
X106180000Y-95482500D01*
X106180000Y-98798000D02*
X106180000Y-98044000D01*
D35*
%TO.N,GND*%
X129276000Y-96266000D02*
X129540000Y-96530000D01*
X117094000Y-96266000D02*
X125222000Y-96266000D01*
X133350000Y-83058000D02*
X133350000Y-77724000D01*
X137922000Y-87630000D02*
X133350000Y-83058000D01*
X142240000Y-87630000D02*
X137922000Y-87630000D01*
D34*
%TO.N,Net-(U11-PA0)*%
X101027500Y-87057500D02*
X99972500Y-86002500D01*
X102255000Y-87057500D02*
X101027500Y-87057500D01*
D35*
%TO.N,GND*%
X96012000Y-84582000D02*
X95250000Y-83820000D01*
X96673500Y-84582000D02*
X96012000Y-84582000D01*
X90932000Y-81026000D02*
X95250000Y-81026000D01*
X95250000Y-81026000D02*
X102284884Y-81026000D01*
X95250000Y-83820000D02*
X95250000Y-81026000D01*
X90831500Y-81126500D02*
X90932000Y-81026000D01*
X90831500Y-86106000D02*
X90831500Y-81126500D01*
X87630000Y-76454000D02*
X87630000Y-69596000D01*
X87630000Y-77724000D02*
X87630000Y-76454000D01*
X90932000Y-81026000D02*
X87630000Y-77724000D01*
X102261500Y-81026000D02*
X90932000Y-81026000D01*
D34*
%TO.N,/SWDCLK*%
X112522000Y-95504000D02*
X112500500Y-95482500D01*
X111680000Y-95482500D02*
X112500500Y-95482500D01*
D35*
%TO.N,+3V3*%
X100330000Y-95250000D02*
X99822000Y-94742000D01*
X100330000Y-96065000D02*
X100330000Y-95250000D01*
D34*
%TO.N,GND*%
X104595000Y-99060000D02*
X103632000Y-100023000D01*
X102108000Y-101854000D02*
X103632000Y-101854000D01*
%TO.N,+3V3*%
X102870000Y-100687500D02*
X102719500Y-100838000D01*
X102870000Y-99060000D02*
X102870000Y-100687500D01*
%TO.N,Net-(U11-BOOT0)*%
X106180000Y-99202500D02*
X106180000Y-98798000D01*
X104544500Y-100838000D02*
X106180000Y-99202500D01*
%TO.N,GND*%
X100330000Y-100076000D02*
X102108000Y-101854000D01*
X100330000Y-97790000D02*
X100330000Y-100076000D01*
%TO.N,+3V3*%
X103632000Y-97282000D02*
X103124000Y-97790000D01*
X103986500Y-80110500D02*
X103378000Y-79502000D01*
X103986500Y-81026000D02*
X103986500Y-80110500D01*
X100330000Y-95482500D02*
X102255000Y-93557500D01*
X100330000Y-96065000D02*
X100330000Y-95482500D01*
X104180000Y-95482500D02*
X102255000Y-93557500D01*
X105410000Y-88900000D02*
X105410000Y-85852000D01*
X113605000Y-93557500D02*
X110067500Y-93557500D01*
X110067500Y-93557500D02*
X105410000Y-88900000D01*
%TO.N,/SWDIO*%
X110591500Y-92557500D02*
X109982000Y-91948000D01*
X113605000Y-92557500D02*
X110591500Y-92557500D01*
%TO.N,/SPI1_CS4*%
X105519500Y-92057500D02*
X106426000Y-92964000D01*
X102255000Y-92057500D02*
X105519500Y-92057500D01*
%TO.N,/SPI1_MOSI*%
X129032000Y-105664000D02*
X128016000Y-106680000D01*
X131572000Y-105664000D02*
X129032000Y-105664000D01*
%TO.N,/SPI1_SCLK*%
X110180000Y-82240000D02*
X109728000Y-81788000D01*
X110180000Y-84132500D02*
X110180000Y-82240000D01*
%TO.N,+3V3*%
X105410000Y-85852000D02*
X105180000Y-85622000D01*
X105180000Y-85622000D02*
X105180000Y-84132500D01*
X111506000Y-85852000D02*
X105410000Y-85852000D01*
X111680000Y-85678000D02*
X111506000Y-85852000D01*
X111680000Y-84132500D02*
X111680000Y-85678000D01*
%TO.N,/SPI0_MOSI*%
X109474000Y-74676000D02*
X109474000Y-76200000D01*
X109982000Y-74168000D02*
X109474000Y-74676000D01*
X107696000Y-77978000D02*
X109474000Y-76200000D01*
X109982000Y-74168000D02*
X107950000Y-74168000D01*
X107950000Y-74168000D02*
X108712000Y-74168000D01*
X102362000Y-74168000D02*
X107950000Y-74168000D01*
X122682000Y-74168000D02*
X124206000Y-74168000D01*
X124206000Y-74168000D02*
X125984000Y-72390000D01*
%TO.N,/SPI0_CS3*%
X118491000Y-74041000D02*
X119888000Y-72644000D01*
X118491000Y-88519000D02*
X118491000Y-74041000D01*
X117452500Y-89557500D02*
X118491000Y-88519000D01*
X113605000Y-89557500D02*
X117452500Y-89557500D01*
%TO.N,/SPI0_MISO*%
X137922000Y-75184000D02*
X135382000Y-72644000D01*
X138176000Y-75184000D02*
X137922000Y-75184000D01*
D35*
%TO.N,GND*%
X115591500Y-81026000D02*
X115591500Y-72665500D01*
D34*
X115591500Y-70104000D02*
X115591500Y-69871500D01*
D35*
X90831500Y-86106000D02*
X90831500Y-88545500D01*
X92456000Y-90170000D02*
X90831500Y-88545500D01*
X93980000Y-90170000D02*
X92456000Y-90170000D01*
X93980000Y-92255000D02*
X93980000Y-90170000D01*
X85090000Y-91440000D02*
X85090000Y-93980000D01*
X85905000Y-92255000D02*
X85090000Y-91440000D01*
X93980000Y-92255000D02*
X85905000Y-92255000D01*
D34*
%TO.N,/SPI0_MISO*%
X107950000Y-75946000D02*
X108458000Y-75438000D01*
X105664000Y-75946000D02*
X107950000Y-75946000D01*
X105664000Y-76200000D02*
X105664000Y-75946000D01*
X106680000Y-77216000D02*
X105664000Y-76200000D01*
%TO.N,/SPI0_MOSI*%
X101473000Y-75057000D02*
X102362000Y-74168000D01*
X101346000Y-75946000D02*
X101473000Y-75819000D01*
X101473000Y-75819000D02*
X101473000Y-75057000D01*
%TO.N,/SPI0_SCLK*%
X106180000Y-77986000D02*
X106180000Y-84132500D01*
X103378000Y-75184000D02*
X106180000Y-77986000D01*
%TO.N,/SPI0_CS1*%
X115824000Y-88646000D02*
X115735500Y-88557500D01*
X113605000Y-88557500D02*
X115735500Y-88557500D01*
D36*
%TO.N,GND*%
X70358000Y-69596000D02*
X87630000Y-69596000D01*
D34*
X95504000Y-81026000D02*
X90932000Y-81026000D01*
X95504000Y-81026000D02*
X94234000Y-81026000D01*
X102261500Y-81026000D02*
X95504000Y-81026000D01*
D36*
X87630000Y-69596000D02*
X95504000Y-69596000D01*
D34*
%TO.N,/SPI0_CS1*%
X97028000Y-78994000D02*
X97282000Y-78994000D01*
X90424000Y-72390000D02*
X97028000Y-78994000D01*
%TO.N,/SPI0_MOSI*%
X89662000Y-75692000D02*
X89408000Y-75946000D01*
X89662000Y-73914000D02*
X89662000Y-75692000D01*
%TO.N,/SPI0_CS0*%
X109300500Y-88057500D02*
X108712000Y-88646000D01*
X113605000Y-88057500D02*
X109300500Y-88057500D01*
%TO.N,GND*%
X102362000Y-81026000D02*
X102261500Y-81026000D01*
X103632000Y-82296000D02*
X102362000Y-81026000D01*
X104140000Y-82296000D02*
X103632000Y-82296000D01*
X104680000Y-82836000D02*
X104140000Y-82296000D01*
X104680000Y-84132500D02*
X104680000Y-82836000D01*
X104680000Y-86582000D02*
X104680000Y-84132500D01*
X103204500Y-88057500D02*
X104680000Y-86582000D01*
X102255000Y-88057500D02*
X103204500Y-88057500D01*
%TO.N,/nRST*%
X92556500Y-86106000D02*
X93980000Y-86106000D01*
%TO.N,+3V3*%
X96012000Y-86360000D02*
X95250000Y-85598000D01*
X96520000Y-86360000D02*
X96012000Y-86360000D01*
%TO.N,Net-(D1-A)*%
X98147500Y-82550000D02*
X96774000Y-82550000D01*
D36*
%TO.N,GND*%
X101854000Y-69596000D02*
X115316000Y-69596000D01*
D34*
X102261500Y-70003500D02*
X101854000Y-69596000D01*
D36*
X95504000Y-69596000D02*
X101854000Y-69596000D01*
D34*
X115591500Y-69871500D02*
X115316000Y-69596000D01*
D36*
X115316000Y-69596000D02*
X139192000Y-69596000D01*
D34*
X104680000Y-98975000D02*
X104595000Y-99060000D01*
X104680000Y-95482500D02*
X104680000Y-98975000D01*
%TO.N,+3V3*%
X102870000Y-98552000D02*
X102870000Y-99060000D01*
X103124000Y-98298000D02*
X102870000Y-98552000D01*
X103124000Y-97790000D02*
X103124000Y-98298000D01*
X104180000Y-96734000D02*
X103632000Y-97282000D01*
X104180000Y-95482500D02*
X104180000Y-96734000D01*
%TO.N,Net-(U11-BOOT0)*%
X106172000Y-98806000D02*
X106180000Y-98798000D01*
X106172000Y-99060000D02*
X106172000Y-98806000D01*
%TO.N,Net-(U11-VCAP_2)*%
X115960500Y-93057500D02*
X117094000Y-94191000D01*
X113605000Y-93057500D02*
X115960500Y-93057500D01*
%TO.N,+3V3*%
X105180000Y-82219500D02*
X103986500Y-81026000D01*
X105180000Y-84132500D02*
X105180000Y-82219500D01*
%TO.N,Net-(U11-VDDA)*%
X98398500Y-86306500D02*
X98345000Y-86360000D01*
X98398500Y-84582000D02*
X98398500Y-86306500D01*
X102236500Y-87576000D02*
X102255000Y-87557500D01*
X100384000Y-87576000D02*
X102236500Y-87576000D01*
X100330000Y-87630000D02*
X100384000Y-87576000D01*
X99060000Y-86360000D02*
X100330000Y-87630000D01*
X98345000Y-86360000D02*
X99060000Y-86360000D01*
%TO.N,Net-(U11-PA0)*%
X99972500Y-82550000D02*
X99972500Y-86002500D01*
%TO.N,GND*%
X115416500Y-81201000D02*
X115591500Y-81026000D01*
X115416500Y-83312000D02*
X115416500Y-81201000D01*
%TO.N,+3V3*%
X112871000Y-84132500D02*
X113691500Y-83312000D01*
X111680000Y-84132500D02*
X112871000Y-84132500D01*
%TO.N,Net-(U11-VCAP_1)*%
X112522000Y-81026000D02*
X113516500Y-81026000D01*
X111180000Y-82368000D02*
X112522000Y-81026000D01*
X111180000Y-84132500D02*
X111180000Y-82368000D01*
%TO.N,/SPI0_CS2*%
X111094500Y-89057500D02*
X110998000Y-89154000D01*
X113605000Y-89057500D02*
X111094500Y-89057500D01*
%TO.N,/SPI0_MISO*%
X106680000Y-84132500D02*
X106680000Y-77216000D01*
%TO.N,/SPI0_MOSI*%
X107180000Y-78494000D02*
X107696000Y-77978000D01*
X107180000Y-84132500D02*
X107180000Y-78494000D01*
%TO.N,/SPI1_MOSI*%
X103543500Y-88557500D02*
X103886000Y-88900000D01*
X102255000Y-88557500D02*
X103543500Y-88557500D01*
%TO.N,/SPI1_CS2*%
X104487500Y-93057500D02*
X104648000Y-93218000D01*
X102255000Y-93057500D02*
X104487500Y-93057500D01*
%TO.N,/SPI1_MISO*%
X100330000Y-88646000D02*
X100330000Y-88646000D01*
X100584000Y-88646000D02*
X100330000Y-88646000D01*
X100584000Y-88900000D02*
X100584000Y-88646000D01*
X100741500Y-89057500D02*
X100584000Y-88900000D01*
X102255000Y-89057500D02*
X100741500Y-89057500D01*
%TO.N,/nRST*%
X100717500Y-90557500D02*
X97536000Y-87376000D01*
X102255000Y-90557500D02*
X100717500Y-90557500D01*
X95504000Y-87376000D02*
X97536000Y-87376000D01*
X94234000Y-86106000D02*
X95504000Y-87376000D01*
X94080500Y-86106000D02*
X94234000Y-86106000D01*
%TO.N,GND*%
X93218000Y-90170000D02*
X93980000Y-90170000D01*
%TO.N,Net-(U11-PH1)*%
X96520000Y-88900000D02*
X96065000Y-88445000D01*
X96520000Y-89080000D02*
X96520000Y-88900000D01*
X96065000Y-88445000D02*
X93980000Y-88445000D01*
%TO.N,Net-(U11-PH0)*%
X96520000Y-93980000D02*
X93980000Y-93980000D01*
X98942500Y-91557500D02*
X96520000Y-93980000D01*
X102255000Y-91557500D02*
X98942500Y-91557500D01*
%TO.N,Net-(U11-PH1)*%
X98497500Y-91057500D02*
X96520000Y-89080000D01*
X102255000Y-91057500D02*
X98497500Y-91057500D01*
D35*
%TO.N,GND*%
X138060000Y-96270000D02*
X142240000Y-96270000D01*
X138060000Y-87630000D02*
X142240000Y-87630000D01*
D36*
X134366000Y-77724000D02*
X133350000Y-77724000D01*
X136906000Y-77724000D02*
X134366000Y-77724000D01*
X139192000Y-77216000D02*
X138684000Y-77724000D01*
X139954000Y-76454000D02*
X138938000Y-77470000D01*
X139954000Y-70358000D02*
X139954000Y-76454000D01*
X139192000Y-69596000D02*
X139954000Y-70358000D01*
X138938000Y-77470000D02*
X139192000Y-77216000D01*
X138684000Y-77724000D02*
X136906000Y-77724000D01*
X68072000Y-71882000D02*
X70358000Y-69596000D01*
X68072000Y-78994000D02*
X68072000Y-71882000D01*
X68072000Y-102870000D02*
X68072000Y-78994000D01*
X68072000Y-106680000D02*
X68072000Y-102870000D01*
X68580000Y-110998000D02*
X68072000Y-110490000D01*
X68072000Y-110490000D02*
X68072000Y-106680000D01*
X124968000Y-110998000D02*
X68580000Y-110998000D01*
X129286000Y-110998000D02*
X124968000Y-110998000D01*
X132334000Y-107950000D02*
X129286000Y-110998000D01*
X142240000Y-107950000D02*
X136652000Y-107950000D01*
%TO.N,+3V3*%
X79756000Y-67564000D02*
X69342000Y-67564000D01*
X95250000Y-67564000D02*
X79756000Y-67564000D01*
X110490000Y-67564000D02*
X95250000Y-67564000D01*
X125730000Y-67564000D02*
X110490000Y-67564000D01*
X139954000Y-80010000D02*
X140208000Y-80010000D01*
X67310000Y-113030000D02*
X124968000Y-113030000D01*
X66040000Y-70866000D02*
X66040000Y-111760000D01*
X69342000Y-67564000D02*
X66040000Y-70866000D01*
X142240000Y-69088000D02*
X140716000Y-67564000D01*
X140716000Y-67564000D02*
X125730000Y-67564000D01*
X66040000Y-111760000D02*
X67310000Y-113030000D01*
X140208000Y-80010000D02*
X142240000Y-77978000D01*
X138176000Y-80010000D02*
X139954000Y-80010000D01*
X142240000Y-77978000D02*
X142240000Y-69088000D01*
D37*
%TO.N,/DM*%
X128270000Y-91557500D02*
X132197500Y-91557500D01*
X128270000Y-91557500D02*
X129432500Y-91557500D01*
X113605000Y-91557500D02*
X128270000Y-91557500D01*
X132197500Y-91557500D02*
X133858000Y-93218000D01*
%TO.N,/DP*%
X127607500Y-92057500D02*
X129540000Y-93990000D01*
X113605000Y-92057500D02*
X127607500Y-92057500D01*
%TO.N,/DM*%
X129432500Y-91557500D02*
X129540000Y-91450000D01*
D38*
%TO.N,+5V*%
X132578000Y-88910000D02*
X129540000Y-88910000D01*
X132588000Y-88900000D02*
X132578000Y-88910000D01*
X134874000Y-91186000D02*
X132588000Y-88900000D01*
X134874000Y-94996000D02*
X134874000Y-91186000D01*
D34*
%TO.N,Net-(J25-CC1)*%
X141073500Y-93218000D02*
X139446000Y-93218000D01*
%TO.N,Net-(J25-CC2)*%
X140970000Y-90170000D02*
X139446000Y-90170000D01*
D35*
%TO.N,GND*%
X142795000Y-95715000D02*
X142240000Y-96270000D01*
X142795000Y-90170000D02*
X142795000Y-95715000D01*
X142795000Y-88185000D02*
X142240000Y-87630000D01*
X142795000Y-90170000D02*
X142795000Y-88185000D01*
%TD*%
%TA.AperFunction,Conductor*%
%TO.N,GND*%
G36*
X143640405Y-67055598D02*
G01*
X143707378Y-67075500D01*
X143752961Y-67128452D01*
X143764000Y-67179597D01*
X143764000Y-87107057D01*
X143744315Y-87174096D01*
X143691511Y-87219851D01*
X143622353Y-87229795D01*
X143558797Y-87200770D01*
X143530182Y-87161091D01*
X143529059Y-87161692D01*
X143526185Y-87156315D01*
X143416751Y-86992537D01*
X143416748Y-86992533D01*
X143277466Y-86853251D01*
X143277462Y-86853248D01*
X143113684Y-86743814D01*
X143113671Y-86743807D01*
X142931693Y-86668430D01*
X142931681Y-86668427D01*
X142738495Y-86630000D01*
X142490000Y-86630000D01*
X142490000Y-87330000D01*
X141990000Y-87330000D01*
X141990000Y-86630000D01*
X141741504Y-86630000D01*
X141548318Y-86668427D01*
X141548306Y-86668430D01*
X141366328Y-86743807D01*
X141366315Y-86743814D01*
X141202537Y-86853248D01*
X141202533Y-86853251D01*
X141063251Y-86992533D01*
X141063248Y-86992537D01*
X140953814Y-87156315D01*
X140953807Y-87156328D01*
X140878430Y-87338307D01*
X140878430Y-87338309D01*
X140870138Y-87380000D01*
X141673012Y-87380000D01*
X141655795Y-87389940D01*
X141599940Y-87445795D01*
X141560444Y-87514204D01*
X141540000Y-87590504D01*
X141540000Y-87669496D01*
X141560444Y-87745796D01*
X141599940Y-87814205D01*
X141655795Y-87870060D01*
X141673012Y-87880000D01*
X140870138Y-87880000D01*
X140878430Y-87921690D01*
X140878430Y-87921692D01*
X140953807Y-88103671D01*
X140953814Y-88103684D01*
X141063248Y-88267462D01*
X141063251Y-88267466D01*
X141202533Y-88406748D01*
X141202537Y-88406751D01*
X141366315Y-88516185D01*
X141366328Y-88516192D01*
X141548306Y-88591569D01*
X141548318Y-88591572D01*
X141741504Y-88629999D01*
X141741508Y-88630000D01*
X141990000Y-88630000D01*
X141990000Y-87930000D01*
X142490000Y-87930000D01*
X142490000Y-88630000D01*
X142738492Y-88630000D01*
X142738495Y-88629999D01*
X142931681Y-88591572D01*
X142931693Y-88591569D01*
X143113671Y-88516192D01*
X143113684Y-88516185D01*
X143277462Y-88406751D01*
X143277466Y-88406748D01*
X143416748Y-88267466D01*
X143416751Y-88267462D01*
X143526185Y-88103684D01*
X143529059Y-88098308D01*
X143530573Y-88099117D01*
X143569279Y-88051087D01*
X143635573Y-88029021D01*
X143703272Y-88046299D01*
X143750883Y-88097436D01*
X143764000Y-88152942D01*
X143764000Y-89309155D01*
X143744315Y-89376194D01*
X143691511Y-89421949D01*
X143622353Y-89431893D01*
X143558797Y-89402868D01*
X143552319Y-89396836D01*
X143505538Y-89350055D01*
X143505534Y-89350052D01*
X143358811Y-89259551D01*
X143358800Y-89259546D01*
X143195152Y-89205319D01*
X143094154Y-89195000D01*
X143045000Y-89195000D01*
X143045000Y-91144999D01*
X143094140Y-91144999D01*
X143094154Y-91144998D01*
X143195152Y-91134680D01*
X143358800Y-91080453D01*
X143358811Y-91080448D01*
X143505534Y-90989947D01*
X143505538Y-90989944D01*
X143552319Y-90943164D01*
X143613642Y-90909679D01*
X143683334Y-90914663D01*
X143739267Y-90956535D01*
X143763684Y-91021999D01*
X143764000Y-91030845D01*
X143764000Y-92271461D01*
X143744315Y-92338500D01*
X143691511Y-92384255D01*
X143622353Y-92394199D01*
X143574903Y-92377000D01*
X143462305Y-92307548D01*
X143462300Y-92307546D01*
X143298652Y-92253319D01*
X143197654Y-92243000D01*
X143148500Y-92243000D01*
X143148500Y-94192999D01*
X143197640Y-94192999D01*
X143197654Y-94192998D01*
X143298652Y-94182680D01*
X143462300Y-94128453D01*
X143462307Y-94128450D01*
X143574902Y-94059000D01*
X143642295Y-94040559D01*
X143708958Y-94061481D01*
X143753728Y-94115123D01*
X143764000Y-94164538D01*
X143764000Y-95747057D01*
X143744315Y-95814096D01*
X143691511Y-95859851D01*
X143622353Y-95869795D01*
X143558797Y-95840770D01*
X143530182Y-95801091D01*
X143529059Y-95801692D01*
X143526185Y-95796315D01*
X143416751Y-95632537D01*
X143416748Y-95632533D01*
X143277466Y-95493251D01*
X143277462Y-95493248D01*
X143113684Y-95383814D01*
X143113671Y-95383807D01*
X142931693Y-95308430D01*
X142931681Y-95308427D01*
X142738495Y-95270000D01*
X142490000Y-95270000D01*
X142490000Y-95970000D01*
X141990000Y-95970000D01*
X141990000Y-95270000D01*
X141741504Y-95270000D01*
X141548318Y-95308427D01*
X141548306Y-95308430D01*
X141366328Y-95383807D01*
X141366315Y-95383814D01*
X141202537Y-95493248D01*
X141202533Y-95493251D01*
X141063251Y-95632533D01*
X141063248Y-95632537D01*
X140953814Y-95796315D01*
X140953807Y-95796328D01*
X140878430Y-95978307D01*
X140878430Y-95978309D01*
X140870138Y-96020000D01*
X141673012Y-96020000D01*
X141655795Y-96029940D01*
X141599940Y-96085795D01*
X141560444Y-96154204D01*
X141540000Y-96230504D01*
X141540000Y-96309496D01*
X141560444Y-96385796D01*
X141599940Y-96454205D01*
X141655795Y-96510060D01*
X141673012Y-96520000D01*
X140870138Y-96520000D01*
X140878430Y-96561690D01*
X140878430Y-96561692D01*
X140953807Y-96743671D01*
X140953814Y-96743684D01*
X141063248Y-96907462D01*
X141063251Y-96907466D01*
X141202533Y-97046748D01*
X141202537Y-97046751D01*
X141366315Y-97156185D01*
X141366328Y-97156192D01*
X141548306Y-97231569D01*
X141548318Y-97231572D01*
X141741504Y-97269999D01*
X141741508Y-97270000D01*
X141990000Y-97270000D01*
X141990000Y-96570000D01*
X142490000Y-96570000D01*
X142490000Y-97270000D01*
X142738492Y-97270000D01*
X142738495Y-97269999D01*
X142931681Y-97231572D01*
X142931693Y-97231569D01*
X143113671Y-97156192D01*
X143113684Y-97156185D01*
X143277462Y-97046751D01*
X143277466Y-97046748D01*
X143416748Y-96907466D01*
X143416751Y-96907462D01*
X143526185Y-96743684D01*
X143529059Y-96738308D01*
X143530573Y-96739117D01*
X143569279Y-96691087D01*
X143635573Y-96669021D01*
X143703272Y-96686299D01*
X143750883Y-96737436D01*
X143764000Y-96792942D01*
X143764000Y-99857837D01*
X143744315Y-99924876D01*
X143691511Y-99970631D01*
X143622353Y-99980575D01*
X143558797Y-99951550D01*
X143521023Y-99892772D01*
X143520225Y-99889930D01*
X143513905Y-99866344D01*
X143513904Y-99866343D01*
X143513903Y-99866337D01*
X143414035Y-99652171D01*
X143372055Y-99592216D01*
X143278494Y-99458597D01*
X143111402Y-99291506D01*
X143111395Y-99291501D01*
X142917834Y-99155967D01*
X142917830Y-99155965D01*
X142885088Y-99140697D01*
X142703663Y-99056097D01*
X142703659Y-99056096D01*
X142703655Y-99056094D01*
X142475413Y-98994938D01*
X142475403Y-98994936D01*
X142240001Y-98974341D01*
X142239999Y-98974341D01*
X142004596Y-98994936D01*
X142004586Y-98994938D01*
X141776344Y-99056094D01*
X141776335Y-99056098D01*
X141562171Y-99155964D01*
X141562169Y-99155965D01*
X141368597Y-99291505D01*
X141201505Y-99458597D01*
X141065965Y-99652169D01*
X141065964Y-99652171D01*
X140966098Y-99866335D01*
X140966094Y-99866344D01*
X140904938Y-100094586D01*
X140904936Y-100094596D01*
X140884341Y-100329999D01*
X140884341Y-100330000D01*
X140904936Y-100565403D01*
X140904938Y-100565413D01*
X140966094Y-100793655D01*
X140966096Y-100793659D01*
X140966097Y-100793663D01*
X141065965Y-101007830D01*
X141065967Y-101007834D01*
X141201501Y-101201395D01*
X141201506Y-101201402D01*
X141368597Y-101368493D01*
X141368603Y-101368498D01*
X141554158Y-101498425D01*
X141597783Y-101553002D01*
X141604977Y-101622500D01*
X141573454Y-101684855D01*
X141554158Y-101701575D01*
X141368597Y-101831505D01*
X141201505Y-101998597D01*
X141067749Y-102189623D01*
X141013172Y-102233248D01*
X140966174Y-102242500D01*
X138995281Y-102242500D01*
X138928242Y-102222815D01*
X138907600Y-102206181D01*
X136798013Y-100096593D01*
X136798007Y-100096588D01*
X136779338Y-100084114D01*
X136695239Y-100027920D01*
X136695226Y-100027913D01*
X136661785Y-100014062D01*
X136581035Y-99980614D01*
X136581027Y-99980612D01*
X136459807Y-99956500D01*
X136459803Y-99956500D01*
X113151635Y-99956500D01*
X113084596Y-99936815D01*
X113038841Y-99884011D01*
X113028897Y-99814853D01*
X113044247Y-99770501D01*
X113044524Y-99770019D01*
X113095179Y-99682284D01*
X113153674Y-99502256D01*
X113173460Y-99314000D01*
X113153674Y-99125744D01*
X113095179Y-98945716D01*
X113000533Y-98781784D01*
X112873871Y-98641112D01*
X112873870Y-98641111D01*
X112869042Y-98636764D01*
X112870067Y-98635625D01*
X112832177Y-98586487D01*
X112826198Y-98516874D01*
X112858804Y-98455079D01*
X112919643Y-98420722D01*
X112947728Y-98417500D01*
X121472053Y-98417500D01*
X121539092Y-98437185D01*
X121564199Y-98458523D01*
X121568129Y-98462888D01*
X121568132Y-98462891D01*
X121568135Y-98462893D01*
X121721265Y-98574148D01*
X121721270Y-98574151D01*
X121894192Y-98651142D01*
X121894197Y-98651144D01*
X122079354Y-98690500D01*
X122079355Y-98690500D01*
X122268644Y-98690500D01*
X122268646Y-98690500D01*
X122453803Y-98651144D01*
X122626730Y-98574151D01*
X122779871Y-98462888D01*
X122906533Y-98322216D01*
X123001179Y-98158284D01*
X123059674Y-97978256D01*
X123079460Y-97790000D01*
X123059674Y-97601744D01*
X123001179Y-97421716D01*
X122906533Y-97257784D01*
X122779871Y-97117112D01*
X122779870Y-97117111D01*
X122626734Y-97005851D01*
X122626729Y-97005848D01*
X122453807Y-96928857D01*
X122453802Y-96928855D01*
X122308001Y-96897865D01*
X122268646Y-96889500D01*
X122079354Y-96889500D01*
X122046897Y-96896398D01*
X121894197Y-96928855D01*
X121894192Y-96928857D01*
X121721270Y-97005848D01*
X121721265Y-97005851D01*
X121568135Y-97117106D01*
X121568132Y-97117108D01*
X121566175Y-97119281D01*
X121564200Y-97121474D01*
X121504714Y-97158121D01*
X121472053Y-97162500D01*
X118327574Y-97162500D01*
X118260535Y-97142815D01*
X118214780Y-97090011D01*
X118204836Y-97020853D01*
X118222036Y-96973403D01*
X118253353Y-96922630D01*
X118253358Y-96922619D01*
X118308505Y-96756197D01*
X118308506Y-96756190D01*
X118318999Y-96653486D01*
X118319000Y-96653473D01*
X118319000Y-96516000D01*
X115869001Y-96516000D01*
X115869001Y-96653486D01*
X115879494Y-96756197D01*
X115934641Y-96922619D01*
X115934646Y-96922630D01*
X115965964Y-96973403D01*
X115984405Y-97040795D01*
X115963483Y-97107458D01*
X115909841Y-97152228D01*
X115860426Y-97162500D01*
X112453189Y-97162500D01*
X112386150Y-97142815D01*
X112365508Y-97126181D01*
X112076914Y-96837587D01*
X112043429Y-96776264D01*
X112048413Y-96706572D01*
X112089108Y-96651531D01*
X112165451Y-96592951D01*
X112257698Y-96472733D01*
X112257933Y-96472163D01*
X112258261Y-96471756D01*
X112261762Y-96465694D01*
X112262706Y-96466239D01*
X112301767Y-96417760D01*
X112368059Y-96395688D01*
X112398270Y-96398318D01*
X112427354Y-96404500D01*
X112427357Y-96404500D01*
X112616644Y-96404500D01*
X112616646Y-96404500D01*
X112801803Y-96365144D01*
X112974730Y-96288151D01*
X113127871Y-96176888D01*
X113254533Y-96036216D01*
X113349179Y-95872284D01*
X113407674Y-95692256D01*
X113427460Y-95504000D01*
X113407674Y-95315744D01*
X113349179Y-95135716D01*
X113254533Y-94971784D01*
X113127871Y-94831112D01*
X113127870Y-94831111D01*
X112974734Y-94719851D01*
X112974729Y-94719848D01*
X112801807Y-94642857D01*
X112801802Y-94642855D01*
X112656001Y-94611865D01*
X112616646Y-94603500D01*
X112427354Y-94603500D01*
X112414642Y-94606202D01*
X112344975Y-94600882D01*
X112289244Y-94558742D01*
X112274306Y-94532362D01*
X112257699Y-94492268D01*
X112257697Y-94492265D01*
X112174995Y-94384487D01*
X112149800Y-94319318D01*
X112163838Y-94250873D01*
X112212652Y-94200883D01*
X112273370Y-94185000D01*
X112710334Y-94185000D01*
X112746609Y-94192214D01*
X112746913Y-94191083D01*
X112754757Y-94193184D01*
X112754764Y-94193187D01*
X112867280Y-94208000D01*
X112867287Y-94208000D01*
X114342713Y-94208000D01*
X114342720Y-94208000D01*
X114455236Y-94193187D01*
X114595233Y-94135198D01*
X114715451Y-94042951D01*
X114807698Y-93922733D01*
X114865687Y-93782736D01*
X114865688Y-93782723D01*
X114867247Y-93776911D01*
X114903610Y-93717249D01*
X114966456Y-93686718D01*
X114987023Y-93685000D01*
X115649219Y-93685000D01*
X115716258Y-93704685D01*
X115736900Y-93721319D01*
X115832181Y-93816600D01*
X115865666Y-93877923D01*
X115868500Y-93904281D01*
X115868500Y-94578501D01*
X115868501Y-94578519D01*
X115879000Y-94681296D01*
X115879001Y-94681299D01*
X115934185Y-94847831D01*
X115934187Y-94847836D01*
X115969069Y-94904388D01*
X116026288Y-94997156D01*
X116150344Y-95121212D01*
X116153628Y-95123237D01*
X116153653Y-95123253D01*
X116155445Y-95125246D01*
X116156011Y-95125693D01*
X116155934Y-95125789D01*
X116200379Y-95175199D01*
X116211603Y-95244161D01*
X116183761Y-95308244D01*
X116153665Y-95334326D01*
X116150660Y-95336179D01*
X116150655Y-95336183D01*
X116026684Y-95460154D01*
X115934643Y-95609375D01*
X115934641Y-95609380D01*
X115879494Y-95775802D01*
X115879493Y-95775809D01*
X115869000Y-95878513D01*
X115869000Y-96016000D01*
X118318999Y-96016000D01*
X118318999Y-95878528D01*
X118318998Y-95878513D01*
X118308505Y-95775802D01*
X118253358Y-95609380D01*
X118253356Y-95609375D01*
X118161315Y-95460154D01*
X118037344Y-95336183D01*
X118037341Y-95336181D01*
X118034339Y-95334329D01*
X118032713Y-95332521D01*
X118031677Y-95331702D01*
X118031817Y-95331524D01*
X117987617Y-95282380D01*
X117976397Y-95213417D01*
X118004243Y-95149336D01*
X118034344Y-95123254D01*
X118037656Y-95121212D01*
X118161712Y-94997156D01*
X118253814Y-94847834D01*
X118308999Y-94681297D01*
X118319500Y-94578509D01*
X118319499Y-93803492D01*
X118308999Y-93700703D01*
X118253814Y-93534166D01*
X118161712Y-93384844D01*
X118037656Y-93260788D01*
X117919378Y-93187834D01*
X117888336Y-93168687D01*
X117888331Y-93168685D01*
X117863570Y-93160480D01*
X117721797Y-93113501D01*
X117721795Y-93113500D01*
X117619016Y-93103000D01*
X117619009Y-93103000D01*
X116944781Y-93103000D01*
X116877742Y-93083315D01*
X116857100Y-93066681D01*
X116661700Y-92871281D01*
X116628215Y-92809958D01*
X116633199Y-92740266D01*
X116675071Y-92684333D01*
X116740535Y-92659916D01*
X116749381Y-92659600D01*
X127306740Y-92659600D01*
X127373779Y-92679285D01*
X127394421Y-92695919D01*
X128206755Y-93508253D01*
X128240240Y-93569576D01*
X128238849Y-93628027D01*
X128204938Y-93754586D01*
X128204936Y-93754596D01*
X128184341Y-93989999D01*
X128184341Y-93990000D01*
X128204936Y-94225403D01*
X128204938Y-94225413D01*
X128266094Y-94453655D01*
X128266096Y-94453659D01*
X128266097Y-94453663D01*
X128347262Y-94627722D01*
X128365965Y-94667830D01*
X128365967Y-94667834D01*
X128433468Y-94764234D01*
X128494499Y-94851396D01*
X128501501Y-94861395D01*
X128501506Y-94861402D01*
X128668597Y-95028493D01*
X128668603Y-95028498D01*
X128747868Y-95084000D01*
X128821726Y-95135716D01*
X128854594Y-95158730D01*
X128898219Y-95213307D01*
X128905413Y-95282805D01*
X128873890Y-95345160D01*
X128854595Y-95361880D01*
X128668922Y-95491890D01*
X128668920Y-95491891D01*
X128501891Y-95658920D01*
X128501886Y-95658926D01*
X128366400Y-95852420D01*
X128366399Y-95852422D01*
X128266570Y-96066507D01*
X128266567Y-96066513D01*
X128209364Y-96279999D01*
X128209364Y-96280000D01*
X129106988Y-96280000D01*
X129074075Y-96337007D01*
X129040000Y-96464174D01*
X129040000Y-96595826D01*
X129074075Y-96722993D01*
X129106988Y-96780000D01*
X128209364Y-96780000D01*
X128266567Y-96993486D01*
X128266570Y-96993492D01*
X128366399Y-97207578D01*
X128501894Y-97401082D01*
X128668917Y-97568105D01*
X128862421Y-97703600D01*
X129076507Y-97803429D01*
X129076516Y-97803433D01*
X129290000Y-97860634D01*
X129290000Y-96963012D01*
X129347007Y-96995925D01*
X129474174Y-97030000D01*
X129605826Y-97030000D01*
X129732993Y-96995925D01*
X129790000Y-96963012D01*
X129790000Y-97860633D01*
X130003483Y-97803433D01*
X130003492Y-97803429D01*
X130217578Y-97703600D01*
X130411082Y-97568105D01*
X130578105Y-97401082D01*
X130713600Y-97207578D01*
X130813429Y-96993492D01*
X130813432Y-96993486D01*
X130870636Y-96780000D01*
X129973012Y-96780000D01*
X130005925Y-96722993D01*
X130040000Y-96595826D01*
X130040000Y-96464174D01*
X130005925Y-96337007D01*
X129973012Y-96280000D01*
X130870636Y-96280000D01*
X130870635Y-96279999D01*
X130813432Y-96066513D01*
X130813429Y-96066507D01*
X130791743Y-96020000D01*
X136540138Y-96020000D01*
X137343012Y-96020000D01*
X137325795Y-96029940D01*
X137269940Y-96085795D01*
X137230444Y-96154204D01*
X137210000Y-96230504D01*
X137210000Y-96309496D01*
X137230444Y-96385796D01*
X137269940Y-96454205D01*
X137325795Y-96510060D01*
X137343012Y-96520000D01*
X136540138Y-96520000D01*
X136548430Y-96561690D01*
X136548430Y-96561692D01*
X136623807Y-96743671D01*
X136623814Y-96743684D01*
X136733248Y-96907462D01*
X136733251Y-96907466D01*
X136872533Y-97046748D01*
X136872537Y-97046751D01*
X137036315Y-97156185D01*
X137036328Y-97156192D01*
X137218306Y-97231569D01*
X137218318Y-97231572D01*
X137411504Y-97269999D01*
X137411508Y-97270000D01*
X137810000Y-97270000D01*
X137810000Y-96570000D01*
X138310000Y-96570000D01*
X138310000Y-97270000D01*
X138708492Y-97270000D01*
X138708495Y-97269999D01*
X138901681Y-97231572D01*
X138901693Y-97231569D01*
X139083671Y-97156192D01*
X139083684Y-97156185D01*
X139247462Y-97046751D01*
X139247466Y-97046748D01*
X139386748Y-96907466D01*
X139386751Y-96907462D01*
X139496185Y-96743684D01*
X139496192Y-96743671D01*
X139571569Y-96561692D01*
X139571569Y-96561690D01*
X139579862Y-96520000D01*
X138776988Y-96520000D01*
X138794205Y-96510060D01*
X138850060Y-96454205D01*
X138889556Y-96385796D01*
X138910000Y-96309496D01*
X138910000Y-96230504D01*
X138889556Y-96154204D01*
X138850060Y-96085795D01*
X138794205Y-96029940D01*
X138776988Y-96020000D01*
X139579862Y-96020000D01*
X139571569Y-95978309D01*
X139571569Y-95978307D01*
X139496192Y-95796328D01*
X139496185Y-95796315D01*
X139386751Y-95632537D01*
X139386748Y-95632533D01*
X139247466Y-95493251D01*
X139247462Y-95493248D01*
X139083684Y-95383814D01*
X139083674Y-95383809D01*
X139074157Y-95379867D01*
X139019754Y-95336026D01*
X138997689Y-95269731D01*
X139014969Y-95202032D01*
X139018648Y-95196597D01*
X139020512Y-95193367D01*
X139020515Y-95193365D01*
X139096281Y-95062135D01*
X139135500Y-94915766D01*
X139135500Y-94764234D01*
X139096281Y-94617865D01*
X139094388Y-94614587D01*
X139062146Y-94558742D01*
X139020515Y-94486635D01*
X138913365Y-94379485D01*
X138823744Y-94327742D01*
X138782136Y-94303719D01*
X138708950Y-94284109D01*
X138635766Y-94264500D01*
X138484234Y-94264500D01*
X138337863Y-94303719D01*
X138206635Y-94379485D01*
X138206632Y-94379487D01*
X138099487Y-94486632D01*
X138099485Y-94486635D01*
X138023719Y-94617863D01*
X138006722Y-94681299D01*
X137984500Y-94764234D01*
X137984500Y-94915766D01*
X138014706Y-95028498D01*
X138023720Y-95062137D01*
X138023720Y-95062138D01*
X138036342Y-95084000D01*
X138052815Y-95151901D01*
X138029962Y-95217927D01*
X137975041Y-95261118D01*
X137928955Y-95270000D01*
X137411504Y-95270000D01*
X137218318Y-95308427D01*
X137218306Y-95308430D01*
X137036328Y-95383807D01*
X137036315Y-95383814D01*
X136872537Y-95493248D01*
X136872533Y-95493251D01*
X136733251Y-95632533D01*
X136733248Y-95632537D01*
X136623814Y-95796315D01*
X136623807Y-95796328D01*
X136548430Y-95978307D01*
X136548430Y-95978309D01*
X136540138Y-96020000D01*
X130791743Y-96020000D01*
X130713600Y-95852422D01*
X130713599Y-95852420D01*
X130578113Y-95658926D01*
X130578108Y-95658920D01*
X130411078Y-95491890D01*
X130225405Y-95361879D01*
X130181780Y-95307302D01*
X130174588Y-95237804D01*
X130206110Y-95175449D01*
X130225406Y-95158730D01*
X130258265Y-95135722D01*
X130411401Y-95028495D01*
X130578495Y-94861401D01*
X130714035Y-94667830D01*
X130813903Y-94453663D01*
X130875063Y-94225408D01*
X130895659Y-93990000D01*
X130875063Y-93754592D01*
X130822622Y-93558876D01*
X130813905Y-93526344D01*
X130813904Y-93526343D01*
X130813903Y-93526337D01*
X130714035Y-93312171D01*
X130710765Y-93307500D01*
X130578494Y-93118597D01*
X130411402Y-92951506D01*
X130411396Y-92951501D01*
X130225842Y-92821575D01*
X130182217Y-92766998D01*
X130175023Y-92697500D01*
X130206546Y-92635145D01*
X130225842Y-92618425D01*
X130292866Y-92571494D01*
X130411401Y-92488495D01*
X130578495Y-92321401D01*
X130654764Y-92212476D01*
X130709340Y-92168852D01*
X130756339Y-92159600D01*
X131896740Y-92159600D01*
X131963779Y-92179285D01*
X131984421Y-92195919D01*
X132916221Y-93127719D01*
X132949706Y-93189042D01*
X132952540Y-93215400D01*
X132952540Y-93217996D01*
X132952540Y-93218000D01*
X132972326Y-93406256D01*
X132972327Y-93406259D01*
X133030818Y-93586277D01*
X133030820Y-93586281D01*
X133030821Y-93586284D01*
X133125467Y-93750216D01*
X133228986Y-93865185D01*
X133252129Y-93890888D01*
X133405265Y-94002148D01*
X133405270Y-94002151D01*
X133578192Y-94079142D01*
X133578197Y-94079144D01*
X133763354Y-94118500D01*
X133763355Y-94118500D01*
X133952644Y-94118500D01*
X133952646Y-94118500D01*
X134071320Y-94093275D01*
X134140986Y-94098591D01*
X134196720Y-94140728D01*
X134220825Y-94206308D01*
X134221100Y-94214565D01*
X134221100Y-94327742D01*
X134201415Y-94394781D01*
X134189250Y-94410714D01*
X134141470Y-94463778D01*
X134141465Y-94463785D01*
X134046821Y-94627715D01*
X134046818Y-94627722D01*
X133988327Y-94807740D01*
X133988326Y-94807744D01*
X133968540Y-94996000D01*
X133988326Y-95184256D01*
X133988327Y-95184259D01*
X134046818Y-95364277D01*
X134046821Y-95364284D01*
X134141467Y-95528216D01*
X134241608Y-95639433D01*
X134268129Y-95668888D01*
X134421265Y-95780148D01*
X134421270Y-95780151D01*
X134594192Y-95857142D01*
X134594197Y-95857144D01*
X134779354Y-95896500D01*
X134779355Y-95896500D01*
X134968644Y-95896500D01*
X134968646Y-95896500D01*
X135153803Y-95857144D01*
X135326730Y-95780151D01*
X135479871Y-95668888D01*
X135606533Y-95528216D01*
X135701179Y-95364284D01*
X135759674Y-95184256D01*
X135779460Y-94996000D01*
X135759674Y-94807744D01*
X135701179Y-94627716D01*
X135646263Y-94532599D01*
X135606534Y-94463785D01*
X135606529Y-94463778D01*
X135558750Y-94410714D01*
X135528520Y-94347722D01*
X135526900Y-94327742D01*
X135526900Y-93217996D01*
X138640435Y-93217996D01*
X138640435Y-93218003D01*
X138660630Y-93397249D01*
X138660631Y-93397254D01*
X138720211Y-93567523D01*
X138777599Y-93658855D01*
X138816184Y-93720262D01*
X138943738Y-93847816D01*
X139033601Y-93904281D01*
X139062967Y-93922733D01*
X139096478Y-93943789D01*
X139253365Y-93998686D01*
X139266745Y-94003368D01*
X139266750Y-94003369D01*
X139445996Y-94023565D01*
X139446000Y-94023565D01*
X139446004Y-94023565D01*
X139625249Y-94003369D01*
X139625252Y-94003368D01*
X139625255Y-94003368D01*
X139795522Y-93943789D01*
X139921700Y-93864505D01*
X139987672Y-93845500D01*
X140127753Y-93845500D01*
X140194792Y-93865185D01*
X140233290Y-93904402D01*
X140240660Y-93916350D01*
X140362650Y-94038340D01*
X140509484Y-94128908D01*
X140673247Y-94183174D01*
X140774323Y-94193500D01*
X141372676Y-94193499D01*
X141372684Y-94193498D01*
X141372687Y-94193498D01*
X141428030Y-94187844D01*
X141473753Y-94183174D01*
X141637516Y-94128908D01*
X141784350Y-94038340D01*
X141898675Y-93924014D01*
X141959994Y-93890532D01*
X142029686Y-93895516D01*
X142074034Y-93924017D01*
X142187961Y-94037944D01*
X142187965Y-94037947D01*
X142334688Y-94128448D01*
X142334699Y-94128453D01*
X142498347Y-94182680D01*
X142599351Y-94192999D01*
X142648499Y-94192998D01*
X142648500Y-94192998D01*
X142648500Y-92243000D01*
X142648499Y-92242999D01*
X142599361Y-92243000D01*
X142599343Y-92243001D01*
X142498347Y-92253319D01*
X142334699Y-92307546D01*
X142334688Y-92307551D01*
X142187965Y-92398052D01*
X142074034Y-92511983D01*
X142012711Y-92545467D01*
X141943019Y-92540483D01*
X141898672Y-92511982D01*
X141784351Y-92397661D01*
X141784350Y-92397660D01*
X141688436Y-92338500D01*
X141637518Y-92307093D01*
X141637513Y-92307091D01*
X141609520Y-92297815D01*
X141473753Y-92252826D01*
X141473751Y-92252825D01*
X141372678Y-92242500D01*
X140774330Y-92242500D01*
X140774312Y-92242501D01*
X140673247Y-92252825D01*
X140509484Y-92307092D01*
X140509481Y-92307093D01*
X140362648Y-92397661D01*
X140240661Y-92519648D01*
X140240660Y-92519650D01*
X140233291Y-92531596D01*
X140181346Y-92578320D01*
X140127753Y-92590500D01*
X139987672Y-92590500D01*
X139921700Y-92571494D01*
X139795523Y-92492211D01*
X139625254Y-92432631D01*
X139625249Y-92432630D01*
X139446004Y-92412435D01*
X139445996Y-92412435D01*
X139266750Y-92432630D01*
X139266745Y-92432631D01*
X139096476Y-92492211D01*
X138943737Y-92588184D01*
X138816184Y-92715737D01*
X138720211Y-92868476D01*
X138660631Y-93038745D01*
X138660630Y-93038750D01*
X138640435Y-93217996D01*
X135526900Y-93217996D01*
X135526900Y-91121692D01*
X135501810Y-90995561D01*
X135501809Y-90995560D01*
X135501809Y-90995556D01*
X135460484Y-90895788D01*
X135452593Y-90876738D01*
X135452588Y-90876730D01*
X135409671Y-90812500D01*
X135409671Y-90812499D01*
X135409669Y-90812498D01*
X135383873Y-90773890D01*
X135381139Y-90769798D01*
X135381137Y-90769796D01*
X133004205Y-88392863D01*
X133004204Y-88392862D01*
X133004200Y-88392859D01*
X132897264Y-88321408D01*
X132778444Y-88272191D01*
X132778440Y-88272190D01*
X132778436Y-88272189D01*
X132652309Y-88247101D01*
X132652305Y-88247101D01*
X132523695Y-88247101D01*
X132485401Y-88254718D01*
X132461211Y-88257100D01*
X131014499Y-88257100D01*
X130947460Y-88237415D01*
X130901705Y-88184611D01*
X130890499Y-88133100D01*
X130890499Y-88012129D01*
X130890498Y-88012123D01*
X130890497Y-88012116D01*
X130884263Y-87954114D01*
X130884091Y-87952516D01*
X130833797Y-87817671D01*
X130833793Y-87817664D01*
X130747547Y-87702455D01*
X130747544Y-87702452D01*
X130632335Y-87616206D01*
X130632328Y-87616202D01*
X130497482Y-87565908D01*
X130497483Y-87565908D01*
X130437883Y-87559501D01*
X130437881Y-87559500D01*
X130437873Y-87559500D01*
X130437864Y-87559500D01*
X128642129Y-87559500D01*
X128642123Y-87559501D01*
X128582516Y-87565908D01*
X128447671Y-87616202D01*
X128447664Y-87616206D01*
X128332455Y-87702452D01*
X128332452Y-87702455D01*
X128246206Y-87817664D01*
X128246202Y-87817671D01*
X128195908Y-87952517D01*
X128189501Y-88012116D01*
X128189501Y-88012123D01*
X128189500Y-88012135D01*
X128189500Y-89807870D01*
X128189501Y-89807876D01*
X128195908Y-89867483D01*
X128246202Y-90002328D01*
X128246206Y-90002335D01*
X128332452Y-90117544D01*
X128332455Y-90117547D01*
X128447664Y-90203793D01*
X128447671Y-90203797D01*
X128579081Y-90252810D01*
X128635015Y-90294681D01*
X128659432Y-90360145D01*
X128644580Y-90428418D01*
X128623430Y-90456673D01*
X128501503Y-90578600D01*
X128365965Y-90772169D01*
X128365964Y-90772171D01*
X128345291Y-90816506D01*
X128317541Y-90876017D01*
X128313909Y-90883805D01*
X128267737Y-90936244D01*
X128201527Y-90955400D01*
X122289521Y-90955400D01*
X122222482Y-90935715D01*
X122176727Y-90882911D01*
X122166783Y-90813753D01*
X122195808Y-90750197D01*
X122198261Y-90747450D01*
X122346164Y-90586785D01*
X122482173Y-90378607D01*
X122582063Y-90150881D01*
X122643108Y-89909821D01*
X122645304Y-89883324D01*
X122663643Y-89662005D01*
X122663643Y-89661994D01*
X122643109Y-89414187D01*
X122643107Y-89414175D01*
X122582063Y-89173118D01*
X122482173Y-88945393D01*
X122346164Y-88737215D01*
X122340833Y-88731424D01*
X122177744Y-88554262D01*
X121981509Y-88401526D01*
X121981507Y-88401525D01*
X121981506Y-88401524D01*
X121762811Y-88283172D01*
X121762802Y-88283169D01*
X121527616Y-88202429D01*
X121282335Y-88161500D01*
X121033665Y-88161500D01*
X120788383Y-88202429D01*
X120553197Y-88283169D01*
X120553188Y-88283172D01*
X120334493Y-88401524D01*
X120138257Y-88554261D01*
X119969836Y-88737215D01*
X119833826Y-88945393D01*
X119733936Y-89173118D01*
X119672892Y-89414175D01*
X119672890Y-89414187D01*
X119652357Y-89661994D01*
X119652357Y-89662005D01*
X119663440Y-89795760D01*
X119649359Y-89864196D01*
X119600514Y-89914155D01*
X119539864Y-89930000D01*
X118266781Y-89930000D01*
X118199742Y-89910315D01*
X118153987Y-89857511D01*
X118144043Y-89788353D01*
X118173068Y-89724797D01*
X118179100Y-89718319D01*
X118978407Y-88919012D01*
X118978411Y-88919008D01*
X118993140Y-88896965D01*
X119047083Y-88816233D01*
X119079813Y-88737215D01*
X119094386Y-88702034D01*
X119118500Y-88580803D01*
X119118500Y-88457197D01*
X119118500Y-87380000D01*
X136540138Y-87380000D01*
X137343012Y-87380000D01*
X137325795Y-87389940D01*
X137269940Y-87445795D01*
X137230444Y-87514204D01*
X137210000Y-87590504D01*
X137210000Y-87669496D01*
X137230444Y-87745796D01*
X137269940Y-87814205D01*
X137325795Y-87870060D01*
X137343012Y-87880000D01*
X136540138Y-87880000D01*
X136548430Y-87921690D01*
X136548430Y-87921692D01*
X136623807Y-88103671D01*
X136623814Y-88103684D01*
X136733248Y-88267462D01*
X136733251Y-88267466D01*
X136872533Y-88406748D01*
X136872537Y-88406751D01*
X137036315Y-88516185D01*
X137036328Y-88516192D01*
X137218306Y-88591569D01*
X137218318Y-88591572D01*
X137411504Y-88629999D01*
X137411508Y-88630000D01*
X137928955Y-88630000D01*
X137995994Y-88649685D01*
X138041749Y-88702489D01*
X138051693Y-88771647D01*
X138036342Y-88816000D01*
X138023720Y-88837861D01*
X138023720Y-88837862D01*
X138023720Y-88837863D01*
X138023719Y-88837865D01*
X137984500Y-88984234D01*
X137984500Y-89135766D01*
X137989386Y-89154000D01*
X138023719Y-89282136D01*
X138039319Y-89309155D01*
X138099485Y-89413365D01*
X138206635Y-89520515D01*
X138337865Y-89596281D01*
X138484234Y-89635500D01*
X138484236Y-89635500D01*
X138612079Y-89635500D01*
X138679118Y-89655185D01*
X138724873Y-89707989D01*
X138734817Y-89777147D01*
X138721510Y-89813376D01*
X138723231Y-89814205D01*
X138720213Y-89820470D01*
X138660631Y-89990745D01*
X138660630Y-89990750D01*
X138640435Y-90169996D01*
X138640435Y-90170003D01*
X138660630Y-90349249D01*
X138660631Y-90349254D01*
X138720211Y-90519523D01*
X138757332Y-90578600D01*
X138816184Y-90672262D01*
X138943738Y-90799816D01*
X138965919Y-90813753D01*
X139077580Y-90883915D01*
X139096478Y-90895789D01*
X139258806Y-90952590D01*
X139266745Y-90955368D01*
X139266750Y-90955369D01*
X139445996Y-90975565D01*
X139446000Y-90975565D01*
X139446004Y-90975565D01*
X139625249Y-90955369D01*
X139625252Y-90955368D01*
X139625255Y-90955368D01*
X139795522Y-90895789D01*
X139921700Y-90816505D01*
X139987672Y-90797500D01*
X140024253Y-90797500D01*
X140091292Y-90817185D01*
X140129790Y-90856402D01*
X140137160Y-90868350D01*
X140259150Y-90990340D01*
X140405984Y-91080908D01*
X140569747Y-91135174D01*
X140670823Y-91145500D01*
X141269176Y-91145499D01*
X141269184Y-91145498D01*
X141269187Y-91145498D01*
X141324530Y-91139844D01*
X141370253Y-91135174D01*
X141534016Y-91080908D01*
X141680850Y-90990340D01*
X141795175Y-90876014D01*
X141856494Y-90842532D01*
X141926186Y-90847516D01*
X141970534Y-90876017D01*
X142084461Y-90989944D01*
X142084465Y-90989947D01*
X142231188Y-91080448D01*
X142231199Y-91080453D01*
X142394847Y-91134680D01*
X142495851Y-91144999D01*
X142544999Y-91144998D01*
X142545000Y-91144998D01*
X142545000Y-89195000D01*
X142544999Y-89194999D01*
X142495861Y-89195000D01*
X142495843Y-89195001D01*
X142394847Y-89205319D01*
X142231199Y-89259546D01*
X142231188Y-89259551D01*
X142084465Y-89350052D01*
X141970534Y-89463983D01*
X141909211Y-89497467D01*
X141839519Y-89492483D01*
X141795172Y-89463982D01*
X141680851Y-89349661D01*
X141680850Y-89349660D01*
X141542815Y-89264519D01*
X141534018Y-89259093D01*
X141534013Y-89259091D01*
X141519838Y-89254394D01*
X141370253Y-89204826D01*
X141370251Y-89204825D01*
X141269178Y-89194500D01*
X140670830Y-89194500D01*
X140670812Y-89194501D01*
X140569747Y-89204825D01*
X140405984Y-89259092D01*
X140405981Y-89259093D01*
X140259148Y-89349661D01*
X140137161Y-89471648D01*
X140137160Y-89471650D01*
X140129791Y-89483596D01*
X140077846Y-89530320D01*
X140024253Y-89542500D01*
X139987672Y-89542500D01*
X139921700Y-89523494D01*
X139795523Y-89444211D01*
X139625254Y-89384631D01*
X139625249Y-89384630D01*
X139446004Y-89364435D01*
X139445996Y-89364435D01*
X139266750Y-89384630D01*
X139259953Y-89386182D01*
X139259476Y-89384096D01*
X139199988Y-89387120D01*
X139139368Y-89352379D01*
X139107154Y-89290379D01*
X139109061Y-89234435D01*
X139135500Y-89135766D01*
X139135500Y-88984234D01*
X139096281Y-88837865D01*
X139083797Y-88816243D01*
X139058050Y-88771647D01*
X139020515Y-88706635D01*
X139020513Y-88706633D01*
X139016451Y-88699597D01*
X139018654Y-88698325D01*
X138998041Y-88645022D01*
X139012073Y-88576576D01*
X139060882Y-88526582D01*
X139074163Y-88520129D01*
X139083682Y-88516186D01*
X139083684Y-88516185D01*
X139247462Y-88406751D01*
X139247466Y-88406748D01*
X139386748Y-88267466D01*
X139386751Y-88267462D01*
X139496185Y-88103684D01*
X139496192Y-88103671D01*
X139571569Y-87921692D01*
X139571569Y-87921690D01*
X139579862Y-87880000D01*
X138776988Y-87880000D01*
X138794205Y-87870060D01*
X138850060Y-87814205D01*
X138889556Y-87745796D01*
X138910000Y-87669496D01*
X138910000Y-87590504D01*
X138889556Y-87514204D01*
X138850060Y-87445795D01*
X138794205Y-87389940D01*
X138776988Y-87380000D01*
X139579862Y-87380000D01*
X139571569Y-87338309D01*
X139571569Y-87338307D01*
X139496192Y-87156328D01*
X139496185Y-87156315D01*
X139386751Y-86992537D01*
X139386748Y-86992533D01*
X139247466Y-86853251D01*
X139247462Y-86853248D01*
X139083684Y-86743814D01*
X139083671Y-86743807D01*
X138901693Y-86668430D01*
X138901681Y-86668427D01*
X138708495Y-86630000D01*
X138310000Y-86630000D01*
X138310000Y-87330000D01*
X137810000Y-87330000D01*
X137810000Y-86630000D01*
X137411504Y-86630000D01*
X137218318Y-86668427D01*
X137218306Y-86668430D01*
X137036328Y-86743807D01*
X137036315Y-86743814D01*
X136872537Y-86853248D01*
X136872533Y-86853251D01*
X136733251Y-86992533D01*
X136733248Y-86992537D01*
X136623814Y-87156315D01*
X136623807Y-87156328D01*
X136548430Y-87338307D01*
X136548430Y-87338309D01*
X136540138Y-87380000D01*
X119118500Y-87380000D01*
X119118500Y-74352281D01*
X119138185Y-74285242D01*
X119154819Y-74264600D01*
X119251419Y-74168000D01*
X121776540Y-74168000D01*
X121796326Y-74356256D01*
X121796327Y-74356259D01*
X121854818Y-74536277D01*
X121854821Y-74536284D01*
X121949467Y-74700216D01*
X122064654Y-74828144D01*
X122076129Y-74840888D01*
X122229265Y-74952148D01*
X122229270Y-74952151D01*
X122402192Y-75029142D01*
X122402197Y-75029144D01*
X122587354Y-75068500D01*
X122587355Y-75068500D01*
X122776644Y-75068500D01*
X122776646Y-75068500D01*
X122961803Y-75029144D01*
X123134730Y-74952151D01*
X123287871Y-74840888D01*
X123291799Y-74836525D01*
X123351286Y-74799879D01*
X123383947Y-74795500D01*
X124267804Y-74795500D01*
X124267805Y-74795499D01*
X124389035Y-74771386D01*
X124470841Y-74737500D01*
X124503233Y-74724083D01*
X124606008Y-74655411D01*
X124693411Y-74568008D01*
X125934600Y-73326819D01*
X125995923Y-73293334D01*
X126022281Y-73290500D01*
X126078644Y-73290500D01*
X126078646Y-73290500D01*
X126263803Y-73251144D01*
X126436730Y-73174151D01*
X126589871Y-73062888D01*
X126716533Y-72922216D01*
X126811179Y-72758284D01*
X126848312Y-72644000D01*
X134476540Y-72644000D01*
X134496326Y-72832256D01*
X134496327Y-72832259D01*
X134554818Y-73012277D01*
X134554821Y-73012284D01*
X134649467Y-73176216D01*
X134707899Y-73241111D01*
X134776129Y-73316888D01*
X134929265Y-73428148D01*
X134929270Y-73428151D01*
X135102192Y-73505142D01*
X135102197Y-73505144D01*
X135287354Y-73544500D01*
X135343719Y-73544500D01*
X135410758Y-73564185D01*
X135431399Y-73580818D01*
X136378072Y-74527492D01*
X137301757Y-75451177D01*
X137332006Y-75500538D01*
X137348817Y-75552274D01*
X137348821Y-75552284D01*
X137443467Y-75716216D01*
X137570129Y-75856888D01*
X137723265Y-75968148D01*
X137723270Y-75968151D01*
X137896192Y-76045142D01*
X137896197Y-76045144D01*
X138081354Y-76084500D01*
X138081355Y-76084500D01*
X138270644Y-76084500D01*
X138270646Y-76084500D01*
X138455803Y-76045144D01*
X138628730Y-75968151D01*
X138781871Y-75856888D01*
X138908533Y-75716216D01*
X139003179Y-75552284D01*
X139061674Y-75372256D01*
X139081460Y-75184000D01*
X139061674Y-74995744D01*
X139003179Y-74815716D01*
X138908533Y-74651784D01*
X138781871Y-74511112D01*
X138781870Y-74511111D01*
X138628734Y-74399851D01*
X138628729Y-74399848D01*
X138455807Y-74322857D01*
X138455802Y-74322855D01*
X138310001Y-74291865D01*
X138270646Y-74283500D01*
X138081354Y-74283500D01*
X138081352Y-74283500D01*
X138004998Y-74299728D01*
X137935331Y-74294410D01*
X137891538Y-74266118D01*
X136320628Y-72695209D01*
X136287143Y-72633886D01*
X136284990Y-72620506D01*
X136267674Y-72455744D01*
X136209179Y-72275716D01*
X136114533Y-72111784D01*
X135987871Y-71971112D01*
X135987870Y-71971111D01*
X135834734Y-71859851D01*
X135834729Y-71859848D01*
X135661807Y-71782857D01*
X135661802Y-71782855D01*
X135516001Y-71751865D01*
X135476646Y-71743500D01*
X135287354Y-71743500D01*
X135254897Y-71750398D01*
X135102197Y-71782855D01*
X135102192Y-71782857D01*
X134929270Y-71859848D01*
X134929265Y-71859851D01*
X134776129Y-71971111D01*
X134649466Y-72111785D01*
X134554821Y-72275715D01*
X134554818Y-72275722D01*
X134496327Y-72455740D01*
X134496326Y-72455744D01*
X134476540Y-72644000D01*
X126848312Y-72644000D01*
X126869674Y-72578256D01*
X126889460Y-72390000D01*
X126869674Y-72201744D01*
X126811179Y-72021716D01*
X126716533Y-71857784D01*
X126589871Y-71717112D01*
X126589870Y-71717111D01*
X126436734Y-71605851D01*
X126436729Y-71605848D01*
X126263807Y-71528857D01*
X126263802Y-71528855D01*
X126118001Y-71497865D01*
X126078646Y-71489500D01*
X125889354Y-71489500D01*
X125856897Y-71496398D01*
X125704197Y-71528855D01*
X125704192Y-71528857D01*
X125531270Y-71605848D01*
X125531265Y-71605851D01*
X125378129Y-71717111D01*
X125251466Y-71857785D01*
X125156821Y-72021715D01*
X125156818Y-72021722D01*
X125098327Y-72201740D01*
X125098326Y-72201744D01*
X125090551Y-72275722D01*
X125081011Y-72366489D01*
X125054426Y-72431103D01*
X125045371Y-72441208D01*
X123982400Y-73504181D01*
X123921077Y-73537666D01*
X123894719Y-73540500D01*
X123383947Y-73540500D01*
X123316908Y-73520815D01*
X123291800Y-73499476D01*
X123287871Y-73495112D01*
X123287869Y-73495111D01*
X123287867Y-73495108D01*
X123287864Y-73495106D01*
X123134734Y-73383851D01*
X123134729Y-73383848D01*
X122961807Y-73306857D01*
X122961802Y-73306855D01*
X122816001Y-73275865D01*
X122776646Y-73267500D01*
X122587354Y-73267500D01*
X122554897Y-73274398D01*
X122402197Y-73306855D01*
X122402192Y-73306857D01*
X122229270Y-73383848D01*
X122229265Y-73383851D01*
X122076129Y-73495111D01*
X121949466Y-73635785D01*
X121854821Y-73799715D01*
X121854818Y-73799722D01*
X121796327Y-73979740D01*
X121796326Y-73979744D01*
X121776540Y-74168000D01*
X119251419Y-74168000D01*
X119838600Y-73580819D01*
X119899923Y-73547334D01*
X119926281Y-73544500D01*
X119982644Y-73544500D01*
X119982646Y-73544500D01*
X120167803Y-73505144D01*
X120340730Y-73428151D01*
X120493871Y-73316888D01*
X120620533Y-73176216D01*
X120715179Y-73012284D01*
X120773674Y-72832256D01*
X120793460Y-72644000D01*
X120773674Y-72455744D01*
X120715179Y-72275716D01*
X120620533Y-72111784D01*
X120493871Y-71971112D01*
X120493870Y-71971111D01*
X120340734Y-71859851D01*
X120340729Y-71859848D01*
X120167807Y-71782857D01*
X120167802Y-71782855D01*
X120022001Y-71751865D01*
X119982646Y-71743500D01*
X119793354Y-71743500D01*
X119760897Y-71750398D01*
X119608197Y-71782855D01*
X119608192Y-71782857D01*
X119435270Y-71859848D01*
X119435265Y-71859851D01*
X119282129Y-71971111D01*
X119155466Y-72111785D01*
X119060821Y-72275715D01*
X119060818Y-72275722D01*
X119002327Y-72455740D01*
X119002326Y-72455744D01*
X118986203Y-72609143D01*
X118985011Y-72620489D01*
X118958426Y-72685103D01*
X118949371Y-72695208D01*
X118262797Y-73381784D01*
X118090992Y-73553589D01*
X118063762Y-73580819D01*
X118003586Y-73640994D01*
X118003585Y-73640996D01*
X117934923Y-73743756D01*
X117934917Y-73743768D01*
X117924883Y-73767992D01*
X117887614Y-73857964D01*
X117887612Y-73857972D01*
X117863500Y-73979192D01*
X117863500Y-88207719D01*
X117843815Y-88274758D01*
X117827181Y-88295400D01*
X117228900Y-88893681D01*
X117167577Y-88927166D01*
X117141219Y-88930000D01*
X116837326Y-88930000D01*
X116770287Y-88910315D01*
X116724532Y-88857511D01*
X116714005Y-88793042D01*
X116729460Y-88646000D01*
X116709674Y-88457744D01*
X116651179Y-88277716D01*
X116556533Y-88113784D01*
X116429871Y-87973112D01*
X116429870Y-87973111D01*
X116276734Y-87861851D01*
X116276729Y-87861848D01*
X116103807Y-87784857D01*
X116103802Y-87784855D01*
X115958001Y-87753865D01*
X115918646Y-87745500D01*
X115729354Y-87745500D01*
X115696897Y-87752398D01*
X115544197Y-87784855D01*
X115544192Y-87784857D01*
X115371270Y-87861848D01*
X115371265Y-87861851D01*
X115310063Y-87906318D01*
X115244257Y-87929798D01*
X115237178Y-87930000D01*
X114987694Y-87930000D01*
X114920655Y-87910315D01*
X114874900Y-87857511D01*
X114864755Y-87789815D01*
X114873161Y-87725965D01*
X114880500Y-87670220D01*
X114880500Y-87444780D01*
X114865687Y-87332264D01*
X114865686Y-87332263D01*
X114864626Y-87324205D01*
X114867689Y-87323801D01*
X114867689Y-87291198D01*
X114864626Y-87290795D01*
X114867244Y-87270908D01*
X114880500Y-87170220D01*
X114880500Y-86944780D01*
X114865687Y-86832264D01*
X114865686Y-86832263D01*
X114864626Y-86824205D01*
X114867689Y-86823801D01*
X114867689Y-86791198D01*
X114864626Y-86790795D01*
X114870812Y-86743807D01*
X114880500Y-86670220D01*
X114880500Y-86444780D01*
X114865687Y-86332264D01*
X114865686Y-86332263D01*
X114864626Y-86324205D01*
X114867689Y-86323801D01*
X114867689Y-86291198D01*
X114864626Y-86290795D01*
X114877264Y-86194797D01*
X114880500Y-86170220D01*
X114880500Y-85944780D01*
X114865687Y-85832264D01*
X114807698Y-85692267D01*
X114715451Y-85572049D01*
X114595233Y-85479802D01*
X114595229Y-85479800D01*
X114531801Y-85453527D01*
X114455236Y-85421813D01*
X114441171Y-85419961D01*
X114342727Y-85407000D01*
X114342720Y-85407000D01*
X112867280Y-85407000D01*
X112867272Y-85407000D01*
X112754764Y-85421813D01*
X112754763Y-85421813D01*
X112614769Y-85479800D01*
X112614766Y-85479802D01*
X112506986Y-85562505D01*
X112441817Y-85587699D01*
X112373372Y-85573661D01*
X112323383Y-85524847D01*
X112307500Y-85464129D01*
X112307500Y-85027165D01*
X112314716Y-84990890D01*
X112313583Y-84990587D01*
X112315683Y-84982744D01*
X112315687Y-84982736D01*
X112330500Y-84870220D01*
X112330817Y-84867814D01*
X112359084Y-84803918D01*
X112417408Y-84765447D01*
X112453756Y-84760000D01*
X112932804Y-84760000D01*
X112932805Y-84759999D01*
X113054035Y-84735886D01*
X113146705Y-84697500D01*
X113168233Y-84688583D01*
X113271008Y-84619911D01*
X113358411Y-84532508D01*
X113567100Y-84323817D01*
X113628423Y-84290333D01*
X113654781Y-84287499D01*
X114040670Y-84287499D01*
X114040676Y-84287499D01*
X114141753Y-84277174D01*
X114305516Y-84222908D01*
X114452350Y-84132340D01*
X114466671Y-84118018D01*
X114527989Y-84084533D01*
X114597681Y-84089514D01*
X114642034Y-84118017D01*
X114655961Y-84131944D01*
X114655965Y-84131947D01*
X114802688Y-84222448D01*
X114802699Y-84222453D01*
X114966347Y-84276680D01*
X115067351Y-84286999D01*
X115666500Y-84286999D01*
X115765640Y-84286999D01*
X115765654Y-84286998D01*
X115866652Y-84276680D01*
X116030300Y-84222453D01*
X116030311Y-84222448D01*
X116177034Y-84131947D01*
X116177038Y-84131944D01*
X116298944Y-84010038D01*
X116298947Y-84010034D01*
X116389448Y-83863311D01*
X116389453Y-83863300D01*
X116443680Y-83699652D01*
X116453999Y-83598654D01*
X116454000Y-83598641D01*
X116454000Y-83562000D01*
X115666500Y-83562000D01*
X115666500Y-84286999D01*
X115067351Y-84286999D01*
X115166500Y-84286998D01*
X115166500Y-83186000D01*
X115186185Y-83118961D01*
X115238989Y-83073206D01*
X115290500Y-83062000D01*
X116453999Y-83062000D01*
X116453999Y-83025360D01*
X116453998Y-83025345D01*
X116443680Y-82924347D01*
X116389453Y-82760699D01*
X116389448Y-82760688D01*
X116298947Y-82613965D01*
X116298944Y-82613961D01*
X116177039Y-82492056D01*
X116104747Y-82447466D01*
X116058023Y-82395518D01*
X116046800Y-82326555D01*
X116074644Y-82262473D01*
X116130840Y-82224221D01*
X116248119Y-82185358D01*
X116248124Y-82185356D01*
X116397345Y-82093315D01*
X116521315Y-81969345D01*
X116613356Y-81820124D01*
X116613358Y-81820119D01*
X116668505Y-81653697D01*
X116668506Y-81653690D01*
X116678999Y-81550986D01*
X116679000Y-81550973D01*
X116679000Y-81276000D01*
X115465500Y-81276000D01*
X115398461Y-81256315D01*
X115352706Y-81203511D01*
X115341500Y-81152000D01*
X115341500Y-80776000D01*
X115841500Y-80776000D01*
X116678999Y-80776000D01*
X116678999Y-80501028D01*
X116678998Y-80501013D01*
X116668505Y-80398302D01*
X116613358Y-80231880D01*
X116613356Y-80231875D01*
X116521315Y-80082654D01*
X116397345Y-79958684D01*
X116248124Y-79866643D01*
X116248119Y-79866641D01*
X116081697Y-79811494D01*
X116081690Y-79811493D01*
X115978986Y-79801000D01*
X115841500Y-79801000D01*
X115841500Y-80776000D01*
X115341500Y-80776000D01*
X115341500Y-79801000D01*
X115204027Y-79801000D01*
X115204012Y-79801001D01*
X115101302Y-79811494D01*
X114934880Y-79866641D01*
X114934875Y-79866643D01*
X114785654Y-79958684D01*
X114661683Y-80082655D01*
X114661679Y-80082660D01*
X114659826Y-80085665D01*
X114658018Y-80087290D01*
X114657202Y-80088323D01*
X114657025Y-80088183D01*
X114607874Y-80132385D01*
X114538911Y-80143601D01*
X114474831Y-80115752D01*
X114448753Y-80085653D01*
X114448737Y-80085628D01*
X114446712Y-80082344D01*
X114322656Y-79958288D01*
X114191713Y-79877522D01*
X114173336Y-79866187D01*
X114173331Y-79866185D01*
X114171862Y-79865698D01*
X114006797Y-79811001D01*
X114006795Y-79811000D01*
X113904010Y-79800500D01*
X113128998Y-79800500D01*
X113128980Y-79800501D01*
X113026203Y-79811000D01*
X113026200Y-79811001D01*
X112859668Y-79866185D01*
X112859663Y-79866187D01*
X112710342Y-79958289D01*
X112586289Y-80082342D01*
X112494187Y-80231663D01*
X112494186Y-80231666D01*
X112460108Y-80334505D01*
X112420334Y-80391950D01*
X112366596Y-80417117D01*
X112338968Y-80422613D01*
X112338963Y-80422614D01*
X112282796Y-80445879D01*
X112282797Y-80445880D01*
X112224763Y-80469918D01*
X112121992Y-80538588D01*
X112121988Y-80538591D01*
X110840029Y-81820551D01*
X110778706Y-81854036D01*
X110709014Y-81849052D01*
X110653081Y-81807180D01*
X110629028Y-81745834D01*
X110613674Y-81599744D01*
X110555179Y-81419716D01*
X110460533Y-81255784D01*
X110333871Y-81115112D01*
X110279837Y-81075854D01*
X110180734Y-81003851D01*
X110180729Y-81003848D01*
X110007807Y-80926857D01*
X110007802Y-80926855D01*
X109862001Y-80895865D01*
X109822646Y-80887500D01*
X109633354Y-80887500D01*
X109600897Y-80894398D01*
X109448197Y-80926855D01*
X109448192Y-80926857D01*
X109275270Y-81003848D01*
X109275265Y-81003851D01*
X109122129Y-81115111D01*
X108995466Y-81255785D01*
X108900821Y-81419715D01*
X108900818Y-81419722D01*
X108847173Y-81584826D01*
X108842326Y-81599744D01*
X108822540Y-81788000D01*
X108842326Y-81976256D01*
X108842327Y-81976259D01*
X108900818Y-82156277D01*
X108900821Y-82156284D01*
X108995467Y-82320216D01*
X109068698Y-82401547D01*
X109122129Y-82460888D01*
X109275265Y-82572148D01*
X109275270Y-82572151D01*
X109395054Y-82625483D01*
X109448291Y-82670733D01*
X109468612Y-82737582D01*
X109449567Y-82804806D01*
X109397200Y-82851061D01*
X109328434Y-82861701D01*
X109292732Y-82857001D01*
X109292724Y-82857000D01*
X109292720Y-82857000D01*
X109067280Y-82857000D01*
X109067272Y-82857000D01*
X108980393Y-82868438D01*
X108954764Y-82871813D01*
X108954762Y-82871813D01*
X108946708Y-82872874D01*
X108946316Y-82869899D01*
X108913684Y-82869899D01*
X108913292Y-82872874D01*
X108905237Y-82871813D01*
X108905236Y-82871813D01*
X108876271Y-82867999D01*
X108792727Y-82857000D01*
X108792720Y-82857000D01*
X108567280Y-82857000D01*
X108567272Y-82857000D01*
X108480393Y-82868438D01*
X108454764Y-82871813D01*
X108454762Y-82871813D01*
X108446708Y-82872874D01*
X108446316Y-82869899D01*
X108413684Y-82869899D01*
X108413292Y-82872874D01*
X108405237Y-82871813D01*
X108405236Y-82871813D01*
X108376271Y-82867999D01*
X108292727Y-82857000D01*
X108292720Y-82857000D01*
X108067280Y-82857000D01*
X108067274Y-82857000D01*
X108067270Y-82857001D01*
X107947685Y-82872745D01*
X107878650Y-82861980D01*
X107826394Y-82815600D01*
X107807500Y-82749806D01*
X107807500Y-78975330D01*
X107827185Y-78908291D01*
X107879989Y-78862536D01*
X107905709Y-78854042D01*
X107975803Y-78839144D01*
X108148730Y-78762151D01*
X108301871Y-78650888D01*
X108428533Y-78510216D01*
X108523179Y-78346284D01*
X108581674Y-78166256D01*
X108598989Y-78001505D01*
X108625572Y-77936894D01*
X108634619Y-77926798D01*
X109961411Y-76600008D01*
X109979123Y-76573500D01*
X110030083Y-76497233D01*
X110061086Y-76422385D01*
X110077386Y-76383034D01*
X110101500Y-76261803D01*
X110101500Y-76138197D01*
X110101500Y-75163630D01*
X110121185Y-75096591D01*
X110173989Y-75050836D01*
X110199720Y-75042340D01*
X110202242Y-75041803D01*
X110261803Y-75029144D01*
X110261806Y-75029142D01*
X110261808Y-75029142D01*
X110338048Y-74995197D01*
X110434730Y-74952151D01*
X110587871Y-74840888D01*
X110714533Y-74700216D01*
X110809179Y-74536284D01*
X110867674Y-74356256D01*
X110887460Y-74168000D01*
X110867674Y-73979744D01*
X110809179Y-73799716D01*
X110714533Y-73635784D01*
X110587871Y-73495112D01*
X110587870Y-73495111D01*
X110434734Y-73383851D01*
X110434729Y-73383848D01*
X110261807Y-73306857D01*
X110261802Y-73306855D01*
X110116001Y-73275865D01*
X110076646Y-73267500D01*
X109887354Y-73267500D01*
X109854897Y-73274398D01*
X109702197Y-73306855D01*
X109702192Y-73306857D01*
X109529270Y-73383848D01*
X109529265Y-73383851D01*
X109376135Y-73495106D01*
X109376132Y-73495108D01*
X109374175Y-73497281D01*
X109372200Y-73499474D01*
X109312714Y-73536121D01*
X109280053Y-73540500D01*
X102300192Y-73540500D01*
X102178973Y-73564612D01*
X102178965Y-73564614D01*
X102124280Y-73587266D01*
X102124279Y-73587266D01*
X102064773Y-73611913D01*
X102064760Y-73611920D01*
X101961992Y-73680588D01*
X101961988Y-73680591D01*
X101290300Y-74352281D01*
X101072992Y-74569589D01*
X101032116Y-74610465D01*
X100985586Y-74656994D01*
X100985585Y-74656996D01*
X100916920Y-74759761D01*
X100916916Y-74759768D01*
X100910549Y-74775141D01*
X100910548Y-74775143D01*
X100869614Y-74873964D01*
X100869612Y-74873972D01*
X100850497Y-74970072D01*
X100845500Y-74995192D01*
X100845500Y-75133373D01*
X100825815Y-75200412D01*
X100794387Y-75233690D01*
X100740128Y-75273112D01*
X100740123Y-75273116D01*
X100613466Y-75413785D01*
X100518821Y-75577715D01*
X100518818Y-75577722D01*
X100460327Y-75757740D01*
X100460326Y-75757744D01*
X100440540Y-75946000D01*
X100460326Y-76134256D01*
X100460327Y-76134259D01*
X100518818Y-76314277D01*
X100518821Y-76314284D01*
X100613467Y-76478216D01*
X100723129Y-76600008D01*
X100740129Y-76618888D01*
X100893265Y-76730148D01*
X100893270Y-76730151D01*
X101066192Y-76807142D01*
X101066197Y-76807144D01*
X101251354Y-76846500D01*
X101251355Y-76846500D01*
X101440644Y-76846500D01*
X101440646Y-76846500D01*
X101625803Y-76807144D01*
X101798730Y-76730151D01*
X101951871Y-76618888D01*
X102078533Y-76478216D01*
X102173179Y-76314284D01*
X102231674Y-76134256D01*
X102251460Y-75946000D01*
X102231674Y-75757744D01*
X102173179Y-75577716D01*
X102117111Y-75480604D01*
X102100500Y-75418606D01*
X102100500Y-75368280D01*
X102120185Y-75301241D01*
X102136815Y-75280603D01*
X102265971Y-75151447D01*
X102327293Y-75117963D01*
X102396985Y-75122947D01*
X102452918Y-75164819D01*
X102476971Y-75226166D01*
X102492326Y-75372256D01*
X102492327Y-75372259D01*
X102550818Y-75552277D01*
X102550821Y-75552284D01*
X102645467Y-75716216D01*
X102772129Y-75856888D01*
X102925265Y-75968148D01*
X102925270Y-75968151D01*
X103098192Y-76045142D01*
X103098197Y-76045144D01*
X103283354Y-76084500D01*
X103339719Y-76084500D01*
X103406758Y-76104185D01*
X103427400Y-76120819D01*
X105516181Y-78209600D01*
X105549666Y-78270923D01*
X105552500Y-78297281D01*
X105552500Y-81405219D01*
X105532815Y-81472258D01*
X105480011Y-81518013D01*
X105410853Y-81527957D01*
X105347297Y-81498932D01*
X105340819Y-81492900D01*
X105060818Y-81212899D01*
X105027333Y-81151576D01*
X105024499Y-81125218D01*
X105024499Y-80739330D01*
X105024498Y-80739313D01*
X105014174Y-80638247D01*
X105003201Y-80605132D01*
X104959908Y-80474484D01*
X104869340Y-80327650D01*
X104747350Y-80205660D01*
X104747349Y-80205659D01*
X104672902Y-80159739D01*
X104626178Y-80107791D01*
X104614000Y-80054201D01*
X104614000Y-80048696D01*
X104613999Y-80048692D01*
X104606591Y-80011449D01*
X104589886Y-79927465D01*
X104544912Y-79818892D01*
X104543264Y-79814286D01*
X104473914Y-79710496D01*
X104473913Y-79710494D01*
X104430307Y-79666888D01*
X104386508Y-79623089D01*
X104316628Y-79553209D01*
X104283143Y-79491886D01*
X104280990Y-79478506D01*
X104263674Y-79313744D01*
X104205179Y-79133716D01*
X104110533Y-78969784D01*
X103983871Y-78829112D01*
X103951708Y-78805744D01*
X103830734Y-78717851D01*
X103830729Y-78717848D01*
X103657807Y-78640857D01*
X103657802Y-78640855D01*
X103512001Y-78609865D01*
X103472646Y-78601500D01*
X103283354Y-78601500D01*
X103250897Y-78608398D01*
X103098197Y-78640855D01*
X103098192Y-78640857D01*
X102925270Y-78717848D01*
X102925265Y-78717851D01*
X102772129Y-78829111D01*
X102645466Y-78969785D01*
X102550821Y-79133715D01*
X102550818Y-79133722D01*
X102506451Y-79270272D01*
X102492326Y-79313744D01*
X102472540Y-79502000D01*
X102492326Y-79690256D01*
X102492327Y-79690259D01*
X102550818Y-79870277D01*
X102550822Y-79870286D01*
X102555000Y-79877522D01*
X102571474Y-79945421D01*
X102548622Y-80011449D01*
X102535296Y-80027204D01*
X102511500Y-80051000D01*
X102511500Y-82000999D01*
X102610640Y-82000999D01*
X102610654Y-82000998D01*
X102711652Y-81990680D01*
X102875300Y-81936453D01*
X102875311Y-81936448D01*
X103022035Y-81845947D01*
X103035960Y-81832021D01*
X103097282Y-81798533D01*
X103166973Y-81803514D01*
X103211327Y-81832017D01*
X103225650Y-81846340D01*
X103372484Y-81936908D01*
X103536247Y-81991174D01*
X103637323Y-82001500D01*
X104023218Y-82001499D01*
X104090257Y-82021183D01*
X104110899Y-82037818D01*
X104516181Y-82443100D01*
X104549666Y-82504423D01*
X104552500Y-82530781D01*
X104552500Y-82749806D01*
X104532815Y-82816845D01*
X104480011Y-82862600D01*
X104412315Y-82872745D01*
X104292729Y-82857001D01*
X104292726Y-82857000D01*
X104292720Y-82857000D01*
X104067280Y-82857000D01*
X104067272Y-82857000D01*
X103954764Y-82871813D01*
X103954763Y-82871813D01*
X103814770Y-82929800D01*
X103814767Y-82929801D01*
X103814767Y-82929802D01*
X103694549Y-83022049D01*
X103620186Y-83118961D01*
X103602300Y-83142270D01*
X103544313Y-83282263D01*
X103544313Y-83282264D01*
X103529500Y-83394772D01*
X103529500Y-84870227D01*
X103544313Y-84982735D01*
X103544313Y-84982736D01*
X103587125Y-85086094D01*
X103602302Y-85122733D01*
X103694549Y-85242951D01*
X103814767Y-85335198D01*
X103954764Y-85393187D01*
X104059684Y-85407000D01*
X104067264Y-85407998D01*
X104067280Y-85408000D01*
X104067287Y-85408000D01*
X104292713Y-85408000D01*
X104292720Y-85408000D01*
X104405236Y-85393187D01*
X104405236Y-85393186D01*
X104412315Y-85392255D01*
X104481350Y-85403020D01*
X104533606Y-85449400D01*
X104552500Y-85515194D01*
X104552500Y-85683807D01*
X104576612Y-85805027D01*
X104576614Y-85805035D01*
X104610062Y-85885785D01*
X104623915Y-85919229D01*
X104623920Y-85919238D01*
X104661335Y-85975233D01*
X104661336Y-85975234D01*
X104692590Y-86022010D01*
X104692591Y-86022011D01*
X104746180Y-86075599D01*
X104779666Y-86136922D01*
X104782500Y-86163281D01*
X104782500Y-88226857D01*
X104762815Y-88293896D01*
X104710011Y-88339651D01*
X104640853Y-88349595D01*
X104577297Y-88320570D01*
X104566350Y-88309829D01*
X104491870Y-88227111D01*
X104338734Y-88115851D01*
X104338729Y-88115848D01*
X104165807Y-88038857D01*
X104165802Y-88038855D01*
X104020001Y-88007865D01*
X103980646Y-87999500D01*
X103980645Y-87999500D01*
X103860770Y-87999500D01*
X103813317Y-87990061D01*
X103804020Y-87986210D01*
X103804018Y-87986209D01*
X103726535Y-87954114D01*
X103726527Y-87954112D01*
X103613122Y-87931554D01*
X103551211Y-87899169D01*
X103516636Y-87838453D01*
X103514372Y-87826111D01*
X103514194Y-87824758D01*
X103516408Y-87791029D01*
X103514626Y-87790795D01*
X103523161Y-87725965D01*
X103530500Y-87670220D01*
X103530500Y-87444780D01*
X103515687Y-87332264D01*
X103515686Y-87332263D01*
X103514626Y-87324205D01*
X103517689Y-87323801D01*
X103517689Y-87291198D01*
X103514626Y-87290795D01*
X103517244Y-87270908D01*
X103530500Y-87170220D01*
X103530500Y-86944780D01*
X103515687Y-86832264D01*
X103515686Y-86832263D01*
X103514626Y-86824205D01*
X103517689Y-86823801D01*
X103517689Y-86791198D01*
X103514626Y-86790795D01*
X103520812Y-86743807D01*
X103530500Y-86670220D01*
X103530500Y-86444780D01*
X103515687Y-86332264D01*
X103515686Y-86332263D01*
X103514626Y-86324205D01*
X103517689Y-86323801D01*
X103517689Y-86291198D01*
X103514626Y-86290795D01*
X103527264Y-86194797D01*
X103530500Y-86170220D01*
X103530500Y-85944780D01*
X103515687Y-85832264D01*
X103457698Y-85692267D01*
X103365451Y-85572049D01*
X103245233Y-85479802D01*
X103245229Y-85479800D01*
X103181801Y-85453527D01*
X103105236Y-85421813D01*
X103091171Y-85419961D01*
X102992727Y-85407000D01*
X102992720Y-85407000D01*
X101517280Y-85407000D01*
X101517272Y-85407000D01*
X101404764Y-85421813D01*
X101404763Y-85421813D01*
X101264770Y-85479800D01*
X101264767Y-85479801D01*
X101264767Y-85479802D01*
X101144549Y-85572049D01*
X101075796Y-85661650D01*
X101052300Y-85692270D01*
X100994313Y-85832263D01*
X100991693Y-85852163D01*
X100963424Y-85916058D01*
X100905098Y-85954527D01*
X100835233Y-85955356D01*
X100781073Y-85923654D01*
X100636319Y-85778900D01*
X100602834Y-85717577D01*
X100600000Y-85691219D01*
X100600000Y-83490956D01*
X100619685Y-83423917D01*
X100658903Y-83385418D01*
X100683350Y-83370340D01*
X100805340Y-83248350D01*
X100895908Y-83101516D01*
X100950174Y-82937753D01*
X100960500Y-82836677D01*
X100960499Y-82263324D01*
X100950174Y-82162247D01*
X100895908Y-81998484D01*
X100805340Y-81851650D01*
X100683350Y-81729660D01*
X100560357Y-81653797D01*
X100536518Y-81639093D01*
X100536513Y-81639091D01*
X100535069Y-81638612D01*
X100372753Y-81584826D01*
X100372751Y-81584825D01*
X100271678Y-81574500D01*
X99673330Y-81574500D01*
X99673312Y-81574501D01*
X99572247Y-81584825D01*
X99408484Y-81639092D01*
X99408481Y-81639093D01*
X99261648Y-81729661D01*
X99147681Y-81843629D01*
X99086358Y-81877114D01*
X99016666Y-81872130D01*
X98972319Y-81843629D01*
X98858351Y-81729661D01*
X98858350Y-81729660D01*
X98735357Y-81653797D01*
X98711518Y-81639093D01*
X98711513Y-81639091D01*
X98710069Y-81638612D01*
X98547753Y-81584826D01*
X98547751Y-81584825D01*
X98446678Y-81574500D01*
X97848330Y-81574500D01*
X97848312Y-81574501D01*
X97747247Y-81584825D01*
X97583484Y-81639092D01*
X97583481Y-81639093D01*
X97436648Y-81729661D01*
X97402239Y-81764070D01*
X97340916Y-81797555D01*
X97271224Y-81792569D01*
X97241673Y-81776706D01*
X97226729Y-81765848D01*
X97053807Y-81688857D01*
X97053802Y-81688855D01*
X96908001Y-81657865D01*
X96868646Y-81649500D01*
X96679354Y-81649500D01*
X96659138Y-81653797D01*
X96494197Y-81688855D01*
X96494192Y-81688857D01*
X96321270Y-81765848D01*
X96321265Y-81765851D01*
X96168129Y-81877111D01*
X96041466Y-82017785D01*
X95946821Y-82181715D01*
X95946818Y-82181722D01*
X95896528Y-82336500D01*
X95888326Y-82361744D01*
X95868540Y-82550000D01*
X95888326Y-82738256D01*
X95888327Y-82738259D01*
X95946818Y-82918277D01*
X95946821Y-82918284D01*
X96041467Y-83082216D01*
X96095540Y-83142270D01*
X96168127Y-83222886D01*
X96168129Y-83222888D01*
X96321265Y-83334148D01*
X96321267Y-83334149D01*
X96321270Y-83334151D01*
X96401163Y-83369722D01*
X96454398Y-83414970D01*
X96474720Y-83481819D01*
X96455675Y-83549043D01*
X96403309Y-83595299D01*
X96350730Y-83607000D01*
X96324362Y-83607000D01*
X96324344Y-83607001D01*
X96223347Y-83617319D01*
X96059699Y-83671546D01*
X96059688Y-83671551D01*
X95912965Y-83762052D01*
X95912961Y-83762055D01*
X95791055Y-83883961D01*
X95791052Y-83883965D01*
X95700551Y-84030688D01*
X95700546Y-84030699D01*
X95646319Y-84194347D01*
X95636000Y-84295345D01*
X95636000Y-84332000D01*
X96799500Y-84332000D01*
X96866539Y-84351685D01*
X96912294Y-84404489D01*
X96923500Y-84456000D01*
X96923500Y-84708000D01*
X96903815Y-84775039D01*
X96851011Y-84820794D01*
X96799500Y-84832000D01*
X95767394Y-84832000D01*
X95708756Y-84816288D01*
X95708666Y-84816492D01*
X95707383Y-84815920D01*
X95705398Y-84815389D01*
X95702732Y-84813850D01*
X95529807Y-84736857D01*
X95529802Y-84736855D01*
X95384001Y-84705865D01*
X95344646Y-84697500D01*
X95155354Y-84697500D01*
X95122897Y-84704398D01*
X94970197Y-84736855D01*
X94970192Y-84736857D01*
X94797270Y-84813848D01*
X94797265Y-84813851D01*
X94644129Y-84925111D01*
X94517465Y-85065785D01*
X94438357Y-85202806D01*
X94387790Y-85251022D01*
X94319183Y-85264245D01*
X94280536Y-85254086D01*
X94259807Y-85244857D01*
X94259802Y-85244855D01*
X94114001Y-85213865D01*
X94074646Y-85205500D01*
X93885354Y-85205500D01*
X93852897Y-85212398D01*
X93700197Y-85244855D01*
X93700192Y-85244857D01*
X93527270Y-85321848D01*
X93527268Y-85321850D01*
X93512323Y-85332708D01*
X93446517Y-85356186D01*
X93378463Y-85340359D01*
X93351759Y-85320069D01*
X93317351Y-85285661D01*
X93317350Y-85285660D01*
X93187390Y-85205500D01*
X93170518Y-85195093D01*
X93170513Y-85195091D01*
X93169069Y-85194612D01*
X93006753Y-85140826D01*
X93006751Y-85140825D01*
X92905678Y-85130500D01*
X92207330Y-85130500D01*
X92207312Y-85130501D01*
X92106247Y-85140825D01*
X91942484Y-85195092D01*
X91942481Y-85195093D01*
X91795648Y-85285661D01*
X91781325Y-85299984D01*
X91720001Y-85333468D01*
X91650309Y-85328482D01*
X91605965Y-85299982D01*
X91592038Y-85286055D01*
X91592034Y-85286052D01*
X91445311Y-85195551D01*
X91445300Y-85195546D01*
X91281652Y-85141319D01*
X91180654Y-85131000D01*
X91081500Y-85131000D01*
X91081500Y-87080999D01*
X91180640Y-87080999D01*
X91180654Y-87080998D01*
X91281652Y-87070680D01*
X91445300Y-87016453D01*
X91445311Y-87016448D01*
X91592035Y-86925947D01*
X91605960Y-86912021D01*
X91667282Y-86878533D01*
X91736973Y-86883514D01*
X91781327Y-86912017D01*
X91795650Y-86926340D01*
X91942484Y-87016908D01*
X92106247Y-87071174D01*
X92207323Y-87081500D01*
X92905676Y-87081499D01*
X92905684Y-87081498D01*
X92905687Y-87081498D01*
X92961030Y-87075844D01*
X93006753Y-87071174D01*
X93170516Y-87016908D01*
X93317350Y-86926340D01*
X93351758Y-86891931D01*
X93413079Y-86858445D01*
X93482771Y-86863428D01*
X93512325Y-86879293D01*
X93527270Y-86890151D01*
X93608551Y-86926340D01*
X93700192Y-86967142D01*
X93700197Y-86967144D01*
X93885354Y-87006500D01*
X93885355Y-87006500D01*
X94074644Y-87006500D01*
X94074646Y-87006500D01*
X94151001Y-86990270D01*
X94220664Y-86995585D01*
X94264460Y-87023879D01*
X94444459Y-87203878D01*
X94477944Y-87265201D01*
X94472960Y-87334893D01*
X94431088Y-87390826D01*
X94365624Y-87415243D01*
X94344176Y-87414917D01*
X94266679Y-87407000D01*
X93693330Y-87407000D01*
X93693312Y-87407001D01*
X93592247Y-87417325D01*
X93428484Y-87471592D01*
X93428481Y-87471593D01*
X93281648Y-87562161D01*
X93159661Y-87684148D01*
X93069093Y-87830981D01*
X93069091Y-87830986D01*
X93046498Y-87899169D01*
X93014826Y-87994747D01*
X93014826Y-87994748D01*
X93014825Y-87994748D01*
X93004500Y-88095815D01*
X93004500Y-88794169D01*
X93004501Y-88794187D01*
X93014825Y-88895252D01*
X93044312Y-88984236D01*
X93069092Y-89059016D01*
X93159659Y-89205849D01*
X93159661Y-89205851D01*
X93173982Y-89220172D01*
X93207467Y-89281495D01*
X93202483Y-89351187D01*
X93173985Y-89395532D01*
X93160052Y-89409465D01*
X93069551Y-89556188D01*
X93069546Y-89556199D01*
X93015319Y-89719847D01*
X93005000Y-89820845D01*
X93005000Y-89920000D01*
X94954999Y-89920000D01*
X94954999Y-89820860D01*
X94954998Y-89820845D01*
X94944680Y-89719847D01*
X94890453Y-89556199D01*
X94890448Y-89556188D01*
X94799947Y-89409465D01*
X94799944Y-89409461D01*
X94786017Y-89395534D01*
X94752532Y-89334211D01*
X94757516Y-89264519D01*
X94786017Y-89220172D01*
X94800340Y-89205850D01*
X94846259Y-89131402D01*
X94898207Y-89084678D01*
X94951798Y-89072500D01*
X95150442Y-89072500D01*
X95217481Y-89092185D01*
X95263236Y-89144989D01*
X95273969Y-89185691D01*
X95283793Y-89297975D01*
X95283793Y-89297979D01*
X95340422Y-89509322D01*
X95340424Y-89509326D01*
X95340425Y-89509330D01*
X95380971Y-89596281D01*
X95432897Y-89707638D01*
X95444912Y-89724797D01*
X95558402Y-89886877D01*
X95713123Y-90041598D01*
X95892361Y-90167102D01*
X96090670Y-90259575D01*
X96302023Y-90316207D01*
X96484926Y-90332208D01*
X96519998Y-90335277D01*
X96520000Y-90335277D01*
X96520002Y-90335277D01*
X96574494Y-90330509D01*
X96737977Y-90316207D01*
X96771993Y-90307092D01*
X96841841Y-90308755D01*
X96891767Y-90339186D01*
X97994899Y-91442318D01*
X98028384Y-91503641D01*
X98023400Y-91573333D01*
X97994899Y-91617680D01*
X96891766Y-92720813D01*
X96830443Y-92754298D01*
X96771993Y-92752907D01*
X96737982Y-92743794D01*
X96737979Y-92743793D01*
X96737977Y-92743793D01*
X96628988Y-92734258D01*
X96520002Y-92724723D01*
X96519998Y-92724723D01*
X96374682Y-92737436D01*
X96302023Y-92743793D01*
X96302020Y-92743793D01*
X96090677Y-92800422D01*
X96090670Y-92800424D01*
X96090670Y-92800425D01*
X96070227Y-92809958D01*
X95892361Y-92892898D01*
X95892357Y-92892900D01*
X95713121Y-93018402D01*
X95558403Y-93173120D01*
X95469826Y-93299623D01*
X95415249Y-93343248D01*
X95368251Y-93352500D01*
X94951798Y-93352500D01*
X94884759Y-93332815D01*
X94846259Y-93293597D01*
X94826023Y-93260789D01*
X94800340Y-93219150D01*
X94786017Y-93204827D01*
X94752532Y-93143504D01*
X94757516Y-93073812D01*
X94786021Y-93029460D01*
X94799947Y-93015535D01*
X94890448Y-92868811D01*
X94890453Y-92868800D01*
X94944680Y-92705152D01*
X94954999Y-92604154D01*
X94955000Y-92604141D01*
X94955000Y-92505000D01*
X93005001Y-92505000D01*
X93005001Y-92604154D01*
X93015319Y-92705152D01*
X93069546Y-92868800D01*
X93069551Y-92868811D01*
X93160052Y-93015534D01*
X93160055Y-93015538D01*
X93173982Y-93029465D01*
X93207467Y-93090788D01*
X93202483Y-93160480D01*
X93173984Y-93204825D01*
X93159661Y-93219148D01*
X93069093Y-93365981D01*
X93069092Y-93365984D01*
X93014826Y-93529747D01*
X93014826Y-93529748D01*
X93014825Y-93529748D01*
X93004500Y-93630815D01*
X93004500Y-94329169D01*
X93004501Y-94329187D01*
X93014825Y-94430252D01*
X93035376Y-94492268D01*
X93063953Y-94578509D01*
X93069092Y-94594015D01*
X93069093Y-94594018D01*
X93089551Y-94627185D01*
X93159660Y-94740850D01*
X93281650Y-94862840D01*
X93428484Y-94953408D01*
X93592247Y-95007674D01*
X93693323Y-95018000D01*
X94266676Y-95017999D01*
X94266684Y-95017998D01*
X94266687Y-95017998D01*
X94322030Y-95012344D01*
X94367753Y-95007674D01*
X94531516Y-94953408D01*
X94678350Y-94862840D01*
X94800340Y-94740850D01*
X94846259Y-94666402D01*
X94898207Y-94619678D01*
X94951798Y-94607500D01*
X95368251Y-94607500D01*
X95435290Y-94627185D01*
X95469822Y-94660372D01*
X95558402Y-94786877D01*
X95713123Y-94941598D01*
X95892361Y-95067102D01*
X96090670Y-95159575D01*
X96302023Y-95216207D01*
X96484926Y-95232208D01*
X96519998Y-95235277D01*
X96520000Y-95235277D01*
X96520002Y-95235277D01*
X96548254Y-95232805D01*
X96737977Y-95216207D01*
X96949330Y-95159575D01*
X97147639Y-95067102D01*
X97326877Y-94941598D01*
X97458819Y-94809656D01*
X97520142Y-94776171D01*
X97589834Y-94781155D01*
X97645767Y-94823027D01*
X97670184Y-94888491D01*
X97670500Y-94897337D01*
X97670500Y-99785718D01*
X97650815Y-99852757D01*
X97598011Y-99898512D01*
X97528853Y-99908456D01*
X97465297Y-99879431D01*
X97458819Y-99873399D01*
X95650011Y-98064591D01*
X95650007Y-98064588D01*
X95547239Y-97995920D01*
X95547226Y-97995913D01*
X95513785Y-97982062D01*
X95433035Y-97948614D01*
X95433027Y-97948612D01*
X95311807Y-97924500D01*
X95311803Y-97924500D01*
X86397828Y-97924500D01*
X86330789Y-97904815D01*
X86285034Y-97852011D01*
X86275090Y-97782853D01*
X86298562Y-97726189D01*
X86383793Y-97612335D01*
X86383792Y-97612335D01*
X86383796Y-97612331D01*
X86434091Y-97477483D01*
X86440500Y-97417873D01*
X86440499Y-95622128D01*
X86434091Y-95562517D01*
X86432810Y-95559083D01*
X86383797Y-95427671D01*
X86383793Y-95427664D01*
X86297547Y-95312455D01*
X86297544Y-95312452D01*
X86182335Y-95226206D01*
X86182328Y-95226202D01*
X86050401Y-95176997D01*
X85994467Y-95135126D01*
X85970050Y-95069662D01*
X85984902Y-95001389D01*
X86006053Y-94973133D01*
X86128108Y-94851078D01*
X86263600Y-94657578D01*
X86363429Y-94443492D01*
X86363432Y-94443486D01*
X86420636Y-94230000D01*
X85523012Y-94230000D01*
X85555925Y-94172993D01*
X85590000Y-94045826D01*
X85590000Y-93914174D01*
X85555925Y-93787007D01*
X85523012Y-93730000D01*
X86420636Y-93730000D01*
X86420635Y-93729999D01*
X86363432Y-93516513D01*
X86363429Y-93516507D01*
X86263600Y-93302422D01*
X86263599Y-93302420D01*
X86128113Y-93108926D01*
X86128108Y-93108920D01*
X85961082Y-92941894D01*
X85774968Y-92811575D01*
X85731344Y-92756998D01*
X85724151Y-92687499D01*
X85755673Y-92625145D01*
X85774968Y-92608425D01*
X85961082Y-92478105D01*
X86128105Y-92311082D01*
X86263600Y-92117578D01*
X86362332Y-91905845D01*
X93005000Y-91905845D01*
X93005000Y-92005000D01*
X93730000Y-92005000D01*
X94230000Y-92005000D01*
X94954999Y-92005000D01*
X94954999Y-91905860D01*
X94954998Y-91905845D01*
X94944680Y-91804847D01*
X94890453Y-91641199D01*
X94890448Y-91641188D01*
X94799947Y-91494465D01*
X94799944Y-91494461D01*
X94678039Y-91372556D01*
X94589653Y-91318039D01*
X94542929Y-91266091D01*
X94531706Y-91197128D01*
X94559550Y-91133046D01*
X94589653Y-91106961D01*
X94678039Y-91052443D01*
X94799944Y-90930538D01*
X94799947Y-90930534D01*
X94890448Y-90783811D01*
X94890453Y-90783800D01*
X94944680Y-90620152D01*
X94954999Y-90519154D01*
X94955000Y-90519141D01*
X94955000Y-90420000D01*
X94230000Y-90420000D01*
X94230000Y-92005000D01*
X93730000Y-92005000D01*
X93730000Y-90420000D01*
X93005001Y-90420000D01*
X93005001Y-90519154D01*
X93015319Y-90620152D01*
X93069546Y-90783800D01*
X93069551Y-90783811D01*
X93160052Y-90930534D01*
X93160055Y-90930538D01*
X93281961Y-91052444D01*
X93281965Y-91052447D01*
X93370346Y-91106962D01*
X93417071Y-91158910D01*
X93428292Y-91227873D01*
X93400449Y-91291954D01*
X93370346Y-91318038D01*
X93281965Y-91372552D01*
X93281961Y-91372555D01*
X93160055Y-91494461D01*
X93160052Y-91494465D01*
X93069551Y-91641188D01*
X93069546Y-91641199D01*
X93015319Y-91804847D01*
X93005000Y-91905845D01*
X86362332Y-91905845D01*
X86363429Y-91903492D01*
X86363432Y-91903486D01*
X86420636Y-91690000D01*
X85523012Y-91690000D01*
X85555925Y-91632993D01*
X85590000Y-91505826D01*
X85590000Y-91374174D01*
X85555925Y-91247007D01*
X85523012Y-91190000D01*
X86420636Y-91190000D01*
X86420635Y-91189999D01*
X86363432Y-90976513D01*
X86363429Y-90976507D01*
X86263600Y-90762422D01*
X86263599Y-90762420D01*
X86128113Y-90568926D01*
X86128108Y-90568920D01*
X85961078Y-90401890D01*
X85775405Y-90271879D01*
X85731780Y-90217302D01*
X85724588Y-90147804D01*
X85756110Y-90085449D01*
X85775406Y-90068730D01*
X85775842Y-90068425D01*
X85961401Y-89938495D01*
X86128495Y-89771401D01*
X86264035Y-89577830D01*
X86363903Y-89363663D01*
X86425063Y-89135408D01*
X86445659Y-88900000D01*
X86445393Y-88896965D01*
X86440223Y-88837863D01*
X86425063Y-88664592D01*
X86363903Y-88436337D01*
X86264035Y-88222171D01*
X86258425Y-88214158D01*
X86128494Y-88028597D01*
X85961402Y-87861506D01*
X85961396Y-87861501D01*
X85775842Y-87731575D01*
X85732217Y-87676998D01*
X85725023Y-87607500D01*
X85756546Y-87545145D01*
X85775842Y-87528425D01*
X85881969Y-87454114D01*
X85961401Y-87398495D01*
X86128495Y-87231401D01*
X86264035Y-87037830D01*
X86363903Y-86823663D01*
X86425063Y-86595408D01*
X86442802Y-86392654D01*
X89794001Y-86392654D01*
X89804319Y-86493652D01*
X89858546Y-86657300D01*
X89858551Y-86657311D01*
X89949052Y-86804034D01*
X89949055Y-86804038D01*
X90070961Y-86925944D01*
X90070965Y-86925947D01*
X90217688Y-87016448D01*
X90217699Y-87016453D01*
X90381347Y-87070680D01*
X90482351Y-87080999D01*
X90581500Y-87080998D01*
X90581500Y-86356000D01*
X89794001Y-86356000D01*
X89794001Y-86392654D01*
X86442802Y-86392654D01*
X86445659Y-86360000D01*
X86425063Y-86124592D01*
X86376881Y-85944772D01*
X86363905Y-85896344D01*
X86363904Y-85896343D01*
X86363903Y-85896337D01*
X86328001Y-85819345D01*
X89794000Y-85819345D01*
X89794000Y-85856000D01*
X90581500Y-85856000D01*
X90581500Y-85130999D01*
X90482360Y-85131000D01*
X90482344Y-85131001D01*
X90381347Y-85141319D01*
X90217699Y-85195546D01*
X90217688Y-85195551D01*
X90070965Y-85286052D01*
X90070961Y-85286055D01*
X89949055Y-85407961D01*
X89949052Y-85407965D01*
X89858551Y-85554688D01*
X89858546Y-85554699D01*
X89804319Y-85718347D01*
X89794000Y-85819345D01*
X86328001Y-85819345D01*
X86264035Y-85682171D01*
X86258425Y-85674158D01*
X86128494Y-85488597D01*
X85961402Y-85321506D01*
X85961395Y-85321501D01*
X85767834Y-85185967D01*
X85767830Y-85185965D01*
X85748905Y-85177140D01*
X85553663Y-85086097D01*
X85553659Y-85086096D01*
X85553655Y-85086094D01*
X85325413Y-85024938D01*
X85325403Y-85024936D01*
X85090001Y-85004341D01*
X85089999Y-85004341D01*
X84854596Y-85024936D01*
X84854586Y-85024938D01*
X84626344Y-85086094D01*
X84626335Y-85086098D01*
X84412171Y-85185964D01*
X84412169Y-85185965D01*
X84218597Y-85321505D01*
X84051505Y-85488597D01*
X83921575Y-85674158D01*
X83866998Y-85717783D01*
X83797500Y-85724977D01*
X83735145Y-85693454D01*
X83718425Y-85674158D01*
X83588494Y-85488597D01*
X83421402Y-85321506D01*
X83421395Y-85321501D01*
X83227834Y-85185967D01*
X83227830Y-85185965D01*
X83208905Y-85177140D01*
X83013663Y-85086097D01*
X83013659Y-85086096D01*
X83013655Y-85086094D01*
X82785413Y-85024938D01*
X82785403Y-85024936D01*
X82550001Y-85004341D01*
X82549999Y-85004341D01*
X82314596Y-85024936D01*
X82314586Y-85024938D01*
X82086344Y-85086094D01*
X82086335Y-85086098D01*
X81872171Y-85185964D01*
X81872169Y-85185965D01*
X81678597Y-85321505D01*
X81511505Y-85488597D01*
X81375965Y-85682169D01*
X81375964Y-85682171D01*
X81276098Y-85896335D01*
X81276094Y-85896344D01*
X81214938Y-86124586D01*
X81214936Y-86124596D01*
X81194341Y-86359999D01*
X81194341Y-86360000D01*
X81214936Y-86595403D01*
X81214938Y-86595413D01*
X81276094Y-86823655D01*
X81276096Y-86823659D01*
X81276097Y-86823663D01*
X81356004Y-86995023D01*
X81375965Y-87037830D01*
X81375967Y-87037834D01*
X81484281Y-87192521D01*
X81511501Y-87231396D01*
X81511506Y-87231402D01*
X81678597Y-87398493D01*
X81678603Y-87398498D01*
X81864158Y-87528425D01*
X81907783Y-87583002D01*
X81914977Y-87652500D01*
X81883454Y-87714855D01*
X81864158Y-87731575D01*
X81678597Y-87861505D01*
X81511505Y-88028597D01*
X81375965Y-88222169D01*
X81375964Y-88222171D01*
X81276098Y-88436335D01*
X81276094Y-88436344D01*
X81214938Y-88664586D01*
X81214936Y-88664596D01*
X81194341Y-88899999D01*
X81194341Y-88900000D01*
X81214936Y-89135403D01*
X81214938Y-89135413D01*
X81276094Y-89363655D01*
X81276096Y-89363659D01*
X81276097Y-89363663D01*
X81350628Y-89523494D01*
X81375965Y-89577830D01*
X81375967Y-89577834D01*
X81475406Y-89719847D01*
X81511501Y-89771396D01*
X81511506Y-89771402D01*
X81678597Y-89938493D01*
X81678603Y-89938498D01*
X81864158Y-90068425D01*
X81907783Y-90123002D01*
X81914977Y-90192500D01*
X81883454Y-90254855D01*
X81864158Y-90271575D01*
X81678597Y-90401505D01*
X81511505Y-90568597D01*
X81377749Y-90759623D01*
X81323172Y-90803248D01*
X81276174Y-90812500D01*
X80710194Y-90812500D01*
X80588970Y-90836613D01*
X80588960Y-90836616D01*
X80474771Y-90883914D01*
X80474769Y-90883915D01*
X80417063Y-90922474D01*
X80417062Y-90922475D01*
X80371988Y-90952591D01*
X80371987Y-90952592D01*
X79967070Y-91357511D01*
X79863992Y-91460589D01*
X79830120Y-91494461D01*
X79776586Y-91547994D01*
X79776585Y-91547996D01*
X79707923Y-91650756D01*
X79707918Y-91650764D01*
X79707917Y-91650767D01*
X79699856Y-91670229D01*
X79694814Y-91682401D01*
X79660615Y-91764962D01*
X79660612Y-91764972D01*
X79638834Y-91874458D01*
X79638835Y-91874459D01*
X79636500Y-91886198D01*
X79636500Y-97597807D01*
X79660612Y-97719027D01*
X79660614Y-97719035D01*
X79681481Y-97769412D01*
X79707915Y-97833230D01*
X79707916Y-97833232D01*
X79707917Y-97833233D01*
X79737260Y-97877148D01*
X79745275Y-97889142D01*
X79745275Y-97889143D01*
X79776590Y-97936010D01*
X79776593Y-97936013D01*
X80792589Y-98952008D01*
X80838778Y-98998197D01*
X80879993Y-99039412D01*
X80982760Y-99108079D01*
X80982767Y-99108083D01*
X81015888Y-99121802D01*
X81015889Y-99121803D01*
X81025404Y-99125744D01*
X81096965Y-99155386D01*
X81218192Y-99179499D01*
X81218196Y-99179500D01*
X81218197Y-99179500D01*
X81341803Y-99179500D01*
X94938719Y-99179500D01*
X95005758Y-99199185D01*
X95026400Y-99215819D01*
X100127400Y-104316819D01*
X100160885Y-104378142D01*
X100155901Y-104447834D01*
X100114029Y-104503767D01*
X100048565Y-104528184D01*
X100039719Y-104528500D01*
X75122195Y-104528500D01*
X75000970Y-104552613D01*
X75000960Y-104552616D01*
X74886773Y-104599913D01*
X74886766Y-104599917D01*
X74862115Y-104616389D01*
X74837463Y-104632861D01*
X74837462Y-104632862D01*
X74783989Y-104668590D01*
X74783988Y-104668591D01*
X72947400Y-106505181D01*
X72886077Y-106538666D01*
X72859719Y-106541500D01*
X72803354Y-106541500D01*
X72770897Y-106548398D01*
X72618197Y-106580855D01*
X72618192Y-106580857D01*
X72445270Y-106657848D01*
X72445265Y-106657851D01*
X72292129Y-106769111D01*
X72165466Y-106909785D01*
X72070821Y-107073715D01*
X72070818Y-107073722D01*
X72012327Y-107253740D01*
X72012326Y-107253744D01*
X71992540Y-107442000D01*
X72012326Y-107630256D01*
X72012327Y-107630259D01*
X72070818Y-107810277D01*
X72070821Y-107810284D01*
X72165467Y-107974216D01*
X72202933Y-108015826D01*
X72292129Y-108114888D01*
X72445265Y-108226148D01*
X72445270Y-108226151D01*
X72618192Y-108303142D01*
X72618197Y-108303144D01*
X72803354Y-108342500D01*
X72803355Y-108342500D01*
X72992644Y-108342500D01*
X72992646Y-108342500D01*
X73177803Y-108303144D01*
X73350730Y-108226151D01*
X73503871Y-108114888D01*
X73630533Y-107974216D01*
X73725179Y-107810284D01*
X73783674Y-107630256D01*
X73800989Y-107465505D01*
X73827572Y-107400894D01*
X73836619Y-107390798D01*
X75407600Y-105819819D01*
X75468923Y-105786334D01*
X75495281Y-105783500D01*
X82320718Y-105783500D01*
X82387757Y-105803185D01*
X82433512Y-105855989D01*
X82443456Y-105925147D01*
X82438649Y-105945817D01*
X82426326Y-105983744D01*
X82406540Y-106172000D01*
X82426326Y-106360256D01*
X82426327Y-106360259D01*
X82484818Y-106540277D01*
X82484821Y-106540284D01*
X82579467Y-106704216D01*
X82669204Y-106803879D01*
X82706129Y-106844888D01*
X82859265Y-106956148D01*
X82859270Y-106956151D01*
X83032192Y-107033142D01*
X83032197Y-107033144D01*
X83217354Y-107072500D01*
X83217355Y-107072500D01*
X83406644Y-107072500D01*
X83406646Y-107072500D01*
X83591803Y-107033144D01*
X83764730Y-106956151D01*
X83917871Y-106844888D01*
X83921799Y-106840525D01*
X83981286Y-106803879D01*
X84013947Y-106799500D01*
X85404053Y-106799500D01*
X85471092Y-106819185D01*
X85496199Y-106840523D01*
X85500129Y-106844888D01*
X85500132Y-106844891D01*
X85500135Y-106844893D01*
X85653265Y-106956148D01*
X85653270Y-106956151D01*
X85826192Y-107033142D01*
X85826197Y-107033144D01*
X86011354Y-107072500D01*
X86011355Y-107072500D01*
X86200644Y-107072500D01*
X86200646Y-107072500D01*
X86385803Y-107033144D01*
X86558730Y-106956151D01*
X86711871Y-106844888D01*
X86715799Y-106840525D01*
X86775286Y-106803879D01*
X86807947Y-106799500D01*
X87508365Y-106799500D01*
X87575404Y-106819185D01*
X87621159Y-106871989D01*
X87631103Y-106941147D01*
X87615753Y-106985499D01*
X87564820Y-107073718D01*
X87564818Y-107073722D01*
X87506327Y-107253740D01*
X87506326Y-107253744D01*
X87486540Y-107442000D01*
X87506326Y-107630256D01*
X87506327Y-107630259D01*
X87564818Y-107810277D01*
X87564821Y-107810284D01*
X87659467Y-107974216D01*
X87696933Y-108015826D01*
X87786129Y-108114888D01*
X87939265Y-108226148D01*
X87939270Y-108226151D01*
X88112192Y-108303142D01*
X88112197Y-108303144D01*
X88297354Y-108342500D01*
X88297355Y-108342500D01*
X88486644Y-108342500D01*
X88486646Y-108342500D01*
X88671803Y-108303144D01*
X88844730Y-108226151D01*
X88852944Y-108220182D01*
X88918750Y-108196702D01*
X88925831Y-108196500D01*
X100399719Y-108196500D01*
X100466758Y-108216185D01*
X100487400Y-108232819D01*
X100858589Y-108604008D01*
X100945992Y-108691411D01*
X100945994Y-108691413D01*
X100945996Y-108691414D01*
X101048756Y-108760076D01*
X101048758Y-108760077D01*
X101048767Y-108760083D01*
X101073772Y-108770440D01*
X101096071Y-108779677D01*
X101138254Y-108797149D01*
X101162966Y-108807386D01*
X101284192Y-108831499D01*
X101284196Y-108831500D01*
X101284197Y-108831500D01*
X101407804Y-108831500D01*
X103946053Y-108831500D01*
X104013092Y-108851185D01*
X104038199Y-108872523D01*
X104042129Y-108876888D01*
X104042132Y-108876891D01*
X104042135Y-108876893D01*
X104195265Y-108988148D01*
X104195270Y-108988151D01*
X104368192Y-109065142D01*
X104368197Y-109065144D01*
X104553354Y-109104500D01*
X104553355Y-109104500D01*
X104742644Y-109104500D01*
X104742646Y-109104500D01*
X104927803Y-109065144D01*
X105100730Y-108988151D01*
X105253871Y-108876888D01*
X105380533Y-108736216D01*
X105475179Y-108572284D01*
X105533674Y-108392256D01*
X105553460Y-108204000D01*
X105533674Y-108015744D01*
X105475179Y-107835716D01*
X105380533Y-107671784D01*
X105253871Y-107531112D01*
X105253870Y-107531111D01*
X105100734Y-107419851D01*
X105100729Y-107419848D01*
X104927808Y-107342857D01*
X104925678Y-107342404D01*
X104896157Y-107336129D01*
X104834678Y-107302938D01*
X104800901Y-107241776D01*
X104805553Y-107172061D01*
X104834257Y-107127161D01*
X106903600Y-105057819D01*
X106964923Y-105024334D01*
X106991281Y-105021500D01*
X113988719Y-105021500D01*
X114055758Y-105041185D01*
X114076400Y-105057819D01*
X115139371Y-106120790D01*
X115172856Y-106182113D01*
X115175010Y-106195505D01*
X115192326Y-106360256D01*
X115192327Y-106360259D01*
X115250818Y-106540277D01*
X115250821Y-106540284D01*
X115345467Y-106704216D01*
X115435204Y-106803879D01*
X115472129Y-106844888D01*
X115625265Y-106956148D01*
X115625270Y-106956151D01*
X115798192Y-107033142D01*
X115798197Y-107033144D01*
X115983354Y-107072500D01*
X115983355Y-107072500D01*
X116172644Y-107072500D01*
X116172646Y-107072500D01*
X116357803Y-107033144D01*
X116530730Y-106956151D01*
X116683871Y-106844888D01*
X116810533Y-106704216D01*
X116905179Y-106540284D01*
X116963674Y-106360256D01*
X116983460Y-106172000D01*
X116963674Y-105983744D01*
X116905179Y-105803716D01*
X116810533Y-105639784D01*
X116683871Y-105499112D01*
X116683870Y-105499111D01*
X116530734Y-105387851D01*
X116530729Y-105387848D01*
X116357807Y-105310857D01*
X116357802Y-105310855D01*
X116212001Y-105279865D01*
X116172646Y-105271500D01*
X116172645Y-105271500D01*
X116116281Y-105271500D01*
X116049242Y-105251815D01*
X116028600Y-105235181D01*
X115010600Y-104217181D01*
X114977115Y-104155858D01*
X114982099Y-104086166D01*
X115023971Y-104030233D01*
X115089435Y-104005816D01*
X115098281Y-104005500D01*
X115766719Y-104005500D01*
X115833758Y-104025185D01*
X115854400Y-104041819D01*
X117446181Y-105633600D01*
X117479666Y-105694923D01*
X117482500Y-105721281D01*
X117482500Y-105983534D01*
X117462815Y-106050573D01*
X117450650Y-106066506D01*
X117377466Y-106147785D01*
X117282821Y-106311715D01*
X117282818Y-106311722D01*
X117224327Y-106491740D01*
X117224326Y-106491744D01*
X117204540Y-106680000D01*
X117224326Y-106868256D01*
X117224327Y-106868259D01*
X117282818Y-107048277D01*
X117282821Y-107048284D01*
X117377467Y-107212216D01*
X117459154Y-107302938D01*
X117504129Y-107352888D01*
X117657265Y-107464148D01*
X117657270Y-107464151D01*
X117830192Y-107541142D01*
X117830197Y-107541144D01*
X118015354Y-107580500D01*
X118015355Y-107580500D01*
X118204644Y-107580500D01*
X118204646Y-107580500D01*
X118389803Y-107541144D01*
X118562730Y-107464151D01*
X118715871Y-107352888D01*
X118842533Y-107212216D01*
X118921643Y-107075192D01*
X118972210Y-107026978D01*
X119040817Y-107013754D01*
X119079464Y-107023912D01*
X119100197Y-107033144D01*
X119285354Y-107072500D01*
X119285355Y-107072500D01*
X119474644Y-107072500D01*
X119474646Y-107072500D01*
X119659803Y-107033144D01*
X119832730Y-106956151D01*
X119985871Y-106844888D01*
X120112533Y-106704216D01*
X120126514Y-106680000D01*
X127110540Y-106680000D01*
X127130326Y-106868256D01*
X127130327Y-106868259D01*
X127188818Y-107048277D01*
X127188821Y-107048284D01*
X127283467Y-107212216D01*
X127365154Y-107302938D01*
X127410129Y-107352888D01*
X127563265Y-107464148D01*
X127563270Y-107464151D01*
X127736192Y-107541142D01*
X127736197Y-107541144D01*
X127921354Y-107580500D01*
X127921355Y-107580500D01*
X128110644Y-107580500D01*
X128110646Y-107580500D01*
X128295803Y-107541144D01*
X128468730Y-107464151D01*
X128621871Y-107352888D01*
X128748533Y-107212216D01*
X128843179Y-107048284D01*
X128901674Y-106868256D01*
X128918989Y-106703505D01*
X128945572Y-106638894D01*
X128954609Y-106628808D01*
X129255601Y-106327816D01*
X129316923Y-106294334D01*
X129343281Y-106291500D01*
X130870053Y-106291500D01*
X130937092Y-106311185D01*
X130962199Y-106332523D01*
X130966129Y-106336888D01*
X130966132Y-106336891D01*
X130966135Y-106336893D01*
X131119265Y-106448148D01*
X131119270Y-106448151D01*
X131292192Y-106525142D01*
X131292197Y-106525144D01*
X131477354Y-106564500D01*
X131477355Y-106564500D01*
X131666644Y-106564500D01*
X131666646Y-106564500D01*
X131851803Y-106525144D01*
X132024730Y-106448151D01*
X132177871Y-106336888D01*
X132304533Y-106196216D01*
X132399179Y-106032284D01*
X132457674Y-105852256D01*
X132477460Y-105664000D01*
X132457674Y-105475744D01*
X132399179Y-105295716D01*
X132304533Y-105131784D01*
X132177871Y-104991112D01*
X132177870Y-104991111D01*
X132024734Y-104879851D01*
X132024729Y-104879848D01*
X131851807Y-104802857D01*
X131851802Y-104802855D01*
X131686951Y-104767816D01*
X131666646Y-104763500D01*
X131477354Y-104763500D01*
X131457049Y-104767816D01*
X131292197Y-104802855D01*
X131292192Y-104802857D01*
X131119270Y-104879848D01*
X131119265Y-104879851D01*
X130966135Y-104991106D01*
X130966132Y-104991108D01*
X130964175Y-104993281D01*
X130962200Y-104995474D01*
X130902714Y-105032121D01*
X130870053Y-105036500D01*
X128970192Y-105036500D01*
X128848972Y-105060612D01*
X128848964Y-105060614D01*
X128768215Y-105094062D01*
X128734766Y-105107917D01*
X128734764Y-105107918D01*
X128693620Y-105135410D01*
X128693620Y-105135411D01*
X128631989Y-105176590D01*
X128631988Y-105176591D01*
X128065400Y-105743181D01*
X128004077Y-105776666D01*
X127977719Y-105779500D01*
X127921354Y-105779500D01*
X127889202Y-105786334D01*
X127736197Y-105818855D01*
X127736192Y-105818857D01*
X127563270Y-105895848D01*
X127563265Y-105895851D01*
X127410129Y-106007111D01*
X127283466Y-106147785D01*
X127188821Y-106311715D01*
X127188818Y-106311722D01*
X127130327Y-106491740D01*
X127130326Y-106491744D01*
X127110540Y-106680000D01*
X120126514Y-106680000D01*
X120207179Y-106540284D01*
X120265674Y-106360256D01*
X120285460Y-106172000D01*
X120265674Y-105983744D01*
X120207179Y-105803716D01*
X120112533Y-105639784D01*
X120039350Y-105558506D01*
X120009120Y-105495515D01*
X120007500Y-105475534D01*
X120007500Y-102804465D01*
X120027185Y-102737426D01*
X120039343Y-102721500D01*
X120112533Y-102640216D01*
X120207179Y-102476284D01*
X120265674Y-102296256D01*
X120285460Y-102108000D01*
X120265674Y-101919744D01*
X120253350Y-101881817D01*
X120251356Y-101811977D01*
X120287436Y-101752144D01*
X120350137Y-101721316D01*
X120371282Y-101719500D01*
X135578719Y-101719500D01*
X135645758Y-101739185D01*
X135666400Y-101755819D01*
X139720589Y-105810008D01*
X139766570Y-105855989D01*
X139807994Y-105897413D01*
X139807996Y-105897414D01*
X139910756Y-105966076D01*
X139910760Y-105966078D01*
X139910767Y-105966083D01*
X139966012Y-105988966D01*
X139966013Y-105988966D01*
X139966014Y-105988967D01*
X140024960Y-106013383D01*
X140024965Y-106013385D01*
X140024969Y-106013385D01*
X140024970Y-106013386D01*
X140146194Y-106037500D01*
X140146197Y-106037500D01*
X140269803Y-106037500D01*
X140966173Y-106037500D01*
X141033212Y-106057185D01*
X141067747Y-106090375D01*
X141138784Y-106191826D01*
X141201505Y-106281401D01*
X141323818Y-106403714D01*
X141357303Y-106465037D01*
X141352319Y-106534729D01*
X141310447Y-106590662D01*
X141279471Y-106607577D01*
X141147912Y-106656646D01*
X141147906Y-106656649D01*
X141032812Y-106742809D01*
X141032809Y-106742812D01*
X140946649Y-106857906D01*
X140946645Y-106857913D01*
X140896403Y-106992620D01*
X140896401Y-106992627D01*
X140890000Y-107052155D01*
X140890000Y-107700000D01*
X141806988Y-107700000D01*
X141774075Y-107757007D01*
X141740000Y-107884174D01*
X141740000Y-108015826D01*
X141774075Y-108142993D01*
X141806988Y-108200000D01*
X140890000Y-108200000D01*
X140890000Y-108847844D01*
X140896401Y-108907372D01*
X140896403Y-108907379D01*
X140946645Y-109042086D01*
X140946649Y-109042093D01*
X141032809Y-109157187D01*
X141032812Y-109157190D01*
X141147906Y-109243350D01*
X141147913Y-109243354D01*
X141282620Y-109293596D01*
X141282627Y-109293598D01*
X141342155Y-109299999D01*
X141342172Y-109300000D01*
X141990000Y-109300000D01*
X141990000Y-108383012D01*
X142047007Y-108415925D01*
X142174174Y-108450000D01*
X142305826Y-108450000D01*
X142432993Y-108415925D01*
X142490000Y-108383012D01*
X142490000Y-109300000D01*
X143137828Y-109300000D01*
X143137844Y-109299999D01*
X143197372Y-109293598D01*
X143197379Y-109293596D01*
X143332086Y-109243354D01*
X143332093Y-109243350D01*
X143447187Y-109157190D01*
X143447190Y-109157187D01*
X143538669Y-109034989D01*
X143540728Y-109036530D01*
X143580570Y-108996687D01*
X143648843Y-108981834D01*
X143714308Y-109006249D01*
X143756181Y-109062181D01*
X143764000Y-109105518D01*
X143764000Y-113668000D01*
X143744315Y-113735039D01*
X143691511Y-113780794D01*
X143640000Y-113792000D01*
X126056493Y-113792000D01*
X125989454Y-113772315D01*
X125943699Y-113719511D01*
X125933755Y-113650353D01*
X125946008Y-113611705D01*
X126020309Y-113465881D01*
X126020310Y-113465878D01*
X126075539Y-113295901D01*
X126075539Y-113295900D01*
X126075540Y-113295897D01*
X126103500Y-113119366D01*
X126103500Y-112940634D01*
X126075540Y-112764103D01*
X126075539Y-112764099D01*
X126075539Y-112764098D01*
X126020310Y-112594121D01*
X126020308Y-112594118D01*
X125972215Y-112499728D01*
X125939167Y-112434868D01*
X125834111Y-112290272D01*
X125707728Y-112163889D01*
X125563132Y-112058833D01*
X125403881Y-111977691D01*
X125403878Y-111977689D01*
X125233899Y-111922460D01*
X125116209Y-111903820D01*
X125057366Y-111894500D01*
X125057365Y-111894500D01*
X124651052Y-111894500D01*
X124584013Y-111874815D01*
X124538258Y-111822011D01*
X124528314Y-111752853D01*
X124545513Y-111705403D01*
X124603356Y-111611624D01*
X124603358Y-111611619D01*
X124658505Y-111445197D01*
X124658506Y-111445190D01*
X124668999Y-111342486D01*
X124669000Y-111342473D01*
X124669000Y-111205000D01*
X122219001Y-111205000D01*
X122219001Y-111342486D01*
X122229494Y-111445197D01*
X122284641Y-111611619D01*
X122284643Y-111611624D01*
X122342487Y-111705403D01*
X122360927Y-111772796D01*
X122340004Y-111839459D01*
X122286362Y-111884229D01*
X122236948Y-111894500D01*
X67831702Y-111894500D01*
X67764663Y-111874815D01*
X67744021Y-111858181D01*
X67211819Y-111325979D01*
X67178334Y-111264656D01*
X67175500Y-111238298D01*
X67175500Y-110567513D01*
X122219000Y-110567513D01*
X122219000Y-110705000D01*
X123194000Y-110705000D01*
X123694000Y-110705000D01*
X124668999Y-110705000D01*
X124668999Y-110567528D01*
X124668998Y-110567513D01*
X124658505Y-110464802D01*
X124603358Y-110298380D01*
X124603356Y-110298375D01*
X124511315Y-110149154D01*
X124387345Y-110025184D01*
X124238124Y-109933143D01*
X124238119Y-109933141D01*
X124071697Y-109877994D01*
X124071690Y-109877993D01*
X123968986Y-109867500D01*
X123694000Y-109867500D01*
X123694000Y-110705000D01*
X123194000Y-110705000D01*
X123194000Y-109867500D01*
X122919029Y-109867500D01*
X122919012Y-109867501D01*
X122816302Y-109877994D01*
X122649880Y-109933141D01*
X122649875Y-109933143D01*
X122500654Y-110025184D01*
X122376684Y-110149154D01*
X122284643Y-110298375D01*
X122284641Y-110298380D01*
X122229494Y-110464802D01*
X122229493Y-110464809D01*
X122219000Y-110567513D01*
X67175500Y-110567513D01*
X67175500Y-98220868D01*
X70540484Y-98220868D01*
X73356053Y-98220868D01*
X73356053Y-86765849D01*
X70540484Y-86765849D01*
X70540484Y-98220868D01*
X67175500Y-98220868D01*
X67175500Y-81312654D01*
X101224001Y-81312654D01*
X101234319Y-81413652D01*
X101288546Y-81577300D01*
X101288551Y-81577311D01*
X101379052Y-81724034D01*
X101379055Y-81724038D01*
X101500961Y-81845944D01*
X101500965Y-81845947D01*
X101647688Y-81936448D01*
X101647699Y-81936453D01*
X101811347Y-81990680D01*
X101912351Y-82000999D01*
X102011500Y-82000998D01*
X102011500Y-81276000D01*
X101224001Y-81276000D01*
X101224001Y-81312654D01*
X67175500Y-81312654D01*
X67175500Y-80739345D01*
X101224000Y-80739345D01*
X101224000Y-80776000D01*
X102011500Y-80776000D01*
X102011500Y-80050999D01*
X101912360Y-80051000D01*
X101912344Y-80051001D01*
X101811347Y-80061319D01*
X101647699Y-80115546D01*
X101647688Y-80115551D01*
X101500965Y-80206052D01*
X101500961Y-80206055D01*
X101379055Y-80327961D01*
X101379052Y-80327965D01*
X101288551Y-80474688D01*
X101288546Y-80474699D01*
X101234319Y-80638347D01*
X101224000Y-80739345D01*
X67175500Y-80739345D01*
X67175500Y-75946000D01*
X88502540Y-75946000D01*
X88522326Y-76134256D01*
X88522327Y-76134259D01*
X88580818Y-76314277D01*
X88580821Y-76314284D01*
X88675467Y-76478216D01*
X88785129Y-76600008D01*
X88802129Y-76618888D01*
X88955265Y-76730148D01*
X88955270Y-76730151D01*
X89128192Y-76807142D01*
X89128197Y-76807144D01*
X89313354Y-76846500D01*
X89313355Y-76846500D01*
X89502644Y-76846500D01*
X89502646Y-76846500D01*
X89687803Y-76807144D01*
X89860730Y-76730151D01*
X90013871Y-76618888D01*
X90140533Y-76478216D01*
X90235179Y-76314284D01*
X90293674Y-76134256D01*
X90313460Y-75946000D01*
X90293674Y-75757744D01*
X90293673Y-75757740D01*
X90293673Y-75757739D01*
X90292324Y-75751389D01*
X90293594Y-75751118D01*
X90289500Y-75725257D01*
X90289500Y-74610465D01*
X90309185Y-74543426D01*
X90321343Y-74527500D01*
X90394533Y-74446216D01*
X90489179Y-74282284D01*
X90547674Y-74102256D01*
X90567460Y-73914000D01*
X90547674Y-73725744D01*
X90547671Y-73725735D01*
X90547075Y-73722927D01*
X90547202Y-73721261D01*
X90546994Y-73719281D01*
X90547356Y-73719242D01*
X90552391Y-73653260D01*
X90594528Y-73597526D01*
X90660108Y-73573421D01*
X90728309Y-73588598D01*
X90756046Y-73609465D01*
X96089371Y-78942790D01*
X96122856Y-79004113D01*
X96125010Y-79017505D01*
X96142326Y-79182256D01*
X96142327Y-79182259D01*
X96200818Y-79362277D01*
X96200821Y-79362284D01*
X96295467Y-79526216D01*
X96382692Y-79623089D01*
X96422129Y-79666888D01*
X96575265Y-79778148D01*
X96575270Y-79778151D01*
X96748192Y-79855142D01*
X96748197Y-79855144D01*
X96933354Y-79894500D01*
X96933355Y-79894500D01*
X97122644Y-79894500D01*
X97122646Y-79894500D01*
X97307803Y-79855144D01*
X97480730Y-79778151D01*
X97633871Y-79666888D01*
X97760533Y-79526216D01*
X97855179Y-79362284D01*
X97913674Y-79182256D01*
X97933460Y-78994000D01*
X97913674Y-78805744D01*
X97855179Y-78625716D01*
X97760533Y-78461784D01*
X97633871Y-78321112D01*
X97633870Y-78321111D01*
X97480734Y-78209851D01*
X97480729Y-78209848D01*
X97307807Y-78132857D01*
X97307802Y-78132855D01*
X97162001Y-78101865D01*
X97122646Y-78093500D01*
X97122645Y-78093500D01*
X97066281Y-78093500D01*
X96999242Y-78073815D01*
X96978600Y-78057181D01*
X91362628Y-72441209D01*
X91329143Y-72379886D01*
X91326990Y-72366506D01*
X91309674Y-72201744D01*
X91251179Y-72021716D01*
X91156533Y-71857784D01*
X91029871Y-71717112D01*
X91029870Y-71717111D01*
X90876734Y-71605851D01*
X90876729Y-71605848D01*
X90703807Y-71528857D01*
X90703802Y-71528855D01*
X90558001Y-71497865D01*
X90518646Y-71489500D01*
X90329354Y-71489500D01*
X90296897Y-71496398D01*
X90144197Y-71528855D01*
X90144192Y-71528857D01*
X89971270Y-71605848D01*
X89971265Y-71605851D01*
X89818129Y-71717111D01*
X89691466Y-71857785D01*
X89596821Y-72021715D01*
X89596818Y-72021722D01*
X89538327Y-72201740D01*
X89538326Y-72201744D01*
X89518540Y-72390000D01*
X89538326Y-72578256D01*
X89538327Y-72578259D01*
X89596818Y-72758277D01*
X89596820Y-72758281D01*
X89596821Y-72758284D01*
X89639508Y-72832220D01*
X89655980Y-72900120D01*
X89633127Y-72966147D01*
X89578205Y-73009337D01*
X89557901Y-73015509D01*
X89382197Y-73052855D01*
X89382192Y-73052857D01*
X89209270Y-73129848D01*
X89209265Y-73129851D01*
X89056129Y-73241111D01*
X88929466Y-73381785D01*
X88834821Y-73545715D01*
X88834818Y-73545722D01*
X88776327Y-73725740D01*
X88776326Y-73725744D01*
X88756540Y-73914000D01*
X88776326Y-74102256D01*
X88776327Y-74102259D01*
X88834818Y-74282277D01*
X88834821Y-74282284D01*
X88929467Y-74446216D01*
X89002651Y-74527494D01*
X89032880Y-74590484D01*
X89034500Y-74610465D01*
X89034500Y-75046047D01*
X89014815Y-75113086D01*
X88962011Y-75158841D01*
X88960939Y-75159325D01*
X88955269Y-75161849D01*
X88955265Y-75161851D01*
X88802129Y-75273111D01*
X88675466Y-75413785D01*
X88580821Y-75577715D01*
X88580818Y-75577722D01*
X88522327Y-75757740D01*
X88522326Y-75757744D01*
X88502540Y-75946000D01*
X67175500Y-75946000D01*
X67175500Y-71387701D01*
X67195185Y-71320662D01*
X67211819Y-71300020D01*
X69776021Y-68735819D01*
X69837344Y-68702334D01*
X69863702Y-68699500D01*
X79666634Y-68699500D01*
X95160634Y-68699500D01*
X110400634Y-68699500D01*
X125640634Y-68699500D01*
X140194299Y-68699500D01*
X140261338Y-68719185D01*
X140281980Y-68735819D01*
X141068181Y-69522020D01*
X141101666Y-69583343D01*
X141104500Y-69609701D01*
X141104500Y-77456299D01*
X141084815Y-77523338D01*
X141068181Y-77543980D01*
X139773980Y-78838181D01*
X139712657Y-78871666D01*
X139686299Y-78874500D01*
X138086634Y-78874500D01*
X138027790Y-78883820D01*
X137910101Y-78902460D01*
X137910098Y-78902460D01*
X137740121Y-78957689D01*
X137740118Y-78957691D01*
X137580867Y-79038833D01*
X137436270Y-79143890D01*
X137309890Y-79270270D01*
X137204833Y-79414867D01*
X137123691Y-79574118D01*
X137123689Y-79574121D01*
X137068460Y-79744098D01*
X137068460Y-79744101D01*
X137059527Y-79800501D01*
X137040500Y-79920634D01*
X137040500Y-80099366D01*
X137043095Y-80115752D01*
X137068460Y-80275898D01*
X137068460Y-80275901D01*
X137123689Y-80445878D01*
X137123690Y-80445880D01*
X137170927Y-80538588D01*
X137204833Y-80605132D01*
X137309889Y-80749728D01*
X137436272Y-80876111D01*
X137580868Y-80981167D01*
X137740119Y-81062309D01*
X137740121Y-81062310D01*
X137781806Y-81075854D01*
X137910103Y-81117540D01*
X138086634Y-81145500D01*
X138086635Y-81145500D01*
X140297370Y-81145500D01*
X140375824Y-81133073D01*
X140473897Y-81117541D01*
X140602193Y-81075853D01*
X140643881Y-81062309D01*
X140803132Y-80981167D01*
X140947728Y-80876111D01*
X141074111Y-80749728D01*
X143106111Y-78717728D01*
X143161962Y-78640856D01*
X143211167Y-78573132D01*
X143292309Y-78413881D01*
X143318196Y-78334210D01*
X143347541Y-78243897D01*
X143374479Y-78073815D01*
X143375500Y-78067370D01*
X143375500Y-68998634D01*
X143347540Y-68822103D01*
X143347539Y-68822099D01*
X143347539Y-68822098D01*
X143292310Y-68652121D01*
X143292308Y-68652118D01*
X143211166Y-68492867D01*
X143150319Y-68409118D01*
X143106111Y-68348271D01*
X142020141Y-67262302D01*
X141986657Y-67200980D01*
X141991641Y-67131288D01*
X142033513Y-67075355D01*
X142098977Y-67050938D01*
X142108196Y-67050624D01*
X143640405Y-67055598D01*
G37*
%TD.AperFunction*%
%TA.AperFunction,Conductor*%
G36*
X107012703Y-98756568D02*
G01*
X107019181Y-98762600D01*
X109835988Y-101579408D01*
X109835992Y-101579411D01*
X109938760Y-101648079D01*
X109938773Y-101648086D01*
X110027543Y-101684855D01*
X110052965Y-101695385D01*
X110052969Y-101695385D01*
X110052970Y-101695386D01*
X110174193Y-101719500D01*
X110174196Y-101719500D01*
X110174197Y-101719500D01*
X118388718Y-101719500D01*
X118455757Y-101739185D01*
X118501512Y-101791989D01*
X118511456Y-101861147D01*
X118506649Y-101881817D01*
X118494326Y-101919744D01*
X118474540Y-102108000D01*
X118494326Y-102296256D01*
X118494327Y-102296259D01*
X118552818Y-102476277D01*
X118552821Y-102476284D01*
X118631176Y-102612000D01*
X118647467Y-102640216D01*
X118720651Y-102721494D01*
X118750880Y-102784484D01*
X118752500Y-102804465D01*
X118752500Y-104865718D01*
X118732815Y-104932757D01*
X118680011Y-104978512D01*
X118610853Y-104988456D01*
X118547297Y-104959431D01*
X118540820Y-104953401D01*
X118533754Y-104946335D01*
X118510008Y-104922589D01*
X117495912Y-103908493D01*
X116478013Y-102890593D01*
X116478009Y-102890590D01*
X116478008Y-102890589D01*
X116447194Y-102870000D01*
X116447192Y-102869998D01*
X116375239Y-102821920D01*
X116375226Y-102821913D01*
X116341785Y-102808062D01*
X116261035Y-102774614D01*
X116261027Y-102774612D01*
X116139807Y-102750500D01*
X116139803Y-102750500D01*
X105656500Y-102750500D01*
X105589461Y-102730815D01*
X105543706Y-102678011D01*
X105532500Y-102626500D01*
X105532499Y-102075330D01*
X105532498Y-102075312D01*
X105522174Y-101974247D01*
X105504112Y-101919740D01*
X105467908Y-101810484D01*
X105378231Y-101665095D01*
X105359792Y-101597704D01*
X105378231Y-101534904D01*
X105467908Y-101389516D01*
X105522174Y-101225753D01*
X105532500Y-101124677D01*
X105532499Y-100788779D01*
X105552183Y-100721741D01*
X105568813Y-100701104D01*
X106667411Y-99602508D01*
X106736083Y-99499733D01*
X106783385Y-99385535D01*
X106791276Y-99345861D01*
X106807500Y-99264305D01*
X106807500Y-98850281D01*
X106827185Y-98783242D01*
X106879989Y-98737487D01*
X106949147Y-98727543D01*
X107012703Y-98756568D01*
G37*
%TD.AperFunction*%
%TA.AperFunction,Conductor*%
G36*
X102298333Y-94504098D02*
G01*
X102342680Y-94532599D01*
X103493181Y-95683100D01*
X103526666Y-95744423D01*
X103529500Y-95770781D01*
X103529500Y-96220227D01*
X103544313Y-96332735D01*
X103546417Y-96340587D01*
X103545283Y-96340890D01*
X103552500Y-96377165D01*
X103552500Y-96422719D01*
X103532815Y-96489758D01*
X103516181Y-96510400D01*
X103231991Y-96794590D01*
X103053177Y-96973403D01*
X102994398Y-97032182D01*
X102933075Y-97065666D01*
X102906718Y-97068500D01*
X102674331Y-97068500D01*
X102674312Y-97068501D01*
X102573247Y-97078825D01*
X102409484Y-97133092D01*
X102409481Y-97133093D01*
X102262648Y-97223661D01*
X102140661Y-97345648D01*
X102050093Y-97492481D01*
X102050092Y-97492484D01*
X101995826Y-97656247D01*
X101995826Y-97656248D01*
X101995825Y-97656248D01*
X101985500Y-97757315D01*
X101985500Y-98330669D01*
X101985501Y-98330687D01*
X101995825Y-98431752D01*
X102024032Y-98516874D01*
X102050092Y-98595516D01*
X102137660Y-98737487D01*
X102140661Y-98742351D01*
X102206181Y-98807871D01*
X102239666Y-98869194D01*
X102242500Y-98895552D01*
X102242500Y-99808716D01*
X102222815Y-99875755D01*
X102170011Y-99921510D01*
X102157513Y-99926419D01*
X102155487Y-99927090D01*
X102008648Y-100017661D01*
X101886661Y-100139648D01*
X101796093Y-100286481D01*
X101796091Y-100286486D01*
X101768719Y-100369088D01*
X101741826Y-100450247D01*
X101741826Y-100450248D01*
X101741825Y-100450248D01*
X101731500Y-100551315D01*
X101731500Y-101124669D01*
X101731501Y-101124687D01*
X101741825Y-101225752D01*
X101796092Y-101389515D01*
X101796093Y-101389518D01*
X101886061Y-101535379D01*
X101904501Y-101602772D01*
X101886061Y-101665573D01*
X101796548Y-101810694D01*
X101796546Y-101810699D01*
X101742319Y-101974347D01*
X101732000Y-102075345D01*
X101732000Y-102112000D01*
X102845500Y-102112000D01*
X102912539Y-102131685D01*
X102958294Y-102184489D01*
X102969500Y-102236000D01*
X102969500Y-102488000D01*
X102949815Y-102555039D01*
X102897011Y-102600794D01*
X102845500Y-102612000D01*
X101732001Y-102612000D01*
X101732001Y-102626500D01*
X101712316Y-102693539D01*
X101659512Y-102739294D01*
X101608001Y-102750500D01*
X101403281Y-102750500D01*
X101336242Y-102730815D01*
X101315600Y-102714181D01*
X98961819Y-100360400D01*
X98928334Y-100299077D01*
X98925500Y-100272719D01*
X98925500Y-98139154D01*
X99355001Y-98139154D01*
X99365319Y-98240152D01*
X99419546Y-98403800D01*
X99419551Y-98403811D01*
X99510052Y-98550534D01*
X99510055Y-98550538D01*
X99631961Y-98672444D01*
X99631965Y-98672447D01*
X99778688Y-98762948D01*
X99778699Y-98762953D01*
X99942347Y-98817180D01*
X100043352Y-98827499D01*
X100080000Y-98827499D01*
X100580000Y-98827499D01*
X100616640Y-98827499D01*
X100616654Y-98827498D01*
X100717652Y-98817180D01*
X100881300Y-98762953D01*
X100881311Y-98762948D01*
X101028034Y-98672447D01*
X101028038Y-98672444D01*
X101149944Y-98550538D01*
X101149947Y-98550534D01*
X101240448Y-98403811D01*
X101240453Y-98403800D01*
X101294680Y-98240152D01*
X101304999Y-98139154D01*
X101305000Y-98139141D01*
X101305000Y-98040000D01*
X100580000Y-98040000D01*
X100580000Y-98827499D01*
X100080000Y-98827499D01*
X100080000Y-98040000D01*
X99355001Y-98040000D01*
X99355001Y-98139154D01*
X98925500Y-98139154D01*
X98925500Y-95415142D01*
X98945185Y-95348103D01*
X98997989Y-95302348D01*
X99067147Y-95292404D01*
X99130703Y-95321429D01*
X99141642Y-95332162D01*
X99216129Y-95414888D01*
X99307814Y-95481501D01*
X99316586Y-95487874D01*
X99359251Y-95543204D01*
X99364811Y-95607941D01*
X99365514Y-95608013D01*
X99365135Y-95611717D01*
X99365230Y-95612817D01*
X99364957Y-95614130D01*
X99364826Y-95614737D01*
X99354500Y-95715815D01*
X99354500Y-96414169D01*
X99354501Y-96414187D01*
X99364825Y-96515252D01*
X99380214Y-96561692D01*
X99419092Y-96679016D01*
X99509659Y-96825849D01*
X99509661Y-96825851D01*
X99523982Y-96840172D01*
X99557467Y-96901495D01*
X99552483Y-96971187D01*
X99523985Y-97015532D01*
X99510052Y-97029465D01*
X99419551Y-97176188D01*
X99419546Y-97176199D01*
X99365319Y-97339847D01*
X99355000Y-97440845D01*
X99355000Y-97540000D01*
X101304999Y-97540000D01*
X101304999Y-97440860D01*
X101304998Y-97440845D01*
X101294680Y-97339847D01*
X101240453Y-97176199D01*
X101240448Y-97176188D01*
X101149947Y-97029465D01*
X101149944Y-97029461D01*
X101136017Y-97015534D01*
X101102532Y-96954211D01*
X101107516Y-96884519D01*
X101136017Y-96840172D01*
X101150340Y-96825850D01*
X101240908Y-96679016D01*
X101295174Y-96515253D01*
X101305500Y-96414177D01*
X101305499Y-95715824D01*
X101295174Y-95614747D01*
X101266962Y-95529613D01*
X101264561Y-95459786D01*
X101296986Y-95402931D01*
X102167322Y-94532596D01*
X102228641Y-94499114D01*
X102298333Y-94504098D01*
G37*
%TD.AperFunction*%
%TA.AperFunction,Conductor*%
G36*
X104941539Y-97813685D02*
G01*
X104987294Y-97866489D01*
X104998500Y-97918000D01*
X104998500Y-99018999D01*
X105097640Y-99018999D01*
X105097654Y-99018998D01*
X105172395Y-99011363D01*
X105241088Y-99024133D01*
X105291972Y-99072013D01*
X105308893Y-99139803D01*
X105286477Y-99205979D01*
X105272678Y-99222402D01*
X104668898Y-99826181D01*
X104607575Y-99859666D01*
X104581217Y-99862500D01*
X104245331Y-99862500D01*
X104245312Y-99862501D01*
X104144247Y-99872825D01*
X103980484Y-99927092D01*
X103980481Y-99927093D01*
X103833648Y-100017661D01*
X103719681Y-100131629D01*
X103658358Y-100165114D01*
X103588666Y-100160130D01*
X103544319Y-100131629D01*
X103533819Y-100121129D01*
X103500334Y-100059806D01*
X103497500Y-100033448D01*
X103497500Y-99090845D01*
X103517185Y-99023806D01*
X103569989Y-98978051D01*
X103582493Y-98973140D01*
X103637516Y-98954908D01*
X103784350Y-98864340D01*
X103798671Y-98850018D01*
X103859989Y-98816533D01*
X103929681Y-98821514D01*
X103974034Y-98850017D01*
X103987961Y-98863944D01*
X103987965Y-98863947D01*
X104134688Y-98954448D01*
X104134699Y-98954453D01*
X104298347Y-99008680D01*
X104399351Y-99018999D01*
X104498500Y-99018998D01*
X104498500Y-97918000D01*
X104518185Y-97850961D01*
X104570989Y-97805206D01*
X104622500Y-97794000D01*
X104874500Y-97794000D01*
X104941539Y-97813685D01*
G37*
%TD.AperFunction*%
%TA.AperFunction,Conductor*%
G36*
X104946470Y-96743906D02*
G01*
X104946705Y-96742126D01*
X104954763Y-96743186D01*
X104954764Y-96743187D01*
X105067280Y-96758000D01*
X105067287Y-96758000D01*
X105292713Y-96758000D01*
X105292720Y-96758000D01*
X105405236Y-96743187D01*
X105405236Y-96743186D01*
X105412315Y-96742255D01*
X105481350Y-96753020D01*
X105533606Y-96799400D01*
X105552500Y-96865194D01*
X105552500Y-97028687D01*
X105532815Y-97095726D01*
X105480011Y-97141481D01*
X105410853Y-97151425D01*
X105369010Y-97136258D01*
X105368851Y-97136601D01*
X105364995Y-97134803D01*
X105363403Y-97134226D01*
X105362305Y-97133548D01*
X105362300Y-97133546D01*
X105198652Y-97079319D01*
X105097654Y-97069000D01*
X104904253Y-97069000D01*
X104837214Y-97049315D01*
X104791459Y-96996511D01*
X104781515Y-96927353D01*
X104782635Y-96920811D01*
X104788863Y-96889500D01*
X104798387Y-96841616D01*
X104830770Y-96779707D01*
X104891486Y-96745132D01*
X104903821Y-96742869D01*
X104912732Y-96741696D01*
X104946470Y-96743906D01*
G37*
%TD.AperFunction*%
%TA.AperFunction,Conductor*%
G36*
X85340000Y-93546988D02*
G01*
X85282993Y-93514075D01*
X85155826Y-93480000D01*
X85024174Y-93480000D01*
X84897007Y-93514075D01*
X84840000Y-93546988D01*
X84840000Y-91873012D01*
X84897007Y-91905925D01*
X85024174Y-91940000D01*
X85155826Y-91940000D01*
X85282993Y-91905925D01*
X85340000Y-91873012D01*
X85340000Y-93546988D01*
G37*
%TD.AperFunction*%
%TD*%
M02*
