%TF.GenerationSoftware,KiCad,Pcbnew,8.0.3*%
%TF.CreationDate,2024-06-21T15:52:04+03:00*%
%TF.ProjectId,pm,706d2e6b-6963-4616-945f-706362585858,rev?*%
%TF.SameCoordinates,Original*%
%TF.FileFunction,Copper,L1,Top*%
%TF.FilePolarity,Positive*%
%FSLAX46Y46*%
G04 Gerber Fmt 4.6, Leading zero omitted, Abs format (unit mm)*
G04 Created by KiCad (PCBNEW 8.0.3) date 2024-06-21 15:52:04*
%MOMM*%
%LPD*%
G01*
G04 APERTURE LIST*
G04 Aperture macros list*
%AMRoundRect*
0 Rectangle with rounded corners*
0 $1 Rounding radius*
0 $2 $3 $4 $5 $6 $7 $8 $9 X,Y pos of 4 corners*
0 Add a 4 corners polygon primitive as box body*
4,1,4,$2,$3,$4,$5,$6,$7,$8,$9,$2,$3,0*
0 Add four circle primitives for the rounded corners*
1,1,$1+$1,$2,$3*
1,1,$1+$1,$4,$5*
1,1,$1+$1,$6,$7*
1,1,$1+$1,$8,$9*
0 Add four rect primitives between the rounded corners*
20,1,$1+$1,$2,$3,$4,$5,0*
20,1,$1+$1,$4,$5,$6,$7,0*
20,1,$1+$1,$6,$7,$8,$9,0*
20,1,$1+$1,$8,$9,$2,$3,0*%
G04 Aperture macros list end*
%ADD10C,0.300000*%
%TA.AperFunction,NonConductor*%
%ADD11C,0.300000*%
%TD*%
%TA.AperFunction,ComponentPad*%
%ADD12C,2.000000*%
%TD*%
%TA.AperFunction,ComponentPad*%
%ADD13R,1.700000X1.700000*%
%TD*%
%TA.AperFunction,ComponentPad*%
%ADD14O,1.700000X1.700000*%
%TD*%
%TA.AperFunction,SMDPad,CuDef*%
%ADD15RoundRect,0.218750X-0.218750X-0.256250X0.218750X-0.256250X0.218750X0.256250X-0.218750X0.256250X0*%
%TD*%
%TA.AperFunction,ComponentPad*%
%ADD16C,1.500000*%
%TD*%
%TA.AperFunction,SMDPad,CuDef*%
%ADD17RoundRect,0.375000X-0.625000X-0.375000X0.625000X-0.375000X0.625000X0.375000X-0.625000X0.375000X0*%
%TD*%
%TA.AperFunction,SMDPad,CuDef*%
%ADD18RoundRect,0.500000X-0.500000X-1.400000X0.500000X-1.400000X0.500000X1.400000X-0.500000X1.400000X0*%
%TD*%
%TA.AperFunction,SMDPad,CuDef*%
%ADD19RoundRect,0.237500X-0.237500X0.300000X-0.237500X-0.300000X0.237500X-0.300000X0.237500X0.300000X0*%
%TD*%
%TA.AperFunction,SMDPad,CuDef*%
%ADD20RoundRect,0.250000X0.475000X-0.337500X0.475000X0.337500X-0.475000X0.337500X-0.475000X-0.337500X0*%
%TD*%
%TA.AperFunction,SMDPad,CuDef*%
%ADD21RoundRect,0.237500X0.237500X-0.300000X0.237500X0.300000X-0.237500X0.300000X-0.237500X-0.300000X0*%
%TD*%
%TA.AperFunction,SMDPad,CuDef*%
%ADD22RoundRect,0.075000X0.075000X-0.650000X0.075000X0.650000X-0.075000X0.650000X-0.075000X-0.650000X0*%
%TD*%
%TA.AperFunction,ComponentPad*%
%ADD23RoundRect,0.250000X-0.650000X-1.550000X0.650000X-1.550000X0.650000X1.550000X-0.650000X1.550000X0*%
%TD*%
%TA.AperFunction,ComponentPad*%
%ADD24O,1.800000X3.600000*%
%TD*%
%TA.AperFunction,ComponentPad*%
%ADD25RoundRect,0.250000X0.650000X1.550000X-0.650000X1.550000X-0.650000X-1.550000X0.650000X-1.550000X0*%
%TD*%
%TA.AperFunction,SMDPad,CuDef*%
%ADD26RoundRect,0.250000X0.400000X0.625000X-0.400000X0.625000X-0.400000X-0.625000X0.400000X-0.625000X0*%
%TD*%
%TA.AperFunction,SMDPad,CuDef*%
%ADD27RoundRect,0.075000X-0.075000X0.650000X-0.075000X-0.650000X0.075000X-0.650000X0.075000X0.650000X0*%
%TD*%
%TA.AperFunction,SMDPad,CuDef*%
%ADD28RoundRect,0.250000X-0.400000X-0.625000X0.400000X-0.625000X0.400000X0.625000X-0.400000X0.625000X0*%
%TD*%
%TA.AperFunction,SMDPad,CuDef*%
%ADD29RoundRect,0.150000X0.425000X-0.150000X0.425000X0.150000X-0.425000X0.150000X-0.425000X-0.150000X0*%
%TD*%
%TA.AperFunction,SMDPad,CuDef*%
%ADD30RoundRect,0.075000X0.500000X-0.075000X0.500000X0.075000X-0.500000X0.075000X-0.500000X-0.075000X0*%
%TD*%
%TA.AperFunction,ComponentPad*%
%ADD31O,2.100000X1.000000*%
%TD*%
%TA.AperFunction,ComponentPad*%
%ADD32O,1.800000X1.000000*%
%TD*%
%TA.AperFunction,ViaPad*%
%ADD33C,0.800000*%
%TD*%
%TA.AperFunction,ViaPad*%
%ADD34C,0.600000*%
%TD*%
%TA.AperFunction,Conductor*%
%ADD35C,0.254000*%
%TD*%
%TA.AperFunction,Conductor*%
%ADD36C,0.762000*%
%TD*%
%TA.AperFunction,Conductor*%
%ADD37C,0.304800*%
%TD*%
%TA.AperFunction,Conductor*%
%ADD38C,0.203200*%
%TD*%
%TA.AperFunction,Conductor*%
%ADD39C,1.270000*%
%TD*%
G04 APERTURE END LIST*
D10*
D11*
X72698828Y-96981489D02*
X71198828Y-96981489D01*
X71198828Y-96981489D02*
X72270257Y-96481489D01*
X72270257Y-96481489D02*
X71198828Y-95981489D01*
X71198828Y-95981489D02*
X72698828Y-95981489D01*
X72698828Y-95267203D02*
X71198828Y-95267203D01*
X71198828Y-95267203D02*
X71198828Y-94695774D01*
X71198828Y-94695774D02*
X71270257Y-94552917D01*
X71270257Y-94552917D02*
X71341685Y-94481488D01*
X71341685Y-94481488D02*
X71484542Y-94410060D01*
X71484542Y-94410060D02*
X71698828Y-94410060D01*
X71698828Y-94410060D02*
X71841685Y-94481488D01*
X71841685Y-94481488D02*
X71913114Y-94552917D01*
X71913114Y-94552917D02*
X71984542Y-94695774D01*
X71984542Y-94695774D02*
X71984542Y-95267203D01*
X72698828Y-93767203D02*
X71198828Y-93767203D01*
X71198828Y-93767203D02*
X72270257Y-93267203D01*
X72270257Y-93267203D02*
X71198828Y-92767203D01*
X71198828Y-92767203D02*
X72698828Y-92767203D01*
X71698828Y-91052917D02*
X72698828Y-90695774D01*
X72698828Y-90695774D02*
X71698828Y-90338631D01*
X71198828Y-89481488D02*
X71198828Y-89338631D01*
X71198828Y-89338631D02*
X71270257Y-89195774D01*
X71270257Y-89195774D02*
X71341685Y-89124346D01*
X71341685Y-89124346D02*
X71484542Y-89052917D01*
X71484542Y-89052917D02*
X71770257Y-88981488D01*
X71770257Y-88981488D02*
X72127400Y-88981488D01*
X72127400Y-88981488D02*
X72413114Y-89052917D01*
X72413114Y-89052917D02*
X72555971Y-89124346D01*
X72555971Y-89124346D02*
X72627400Y-89195774D01*
X72627400Y-89195774D02*
X72698828Y-89338631D01*
X72698828Y-89338631D02*
X72698828Y-89481488D01*
X72698828Y-89481488D02*
X72627400Y-89624346D01*
X72627400Y-89624346D02*
X72555971Y-89695774D01*
X72555971Y-89695774D02*
X72413114Y-89767203D01*
X72413114Y-89767203D02*
X72127400Y-89838631D01*
X72127400Y-89838631D02*
X71770257Y-89838631D01*
X71770257Y-89838631D02*
X71484542Y-89767203D01*
X71484542Y-89767203D02*
X71341685Y-89695774D01*
X71341685Y-89695774D02*
X71270257Y-89624346D01*
X71270257Y-89624346D02*
X71198828Y-89481488D01*
X72555971Y-88338632D02*
X72627400Y-88267203D01*
X72627400Y-88267203D02*
X72698828Y-88338632D01*
X72698828Y-88338632D02*
X72627400Y-88410060D01*
X72627400Y-88410060D02*
X72555971Y-88338632D01*
X72555971Y-88338632D02*
X72698828Y-88338632D01*
X72698828Y-86838631D02*
X72698828Y-87695774D01*
X72698828Y-87267203D02*
X71198828Y-87267203D01*
X71198828Y-87267203D02*
X71413114Y-87410060D01*
X71413114Y-87410060D02*
X71555971Y-87552917D01*
X71555971Y-87552917D02*
X71627400Y-87695774D01*
D12*
%TO.P,TP1,1,1*%
%TO.N,Net-(U11-PA9)*%
X121158000Y-89662000D03*
%TD*%
D13*
%TO.P,J21,1,Pin_1*%
%TO.N,+3V3*%
X85090000Y-96520000D03*
D14*
%TO.P,J21,2,Pin_2*%
%TO.N,/SWDIO*%
X82550000Y-96520000D03*
%TO.P,J21,3,Pin_3*%
%TO.N,GND*%
X85090000Y-93980000D03*
%TO.P,J21,4,Pin_4*%
%TO.N,/SWDCLK*%
X82550000Y-93980000D03*
%TO.P,J21,5,Pin_5*%
%TO.N,GND*%
X85090000Y-91440000D03*
%TO.P,J21,6,Pin_6*%
%TO.N,/SWO*%
X82550000Y-91440000D03*
%TO.P,J21,7,Pin_7*%
%TO.N,unconnected-(J21-Pin_7-Pad7)*%
X85090000Y-88900000D03*
%TO.P,J21,8,Pin_8*%
%TO.N,unconnected-(J21-Pin_8-Pad8)*%
X82550000Y-88900000D03*
%TO.P,J21,9,Pin_9*%
%TO.N,unconnected-(J21-Pin_9-Pad9)*%
X85090000Y-86360000D03*
%TO.P,J21,10,Pin_10*%
%TO.N,/nRST*%
X82550000Y-86360000D03*
%TD*%
D15*
%TO.P,D1,1,K*%
%TO.N,+3V3*%
X93954500Y-82550000D03*
%TO.P,D1,2,A*%
%TO.N,Net-(D1-A)*%
X95529500Y-82550000D03*
%TD*%
D16*
%TO.P,Y1,1,1*%
%TO.N,Net-(U11-PH1)*%
X96520000Y-89080000D03*
%TO.P,Y1,2,2*%
%TO.N,Net-(U11-PH0)*%
X96520000Y-93980000D03*
%TD*%
D17*
%TO.P,U12,1,ADJ*%
%TO.N,GND*%
X135940000Y-77710000D03*
%TO.P,U12,2,VO*%
%TO.N,+3V3*%
X135940000Y-80010000D03*
D18*
X142240000Y-80010000D03*
D17*
%TO.P,U12,3,VI*%
%TO.N,+5V*%
X135940000Y-82310000D03*
%TD*%
D19*
%TO.P,C26,1*%
%TO.N,GND*%
X132588000Y-81941500D03*
%TO.P,C26,2*%
%TO.N,+5V*%
X132588000Y-83666500D03*
%TD*%
D20*
%TO.P,C25,2*%
%TO.N,GND*%
X129540000Y-81637500D03*
%TO.P,C25,1*%
%TO.N,+5V*%
X129540000Y-83712500D03*
%TD*%
D19*
%TO.P,C5,1*%
%TO.N,+3V3*%
X81280000Y-67650000D03*
%TO.P,C5,2*%
%TO.N,GND*%
X81280000Y-69375000D03*
%TD*%
D21*
%TO.P,C8,1*%
%TO.N,+3V3*%
X111760000Y-113030000D03*
%TO.P,C8,2*%
%TO.N,GND*%
X111760000Y-111305000D03*
%TD*%
D22*
%TO.P,U4,1,CS*%
%TO.N,/SPI0_CS3*%
X122190000Y-72390000D03*
%TO.P,U4,2,MOSI*%
%TO.N,/SPI0_MOSI*%
X122690000Y-72390000D03*
%TO.P,U4,3,ALERT*%
%TO.N,unconnected-(U4-ALERT-Pad3)*%
X123190000Y-72390000D03*
%TO.P,U4,4,MISO*%
%TO.N,/SPI0_MISO*%
X123690000Y-72390000D03*
%TO.P,U4,5,SCLK*%
%TO.N,/SPI0_SCLK*%
X124190000Y-72390000D03*
%TO.P,U4,6,VS*%
%TO.N,+3V3*%
X124190000Y-67990000D03*
%TO.P,U4,7,GND*%
%TO.N,GND*%
X123690000Y-67990000D03*
%TO.P,U4,8,VBUS*%
%TO.N,Net-(J7-Pin_3)*%
X123190000Y-67990000D03*
%TO.P,U4,9,IN-*%
%TO.N,Net-(J7-Pin_1)*%
X122690000Y-67990000D03*
%TO.P,U4,10,IN+*%
%TO.N,Net-(J7-Pin_2)*%
X122190000Y-67990000D03*
%TD*%
D19*
%TO.P,C18,1*%
%TO.N,GND*%
X132334000Y-77877500D03*
%TO.P,C18,2*%
%TO.N,+3V3*%
X132334000Y-79602500D03*
%TD*%
%TO.P,C1,1*%
%TO.N,+3V3*%
X142240000Y-67650000D03*
%TO.P,C1,2*%
%TO.N,GND*%
X142240000Y-69375000D03*
%TD*%
D23*
%TO.P,J14,1,Pin_1*%
%TO.N,Net-(J13-Pin_1)*%
X83820000Y-129540000D03*
D24*
%TO.P,J14,2,Pin_2*%
%TO.N,Net-(J13-Pin_2)*%
X88900000Y-129540000D03*
%TO.P,J14,3,Pin_3*%
%TO.N,Net-(J13-Pin_3)*%
X93980000Y-129540000D03*
%TD*%
D25*
%TO.P,J8,1,Pin_1*%
%TO.N,Net-(J7-Pin_1)*%
X124460000Y-50800000D03*
D24*
%TO.P,J8,2,Pin_2*%
%TO.N,Net-(J7-Pin_2)*%
X119380000Y-50800000D03*
%TO.P,J8,3,Pin_3*%
%TO.N,Net-(J7-Pin_3)*%
X114300000Y-50800000D03*
%TD*%
D21*
%TO.P,C7,1*%
%TO.N,+3V3*%
X127000000Y-113030000D03*
%TO.P,C7,2*%
%TO.N,GND*%
X127000000Y-111305000D03*
%TD*%
D23*
%TO.P,J16,1,Pin_1*%
%TO.N,Net-(J15-Pin_1)*%
X99060000Y-129540000D03*
D24*
%TO.P,J16,2,Pin_2*%
%TO.N,Net-(J15-Pin_2)*%
X104140000Y-129540000D03*
%TO.P,J16,3,Pin_3*%
%TO.N,Net-(J15-Pin_3)*%
X109220000Y-129540000D03*
%TD*%
D13*
%TO.P,JP2,1,A*%
%TO.N,Net-(J3-Pin_2)*%
X86360000Y-63840000D03*
D14*
%TO.P,JP2,2,B*%
%TO.N,Net-(J3-Pin_3)*%
X83820000Y-63840000D03*
%TD*%
D13*
%TO.P,JP7,1,A*%
%TO.N,Net-(J13-Pin_2)*%
X91440000Y-116840000D03*
D14*
%TO.P,JP7,2,B*%
%TO.N,Net-(J13-Pin_3)*%
X93980000Y-116840000D03*
%TD*%
D21*
%TO.P,C19,1*%
%TO.N,GND*%
X138938000Y-104902000D03*
%TO.P,C19,2*%
%TO.N,+3V3*%
X138938000Y-103177000D03*
%TD*%
D13*
%TO.P,JP3,1,A*%
%TO.N,Net-(J5-Pin_2)*%
X101600000Y-63840000D03*
D14*
%TO.P,JP3,2,B*%
%TO.N,Net-(J5-Pin_3)*%
X99060000Y-63840000D03*
%TD*%
D26*
%TO.P,R9,1*%
%TO.N,Net-(J17-Pin_2)*%
X117400000Y-116840000D03*
%TO.P,R9,2*%
%TO.N,Net-(J17-Pin_1)*%
X114300000Y-116840000D03*
%TD*%
D22*
%TO.P,U3,1,CS*%
%TO.N,/SPI0_CS2*%
X106950000Y-72390000D03*
%TO.P,U3,2,MOSI*%
%TO.N,/SPI0_MOSI*%
X107450000Y-72390000D03*
%TO.P,U3,3,ALERT*%
%TO.N,unconnected-(U3-ALERT-Pad3)*%
X107950000Y-72390000D03*
%TO.P,U3,4,MISO*%
%TO.N,/SPI0_MISO*%
X108450000Y-72390000D03*
%TO.P,U3,5,SCLK*%
%TO.N,/SPI0_SCLK*%
X108950000Y-72390000D03*
%TO.P,U3,6,VS*%
%TO.N,+3V3*%
X108950000Y-67990000D03*
%TO.P,U3,7,GND*%
%TO.N,GND*%
X108450000Y-67990000D03*
%TO.P,U3,8,VBUS*%
%TO.N,Net-(J5-Pin_3)*%
X107950000Y-67990000D03*
%TO.P,U3,9,IN-*%
%TO.N,Net-(J5-Pin_1)*%
X107450000Y-67990000D03*
%TO.P,U3,10,IN+*%
%TO.N,Net-(J5-Pin_2)*%
X106950000Y-67990000D03*
%TD*%
D13*
%TO.P,JP1,1,A*%
%TO.N,Net-(J1-Pin_2)*%
X71120000Y-63840000D03*
D14*
%TO.P,JP1,2,B*%
%TO.N,Net-(J1-Pin_3)*%
X68580000Y-63840000D03*
%TD*%
D27*
%TO.P,U8,1,CS*%
%TO.N,/SPI1_CS2*%
X101330000Y-108290000D03*
%TO.P,U8,2,MOSI*%
%TO.N,/SPI1_MOSI*%
X100830000Y-108290000D03*
%TO.P,U8,3,ALERT*%
%TO.N,unconnected-(U8-ALERT-Pad3)*%
X100330000Y-108290000D03*
%TO.P,U8,4,MISO*%
%TO.N,/SPI1_MISO*%
X99830000Y-108290000D03*
%TO.P,U8,5,SCLK*%
%TO.N,/SPI1_SCLK*%
X99330000Y-108290000D03*
%TO.P,U8,6,VS*%
%TO.N,+3V3*%
X99330000Y-112690000D03*
%TO.P,U8,7,GND*%
%TO.N,GND*%
X99830000Y-112690000D03*
%TO.P,U8,8,VBUS*%
%TO.N,Net-(J15-Pin_3)*%
X100330000Y-112690000D03*
%TO.P,U8,9,IN-*%
%TO.N,Net-(J15-Pin_1)*%
X100830000Y-112690000D03*
%TO.P,U8,10,IN+*%
%TO.N,Net-(J15-Pin_2)*%
X101330000Y-112690000D03*
%TD*%
D26*
%TO.P,R6,1*%
%TO.N,Net-(J11-Pin_2)*%
X71680000Y-116840000D03*
%TO.P,R6,2*%
%TO.N,Net-(J11-Pin_1)*%
X68580000Y-116840000D03*
%TD*%
D28*
%TO.P,R4,1*%
%TO.N,Net-(J7-Pin_2)*%
X121360000Y-63840000D03*
%TO.P,R4,2*%
%TO.N,Net-(J7-Pin_1)*%
X124460000Y-63840000D03*
%TD*%
D25*
%TO.P,J2,1,Pin_1*%
%TO.N,Net-(J1-Pin_1)*%
X78740000Y-50800000D03*
D24*
%TO.P,J2,2,Pin_2*%
%TO.N,Net-(J1-Pin_2)*%
X73660000Y-50800000D03*
%TO.P,J2,3,Pin_3*%
%TO.N,Net-(J1-Pin_3)*%
X68580000Y-50800000D03*
%TD*%
D25*
%TO.P,J6,1,Pin_1*%
%TO.N,Net-(J5-Pin_1)*%
X109220000Y-50800000D03*
D24*
%TO.P,J6,2,Pin_2*%
%TO.N,Net-(J5-Pin_2)*%
X104140000Y-50800000D03*
%TO.P,J6,3,Pin_3*%
%TO.N,Net-(J5-Pin_3)*%
X99060000Y-50800000D03*
%TD*%
D13*
%TO.P,J19,1,Pin_1*%
%TO.N,Net-(J19-Pin_1)*%
X129540000Y-121920000D03*
D14*
%TO.P,J19,2,Pin_2*%
%TO.N,Net-(J19-Pin_2)*%
X132080000Y-121920000D03*
%TO.P,J19,3,Pin_3*%
%TO.N,Net-(J19-Pin_3)*%
X134620000Y-121920000D03*
%TD*%
D21*
%TO.P,C10,1*%
%TO.N,+3V3*%
X81280000Y-113030000D03*
%TO.P,C10,2*%
%TO.N,GND*%
X81280000Y-111305000D03*
%TD*%
D25*
%TO.P,J4,1,Pin_1*%
%TO.N,Net-(J3-Pin_1)*%
X93980000Y-50800000D03*
D24*
%TO.P,J4,2,Pin_2*%
%TO.N,Net-(J3-Pin_2)*%
X88900000Y-50800000D03*
%TO.P,J4,3,Pin_3*%
%TO.N,Net-(J3-Pin_3)*%
X83820000Y-50800000D03*
%TD*%
D26*
%TO.P,R8,1*%
%TO.N,Net-(J15-Pin_2)*%
X102160000Y-116840000D03*
%TO.P,R8,2*%
%TO.N,Net-(J15-Pin_1)*%
X99060000Y-116840000D03*
%TD*%
D28*
%TO.P,R2,1*%
%TO.N,Net-(J3-Pin_2)*%
X90880000Y-63840000D03*
%TO.P,R2,2*%
%TO.N,Net-(J3-Pin_1)*%
X93980000Y-63840000D03*
%TD*%
D19*
%TO.P,C3,1*%
%TO.N,+3V3*%
X111760000Y-67650000D03*
%TO.P,C3,2*%
%TO.N,GND*%
X111760000Y-69375000D03*
%TD*%
D13*
%TO.P,J3,1,Pin_1*%
%TO.N,Net-(J3-Pin_1)*%
X93980000Y-58760000D03*
D14*
%TO.P,J3,2,Pin_2*%
%TO.N,Net-(J3-Pin_2)*%
X91440000Y-58760000D03*
%TO.P,J3,3,Pin_3*%
%TO.N,Net-(J3-Pin_3)*%
X88900000Y-58760000D03*
%TD*%
D13*
%TO.P,JP4,1,A*%
%TO.N,Net-(J7-Pin_2)*%
X116840000Y-63840000D03*
D14*
%TO.P,JP4,2,B*%
%TO.N,Net-(J7-Pin_3)*%
X114300000Y-63840000D03*
%TD*%
D22*
%TO.P,U5,1,CS*%
%TO.N,/SPI0_CS4*%
X137430000Y-72390000D03*
%TO.P,U5,2,MOSI*%
%TO.N,/SPI0_MOSI*%
X137930000Y-72390000D03*
%TO.P,U5,3,ALERT*%
%TO.N,unconnected-(U5-ALERT-Pad3)*%
X138430000Y-72390000D03*
%TO.P,U5,4,MISO*%
%TO.N,/SPI0_MISO*%
X138930000Y-72390000D03*
%TO.P,U5,5,SCLK*%
%TO.N,/SPI0_SCLK*%
X139430000Y-72390000D03*
%TO.P,U5,6,VS*%
%TO.N,+3V3*%
X139430000Y-67990000D03*
%TO.P,U5,7,GND*%
%TO.N,GND*%
X138930000Y-67990000D03*
%TO.P,U5,8,VBUS*%
%TO.N,Net-(J10-Pin_3)*%
X138430000Y-67990000D03*
%TO.P,U5,9,IN-*%
%TO.N,Net-(J10-Pin_1)*%
X137930000Y-67990000D03*
%TO.P,U5,10,IN+*%
%TO.N,Net-(J10-Pin_2)*%
X137430000Y-67990000D03*
%TD*%
D28*
%TO.P,R5,1*%
%TO.N,Net-(J10-Pin_2)*%
X137160000Y-63840000D03*
%TO.P,R5,2*%
%TO.N,Net-(J10-Pin_1)*%
X140260000Y-63840000D03*
%TD*%
D27*
%TO.P,U7,1,CS*%
%TO.N,/SPI1_CS1*%
X86090000Y-108290000D03*
%TO.P,U7,2,MOSI*%
%TO.N,/SPI1_MOSI*%
X85590000Y-108290000D03*
%TO.P,U7,3,ALERT*%
%TO.N,unconnected-(U7-ALERT-Pad3)*%
X85090000Y-108290000D03*
%TO.P,U7,4,MISO*%
%TO.N,/SPI1_MISO*%
X84590000Y-108290000D03*
%TO.P,U7,5,SCLK*%
%TO.N,/SPI1_SCLK*%
X84090000Y-108290000D03*
%TO.P,U7,6,VS*%
%TO.N,+3V3*%
X84090000Y-112690000D03*
%TO.P,U7,7,GND*%
%TO.N,GND*%
X84590000Y-112690000D03*
%TO.P,U7,8,VBUS*%
%TO.N,Net-(J13-Pin_3)*%
X85090000Y-112690000D03*
%TO.P,U7,9,IN-*%
%TO.N,Net-(J13-Pin_1)*%
X85590000Y-112690000D03*
%TO.P,U7,10,IN+*%
%TO.N,Net-(J13-Pin_2)*%
X86090000Y-112690000D03*
%TD*%
D13*
%TO.P,JP5,1,A*%
%TO.N,Net-(J10-Pin_2)*%
X132080000Y-63840000D03*
D14*
%TO.P,JP5,2,B*%
%TO.N,Net-(J10-Pin_3)*%
X129540000Y-63840000D03*
%TD*%
D22*
%TO.P,U1,1,CS*%
%TO.N,/SPI0_CS0*%
X76470000Y-72390000D03*
%TO.P,U1,2,MOSI*%
%TO.N,/SPI0_MOSI*%
X76970000Y-72390000D03*
%TO.P,U1,3,ALERT*%
%TO.N,unconnected-(U1-ALERT-Pad3)*%
X77470000Y-72390000D03*
%TO.P,U1,4,MISO*%
%TO.N,/SPI0_MISO*%
X77970000Y-72390000D03*
%TO.P,U1,5,SCLK*%
%TO.N,/SPI0_SCLK*%
X78470000Y-72390000D03*
%TO.P,U1,6,VS*%
%TO.N,+3V3*%
X78470000Y-67990000D03*
%TO.P,U1,7,GND*%
%TO.N,GND*%
X77970000Y-67990000D03*
%TO.P,U1,8,VBUS*%
%TO.N,Net-(J1-Pin_3)*%
X77470000Y-67990000D03*
%TO.P,U1,9,IN-*%
%TO.N,Net-(J1-Pin_1)*%
X76970000Y-67990000D03*
%TO.P,U1,10,IN+*%
%TO.N,Net-(J1-Pin_2)*%
X76470000Y-67990000D03*
%TD*%
D27*
%TO.P,U9,1,CS*%
%TO.N,/SPI1_CS3*%
X116570000Y-108290000D03*
%TO.P,U9,2,MOSI*%
%TO.N,/SPI1_MOSI*%
X116070000Y-108290000D03*
%TO.P,U9,3,ALERT*%
%TO.N,unconnected-(U9-ALERT-Pad3)*%
X115570000Y-108290000D03*
%TO.P,U9,4,MISO*%
%TO.N,/SPI1_MISO*%
X115070000Y-108290000D03*
%TO.P,U9,5,SCLK*%
%TO.N,/SPI1_SCLK*%
X114570000Y-108290000D03*
%TO.P,U9,6,VS*%
%TO.N,+3V3*%
X114570000Y-112690000D03*
%TO.P,U9,7,GND*%
%TO.N,GND*%
X115070000Y-112690000D03*
%TO.P,U9,8,VBUS*%
%TO.N,Net-(J17-Pin_3)*%
X115570000Y-112690000D03*
%TO.P,U9,9,IN-*%
%TO.N,Net-(J17-Pin_1)*%
X116070000Y-112690000D03*
%TO.P,U9,10,IN+*%
%TO.N,Net-(J17-Pin_2)*%
X116570000Y-112690000D03*
%TD*%
D13*
%TO.P,J7,1,Pin_1*%
%TO.N,Net-(J7-Pin_1)*%
X124460000Y-58760000D03*
D14*
%TO.P,J7,2,Pin_2*%
%TO.N,Net-(J7-Pin_2)*%
X121920000Y-58760000D03*
%TO.P,J7,3,Pin_3*%
%TO.N,Net-(J7-Pin_3)*%
X119380000Y-58760000D03*
%TD*%
D13*
%TO.P,JP6,1,A*%
%TO.N,Net-(J11-Pin_2)*%
X76200000Y-116840000D03*
D14*
%TO.P,JP6,2,B*%
%TO.N,Net-(J11-Pin_3)*%
X78740000Y-116840000D03*
%TD*%
D20*
%TO.P,C22,1*%
%TO.N,+3V3*%
X129540000Y-79545000D03*
%TO.P,C22,2*%
%TO.N,GND*%
X129540000Y-77470000D03*
%TD*%
D23*
%TO.P,J18,1,Pin_1*%
%TO.N,Net-(J17-Pin_1)*%
X114300000Y-129540000D03*
D24*
%TO.P,J18,2,Pin_2*%
%TO.N,Net-(J17-Pin_2)*%
X119380000Y-129540000D03*
%TO.P,J18,3,Pin_3*%
%TO.N,Net-(J17-Pin_3)*%
X124460000Y-129540000D03*
%TD*%
D21*
%TO.P,C9,1*%
%TO.N,+3V3*%
X95250000Y-113030000D03*
%TO.P,C9,2*%
%TO.N,GND*%
X95250000Y-111305000D03*
%TD*%
D23*
%TO.P,J12,1,Pin_1*%
%TO.N,Net-(J11-Pin_1)*%
X68580000Y-129540000D03*
D24*
%TO.P,J12,2,Pin_2*%
%TO.N,Net-(J11-Pin_2)*%
X73660000Y-129540000D03*
%TO.P,J12,3,Pin_3*%
%TO.N,Net-(J11-Pin_3)*%
X78740000Y-129540000D03*
%TD*%
D23*
%TO.P,J20,1,Pin_1*%
%TO.N,Net-(J19-Pin_1)*%
X129540000Y-129540000D03*
D24*
%TO.P,J20,2,Pin_2*%
%TO.N,Net-(J19-Pin_2)*%
X134620000Y-129540000D03*
%TO.P,J20,3,Pin_3*%
%TO.N,Net-(J19-Pin_3)*%
X139700000Y-129540000D03*
%TD*%
D27*
%TO.P,U6,1,CS*%
%TO.N,/SPI1_CS0*%
X70850000Y-108290000D03*
%TO.P,U6,2,MOSI*%
%TO.N,/SPI1_MOSI*%
X70350000Y-108290000D03*
%TO.P,U6,3,ALERT*%
%TO.N,unconnected-(U6-ALERT-Pad3)*%
X69850000Y-108290000D03*
%TO.P,U6,4,MISO*%
%TO.N,/SPI1_MISO*%
X69350000Y-108290000D03*
%TO.P,U6,5,SCLK*%
%TO.N,/SPI1_SCLK*%
X68850000Y-108290000D03*
%TO.P,U6,6,VS*%
%TO.N,+3V3*%
X68850000Y-112690000D03*
%TO.P,U6,7,GND*%
%TO.N,GND*%
X69350000Y-112690000D03*
%TO.P,U6,8,VBUS*%
%TO.N,Net-(J11-Pin_3)*%
X69850000Y-112690000D03*
%TO.P,U6,9,IN-*%
%TO.N,Net-(J11-Pin_1)*%
X70350000Y-112690000D03*
%TO.P,U6,10,IN+*%
%TO.N,Net-(J11-Pin_2)*%
X70850000Y-112690000D03*
%TD*%
D13*
%TO.P,J1,1,Pin_1*%
%TO.N,Net-(J1-Pin_1)*%
X78740000Y-58760000D03*
D14*
%TO.P,J1,2,Pin_2*%
%TO.N,Net-(J1-Pin_2)*%
X76200000Y-58760000D03*
%TO.P,J1,3,Pin_3*%
%TO.N,Net-(J1-Pin_3)*%
X73660000Y-58760000D03*
%TD*%
D13*
%TO.P,JP9,1,A*%
%TO.N,Net-(J17-Pin_2)*%
X121920000Y-116840000D03*
D14*
%TO.P,JP9,2,B*%
%TO.N,Net-(J17-Pin_3)*%
X124460000Y-116840000D03*
%TD*%
D13*
%TO.P,JP10,1,A*%
%TO.N,Net-(J19-Pin_2)*%
X137160000Y-116840000D03*
D14*
%TO.P,JP10,2,B*%
%TO.N,Net-(J19-Pin_3)*%
X139700000Y-116840000D03*
%TD*%
D26*
%TO.P,R10,1*%
%TO.N,Net-(J19-Pin_2)*%
X132640000Y-116840000D03*
%TO.P,R10,2*%
%TO.N,Net-(J19-Pin_1)*%
X129540000Y-116840000D03*
%TD*%
D28*
%TO.P,R1,1*%
%TO.N,Net-(J1-Pin_2)*%
X75640000Y-63840000D03*
%TO.P,R1,2*%
%TO.N,Net-(J1-Pin_1)*%
X78740000Y-63840000D03*
%TD*%
D13*
%TO.P,J9,1,Pin_1*%
%TO.N,Net-(J10-Pin_1)*%
X139700000Y-58760000D03*
D14*
%TO.P,J9,2,Pin_2*%
%TO.N,Net-(J10-Pin_2)*%
X137160000Y-58760000D03*
%TO.P,J9,3,Pin_3*%
%TO.N,Net-(J10-Pin_3)*%
X134620000Y-58760000D03*
%TD*%
D13*
%TO.P,J13,1,Pin_1*%
%TO.N,Net-(J13-Pin_1)*%
X83820000Y-121920000D03*
D14*
%TO.P,J13,2,Pin_2*%
%TO.N,Net-(J13-Pin_2)*%
X86360000Y-121920000D03*
%TO.P,J13,3,Pin_3*%
%TO.N,Net-(J13-Pin_3)*%
X88900000Y-121920000D03*
%TD*%
D21*
%TO.P,C6,1*%
%TO.N,+3V3*%
X66040000Y-113030000D03*
%TO.P,C6,2*%
%TO.N,GND*%
X66040000Y-111305000D03*
%TD*%
D13*
%TO.P,J15,1,Pin_1*%
%TO.N,Net-(J15-Pin_1)*%
X99060000Y-121920000D03*
D14*
%TO.P,J15,2,Pin_2*%
%TO.N,Net-(J15-Pin_2)*%
X101600000Y-121920000D03*
%TO.P,J15,3,Pin_3*%
%TO.N,Net-(J15-Pin_3)*%
X104140000Y-121920000D03*
%TD*%
D25*
%TO.P,J10,1,Pin_1*%
%TO.N,Net-(J10-Pin_1)*%
X139700000Y-50800000D03*
D24*
%TO.P,J10,2,Pin_2*%
%TO.N,Net-(J10-Pin_2)*%
X134620000Y-50800000D03*
%TO.P,J10,3,Pin_3*%
%TO.N,Net-(J10-Pin_3)*%
X129540000Y-50800000D03*
%TD*%
D13*
%TO.P,J5,1,Pin_1*%
%TO.N,Net-(J5-Pin_1)*%
X109220000Y-58760000D03*
D14*
%TO.P,J5,2,Pin_2*%
%TO.N,Net-(J5-Pin_2)*%
X106680000Y-58760000D03*
%TO.P,J5,3,Pin_3*%
%TO.N,Net-(J5-Pin_3)*%
X104140000Y-58760000D03*
%TD*%
D13*
%TO.P,JP8,1,A*%
%TO.N,Net-(J15-Pin_2)*%
X106680000Y-116840000D03*
D14*
%TO.P,JP8,2,B*%
%TO.N,Net-(J15-Pin_3)*%
X109220000Y-116840000D03*
%TD*%
D13*
%TO.P,J17,1,Pin_1*%
%TO.N,Net-(J17-Pin_1)*%
X114300000Y-121920000D03*
D14*
%TO.P,J17,2,Pin_2*%
%TO.N,Net-(J17-Pin_2)*%
X116840000Y-121920000D03*
%TO.P,J17,3,Pin_3*%
%TO.N,Net-(J17-Pin_3)*%
X119380000Y-121920000D03*
%TD*%
D19*
%TO.P,C2,1*%
%TO.N,+3V3*%
X127000000Y-67650000D03*
%TO.P,C2,2*%
%TO.N,GND*%
X127000000Y-69375000D03*
%TD*%
D27*
%TO.P,U10,1,CS*%
%TO.N,/SPI1_CS4*%
X132080000Y-108290000D03*
%TO.P,U10,2,MOSI*%
%TO.N,/SPI1_MOSI*%
X131580000Y-108290000D03*
%TO.P,U10,3,ALERT*%
%TO.N,unconnected-(U10-ALERT-Pad3)*%
X131080000Y-108290000D03*
%TO.P,U10,4,MISO*%
%TO.N,/SPI1_MISO*%
X130580000Y-108290000D03*
%TO.P,U10,5,SCLK*%
%TO.N,/SPI1_SCLK*%
X130080000Y-108290000D03*
%TO.P,U10,6,VS*%
%TO.N,+3V3*%
X130080000Y-112690000D03*
%TO.P,U10,7,GND*%
%TO.N,GND*%
X130580000Y-112690000D03*
%TO.P,U10,8,VBUS*%
%TO.N,Net-(J19-Pin_3)*%
X131080000Y-112690000D03*
%TO.P,U10,9,IN-*%
%TO.N,Net-(J19-Pin_1)*%
X131580000Y-112690000D03*
%TO.P,U10,10,IN+*%
%TO.N,Net-(J19-Pin_2)*%
X132080000Y-112690000D03*
%TD*%
D13*
%TO.P,J11,1,Pin_1*%
%TO.N,Net-(J11-Pin_1)*%
X68580000Y-121920000D03*
D14*
%TO.P,J11,2,Pin_2*%
%TO.N,Net-(J11-Pin_2)*%
X71120000Y-121920000D03*
%TO.P,J11,3,Pin_3*%
%TO.N,Net-(J11-Pin_3)*%
X73660000Y-121920000D03*
%TD*%
D22*
%TO.P,U2,1,CS*%
%TO.N,/SPI0_CS1*%
X91710000Y-72390000D03*
%TO.P,U2,2,MOSI*%
%TO.N,/SPI0_MOSI*%
X92210000Y-72390000D03*
%TO.P,U2,3,ALERT*%
%TO.N,unconnected-(U2-ALERT-Pad3)*%
X92710000Y-72390000D03*
%TO.P,U2,4,MISO*%
%TO.N,/SPI0_MISO*%
X93210000Y-72390000D03*
%TO.P,U2,5,SCLK*%
%TO.N,/SPI0_SCLK*%
X93710000Y-72390000D03*
%TO.P,U2,6,VS*%
%TO.N,+3V3*%
X93710000Y-67990000D03*
%TO.P,U2,7,GND*%
%TO.N,GND*%
X93210000Y-67990000D03*
%TO.P,U2,8,VBUS*%
%TO.N,Net-(J3-Pin_3)*%
X92710000Y-67990000D03*
%TO.P,U2,9,IN-*%
%TO.N,Net-(J3-Pin_1)*%
X92210000Y-67990000D03*
%TO.P,U2,10,IN+*%
%TO.N,Net-(J3-Pin_2)*%
X91710000Y-67990000D03*
%TD*%
D28*
%TO.P,R3,1*%
%TO.N,Net-(J5-Pin_2)*%
X106120000Y-63840000D03*
%TO.P,R3,2*%
%TO.N,Net-(J5-Pin_1)*%
X109220000Y-63840000D03*
%TD*%
D26*
%TO.P,R7,1*%
%TO.N,Net-(J13-Pin_2)*%
X86920000Y-116840000D03*
%TO.P,R7,2*%
%TO.N,Net-(J13-Pin_1)*%
X83820000Y-116840000D03*
%TD*%
D19*
%TO.P,C4,1*%
%TO.N,+3V3*%
X96520000Y-67650000D03*
%TO.P,C4,2*%
%TO.N,GND*%
X96520000Y-69375000D03*
%TD*%
D29*
%TO.P,J25,A1,GND*%
%TO.N,GND*%
X137485000Y-95150000D03*
%TO.P,J25,A4,VBUS*%
%TO.N,+5V*%
X137485000Y-94350000D03*
D30*
%TO.P,J25,A5,CC1*%
%TO.N,Net-(J25-CC1)*%
X137485000Y-93200000D03*
%TO.P,J25,A6,D+*%
%TO.N,/DP*%
X137485000Y-92200000D03*
%TO.P,J25,A7,D-*%
%TO.N,/DM*%
X137485000Y-91700000D03*
%TO.P,J25,A8,SBU1*%
%TO.N,unconnected-(J25-SBU1-PadA8)*%
X137485000Y-90700000D03*
D29*
%TO.P,J25,A9,VBUS*%
%TO.N,+5V*%
X137485000Y-89550000D03*
%TO.P,J25,A12,GND*%
%TO.N,GND*%
X137485000Y-88750000D03*
%TO.P,J25,B1,GND*%
X137485000Y-88750000D03*
%TO.P,J25,B4,VBUS*%
%TO.N,+5V*%
X137485000Y-89550000D03*
D30*
%TO.P,J25,B5,CC2*%
%TO.N,Net-(J25-CC2)*%
X137485000Y-90200000D03*
%TO.P,J25,B6,D+*%
%TO.N,/DP*%
X137485000Y-91200000D03*
%TO.P,J25,B7,D-*%
%TO.N,/DM*%
X137485000Y-92700000D03*
%TO.P,J25,B8,SBU2*%
%TO.N,unconnected-(J25-SBU2-PadB8)*%
X137485000Y-93700000D03*
D29*
%TO.P,J25,B9,VBUS*%
%TO.N,+5V*%
X137485000Y-94350000D03*
%TO.P,J25,B12,GND*%
%TO.N,GND*%
X137485000Y-95150000D03*
D31*
%TO.P,J25,S1,SHIELD*%
X138060000Y-96270000D03*
D32*
X142240000Y-96270000D03*
D31*
X138060000Y-87630000D03*
D32*
X142240000Y-87630000D03*
%TD*%
D13*
%TO.P,J23,1,Pin_1*%
%TO.N,+5V*%
X129540000Y-88910000D03*
D14*
%TO.P,J23,2,Pin_2*%
%TO.N,/DM*%
X129540000Y-91450000D03*
%TO.P,J23,3,Pin_3*%
%TO.N,/DP*%
X129540000Y-93990000D03*
%TO.P,J23,4,Pin_4*%
%TO.N,GND*%
X129540000Y-96530000D03*
%TD*%
D13*
%TO.P,J24,1,Pin_1*%
%TO.N,GND*%
X142240000Y-107950000D03*
D14*
%TO.P,J24,2,Pin_2*%
%TO.N,Net-(J24-Pin_2)*%
X142240000Y-105410000D03*
%TO.P,J24,3,Pin_3*%
%TO.N,Net-(J24-Pin_3)*%
X142240000Y-102870000D03*
%TO.P,J24,4,Pin_4*%
%TO.N,+3V3*%
X142240000Y-100330000D03*
%TD*%
D33*
%TO.N,GND*%
X137160000Y-106680000D03*
X112776000Y-102362000D03*
X106934000Y-106680000D03*
X111760000Y-106680000D03*
X93726000Y-108966000D03*
X125222000Y-96266000D03*
X115570000Y-72644000D03*
X98552000Y-72644000D03*
X83566000Y-72898000D03*
X79248000Y-107950000D03*
X92202000Y-100584000D03*
X136398000Y-108204000D03*
X125476000Y-107442000D03*
X112014000Y-77724000D03*
X121920000Y-77470000D03*
X125730000Y-85090000D03*
X76200000Y-96520000D03*
X76200000Y-86614000D03*
%TO.N,/SPI1_CS0*%
X103124000Y-106426000D03*
%TO.N,/SWO*%
X103632000Y-104648000D03*
%TO.N,/SPI1_CS1*%
X104648000Y-108204000D03*
%TO.N,/SPI1_CS0*%
X112268000Y-99314000D03*
%TO.N,/SPI1_CS1*%
X110490000Y-99060000D03*
%TO.N,/SWO*%
X108712000Y-97028000D03*
%TO.N,GND*%
X68072000Y-103124000D03*
X99314000Y-100076000D03*
%TO.N,/SPI1_SCLK*%
X119380000Y-102108000D03*
%TO.N,/SPI1_CS1*%
X88392000Y-107442000D03*
%TO.N,/SPI1_CS0*%
X72898000Y-107442000D03*
%TO.N,/SWDCLK*%
X112522000Y-95504000D03*
%TO.N,+3V3*%
X99822000Y-94742000D03*
X103378000Y-79502000D03*
%TO.N,/SWDIO*%
X109982000Y-91948000D03*
%TO.N,/SPI1_CS4*%
X106426000Y-92964000D03*
%TO.N,/SPI1_CS3*%
X118110000Y-106680000D03*
%TO.N,/SPI1_MOSI*%
X128016000Y-106680000D03*
X131572000Y-105664000D03*
%TO.N,/SPI1_SCLK*%
X119380000Y-106172000D03*
X109728000Y-81788000D03*
%TO.N,/SPI0_MOSI*%
X125984000Y-72390000D03*
X122682000Y-74168000D03*
X109982000Y-74168000D03*
%TO.N,/SPI0_CS3*%
X119888000Y-72644000D03*
%TO.N,/SPI0_MISO*%
X138176000Y-75184000D03*
X135382000Y-72644000D03*
X105664000Y-75946000D03*
%TO.N,/SPI0_CS1*%
X115824000Y-88646000D03*
X97028000Y-78994000D03*
%TO.N,+3V3*%
X66040000Y-100838000D03*
%TO.N,/SPI0_MOSI*%
X101346000Y-75946000D03*
%TO.N,/SPI0_CS1*%
X90424000Y-72390000D03*
%TO.N,/SPI0_MOSI*%
X89408000Y-75946000D03*
X89662000Y-73914000D03*
%TO.N,/SPI0_CS0*%
X108712000Y-88646000D03*
%TO.N,+3V3*%
X95250000Y-85598000D03*
X66040000Y-82550000D03*
%TO.N,Net-(D1-A)*%
X96774000Y-82550000D03*
%TO.N,/nRST*%
X93980000Y-86106000D03*
%TO.N,/SPI0_CS4*%
X122174000Y-97790000D03*
%TO.N,/SPI0_CS2*%
X110998000Y-89154000D03*
%TO.N,/SPI0_MISO*%
X108458000Y-75438000D03*
%TO.N,/SPI0_MOSI*%
X107696000Y-77978000D03*
%TO.N,/SPI0_SCLK*%
X103378000Y-75184000D03*
%TO.N,/SPI1_MOSI*%
X86106000Y-106172000D03*
X100838000Y-106172000D03*
X116078000Y-106172000D03*
X83312000Y-106172000D03*
%TO.N,/SPI1_CS2*%
X104648000Y-93218000D03*
%TO.N,/SPI1_MOSI*%
X103886000Y-88900000D03*
%TO.N,/SPI1_MISO*%
X100330000Y-88646000D03*
%TO.N,GND*%
X128778000Y-110998000D03*
X113792000Y-110998000D03*
X97282000Y-110998000D03*
X82550000Y-111252000D03*
X69088000Y-111252000D03*
X79756000Y-69596000D03*
X94742000Y-69596000D03*
X109982000Y-69596000D03*
X125222000Y-69596000D03*
X139192000Y-69596000D03*
X134366000Y-77724000D03*
X133350000Y-77724000D03*
%TO.N,+3V3*%
X113284000Y-113030000D03*
X97536000Y-113030000D03*
X82804000Y-113030000D03*
X67564000Y-113030000D03*
X79756000Y-67564000D03*
X95250000Y-67564000D03*
X110490000Y-67564000D03*
X125730000Y-67564000D03*
X140970000Y-67564000D03*
X139954000Y-80010000D03*
X138176000Y-80010000D03*
X124968000Y-113030000D03*
%TO.N,/DM*%
X133858000Y-93218000D03*
%TO.N,+5V*%
X134874000Y-94996000D03*
D34*
%TO.N,Net-(J25-CC1)*%
X139446000Y-93218000D03*
%TO.N,Net-(J25-CC2)*%
X139446000Y-90170000D03*
%TD*%
D35*
%TO.N,/SPI0_CS4*%
X123190000Y-96774000D02*
X122174000Y-97790000D01*
X122174000Y-86868000D02*
X123190000Y-87884000D01*
X123190000Y-87884000D02*
X123190000Y-96774000D01*
X122174000Y-80010000D02*
X122174000Y-86868000D01*
X128270000Y-73914000D02*
X122174000Y-80010000D01*
X128786000Y-73922000D02*
X128778000Y-73914000D01*
X135898000Y-73922000D02*
X128786000Y-73922000D01*
X128778000Y-73914000D02*
X128270000Y-73914000D01*
X137430000Y-72390000D02*
X135898000Y-73922000D01*
%TO.N,/SPI0_MISO*%
X124206000Y-75438000D02*
X127000000Y-72644000D01*
X127000000Y-72644000D02*
X135382000Y-72644000D01*
X123444000Y-75438000D02*
X124206000Y-75438000D01*
%TO.N,/SPI1_CS0*%
X111125000Y-98171000D02*
X112268000Y-99314000D01*
X110109000Y-98171000D02*
X111125000Y-98171000D01*
X109220000Y-99060000D02*
X110109000Y-98171000D01*
X109220000Y-100330000D02*
X109220000Y-99060000D01*
X103124000Y-106426000D02*
X109220000Y-100330000D01*
%TO.N,/SPI1_CS1*%
X104648000Y-106172000D02*
X110490000Y-100330000D01*
X110490000Y-100330000D02*
X110490000Y-99060000D01*
X104648000Y-108204000D02*
X104648000Y-106172000D01*
%TO.N,/SWO*%
X103632000Y-102108000D02*
X108712000Y-97028000D01*
X103632000Y-104648000D02*
X103632000Y-102108000D01*
%TO.N,/SPI1_MISO*%
X130580000Y-106704000D02*
X127897000Y-104021000D01*
X130580000Y-108290000D02*
X130580000Y-106704000D01*
X127897000Y-104021000D02*
X116213000Y-104021000D01*
X99060000Y-105156000D02*
X99830000Y-105156000D01*
X99060000Y-105156000D02*
X99822000Y-105156000D01*
X84582000Y-105156000D02*
X99060000Y-105156000D01*
X99822000Y-105156000D02*
X100838000Y-104140000D01*
X99830000Y-105148000D02*
X100838000Y-104140000D01*
X99830000Y-105918000D02*
X99830000Y-105148000D01*
X99830000Y-105918000D02*
X99830000Y-105664000D01*
X99830000Y-108290000D02*
X99830000Y-105918000D01*
%TO.N,/SWDCLK*%
X112268000Y-95250000D02*
X112522000Y-95504000D01*
X112268000Y-91948000D02*
X112268000Y-95250000D01*
X110998000Y-90678000D02*
X112268000Y-91948000D01*
X107442000Y-90678000D02*
X110998000Y-90678000D01*
X104140000Y-87376000D02*
X107442000Y-90678000D01*
%TO.N,/SPI1_CS4*%
X132080000Y-107442000D02*
X132080000Y-108290000D01*
X133096000Y-104140000D02*
X133096000Y-106426000D01*
X118364000Y-103124000D02*
X132080000Y-103124000D01*
X133096000Y-106426000D02*
X132080000Y-107442000D01*
X108204000Y-92964000D02*
X118364000Y-103124000D01*
X106426000Y-92964000D02*
X108204000Y-92964000D01*
X132080000Y-103124000D02*
X133096000Y-104140000D01*
%TO.N,/SPI1_SCLK*%
X119380000Y-87630000D02*
X113538000Y-81788000D01*
X119380000Y-102108000D02*
X119380000Y-87630000D01*
X109728000Y-81788000D02*
X113538000Y-81788000D01*
%TO.N,/SPI1_MISO*%
X114046000Y-106680000D02*
X115070000Y-106680000D01*
X111252000Y-109474000D02*
X114046000Y-106680000D01*
X100076000Y-109474000D02*
X111252000Y-109474000D01*
X99830000Y-109228000D02*
X100076000Y-109474000D01*
X99830000Y-108290000D02*
X99830000Y-109228000D01*
X100584000Y-104394000D02*
X100838000Y-104140000D01*
X100068000Y-104910000D02*
X100584000Y-104394000D01*
X99830000Y-105664000D02*
X99830000Y-105156000D01*
X99830000Y-105664000D02*
X99830000Y-105148000D01*
X99830000Y-105148000D02*
X100584000Y-104394000D01*
X99830000Y-104910000D02*
X100068000Y-104910000D01*
D36*
%TO.N,GND*%
X68072000Y-103124000D02*
X96266000Y-103124000D01*
X96266000Y-103124000D02*
X99314000Y-100076000D01*
D35*
%TO.N,/SPI1_MISO*%
X115070000Y-106680000D02*
X115070000Y-105164000D01*
X115070000Y-108290000D02*
X115070000Y-106680000D01*
%TO.N,GND*%
X138938000Y-107188000D02*
X139700000Y-107950000D01*
X139700000Y-107950000D02*
X142240000Y-107950000D01*
X138938000Y-104902000D02*
X138938000Y-107188000D01*
%TO.N,+3V3*%
X138938000Y-101346000D02*
X138938000Y-103177000D01*
X140208000Y-100076000D02*
X138938000Y-101346000D01*
D37*
X140208000Y-100076000D02*
X140208000Y-95504000D01*
X140208000Y-100330000D02*
X140208000Y-100076000D01*
D35*
%TO.N,/SPI1_CS1*%
X86938000Y-107442000D02*
X88392000Y-107442000D01*
X86090000Y-108290000D02*
X86938000Y-107442000D01*
%TO.N,/SPI1_CS0*%
X71698000Y-107442000D02*
X72898000Y-107442000D01*
X70850000Y-108290000D02*
X71698000Y-107442000D01*
%TO.N,/SPI0_CS1*%
X97790000Y-78994000D02*
X97028000Y-78994000D01*
X108839000Y-90043000D02*
X97790000Y-78994000D01*
X114427000Y-90043000D02*
X108839000Y-90043000D01*
X115824000Y-88646000D02*
X114427000Y-90043000D01*
%TO.N,/SWDIO*%
X100028866Y-87919000D02*
X92604866Y-95343000D01*
X92604866Y-95343000D02*
X83727000Y-95343000D01*
X83727000Y-95343000D02*
X82550000Y-96520000D01*
X103933134Y-87919000D02*
X100028866Y-87919000D01*
X109982000Y-91948000D02*
X107962134Y-91948000D01*
X107962134Y-91948000D02*
X103933134Y-87919000D01*
%TO.N,/SWDCLK*%
X96012000Y-87376000D02*
X104140000Y-87376000D01*
X90585000Y-92803000D02*
X96012000Y-87376000D01*
X83727000Y-92803000D02*
X90585000Y-92803000D01*
X82550000Y-93980000D02*
X83727000Y-92803000D01*
%TO.N,/SPI1_MISO*%
X115078000Y-105156000D02*
X116213000Y-104021000D01*
X115070000Y-105164000D02*
X116213000Y-104021000D01*
%TO.N,/SPI1_MOSI*%
X126492000Y-105156000D02*
X128016000Y-106680000D01*
X117094000Y-105156000D02*
X126492000Y-105156000D01*
X116078000Y-106172000D02*
X117094000Y-105156000D01*
D36*
%TO.N,+3V3*%
X95758000Y-77978000D02*
X101854000Y-77978000D01*
X101854000Y-77978000D02*
X103378000Y-79502000D01*
X93954500Y-82550000D02*
X93954500Y-79781500D01*
X93954500Y-79781500D02*
X95758000Y-77978000D01*
X99822000Y-94742000D02*
X99568000Y-94996000D01*
X99822000Y-94996000D02*
X99822000Y-94742000D01*
X99568000Y-94996000D02*
X99822000Y-94996000D01*
X98044000Y-96520000D02*
X99568000Y-94996000D01*
X85090000Y-96520000D02*
X98044000Y-96520000D01*
D35*
%TO.N,/SPI1_MISO*%
X100838000Y-104140000D02*
X100838000Y-89154000D01*
X100838000Y-89154000D02*
X100330000Y-88646000D01*
%TO.N,/SPI1_CS3*%
X117094000Y-106680000D02*
X118110000Y-106680000D01*
%TO.N,/SPI1_SCLK*%
X119380000Y-109982000D02*
X128388000Y-109982000D01*
X119380000Y-109982000D02*
X119380000Y-106172000D01*
X118110000Y-109982000D02*
X119380000Y-109982000D01*
%TO.N,/SPI1_CS3*%
X116570000Y-107204000D02*
X117094000Y-106680000D01*
X116570000Y-108290000D02*
X116570000Y-107204000D01*
%TO.N,/SPI1_MOSI*%
X131580000Y-105672000D02*
X131572000Y-105664000D01*
X131580000Y-108290000D02*
X131580000Y-105672000D01*
%TO.N,/SPI1_SCLK*%
X114554000Y-109982000D02*
X118110000Y-109982000D01*
%TO.N,Net-(J7-Pin_3)*%
X118364000Y-69596000D02*
X119380000Y-69596000D01*
X114300000Y-65532000D02*
X118364000Y-69596000D01*
D38*
X122682000Y-69596000D02*
X119380000Y-69596000D01*
X114300000Y-65532000D02*
X114300000Y-63840000D01*
D35*
%TO.N,/SPI0_CS0*%
X105410000Y-85344000D02*
X108712000Y-88646000D01*
X105410000Y-78740000D02*
X105410000Y-85344000D01*
X103632000Y-76962000D02*
X105410000Y-78740000D01*
X78486000Y-76962000D02*
X103632000Y-76962000D01*
X76470000Y-74946000D02*
X78486000Y-76962000D01*
X76470000Y-72390000D02*
X76470000Y-74946000D01*
%TO.N,/SPI0_SCLK*%
X103378000Y-70866000D02*
X103378000Y-71374000D01*
X103886000Y-70866000D02*
X103378000Y-70866000D01*
X104140000Y-70866000D02*
X103378000Y-70866000D01*
X104140000Y-70866000D02*
X103886000Y-70866000D01*
X103378000Y-70866000D02*
X93726000Y-70866000D01*
X108966000Y-70866000D02*
X104140000Y-70866000D01*
X103378000Y-71374000D02*
X103886000Y-70866000D01*
X103378000Y-75184000D02*
X103378000Y-71374000D01*
%TO.N,/SPI0_MOSI*%
X110109000Y-74295000D02*
X109982000Y-74168000D01*
X122555000Y-74295000D02*
X110109000Y-74295000D01*
X122682000Y-74168000D02*
X122555000Y-74295000D01*
X109728000Y-74422000D02*
X109982000Y-74168000D01*
X122690000Y-73185592D02*
X122690000Y-72390000D01*
X122682000Y-73193592D02*
X122690000Y-73185592D01*
X122682000Y-74168000D02*
X122682000Y-73193592D01*
%TO.N,/SPI0_CS3*%
X121936000Y-72644000D02*
X119888000Y-72644000D01*
X122190000Y-72390000D02*
X121936000Y-72644000D01*
%TO.N,/SPI0_SCLK*%
X124460000Y-70612000D02*
X124206000Y-70866000D01*
X138938000Y-70612000D02*
X124460000Y-70612000D01*
X139430000Y-71104000D02*
X138938000Y-70612000D01*
X139430000Y-72390000D02*
X139430000Y-71104000D01*
%TO.N,/SPI0_MOSI*%
X127054000Y-71320000D02*
X125984000Y-72390000D01*
X137414000Y-71320000D02*
X127054000Y-71320000D01*
X137414000Y-71320000D02*
X137668000Y-71320000D01*
X137930000Y-71582000D02*
X137668000Y-71320000D01*
X137930000Y-72390000D02*
X137930000Y-71582000D01*
%TO.N,/SPI0_MISO*%
X123690000Y-75192000D02*
X123444000Y-75438000D01*
X123690000Y-72390000D02*
X123690000Y-75192000D01*
X108458000Y-75438000D02*
X123444000Y-75438000D01*
X138930000Y-74430000D02*
X138176000Y-75184000D01*
X138930000Y-72390000D02*
X138930000Y-74430000D01*
D36*
%TO.N,+3V3*%
X85090000Y-98552000D02*
X85090000Y-96520000D01*
X82804000Y-100838000D02*
X85090000Y-98552000D01*
X78740000Y-100838000D02*
X82804000Y-100838000D01*
X78740000Y-100838000D02*
X66040000Y-100838000D01*
X80518000Y-100838000D02*
X78740000Y-100838000D01*
D35*
X82804000Y-100838000D02*
X80518000Y-100838000D01*
D36*
X93954500Y-82550000D02*
X93954500Y-84302500D01*
X93954500Y-84302500D02*
X95250000Y-85598000D01*
X73660000Y-82550000D02*
X93954500Y-82550000D01*
X73660000Y-82550000D02*
X66040000Y-82550000D01*
%TO.N,GND*%
X128270000Y-77470000D02*
X129540000Y-77470000D01*
X127762000Y-77978000D02*
X128270000Y-77470000D01*
X127762000Y-81280000D02*
X127762000Y-77978000D01*
X128119500Y-81637500D02*
X127762000Y-81280000D01*
X129540000Y-81637500D02*
X128119500Y-81637500D01*
X132284000Y-81637500D02*
X132588000Y-81941500D01*
X129540000Y-81637500D02*
X132284000Y-81637500D01*
D35*
%TO.N,/SPI0_MISO*%
X105156000Y-76454000D02*
X105664000Y-75946000D01*
X103124000Y-76454000D02*
X105156000Y-76454000D01*
X101346000Y-74676000D02*
X103124000Y-76454000D01*
X93218000Y-74676000D02*
X101346000Y-74676000D01*
%TO.N,/SPI0_MOSI*%
X89408000Y-75946000D02*
X101346000Y-75946000D01*
%TO.N,/SPI0_CS1*%
X91710000Y-72390000D02*
X90424000Y-72390000D01*
%TO.N,/SPI0_MOSI*%
X89916000Y-74168000D02*
X89662000Y-73914000D01*
X91694000Y-74168000D02*
X89916000Y-74168000D01*
X92210000Y-73652000D02*
X91694000Y-74168000D01*
X92210000Y-72390000D02*
X92210000Y-73652000D01*
X80772000Y-75946000D02*
X89408000Y-75946000D01*
X77724000Y-75438000D02*
X78232000Y-75946000D01*
X76970000Y-74684000D02*
X77724000Y-75438000D01*
X78232000Y-75946000D02*
X80772000Y-75946000D01*
X76970000Y-72390000D02*
X76970000Y-74684000D01*
%TO.N,Net-(D1-A)*%
X95529500Y-82550000D02*
X96774000Y-82550000D01*
%TO.N,/nRST*%
X92202000Y-84328000D02*
X93980000Y-86106000D01*
X83058000Y-84328000D02*
X92202000Y-84328000D01*
X82550000Y-84836000D02*
X83058000Y-84328000D01*
X82550000Y-86360000D02*
X82550000Y-84836000D01*
%TO.N,/SPI0_MISO*%
X77978000Y-74422000D02*
X78486000Y-74930000D01*
X93218000Y-74676000D02*
X93210000Y-74668000D01*
X92964000Y-74930000D02*
X93218000Y-74676000D01*
X78486000Y-74930000D02*
X92964000Y-74930000D01*
X77978000Y-73193592D02*
X77978000Y-74422000D01*
X93210000Y-74668000D02*
X93210000Y-72390000D01*
X77970000Y-73185592D02*
X77978000Y-73193592D01*
X77970000Y-72390000D02*
X77970000Y-73185592D01*
%TO.N,/SPI0_CS2*%
X106950000Y-85106000D02*
X110998000Y-89154000D01*
X106950000Y-72390000D02*
X106950000Y-85106000D01*
%TO.N,/SPI0_MOSI*%
X107450000Y-72390000D02*
X107450000Y-77732000D01*
X107450000Y-77732000D02*
X107696000Y-77978000D01*
%TO.N,/SPI0_MISO*%
X108450000Y-75430000D02*
X108458000Y-75438000D01*
X108450000Y-72390000D02*
X108450000Y-75430000D01*
%TO.N,/SPI1_MOSI*%
X85590000Y-106688000D02*
X86106000Y-106172000D01*
X85590000Y-108290000D02*
X85590000Y-106688000D01*
X100838000Y-106172000D02*
X101600000Y-105410000D01*
X101600000Y-91186000D02*
X103886000Y-88900000D01*
X101600000Y-105410000D02*
X101600000Y-91186000D01*
X100830000Y-108290000D02*
X100830000Y-106180000D01*
X100830000Y-106180000D02*
X100838000Y-106172000D01*
%TO.N,/SPI1_CS2*%
X102362000Y-95504000D02*
X104648000Y-93218000D01*
X102362000Y-105918000D02*
X102362000Y-95504000D01*
X101330000Y-106950000D02*
X102362000Y-105918000D01*
X101330000Y-108290000D02*
X101330000Y-106950000D01*
%TO.N,/SPI1_MOSI*%
X116070000Y-106180000D02*
X116078000Y-106172000D01*
X116070000Y-108290000D02*
X116070000Y-106180000D01*
X71120000Y-106172000D02*
X83312000Y-106172000D01*
X70350000Y-106942000D02*
X71120000Y-106172000D01*
X70350000Y-108290000D02*
X70350000Y-106942000D01*
%TO.N,/SPI1_MISO*%
X115070000Y-105164000D02*
X115062000Y-105156000D01*
X84590000Y-108290000D02*
X84590000Y-105164000D01*
X84590000Y-105164000D02*
X84582000Y-105156000D01*
X71120000Y-105156000D02*
X84582000Y-105156000D01*
X69350000Y-106926000D02*
X71120000Y-105156000D01*
X69350000Y-108290000D02*
X69350000Y-106926000D01*
X99830000Y-105156000D02*
X99830000Y-104910000D01*
%TO.N,/SPI1_SCLK*%
X84090000Y-108290000D02*
X84090000Y-109712000D01*
X83820000Y-109982000D02*
X84074000Y-109982000D01*
X69342000Y-109982000D02*
X83820000Y-109982000D01*
X84090000Y-109712000D02*
X83820000Y-109982000D01*
X84090000Y-108290000D02*
X84090000Y-109966000D01*
X84074000Y-109982000D02*
X99314000Y-109982000D01*
X84090000Y-109966000D02*
X84074000Y-109982000D01*
X99330000Y-109966000D02*
X99314000Y-109982000D01*
X99314000Y-109982000D02*
X114554000Y-109982000D01*
X99330000Y-108290000D02*
X99330000Y-109966000D01*
X114570000Y-109966000D02*
X114554000Y-109982000D01*
X114570000Y-108290000D02*
X114570000Y-109966000D01*
X128388000Y-109982000D02*
X130080000Y-108290000D01*
X68850000Y-108290000D02*
X68850000Y-109490000D01*
X68850000Y-109490000D02*
X69342000Y-109982000D01*
%TO.N,/SPI0_SCLK*%
X124190000Y-70882000D02*
X124206000Y-70866000D01*
X124190000Y-72390000D02*
X124190000Y-70882000D01*
X124206000Y-70866000D02*
X108966000Y-70866000D01*
X108950000Y-70882000D02*
X108966000Y-70866000D01*
X108950000Y-72390000D02*
X108950000Y-70882000D01*
X93710000Y-72390000D02*
X93710000Y-70882000D01*
X93710000Y-70882000D02*
X93726000Y-70866000D01*
X93726000Y-70866000D02*
X79994000Y-70866000D01*
X79994000Y-70866000D02*
X78470000Y-72390000D01*
D36*
%TO.N,GND*%
X137800000Y-96530000D02*
X138060000Y-96270000D01*
X129540000Y-96530000D02*
X137800000Y-96530000D01*
D37*
%TO.N,+3V3*%
X140208000Y-88646000D02*
X140208000Y-80264000D01*
X140716000Y-89154000D02*
X140208000Y-88646000D01*
X140716000Y-94996000D02*
X140716000Y-89154000D01*
X140208000Y-80264000D02*
X139954000Y-80010000D01*
D35*
X140208000Y-100330000D02*
X142240000Y-100330000D01*
D37*
X140208000Y-95504000D02*
X140716000Y-94996000D01*
D35*
%TO.N,GND*%
X128778000Y-110998000D02*
X128270000Y-110998000D01*
X113231000Y-111305000D02*
X111760000Y-111305000D01*
X113284000Y-111252000D02*
X113231000Y-111305000D01*
X113337000Y-111305000D02*
X113284000Y-111252000D01*
X79756000Y-69596000D02*
X80518000Y-69596000D01*
X94742000Y-69596000D02*
X96299000Y-69596000D01*
D38*
X125222000Y-69596000D02*
X125476000Y-69596000D01*
D35*
%TO.N,+3V3*%
X113284000Y-113030000D02*
X114230000Y-113030000D01*
X97536000Y-113030000D02*
X98990000Y-113030000D01*
X82804000Y-113030000D02*
X81280000Y-113030000D01*
X67564000Y-113030000D02*
X66040000Y-113030000D01*
X140884000Y-67650000D02*
X139770000Y-67650000D01*
X140970000Y-67564000D02*
X140884000Y-67650000D01*
X141056000Y-67650000D02*
X140970000Y-67564000D01*
D37*
X127000000Y-113030000D02*
X124968000Y-113030000D01*
D38*
%TO.N,/DM*%
X134376000Y-92700000D02*
X133858000Y-93218000D01*
X137485000Y-92700000D02*
X134376000Y-92700000D01*
X129790000Y-91700000D02*
X129540000Y-91450000D01*
X137485000Y-91700000D02*
X129790000Y-91700000D01*
%TO.N,/DP*%
X138428000Y-92200000D02*
X137485000Y-92200000D01*
X138430000Y-92202000D02*
X138428000Y-92200000D01*
X138684000Y-91948000D02*
X138430000Y-92202000D01*
X138444000Y-91200000D02*
X138684000Y-91440000D01*
X137485000Y-91200000D02*
X138444000Y-91200000D01*
X138684000Y-91440000D02*
X138684000Y-91948000D01*
X131572000Y-93980000D02*
X131562000Y-93990000D01*
X132080000Y-93980000D02*
X131572000Y-93980000D01*
X133860000Y-92200000D02*
X132080000Y-93980000D01*
X137485000Y-92200000D02*
X133860000Y-92200000D01*
X131562000Y-93990000D02*
X129540000Y-93990000D01*
%TO.N,/DM*%
X137491000Y-91694000D02*
X137485000Y-91700000D01*
D37*
%TO.N,+5V*%
X134620000Y-83795000D02*
X134537500Y-83712500D01*
X134620000Y-88646000D02*
X134620000Y-83795000D01*
X137485000Y-89550000D02*
X135524000Y-89550000D01*
X135524000Y-89550000D02*
X134620000Y-88646000D01*
X134620000Y-87259999D02*
X134620000Y-87259999D01*
X135520000Y-94350000D02*
X134874000Y-94996000D01*
X137485000Y-94350000D02*
X135520000Y-94350000D01*
%TO.N,GND*%
X137485000Y-95695000D02*
X138060000Y-96270000D01*
X137485000Y-95150000D02*
X137485000Y-95695000D01*
X137485000Y-88750000D02*
X137485000Y-88205000D01*
X137485000Y-88205000D02*
X138060000Y-87630000D01*
D35*
%TO.N,Net-(J25-CC1)*%
X139428000Y-93200000D02*
X139446000Y-93218000D01*
X137485000Y-93200000D02*
X139428000Y-93200000D01*
%TO.N,Net-(J25-CC2)*%
X139416000Y-90200000D02*
X139446000Y-90170000D01*
X137485000Y-90200000D02*
X139416000Y-90200000D01*
D36*
%TO.N,GND*%
X132501500Y-77710000D02*
X132334000Y-77877500D01*
X135940000Y-77710000D02*
X132501500Y-77710000D01*
X131926500Y-77470000D02*
X132334000Y-77877500D01*
X129540000Y-77470000D02*
X131926500Y-77470000D01*
%TO.N,+3V3*%
X135940000Y-80010000D02*
X132741500Y-80010000D01*
X132741500Y-80010000D02*
X132334000Y-79602500D01*
X132276500Y-79545000D02*
X132334000Y-79602500D01*
X129540000Y-79545000D02*
X132276500Y-79545000D01*
D39*
%TO.N,+5V*%
X129540000Y-88910000D02*
X129540000Y-83712500D01*
X134537500Y-83712500D02*
X135940000Y-82310000D01*
X129540000Y-83712500D02*
X134537500Y-83712500D01*
%TO.N,+3V3*%
X135940000Y-80010000D02*
X142240000Y-80010000D01*
D35*
%TO.N,GND*%
X80739000Y-69375000D02*
X81280000Y-69375000D01*
X80518000Y-69596000D02*
X80739000Y-69375000D01*
X78486000Y-69596000D02*
X79756000Y-69596000D01*
X77970000Y-69080000D02*
X78486000Y-69596000D01*
X77970000Y-67990000D02*
X77970000Y-69080000D01*
%TO.N,+3V3*%
X78810000Y-67650000D02*
X78470000Y-67990000D01*
X81280000Y-67650000D02*
X78810000Y-67650000D01*
%TO.N,GND*%
X96299000Y-69596000D02*
X96520000Y-69375000D01*
X94234000Y-69596000D02*
X94742000Y-69596000D01*
X93726000Y-69596000D02*
X94234000Y-69596000D01*
X93599000Y-69469000D02*
X93726000Y-69596000D01*
X93210000Y-67990000D02*
X93210000Y-69080000D01*
X93210000Y-69080000D02*
X93599000Y-69469000D01*
%TO.N,+3V3*%
X96520000Y-67650000D02*
X94050000Y-67650000D01*
X94050000Y-67650000D02*
X93710000Y-67990000D01*
X109290000Y-67650000D02*
X108950000Y-67990000D01*
X111760000Y-67650000D02*
X109290000Y-67650000D01*
X124530000Y-67650000D02*
X124190000Y-67990000D01*
X127000000Y-67650000D02*
X124530000Y-67650000D01*
X139770000Y-67650000D02*
X139430000Y-67990000D01*
X142240000Y-67650000D02*
X141056000Y-67650000D01*
%TO.N,GND*%
X140970000Y-69375000D02*
X142240000Y-69375000D01*
X140749000Y-69596000D02*
X140970000Y-69375000D01*
X139192000Y-69596000D02*
X140749000Y-69596000D01*
X138930000Y-69334000D02*
X139192000Y-69596000D01*
X138930000Y-67990000D02*
X138930000Y-69334000D01*
X128270000Y-110998000D02*
X127963000Y-111305000D01*
X127963000Y-111305000D02*
X127000000Y-111305000D01*
X130556000Y-111252000D02*
X130302000Y-110998000D01*
X130556000Y-111870408D02*
X130556000Y-111252000D01*
X130580000Y-111894408D02*
X130556000Y-111870408D01*
X130302000Y-110998000D02*
X128778000Y-110998000D01*
X130580000Y-112690000D02*
X130580000Y-111894408D01*
%TO.N,+3V3*%
X129740000Y-113030000D02*
X127000000Y-113030000D01*
X130080000Y-112690000D02*
X129740000Y-113030000D01*
%TO.N,GND*%
X114554000Y-110998000D02*
X113792000Y-110998000D01*
X113792000Y-110998000D02*
X113485000Y-111305000D01*
X113485000Y-111305000D02*
X113337000Y-111305000D01*
X115070000Y-111514000D02*
X114554000Y-110998000D01*
X115070000Y-112690000D02*
X115070000Y-111514000D01*
%TO.N,+3V3*%
X114230000Y-113030000D02*
X114570000Y-112690000D01*
X111760000Y-113030000D02*
X113284000Y-113030000D01*
X98990000Y-113030000D02*
X99330000Y-112690000D01*
X95250000Y-113030000D02*
X97536000Y-113030000D01*
%TO.N,GND*%
X99830000Y-111514000D02*
X99830000Y-112690000D01*
X99314000Y-110998000D02*
X99830000Y-111514000D01*
X97282000Y-110998000D02*
X99314000Y-110998000D01*
X96975000Y-111305000D02*
X97282000Y-110998000D01*
X95250000Y-111305000D02*
X96975000Y-111305000D01*
%TO.N,Net-(J13-Pin_3)*%
X93980000Y-115062000D02*
X93980000Y-116840000D01*
X90170000Y-111252000D02*
X93980000Y-115062000D01*
X85732408Y-111252000D02*
X90170000Y-111252000D01*
X85090000Y-112690000D02*
X85090000Y-111894408D01*
X85090000Y-111894408D02*
X85732408Y-111252000D01*
%TO.N,GND*%
X83619000Y-111305000D02*
X81280000Y-111305000D01*
X83647164Y-111333164D02*
X83619000Y-111305000D01*
X83992836Y-111333164D02*
X83647164Y-111333164D01*
X84028756Y-111333164D02*
X83992836Y-111333164D01*
X84590000Y-112690000D02*
X84590000Y-111894408D01*
X84590000Y-111894408D02*
X84028756Y-111333164D01*
D38*
X83992836Y-111333164D02*
X83911672Y-111252000D01*
D35*
X69035000Y-111305000D02*
X66040000Y-111305000D01*
X69088000Y-111252000D02*
X69035000Y-111305000D01*
X69350000Y-111514000D02*
X69088000Y-111252000D01*
X69350000Y-112690000D02*
X69350000Y-111514000D01*
%TO.N,+3V3*%
X68850000Y-112690000D02*
X68510000Y-113030000D01*
X68510000Y-113030000D02*
X67564000Y-113030000D01*
X83750000Y-113030000D02*
X82804000Y-113030000D01*
X84090000Y-112690000D02*
X83750000Y-113030000D01*
D38*
%TO.N,GND*%
X82751000Y-111305000D02*
X82804000Y-111252000D01*
X82804000Y-111252000D02*
X82550000Y-111252000D01*
X83911672Y-111252000D02*
X82804000Y-111252000D01*
X81280000Y-111305000D02*
X82751000Y-111305000D01*
X82095000Y-111305000D02*
X81280000Y-111305000D01*
X125697000Y-69375000D02*
X127000000Y-69375000D01*
X125476000Y-69596000D02*
X125697000Y-69375000D01*
X124206000Y-69596000D02*
X125222000Y-69596000D01*
X123690000Y-69080000D02*
X124206000Y-69596000D01*
X123690000Y-67990000D02*
X123690000Y-69080000D01*
X109982000Y-69596000D02*
X110744000Y-69596000D01*
X110744000Y-69596000D02*
X110965000Y-69375000D01*
X109982000Y-69596000D02*
X110236000Y-69596000D01*
X108712000Y-69596000D02*
X109982000Y-69596000D01*
X108450000Y-69334000D02*
X108712000Y-69596000D01*
X108450000Y-67990000D02*
X108450000Y-69334000D01*
X110965000Y-69375000D02*
X111760000Y-69375000D01*
%TO.N,Net-(J1-Pin_3)*%
X72136000Y-69596000D02*
X68580000Y-66040000D01*
X68580000Y-66040000D02*
X68580000Y-63840000D01*
X77216000Y-69596000D02*
X72136000Y-69596000D01*
X77470000Y-69342000D02*
X77216000Y-69596000D01*
X77470000Y-67990000D02*
X77470000Y-69342000D01*
%TO.N,Net-(J3-Pin_3)*%
X83820000Y-66040000D02*
X83820000Y-63840000D01*
X92202000Y-69596000D02*
X87376000Y-69596000D01*
X87376000Y-69596000D02*
X83820000Y-66040000D01*
X92710000Y-69088000D02*
X92202000Y-69596000D01*
X92710000Y-67990000D02*
X92710000Y-69088000D01*
%TO.N,Net-(J5-Pin_3)*%
X99060000Y-65786000D02*
X99060000Y-63840000D01*
X102870000Y-69596000D02*
X99060000Y-65786000D01*
X107188000Y-69596000D02*
X102870000Y-69596000D01*
X107950000Y-68834000D02*
X107188000Y-69596000D01*
X107950000Y-67990000D02*
X107950000Y-68834000D01*
%TO.N,Net-(J7-Pin_3)*%
X123190000Y-67990000D02*
X123190000Y-69088000D01*
X123190000Y-69088000D02*
X122682000Y-69596000D01*
%TO.N,Net-(J10-Pin_3)*%
X133096000Y-69596000D02*
X129540000Y-66040000D01*
X138176000Y-69596000D02*
X133096000Y-69596000D01*
X138430000Y-69342000D02*
X138176000Y-69596000D01*
X138430000Y-67990000D02*
X138430000Y-69342000D01*
X129540000Y-66040000D02*
X129540000Y-63840000D01*
%TO.N,Net-(J19-Pin_3)*%
X139700000Y-114808000D02*
X139700000Y-116840000D01*
X135890000Y-110998000D02*
X139700000Y-114808000D01*
X131572000Y-110998000D02*
X135890000Y-110998000D01*
X131080000Y-111490000D02*
X131572000Y-110998000D01*
X131080000Y-112690000D02*
X131080000Y-111490000D01*
%TO.N,Net-(J17-Pin_3)*%
X124460000Y-114808000D02*
X124460000Y-116840000D01*
X120650000Y-110998000D02*
X124460000Y-114808000D01*
X116078000Y-110998000D02*
X120650000Y-110998000D01*
X115570000Y-111506000D02*
X116078000Y-110998000D01*
X115570000Y-112690000D02*
X115570000Y-111506000D01*
%TO.N,Net-(J15-Pin_3)*%
X109220000Y-115062000D02*
X109220000Y-116840000D01*
X105156000Y-110998000D02*
X109220000Y-115062000D01*
X100330000Y-111506000D02*
X100838000Y-110998000D01*
X100838000Y-110998000D02*
X105156000Y-110998000D01*
X100330000Y-112690000D02*
X100330000Y-111506000D01*
%TO.N,Net-(J11-Pin_3)*%
X78740000Y-115316000D02*
X78740000Y-116840000D01*
X74676000Y-111252000D02*
X78740000Y-115316000D01*
X70104000Y-111252000D02*
X74676000Y-111252000D01*
X69850000Y-111506000D02*
X70104000Y-111252000D01*
X69850000Y-112690000D02*
X69850000Y-111506000D01*
%TO.N,Net-(J11-Pin_1)*%
X70350000Y-112690000D02*
X70350000Y-115070000D01*
X70350000Y-115070000D02*
X68580000Y-116840000D01*
%TO.N,Net-(J11-Pin_2)*%
X70850000Y-116010000D02*
X71680000Y-116840000D01*
X70850000Y-112690000D02*
X70850000Y-116010000D01*
%TO.N,Net-(J13-Pin_1)*%
X85590000Y-115070000D02*
X83820000Y-116840000D01*
X85590000Y-112690000D02*
X85590000Y-115070000D01*
%TO.N,Net-(J13-Pin_2)*%
X86090000Y-116010000D02*
X86920000Y-116840000D01*
X86090000Y-112690000D02*
X86090000Y-116010000D01*
%TO.N,Net-(J15-Pin_1)*%
X100830000Y-115070000D02*
X99060000Y-116840000D01*
X100830000Y-112690000D02*
X100830000Y-115070000D01*
%TO.N,Net-(J15-Pin_2)*%
X101330000Y-116010000D02*
X102160000Y-116840000D01*
X101330000Y-112690000D02*
X101330000Y-116010000D01*
%TO.N,Net-(J17-Pin_1)*%
X116070000Y-115070000D02*
X114300000Y-116840000D01*
X116070000Y-112690000D02*
X116070000Y-115070000D01*
%TO.N,Net-(J17-Pin_2)*%
X116570000Y-116010000D02*
X117400000Y-116840000D01*
X116570000Y-112690000D02*
X116570000Y-116010000D01*
%TO.N,Net-(J19-Pin_2)*%
X132080000Y-112690000D02*
X132080000Y-116280000D01*
X132080000Y-116280000D02*
X132640000Y-116840000D01*
%TO.N,Net-(J19-Pin_1)*%
X131580000Y-114800000D02*
X129540000Y-116840000D01*
X131580000Y-112690000D02*
X131580000Y-114800000D01*
%TO.N,Net-(J10-Pin_1)*%
X137930000Y-66170000D02*
X140260000Y-63840000D01*
X137930000Y-67990000D02*
X137930000Y-66170000D01*
%TO.N,Net-(J10-Pin_2)*%
X137430000Y-64110000D02*
X137160000Y-63840000D01*
X137430000Y-67990000D02*
X137430000Y-64110000D01*
%TO.N,Net-(J7-Pin_1)*%
X122690000Y-65610000D02*
X124460000Y-63840000D01*
X122690000Y-67990000D02*
X122690000Y-65610000D01*
%TO.N,Net-(J7-Pin_2)*%
X122190000Y-64670000D02*
X121360000Y-63840000D01*
X122190000Y-67990000D02*
X122190000Y-64670000D01*
%TO.N,Net-(J5-Pin_1)*%
X107450000Y-65610000D02*
X109220000Y-63840000D01*
X107450000Y-67990000D02*
X107450000Y-65610000D01*
%TO.N,Net-(J5-Pin_2)*%
X106950000Y-64670000D02*
X106120000Y-63840000D01*
X106950000Y-67990000D02*
X106950000Y-64670000D01*
%TO.N,Net-(J3-Pin_1)*%
X92210000Y-65610000D02*
X93980000Y-63840000D01*
X92210000Y-67990000D02*
X92210000Y-65610000D01*
%TO.N,Net-(J3-Pin_2)*%
X91710000Y-64670000D02*
X90880000Y-63840000D01*
X91710000Y-67990000D02*
X91710000Y-64670000D01*
%TO.N,Net-(J1-Pin_2)*%
X76470000Y-64670000D02*
X75640000Y-63840000D01*
X76470000Y-67990000D02*
X76470000Y-64670000D01*
%TO.N,Net-(J1-Pin_1)*%
X76970000Y-65610000D02*
X78740000Y-63840000D01*
X76970000Y-67990000D02*
X76970000Y-65610000D01*
D39*
%TO.N,Net-(J13-Pin_2)*%
X88900000Y-128270000D02*
X88900000Y-129540000D01*
X86360000Y-121920000D02*
X86360000Y-125730000D01*
X86360000Y-125730000D02*
X88900000Y-128270000D01*
%TO.N,Net-(J15-Pin_2)*%
X104140000Y-127000000D02*
X104140000Y-129540000D01*
X101600000Y-124460000D02*
X104140000Y-127000000D01*
X101600000Y-121920000D02*
X101600000Y-124460000D01*
%TO.N,Net-(J17-Pin_2)*%
X119380000Y-128270000D02*
X119380000Y-129540000D01*
X116840000Y-125730000D02*
X119380000Y-128270000D01*
X116840000Y-121920000D02*
X116840000Y-125730000D01*
%TO.N,Net-(J15-Pin_2)*%
X101600000Y-117400000D02*
X102160000Y-116840000D01*
X101600000Y-121920000D02*
X101600000Y-117400000D01*
%TO.N,Net-(J13-Pin_2)*%
X86360000Y-117400000D02*
X86920000Y-116840000D01*
X86360000Y-121920000D02*
X86360000Y-117400000D01*
%TO.N,Net-(J13-Pin_3)*%
X93980000Y-127000000D02*
X88900000Y-121920000D01*
X93980000Y-129540000D02*
X93980000Y-127000000D01*
%TO.N,Net-(J15-Pin_3)*%
X109220000Y-127000000D02*
X104140000Y-121920000D01*
X109220000Y-129540000D02*
X109220000Y-127000000D01*
%TO.N,Net-(J17-Pin_3)*%
X124460000Y-129540000D02*
X124460000Y-127000000D01*
X124460000Y-127000000D02*
X119380000Y-121920000D01*
%TO.N,Net-(J19-Pin_3)*%
X139700000Y-127000000D02*
X134620000Y-121920000D01*
X139700000Y-129540000D02*
X139700000Y-127000000D01*
X135822081Y-121920000D02*
X134620000Y-121920000D01*
X139700000Y-118042081D02*
X135822081Y-121920000D01*
X139700000Y-116840000D02*
X139700000Y-118042081D01*
%TO.N,Net-(J17-Pin_3)*%
X124460000Y-118042081D02*
X120582081Y-121920000D01*
X120582081Y-121920000D02*
X119380000Y-121920000D01*
X124460000Y-116840000D02*
X124460000Y-118042081D01*
%TO.N,Net-(J15-Pin_3)*%
X105342081Y-121920000D02*
X104140000Y-121920000D01*
X109220000Y-118042081D02*
X105342081Y-121920000D01*
X109220000Y-116840000D02*
X109220000Y-118042081D01*
%TO.N,Net-(J13-Pin_3)*%
X93980000Y-118110000D02*
X90170000Y-121920000D01*
X93980000Y-116840000D02*
X93980000Y-118110000D01*
X90170000Y-121920000D02*
X88900000Y-121920000D01*
%TO.N,Net-(J11-Pin_3)*%
X74862081Y-121920000D02*
X73660000Y-121920000D01*
X78740000Y-118042081D02*
X74862081Y-121920000D01*
X78740000Y-116840000D02*
X78740000Y-118042081D01*
X78740000Y-129540000D02*
X78740000Y-127000000D01*
X78740000Y-127000000D02*
X73660000Y-121920000D01*
%TO.N,Net-(J11-Pin_2)*%
X73660000Y-128270000D02*
X73660000Y-129540000D01*
X71120000Y-125730000D02*
X73660000Y-128270000D01*
X71120000Y-121920000D02*
X71120000Y-125730000D01*
X71120000Y-117400000D02*
X71680000Y-116840000D01*
X71120000Y-121920000D02*
X71120000Y-117400000D01*
X71680000Y-116840000D02*
X76200000Y-116840000D01*
%TO.N,Net-(J13-Pin_2)*%
X91440000Y-116840000D02*
X86920000Y-116840000D01*
%TO.N,Net-(J15-Pin_2)*%
X102160000Y-116840000D02*
X106680000Y-116840000D01*
%TO.N,Net-(J17-Pin_2)*%
X117400000Y-116840000D02*
X121920000Y-116840000D01*
%TO.N,Net-(J19-Pin_2)*%
X132640000Y-116840000D02*
X137160000Y-116840000D01*
X132080000Y-117400000D02*
X132640000Y-116840000D01*
X132080000Y-121920000D02*
X132080000Y-117400000D01*
%TO.N,Net-(J17-Pin_2)*%
X116840000Y-117400000D02*
X117400000Y-116840000D01*
X116840000Y-121920000D02*
X116840000Y-117400000D01*
%TO.N,Net-(J19-Pin_2)*%
X134620000Y-128270000D02*
X134620000Y-129540000D01*
X132080000Y-125730000D02*
X134620000Y-128270000D01*
X132080000Y-121920000D02*
X132080000Y-125730000D01*
%TO.N,Net-(J19-Pin_1)*%
X129540000Y-116840000D02*
X129540000Y-129540000D01*
%TO.N,Net-(J17-Pin_1)*%
X114300000Y-116840000D02*
X114300000Y-129540000D01*
%TO.N,Net-(J15-Pin_1)*%
X99060000Y-116840000D02*
X99060000Y-129540000D01*
%TO.N,Net-(J13-Pin_1)*%
X83820000Y-116840000D02*
X83820000Y-129540000D01*
%TO.N,Net-(J11-Pin_1)*%
X68580000Y-116840000D02*
X68580000Y-129540000D01*
%TO.N,Net-(J1-Pin_2)*%
X71120000Y-63840000D02*
X75640000Y-63840000D01*
%TO.N,Net-(J3-Pin_2)*%
X86360000Y-63840000D02*
X90880000Y-63840000D01*
X91440000Y-63280000D02*
X90880000Y-63840000D01*
X91440000Y-58760000D02*
X91440000Y-63280000D01*
%TO.N,Net-(J5-Pin_2)*%
X101600000Y-63840000D02*
X106120000Y-63840000D01*
X106680000Y-63280000D02*
X106120000Y-63840000D01*
X106680000Y-58760000D02*
X106680000Y-63280000D01*
%TO.N,Net-(J7-Pin_2)*%
X121920000Y-58760000D02*
X121920000Y-63280000D01*
X121920000Y-63280000D02*
X121360000Y-63840000D01*
X116840000Y-63840000D02*
X121360000Y-63840000D01*
%TO.N,Net-(J10-Pin_2)*%
X132080000Y-63840000D02*
X137160000Y-63840000D01*
%TO.N,Net-(J10-Pin_3)*%
X133417919Y-58760000D02*
X134620000Y-58760000D01*
X129540000Y-62637919D02*
X133417919Y-58760000D01*
X129540000Y-63840000D02*
X129540000Y-62637919D01*
%TO.N,Net-(J7-Pin_3)*%
X114300000Y-62637919D02*
X118177919Y-58760000D01*
X118177919Y-58760000D02*
X119380000Y-58760000D01*
X114300000Y-63840000D02*
X114300000Y-62637919D01*
%TO.N,Net-(J5-Pin_3)*%
X99060000Y-62637919D02*
X102937919Y-58760000D01*
X99060000Y-63840000D02*
X99060000Y-62637919D01*
X102937919Y-58760000D02*
X104140000Y-58760000D01*
%TO.N,Net-(J3-Pin_3)*%
X83820000Y-62637919D02*
X87697919Y-58760000D01*
X83820000Y-63840000D02*
X83820000Y-62637919D01*
X87697919Y-58760000D02*
X88900000Y-58760000D01*
%TO.N,Net-(J1-Pin_3)*%
X68580000Y-62637919D02*
X72457919Y-58760000D01*
X68580000Y-63840000D02*
X68580000Y-62637919D01*
X72457919Y-58760000D02*
X73660000Y-58760000D01*
X68580000Y-53680000D02*
X73660000Y-58760000D01*
X68580000Y-50800000D02*
X68580000Y-53680000D01*
%TO.N,Net-(J5-Pin_3)*%
X99060000Y-53680000D02*
X104140000Y-58760000D01*
X99060000Y-50800000D02*
X99060000Y-53680000D01*
%TO.N,Net-(J3-Pin_3)*%
X83820000Y-53680000D02*
X88900000Y-58760000D01*
X83820000Y-50800000D02*
X83820000Y-53680000D01*
%TO.N,Net-(J10-Pin_3)*%
X129540000Y-53680000D02*
X134620000Y-58760000D01*
X129540000Y-50800000D02*
X129540000Y-53680000D01*
%TO.N,Net-(J7-Pin_3)*%
X114300000Y-53680000D02*
X119380000Y-58760000D01*
X114300000Y-50800000D02*
X114300000Y-53680000D01*
%TO.N,Net-(J7-Pin_2)*%
X121920000Y-55880000D02*
X119380000Y-53340000D01*
X119380000Y-53340000D02*
X119380000Y-50800000D01*
X121920000Y-58760000D02*
X121920000Y-55880000D01*
%TO.N,Net-(J5-Pin_2)*%
X106680000Y-55880000D02*
X104140000Y-53340000D01*
X106680000Y-58760000D02*
X106680000Y-55880000D01*
X104140000Y-53340000D02*
X104140000Y-50800000D01*
%TO.N,Net-(J3-Pin_2)*%
X88900000Y-53340000D02*
X88900000Y-50800000D01*
X91440000Y-55880000D02*
X88900000Y-53340000D01*
X91440000Y-58760000D02*
X91440000Y-55880000D01*
%TO.N,Net-(J10-Pin_2)*%
X134620000Y-52070000D02*
X134620000Y-50800000D01*
X137160000Y-54610000D02*
X134620000Y-52070000D01*
X137160000Y-58760000D02*
X137160000Y-54610000D01*
X137160000Y-58760000D02*
X137160000Y-63840000D01*
%TO.N,Net-(J10-Pin_1)*%
X140260000Y-59320000D02*
X139700000Y-58760000D01*
X140260000Y-63840000D02*
X140260000Y-59320000D01*
X139700000Y-50800000D02*
X139700000Y-58760000D01*
%TO.N,Net-(J7-Pin_1)*%
X124460000Y-50800000D02*
X124460000Y-63840000D01*
%TO.N,Net-(J5-Pin_1)*%
X109220000Y-50800000D02*
X109220000Y-63840000D01*
%TO.N,Net-(J3-Pin_1)*%
X93980000Y-50800000D02*
X93980000Y-63840000D01*
%TO.N,Net-(J1-Pin_2)*%
X76200000Y-58760000D02*
X76200000Y-54610000D01*
X73660000Y-52070000D02*
X76200000Y-54610000D01*
X73660000Y-50800000D02*
X73660000Y-52070000D01*
X76200000Y-63280000D02*
X75640000Y-63840000D01*
X76200000Y-58760000D02*
X76200000Y-63280000D01*
%TO.N,Net-(J1-Pin_1)*%
X78740000Y-50800000D02*
X78740000Y-63840000D01*
%TD*%
%TA.AperFunction,Conductor*%
%TO.N,GND*%
G36*
X80291938Y-110629185D02*
G01*
X80337693Y-110681989D01*
X80347637Y-110751147D01*
X80342605Y-110772504D01*
X80315319Y-110854847D01*
X80305000Y-110955845D01*
X80305000Y-111055000D01*
X82254999Y-111055000D01*
X82254999Y-110955860D01*
X82254998Y-110955845D01*
X82244680Y-110854847D01*
X82217395Y-110772504D01*
X82214993Y-110702675D01*
X82250725Y-110642634D01*
X82313246Y-110611441D01*
X82335101Y-110609500D01*
X83758197Y-110609500D01*
X83881803Y-110609500D01*
X84012197Y-110609500D01*
X84135803Y-110609500D01*
X85188126Y-110609500D01*
X85255165Y-110629185D01*
X85300920Y-110681989D01*
X85310864Y-110751147D01*
X85281839Y-110814703D01*
X85275807Y-110821181D01*
X84976689Y-111120300D01*
X84689992Y-111406997D01*
X84670257Y-111426732D01*
X84621790Y-111475198D01*
X84560466Y-111508682D01*
X84490775Y-111503696D01*
X84452352Y-111480744D01*
X84440000Y-111469911D01*
X84357270Y-111480804D01*
X84323527Y-111478593D01*
X84323293Y-111480374D01*
X84315236Y-111479313D01*
X84292760Y-111476354D01*
X84202727Y-111464500D01*
X84202720Y-111464500D01*
X83977280Y-111464500D01*
X83977272Y-111464500D01*
X83864764Y-111479313D01*
X83864763Y-111479313D01*
X83724770Y-111537300D01*
X83724767Y-111537301D01*
X83724767Y-111537302D01*
X83604549Y-111629549D01*
X83548892Y-111702083D01*
X83512300Y-111749770D01*
X83454313Y-111889763D01*
X83454313Y-111889764D01*
X83439500Y-112002272D01*
X83439500Y-112136597D01*
X83419815Y-112203636D01*
X83367011Y-112249391D01*
X83297853Y-112259335D01*
X83263179Y-112247337D01*
X83262666Y-112248492D01*
X83083807Y-112168857D01*
X83083802Y-112168855D01*
X82932035Y-112136597D01*
X82898646Y-112129500D01*
X82709354Y-112129500D01*
X82676897Y-112136398D01*
X82524197Y-112168855D01*
X82524192Y-112168857D01*
X82351270Y-112245848D01*
X82351266Y-112245850D01*
X82276273Y-112300336D01*
X82210467Y-112323815D01*
X82142413Y-112307989D01*
X82106531Y-112273464D01*
X82104821Y-112274817D01*
X82100339Y-112269149D01*
X82086017Y-112254827D01*
X82052532Y-112193504D01*
X82057516Y-112123812D01*
X82086021Y-112079460D01*
X82099947Y-112065535D01*
X82190448Y-111918811D01*
X82190453Y-111918800D01*
X82244680Y-111755152D01*
X82254999Y-111654154D01*
X82255000Y-111654141D01*
X82255000Y-111555000D01*
X80305001Y-111555000D01*
X80305001Y-111654154D01*
X80315319Y-111755152D01*
X80369546Y-111918800D01*
X80369551Y-111918811D01*
X80460052Y-112065534D01*
X80460055Y-112065538D01*
X80473982Y-112079465D01*
X80507467Y-112140788D01*
X80502483Y-112210480D01*
X80473984Y-112254825D01*
X80459661Y-112269148D01*
X80369093Y-112415981D01*
X80369092Y-112415984D01*
X80314826Y-112579747D01*
X80314826Y-112579748D01*
X80314825Y-112579748D01*
X80304500Y-112680815D01*
X80304500Y-113379169D01*
X80304501Y-113379187D01*
X80314825Y-113480252D01*
X80314826Y-113480255D01*
X80364115Y-113628996D01*
X80366517Y-113698824D01*
X80330785Y-113758866D01*
X80268265Y-113790059D01*
X80246409Y-113792000D01*
X78118860Y-113792000D01*
X78051821Y-113772315D01*
X78031179Y-113755681D01*
X75096680Y-110821181D01*
X75063195Y-110759858D01*
X75068179Y-110690166D01*
X75110051Y-110634233D01*
X75175515Y-110609816D01*
X75184361Y-110609500D01*
X80224899Y-110609500D01*
X80291938Y-110629185D01*
G37*
%TD.AperFunction*%
%TA.AperFunction,Conductor*%
G36*
X94261938Y-110629185D02*
G01*
X94307693Y-110681989D01*
X94317637Y-110751147D01*
X94312605Y-110772504D01*
X94285319Y-110854847D01*
X94275000Y-110955845D01*
X94275000Y-111055000D01*
X96224999Y-111055000D01*
X96224999Y-110955860D01*
X96224998Y-110955845D01*
X96214680Y-110854847D01*
X96187395Y-110772504D01*
X96184993Y-110702675D01*
X96220725Y-110642634D01*
X96283246Y-110611441D01*
X96305101Y-110609500D01*
X99252197Y-110609500D01*
X100075640Y-110609500D01*
X100142679Y-110629185D01*
X100188434Y-110681989D01*
X100198378Y-110751147D01*
X100169353Y-110814703D01*
X100163321Y-110821181D01*
X99848201Y-111136300D01*
X99848199Y-111136303D01*
X99768934Y-111273596D01*
X99739103Y-111384924D01*
X99702737Y-111444584D01*
X99639890Y-111475112D01*
X99635517Y-111475768D01*
X99597273Y-111480804D01*
X99563527Y-111478593D01*
X99563293Y-111480374D01*
X99555236Y-111479313D01*
X99532760Y-111476354D01*
X99442727Y-111464500D01*
X99442720Y-111464500D01*
X99217280Y-111464500D01*
X99217272Y-111464500D01*
X99104764Y-111479313D01*
X99104763Y-111479313D01*
X98964770Y-111537300D01*
X98964767Y-111537301D01*
X98964767Y-111537302D01*
X98844549Y-111629549D01*
X98788892Y-111702083D01*
X98752300Y-111749770D01*
X98694313Y-111889763D01*
X98694313Y-111889764D01*
X98679500Y-112002272D01*
X98679500Y-112278500D01*
X98659815Y-112345539D01*
X98607011Y-112391294D01*
X98555500Y-112402500D01*
X98237947Y-112402500D01*
X98170908Y-112382815D01*
X98145800Y-112361476D01*
X98141871Y-112357112D01*
X98141869Y-112357111D01*
X98141867Y-112357108D01*
X98141864Y-112357106D01*
X97988734Y-112245851D01*
X97988729Y-112245848D01*
X97815807Y-112168857D01*
X97815802Y-112168855D01*
X97664035Y-112136597D01*
X97630646Y-112129500D01*
X97441354Y-112129500D01*
X97408897Y-112136398D01*
X97256197Y-112168855D01*
X97256192Y-112168857D01*
X97083270Y-112245848D01*
X97083265Y-112245851D01*
X96930135Y-112357106D01*
X96930132Y-112357108D01*
X96929856Y-112357415D01*
X96926200Y-112361474D01*
X96866714Y-112398121D01*
X96834053Y-112402500D01*
X96221798Y-112402500D01*
X96154759Y-112382815D01*
X96116259Y-112343597D01*
X96070340Y-112269150D01*
X96056017Y-112254827D01*
X96022532Y-112193504D01*
X96027516Y-112123812D01*
X96056021Y-112079460D01*
X96069947Y-112065535D01*
X96160448Y-111918811D01*
X96160453Y-111918800D01*
X96214680Y-111755152D01*
X96224999Y-111654154D01*
X96225000Y-111654141D01*
X96225000Y-111555000D01*
X94275001Y-111555000D01*
X94275001Y-111654154D01*
X94285319Y-111755152D01*
X94339546Y-111918800D01*
X94339551Y-111918811D01*
X94430052Y-112065534D01*
X94430055Y-112065538D01*
X94443982Y-112079465D01*
X94477467Y-112140788D01*
X94472483Y-112210480D01*
X94443984Y-112254825D01*
X94429661Y-112269148D01*
X94339093Y-112415981D01*
X94339092Y-112415984D01*
X94284826Y-112579747D01*
X94284826Y-112579748D01*
X94284825Y-112579748D01*
X94274500Y-112680815D01*
X94274500Y-113379169D01*
X94274501Y-113379187D01*
X94284825Y-113480252D01*
X94284826Y-113480255D01*
X94334115Y-113628996D01*
X94336517Y-113698824D01*
X94300785Y-113758866D01*
X94238265Y-113790059D01*
X94216409Y-113792000D01*
X93648781Y-113792000D01*
X93581742Y-113772315D01*
X93561100Y-113755681D01*
X90626601Y-110821181D01*
X90593116Y-110759858D01*
X90598100Y-110690166D01*
X90639972Y-110634233D01*
X90705436Y-110609816D01*
X90714282Y-110609500D01*
X94194899Y-110609500D01*
X94261938Y-110629185D01*
G37*
%TD.AperFunction*%
%TA.AperFunction,Conductor*%
G36*
X110771938Y-110629185D02*
G01*
X110817693Y-110681989D01*
X110827637Y-110751147D01*
X110822605Y-110772504D01*
X110795319Y-110854847D01*
X110785000Y-110955845D01*
X110785000Y-111055000D01*
X112734999Y-111055000D01*
X112734999Y-110955860D01*
X112734998Y-110955845D01*
X112724680Y-110854847D01*
X112697395Y-110772504D01*
X112694993Y-110702675D01*
X112730725Y-110642634D01*
X112793246Y-110611441D01*
X112815101Y-110609500D01*
X114492197Y-110609500D01*
X114615803Y-110609500D01*
X115315640Y-110609500D01*
X115382679Y-110629185D01*
X115428434Y-110681989D01*
X115438378Y-110751147D01*
X115409353Y-110814703D01*
X115403321Y-110821181D01*
X115088201Y-111136300D01*
X115088199Y-111136303D01*
X115008934Y-111273596D01*
X114979103Y-111384924D01*
X114942737Y-111444584D01*
X114879890Y-111475112D01*
X114875517Y-111475768D01*
X114837273Y-111480804D01*
X114803527Y-111478593D01*
X114803293Y-111480374D01*
X114795236Y-111479313D01*
X114772760Y-111476354D01*
X114682727Y-111464500D01*
X114682720Y-111464500D01*
X114457280Y-111464500D01*
X114457272Y-111464500D01*
X114344764Y-111479313D01*
X114344763Y-111479313D01*
X114204770Y-111537300D01*
X114204767Y-111537301D01*
X114204767Y-111537302D01*
X114084549Y-111629549D01*
X114028892Y-111702083D01*
X113992300Y-111749770D01*
X113934313Y-111889763D01*
X113934313Y-111889764D01*
X113919500Y-112002272D01*
X113919500Y-112136597D01*
X113899815Y-112203636D01*
X113847011Y-112249391D01*
X113777853Y-112259335D01*
X113743179Y-112247337D01*
X113742666Y-112248492D01*
X113563807Y-112168857D01*
X113563802Y-112168855D01*
X113412035Y-112136597D01*
X113378646Y-112129500D01*
X113189354Y-112129500D01*
X113156897Y-112136398D01*
X113004197Y-112168855D01*
X113004192Y-112168857D01*
X112831270Y-112245848D01*
X112831266Y-112245850D01*
X112756273Y-112300336D01*
X112690467Y-112323815D01*
X112622413Y-112307989D01*
X112586531Y-112273464D01*
X112584821Y-112274817D01*
X112580339Y-112269149D01*
X112566017Y-112254827D01*
X112532532Y-112193504D01*
X112537516Y-112123812D01*
X112566021Y-112079460D01*
X112579947Y-112065535D01*
X112670448Y-111918811D01*
X112670453Y-111918800D01*
X112724680Y-111755152D01*
X112734999Y-111654154D01*
X112735000Y-111654141D01*
X112735000Y-111555000D01*
X110785001Y-111555000D01*
X110785001Y-111654154D01*
X110795319Y-111755152D01*
X110849546Y-111918800D01*
X110849551Y-111918811D01*
X110940052Y-112065534D01*
X110940055Y-112065538D01*
X110953982Y-112079465D01*
X110987467Y-112140788D01*
X110982483Y-112210480D01*
X110953984Y-112254825D01*
X110939661Y-112269148D01*
X110849093Y-112415981D01*
X110849092Y-112415984D01*
X110794826Y-112579747D01*
X110794826Y-112579748D01*
X110794825Y-112579748D01*
X110784500Y-112680815D01*
X110784500Y-113379169D01*
X110784501Y-113379187D01*
X110794825Y-113480252D01*
X110794826Y-113480255D01*
X110844115Y-113628996D01*
X110846517Y-113698824D01*
X110810785Y-113758866D01*
X110748265Y-113790059D01*
X110726409Y-113792000D01*
X108852860Y-113792000D01*
X108785821Y-113772315D01*
X108765179Y-113755681D01*
X105830679Y-110821181D01*
X105797194Y-110759858D01*
X105802178Y-110690166D01*
X105844050Y-110634233D01*
X105909514Y-110609816D01*
X105918360Y-110609500D01*
X110704899Y-110609500D01*
X110771938Y-110629185D01*
G37*
%TD.AperFunction*%
%TA.AperFunction,Conductor*%
G36*
X143640405Y-67055598D02*
G01*
X143707378Y-67075500D01*
X143752961Y-67128452D01*
X143764000Y-67179597D01*
X143764000Y-77934326D01*
X143744315Y-78001365D01*
X143691511Y-78047120D01*
X143622353Y-78057064D01*
X143558797Y-78028039D01*
X143543898Y-78012687D01*
X143451109Y-77898890D01*
X143293409Y-77770304D01*
X143293410Y-77770304D01*
X143293407Y-77770302D01*
X143113049Y-77676091D01*
X143113048Y-77676090D01*
X143113045Y-77676089D01*
X142995829Y-77642550D01*
X142917418Y-77620114D01*
X142917415Y-77620113D01*
X142917413Y-77620113D01*
X142851102Y-77614217D01*
X142798037Y-77609500D01*
X142798032Y-77609500D01*
X141681971Y-77609500D01*
X141681965Y-77609500D01*
X141681964Y-77609501D01*
X141670316Y-77610536D01*
X141562584Y-77620113D01*
X141366954Y-77676089D01*
X141282891Y-77720000D01*
X141186593Y-77770302D01*
X141186591Y-77770303D01*
X141186590Y-77770304D01*
X141028890Y-77898890D01*
X140900304Y-78056590D01*
X140806089Y-78236954D01*
X140776606Y-78339996D01*
X140758961Y-78401665D01*
X140750114Y-78432583D01*
X140750113Y-78432586D01*
X140747939Y-78457044D01*
X140742113Y-78522579D01*
X140739500Y-78551966D01*
X140739500Y-78750500D01*
X140719815Y-78817539D01*
X140667011Y-78863294D01*
X140615500Y-78874500D01*
X137311789Y-78874500D01*
X137244750Y-78854815D01*
X137198995Y-78802011D01*
X137189051Y-78732853D01*
X137215142Y-78672813D01*
X137306607Y-78559024D01*
X137306609Y-78559022D01*
X137391168Y-78388523D01*
X137437102Y-78203824D01*
X137440000Y-78161096D01*
X137440000Y-77960000D01*
X134440000Y-77960000D01*
X134440000Y-78161096D01*
X134442897Y-78203824D01*
X134488831Y-78388523D01*
X134573390Y-78559022D01*
X134573392Y-78559025D01*
X134692630Y-78707364D01*
X134761884Y-78763031D01*
X134801803Y-78820375D01*
X134804383Y-78890197D01*
X134768805Y-78950329D01*
X134761885Y-78956326D01*
X134721883Y-78988481D01*
X134692278Y-79012278D01*
X134644931Y-79071181D01*
X134636083Y-79082188D01*
X134578739Y-79122106D01*
X134539436Y-79128500D01*
X133380846Y-79128500D01*
X133313807Y-79108815D01*
X133268052Y-79056011D01*
X133263140Y-79043505D01*
X133244908Y-78988484D01*
X133154340Y-78841650D01*
X133140017Y-78827327D01*
X133106532Y-78766004D01*
X133111516Y-78696312D01*
X133140021Y-78651960D01*
X133153947Y-78638035D01*
X133244448Y-78491311D01*
X133244453Y-78491300D01*
X133298680Y-78327652D01*
X133308999Y-78226654D01*
X133309000Y-78226641D01*
X133309000Y-78127500D01*
X131359001Y-78127500D01*
X131359001Y-78226654D01*
X131369319Y-78327652D01*
X131425819Y-78498158D01*
X131423389Y-78498963D01*
X131432076Y-78556183D01*
X131403551Y-78619964D01*
X131345071Y-78658199D01*
X131309203Y-78663500D01*
X130583730Y-78663500D01*
X130516691Y-78643815D01*
X130496049Y-78627181D01*
X130483657Y-78614789D01*
X130483656Y-78614788D01*
X130480342Y-78612743D01*
X130478546Y-78610748D01*
X130477989Y-78610307D01*
X130478064Y-78610211D01*
X130433618Y-78560797D01*
X130422397Y-78491834D01*
X130450240Y-78427752D01*
X130480348Y-78401665D01*
X130483342Y-78399818D01*
X130607315Y-78275845D01*
X130699356Y-78126624D01*
X130699358Y-78126619D01*
X130754505Y-77960197D01*
X130754506Y-77960190D01*
X130764999Y-77857486D01*
X130765000Y-77857473D01*
X130765000Y-77720000D01*
X128315001Y-77720000D01*
X128315001Y-77857486D01*
X128325494Y-77960197D01*
X128380641Y-78126619D01*
X128380643Y-78126624D01*
X128472684Y-78275845D01*
X128596655Y-78399816D01*
X128596659Y-78399819D01*
X128599656Y-78401668D01*
X128601279Y-78403472D01*
X128602323Y-78404298D01*
X128602181Y-78404476D01*
X128646381Y-78453616D01*
X128657602Y-78522579D01*
X128629759Y-78586661D01*
X128599661Y-78612741D01*
X128596349Y-78614783D01*
X128596343Y-78614788D01*
X128472289Y-78738842D01*
X128380187Y-78888163D01*
X128380185Y-78888168D01*
X128379513Y-78890197D01*
X128325001Y-79054703D01*
X128325001Y-79054704D01*
X128325000Y-79054704D01*
X128314500Y-79157483D01*
X128314500Y-79932501D01*
X128314501Y-79932519D01*
X128325000Y-80035296D01*
X128325001Y-80035299D01*
X128349858Y-80110311D01*
X128380186Y-80201834D01*
X128472288Y-80351156D01*
X128596344Y-80475212D01*
X128613837Y-80486002D01*
X128613841Y-80486004D01*
X128660566Y-80537951D01*
X128671789Y-80606913D01*
X128643946Y-80670996D01*
X128613845Y-80697079D01*
X128596661Y-80707678D01*
X128596655Y-80707683D01*
X128472684Y-80831654D01*
X128380643Y-80980875D01*
X128380641Y-80980880D01*
X128325494Y-81147302D01*
X128325493Y-81147309D01*
X128315000Y-81250013D01*
X128315000Y-81387500D01*
X130764999Y-81387500D01*
X130764999Y-81250028D01*
X130764998Y-81250013D01*
X130754505Y-81147302D01*
X130699358Y-80980880D01*
X130699356Y-80980875D01*
X130607315Y-80831654D01*
X130483343Y-80707682D01*
X130466156Y-80697081D01*
X130419432Y-80645132D01*
X130408211Y-80576169D01*
X130436055Y-80512088D01*
X130466153Y-80486007D01*
X130483656Y-80475212D01*
X130496049Y-80462819D01*
X130557372Y-80429334D01*
X130583730Y-80426500D01*
X131525448Y-80426500D01*
X131592487Y-80446185D01*
X131613129Y-80462819D01*
X131635650Y-80485340D01*
X131782484Y-80575908D01*
X131946247Y-80630174D01*
X132047323Y-80640500D01*
X132074005Y-80640499D01*
X132141043Y-80660181D01*
X132161690Y-80676820D01*
X132179576Y-80694706D01*
X132195173Y-80705127D01*
X132239978Y-80758738D01*
X132248687Y-80828063D01*
X132218533Y-80891091D01*
X132165288Y-80925936D01*
X132036697Y-80968547D01*
X132036688Y-80968551D01*
X131889965Y-81059052D01*
X131889961Y-81059055D01*
X131768055Y-81180961D01*
X131768052Y-81180965D01*
X131677551Y-81327688D01*
X131677546Y-81327699D01*
X131623319Y-81491347D01*
X131613000Y-81592345D01*
X131613000Y-81691500D01*
X133562999Y-81691500D01*
X133562999Y-81592360D01*
X133562998Y-81592345D01*
X133552680Y-81491347D01*
X133498453Y-81327699D01*
X133498448Y-81327688D01*
X133407947Y-81180965D01*
X133407944Y-81180961D01*
X133330164Y-81103181D01*
X133296679Y-81041858D01*
X133301663Y-80972166D01*
X133343535Y-80916233D01*
X133408999Y-80891816D01*
X133417845Y-80891500D01*
X134539436Y-80891500D01*
X134606475Y-80911185D01*
X134636081Y-80937810D01*
X134692278Y-81007722D01*
X134734745Y-81041858D01*
X134761486Y-81063353D01*
X134801405Y-81120696D01*
X134803985Y-81190518D01*
X134768406Y-81250651D01*
X134761486Y-81256647D01*
X134692278Y-81312277D01*
X134692277Y-81312278D01*
X134572969Y-81460704D01*
X134572967Y-81460707D01*
X134488360Y-81631302D01*
X134442400Y-81816107D01*
X134439500Y-81858879D01*
X134439500Y-82153298D01*
X134419815Y-82220337D01*
X134403181Y-82240979D01*
X134103480Y-82540681D01*
X134042157Y-82574166D01*
X134015799Y-82577000D01*
X133662983Y-82577000D01*
X133595944Y-82557315D01*
X133550189Y-82504511D01*
X133540245Y-82435353D01*
X133545277Y-82413996D01*
X133552680Y-82391652D01*
X133562999Y-82290654D01*
X133563000Y-82290641D01*
X133563000Y-82191500D01*
X131613001Y-82191500D01*
X131613001Y-82290654D01*
X131623319Y-82391652D01*
X131630723Y-82413996D01*
X131633125Y-82483825D01*
X131597393Y-82543867D01*
X131534872Y-82575059D01*
X131513017Y-82577000D01*
X130747052Y-82577000D01*
X130680013Y-82557315D01*
X130634258Y-82504511D01*
X130624314Y-82435353D01*
X130641513Y-82387903D01*
X130699356Y-82294124D01*
X130699358Y-82294119D01*
X130754505Y-82127697D01*
X130754506Y-82127690D01*
X130764999Y-82024986D01*
X130765000Y-82024973D01*
X130765000Y-81887500D01*
X128315001Y-81887500D01*
X128315001Y-82024986D01*
X128325494Y-82127697D01*
X128380641Y-82294119D01*
X128380643Y-82294124D01*
X128472684Y-82443345D01*
X128596655Y-82567316D01*
X128596659Y-82567319D01*
X128599656Y-82569168D01*
X128601279Y-82570972D01*
X128602323Y-82571798D01*
X128602181Y-82571976D01*
X128646381Y-82621116D01*
X128657602Y-82690079D01*
X128629759Y-82754161D01*
X128599661Y-82780241D01*
X128596349Y-82782283D01*
X128596343Y-82782288D01*
X128472289Y-82906342D01*
X128380187Y-83055663D01*
X128380186Y-83055666D01*
X128325001Y-83222203D01*
X128325001Y-83222204D01*
X128325000Y-83222204D01*
X128314500Y-83324983D01*
X128314500Y-84100001D01*
X128314501Y-84100019D01*
X128325000Y-84202796D01*
X128325001Y-84202799D01*
X128380185Y-84369331D01*
X128380188Y-84369338D01*
X128386038Y-84378821D01*
X128404500Y-84443919D01*
X128404500Y-87586450D01*
X128384815Y-87653489D01*
X128354812Y-87685716D01*
X128332457Y-87702450D01*
X128332451Y-87702457D01*
X128246206Y-87817664D01*
X128246202Y-87817671D01*
X128195908Y-87952517D01*
X128189501Y-88012116D01*
X128189501Y-88012123D01*
X128189500Y-88012135D01*
X128189500Y-89807870D01*
X128189501Y-89807876D01*
X128195908Y-89867483D01*
X128246202Y-90002328D01*
X128246206Y-90002335D01*
X128332452Y-90117544D01*
X128332455Y-90117547D01*
X128447664Y-90203793D01*
X128447671Y-90203797D01*
X128579081Y-90252810D01*
X128635015Y-90294681D01*
X128659432Y-90360145D01*
X128644580Y-90428418D01*
X128623430Y-90456673D01*
X128501503Y-90578600D01*
X128365965Y-90772169D01*
X128365964Y-90772171D01*
X128266098Y-90986335D01*
X128266094Y-90986344D01*
X128204938Y-91214586D01*
X128204936Y-91214596D01*
X128184341Y-91449999D01*
X128184341Y-91450000D01*
X128204936Y-91685403D01*
X128204938Y-91685413D01*
X128266094Y-91913655D01*
X128266096Y-91913659D01*
X128266097Y-91913663D01*
X128354319Y-92102855D01*
X128365965Y-92127830D01*
X128365967Y-92127834D01*
X128422044Y-92207919D01*
X128498773Y-92317500D01*
X128501501Y-92321395D01*
X128501506Y-92321402D01*
X128668597Y-92488493D01*
X128668603Y-92488498D01*
X128854158Y-92618425D01*
X128897783Y-92673002D01*
X128904977Y-92742500D01*
X128873454Y-92804855D01*
X128854158Y-92821575D01*
X128668597Y-92951505D01*
X128501505Y-93118597D01*
X128365965Y-93312169D01*
X128365964Y-93312171D01*
X128266098Y-93526335D01*
X128266094Y-93526344D01*
X128204938Y-93754586D01*
X128204936Y-93754596D01*
X128184341Y-93989999D01*
X128184341Y-93990000D01*
X128204936Y-94225403D01*
X128204938Y-94225413D01*
X128266094Y-94453655D01*
X128266096Y-94453659D01*
X128266097Y-94453663D01*
X128347262Y-94627722D01*
X128365965Y-94667830D01*
X128365967Y-94667834D01*
X128424258Y-94751081D01*
X128501505Y-94861401D01*
X128668599Y-95028495D01*
X128821726Y-95135716D01*
X128854594Y-95158730D01*
X128898219Y-95213307D01*
X128905413Y-95282805D01*
X128873890Y-95345160D01*
X128854595Y-95361880D01*
X128668922Y-95491890D01*
X128668920Y-95491891D01*
X128501891Y-95658920D01*
X128501886Y-95658926D01*
X128366400Y-95852420D01*
X128366399Y-95852422D01*
X128266570Y-96066507D01*
X128266567Y-96066513D01*
X128209364Y-96279999D01*
X128209364Y-96280000D01*
X129106988Y-96280000D01*
X129074075Y-96337007D01*
X129040000Y-96464174D01*
X129040000Y-96595826D01*
X129074075Y-96722993D01*
X129106988Y-96780000D01*
X128209364Y-96780000D01*
X128266567Y-96993486D01*
X128266570Y-96993492D01*
X128366399Y-97207578D01*
X128501894Y-97401082D01*
X128668917Y-97568105D01*
X128862421Y-97703600D01*
X129076507Y-97803429D01*
X129076516Y-97803433D01*
X129290000Y-97860634D01*
X129290000Y-96963012D01*
X129347007Y-96995925D01*
X129474174Y-97030000D01*
X129605826Y-97030000D01*
X129732993Y-96995925D01*
X129790000Y-96963012D01*
X129790000Y-97860633D01*
X130003483Y-97803433D01*
X130003492Y-97803429D01*
X130217578Y-97703600D01*
X130411082Y-97568105D01*
X130578105Y-97401082D01*
X130713600Y-97207578D01*
X130813429Y-96993492D01*
X130813432Y-96993486D01*
X130870636Y-96780000D01*
X129973012Y-96780000D01*
X130005925Y-96722993D01*
X130040000Y-96595826D01*
X130040000Y-96464174D01*
X130005925Y-96337007D01*
X129973012Y-96280000D01*
X130870636Y-96280000D01*
X130870635Y-96279999D01*
X130813432Y-96066513D01*
X130813429Y-96066507D01*
X130713600Y-95852422D01*
X130713599Y-95852420D01*
X130578113Y-95658926D01*
X130578108Y-95658920D01*
X130411078Y-95491890D01*
X130225405Y-95361879D01*
X130181780Y-95307302D01*
X130174588Y-95237804D01*
X130206110Y-95175449D01*
X130225406Y-95158730D01*
X130258265Y-95135722D01*
X130411401Y-95028495D01*
X130578495Y-94861401D01*
X130714035Y-94667830D01*
X130715961Y-94663698D01*
X130762132Y-94611258D01*
X130828345Y-94592100D01*
X131641266Y-94592100D01*
X131641268Y-94592100D01*
X131662820Y-94586324D01*
X131694913Y-94582100D01*
X132159266Y-94582100D01*
X132159268Y-94582100D01*
X132312402Y-94541067D01*
X132449698Y-94461800D01*
X132561800Y-94349698D01*
X133050041Y-93861455D01*
X133111362Y-93827972D01*
X133181053Y-93832956D01*
X133229868Y-93866165D01*
X133243097Y-93880857D01*
X133252129Y-93890888D01*
X133252130Y-93890889D01*
X133405265Y-94002148D01*
X133405270Y-94002151D01*
X133578192Y-94079142D01*
X133578197Y-94079144D01*
X133763354Y-94118500D01*
X133763355Y-94118500D01*
X133952644Y-94118500D01*
X133952646Y-94118500D01*
X134137803Y-94079144D01*
X134263858Y-94023019D01*
X134315856Y-94016046D01*
X134337399Y-93983218D01*
X134344795Y-93977401D01*
X134463871Y-93890888D01*
X134590533Y-93750216D01*
X134685179Y-93586284D01*
X134743674Y-93406256D01*
X134743675Y-93406243D01*
X134744935Y-93400321D01*
X134778127Y-93338838D01*
X134839290Y-93305061D01*
X134866226Y-93302100D01*
X136299357Y-93302100D01*
X136366396Y-93321785D01*
X136412151Y-93374589D01*
X136422296Y-93409914D01*
X136425374Y-93433292D01*
X136422399Y-93433683D01*
X136422399Y-93466316D01*
X136425374Y-93466708D01*
X136424313Y-93474762D01*
X136424313Y-93474764D01*
X136409632Y-93586277D01*
X136409236Y-93589286D01*
X136380969Y-93653182D01*
X136322645Y-93691653D01*
X136286297Y-93697100D01*
X135455693Y-93697100D01*
X135339254Y-93720262D01*
X135331962Y-93721712D01*
X135329555Y-93722191D01*
X135329553Y-93722192D01*
X135210736Y-93771407D01*
X135103798Y-93842860D01*
X135103795Y-93842863D01*
X134887479Y-94059181D01*
X134826156Y-94092666D01*
X134799798Y-94095500D01*
X134779354Y-94095500D01*
X134770265Y-94097432D01*
X134594199Y-94134855D01*
X134468142Y-94190980D01*
X134416142Y-94197951D01*
X134394601Y-94230780D01*
X134387179Y-94236617D01*
X134268127Y-94323113D01*
X134141466Y-94463785D01*
X134046821Y-94627715D01*
X134046818Y-94627722D01*
X133988327Y-94807740D01*
X133988326Y-94807744D01*
X133968540Y-94996000D01*
X133988326Y-95184256D01*
X133988327Y-95184259D01*
X134046818Y-95364277D01*
X134046821Y-95364284D01*
X134141467Y-95528216D01*
X134249859Y-95648597D01*
X134268129Y-95668888D01*
X134421265Y-95780148D01*
X134421270Y-95780151D01*
X134594192Y-95857142D01*
X134594197Y-95857144D01*
X134779354Y-95896500D01*
X134779355Y-95896500D01*
X134968644Y-95896500D01*
X134968646Y-95896500D01*
X135153803Y-95857144D01*
X135326730Y-95780151D01*
X135479871Y-95668888D01*
X135606533Y-95528216D01*
X135701179Y-95364284D01*
X135759674Y-95184256D01*
X135767064Y-95113936D01*
X135793649Y-95049324D01*
X135850946Y-95009339D01*
X135890385Y-95002900D01*
X136598543Y-95002900D01*
X136661663Y-95020167D01*
X136799602Y-95101744D01*
X136841224Y-95113836D01*
X136957426Y-95147597D01*
X136957429Y-95147597D01*
X136957431Y-95147598D01*
X136994306Y-95150500D01*
X136994314Y-95150500D01*
X137611000Y-95150500D01*
X137678039Y-95170185D01*
X137723794Y-95222989D01*
X137735000Y-95274500D01*
X137735000Y-95276000D01*
X137715315Y-95343039D01*
X137662511Y-95388794D01*
X137611000Y-95400000D01*
X136412705Y-95400000D01*
X136412704Y-95400001D01*
X136412899Y-95402486D01*
X136458718Y-95560198D01*
X136542314Y-95701552D01*
X136542321Y-95701561D01*
X136569111Y-95728351D01*
X136602596Y-95789674D01*
X136597612Y-95859366D01*
X136595991Y-95863484D01*
X136548430Y-95978307D01*
X136548430Y-95978309D01*
X136540138Y-96020000D01*
X137343012Y-96020000D01*
X137325795Y-96029940D01*
X137269940Y-96085795D01*
X137230444Y-96154204D01*
X137210000Y-96230504D01*
X137210000Y-96309496D01*
X137230444Y-96385796D01*
X137269940Y-96454205D01*
X137325795Y-96510060D01*
X137343012Y-96520000D01*
X136540138Y-96520000D01*
X136548430Y-96561690D01*
X136548430Y-96561692D01*
X136623807Y-96743671D01*
X136623814Y-96743684D01*
X136733248Y-96907462D01*
X136733251Y-96907466D01*
X136872533Y-97046748D01*
X136872537Y-97046751D01*
X137036315Y-97156185D01*
X137036328Y-97156192D01*
X137218306Y-97231569D01*
X137218318Y-97231572D01*
X137411504Y-97269999D01*
X137411508Y-97270000D01*
X137810000Y-97270000D01*
X137810000Y-96570000D01*
X138310000Y-96570000D01*
X138310000Y-97270000D01*
X138708492Y-97270000D01*
X138708495Y-97269999D01*
X138901681Y-97231572D01*
X138901693Y-97231569D01*
X139083671Y-97156192D01*
X139083684Y-97156185D01*
X139247462Y-97046751D01*
X139247466Y-97046748D01*
X139343419Y-96950796D01*
X139404742Y-96917311D01*
X139474434Y-96922295D01*
X139530367Y-96964167D01*
X139554784Y-97029631D01*
X139555100Y-97038477D01*
X139555100Y-99790119D01*
X139535415Y-99857158D01*
X139518781Y-99877800D01*
X138537992Y-100858589D01*
X138494289Y-100902292D01*
X138450586Y-100945994D01*
X138450585Y-100945996D01*
X138381233Y-101049789D01*
X138379586Y-101054393D01*
X138334615Y-101162962D01*
X138334612Y-101162972D01*
X138316198Y-101255548D01*
X138310500Y-101284192D01*
X138310500Y-102181252D01*
X138290815Y-102248291D01*
X138251599Y-102286789D01*
X138239653Y-102294157D01*
X138239649Y-102294160D01*
X138117661Y-102416148D01*
X138027093Y-102562981D01*
X138027091Y-102562986D01*
X138025457Y-102567917D01*
X137972826Y-102726747D01*
X137972826Y-102726748D01*
X137972825Y-102726748D01*
X137962500Y-102827815D01*
X137962500Y-103526169D01*
X137962501Y-103526187D01*
X137972825Y-103627252D01*
X138009109Y-103736749D01*
X138022193Y-103776233D01*
X138027092Y-103791015D01*
X138027093Y-103791018D01*
X138059012Y-103842767D01*
X138117659Y-103937849D01*
X138117661Y-103937851D01*
X138131982Y-103952172D01*
X138165467Y-104013495D01*
X138160483Y-104083187D01*
X138131985Y-104127532D01*
X138118052Y-104141465D01*
X138027551Y-104288188D01*
X138027546Y-104288199D01*
X137973319Y-104451847D01*
X137963000Y-104552845D01*
X137963000Y-104652000D01*
X139912999Y-104652000D01*
X139912999Y-104552860D01*
X139912998Y-104552845D01*
X139902680Y-104451847D01*
X139848453Y-104288199D01*
X139848448Y-104288188D01*
X139757947Y-104141465D01*
X139757944Y-104141461D01*
X139744017Y-104127534D01*
X139710532Y-104066211D01*
X139715516Y-103996519D01*
X139744017Y-103952172D01*
X139758340Y-103937850D01*
X139848908Y-103791016D01*
X139903174Y-103627253D01*
X139913500Y-103526177D01*
X139913499Y-102827824D01*
X139903174Y-102726747D01*
X139848908Y-102562984D01*
X139758340Y-102416150D01*
X139636350Y-102294160D01*
X139636346Y-102294157D01*
X139624401Y-102286789D01*
X139577677Y-102234840D01*
X139565500Y-102181252D01*
X139565500Y-101657281D01*
X139585185Y-101590242D01*
X139601819Y-101569600D01*
X140152200Y-101019219D01*
X140213523Y-100985734D01*
X140239881Y-100982900D01*
X140272307Y-100982900D01*
X140388019Y-100959883D01*
X140412211Y-100957500D01*
X140966173Y-100957500D01*
X141033212Y-100977185D01*
X141067747Y-101010375D01*
X141094630Y-101048768D01*
X141201505Y-101201401D01*
X141368597Y-101368493D01*
X141368603Y-101368498D01*
X141554158Y-101498425D01*
X141597783Y-101553002D01*
X141604977Y-101622500D01*
X141573454Y-101684855D01*
X141554158Y-101701575D01*
X141368597Y-101831505D01*
X141201505Y-101998597D01*
X141065965Y-102192169D01*
X141065964Y-102192171D01*
X140966098Y-102406335D01*
X140966094Y-102406344D01*
X140904938Y-102634586D01*
X140904936Y-102634596D01*
X140884341Y-102869999D01*
X140884341Y-102870000D01*
X140904936Y-103105403D01*
X140904938Y-103105413D01*
X140966094Y-103333655D01*
X140966096Y-103333659D01*
X140966097Y-103333663D01*
X140994000Y-103393500D01*
X141065965Y-103547830D01*
X141065967Y-103547834D01*
X141139318Y-103652589D01*
X141200518Y-103739992D01*
X141201501Y-103741395D01*
X141201506Y-103741402D01*
X141368597Y-103908493D01*
X141368603Y-103908498D01*
X141554158Y-104038425D01*
X141597783Y-104093002D01*
X141604977Y-104162500D01*
X141573454Y-104224855D01*
X141554158Y-104241575D01*
X141368597Y-104371505D01*
X141201505Y-104538597D01*
X141065965Y-104732169D01*
X141065964Y-104732171D01*
X140966098Y-104946335D01*
X140966094Y-104946344D01*
X140904938Y-105174586D01*
X140904936Y-105174596D01*
X140884341Y-105409999D01*
X140884341Y-105410000D01*
X140904936Y-105645403D01*
X140904938Y-105645413D01*
X140966094Y-105873655D01*
X140966096Y-105873659D01*
X140966097Y-105873663D01*
X141044265Y-106041294D01*
X141065965Y-106087830D01*
X141065967Y-106087834D01*
X141139318Y-106192589D01*
X141201501Y-106281396D01*
X141201506Y-106281402D01*
X141323818Y-106403714D01*
X141357303Y-106465037D01*
X141352319Y-106534729D01*
X141310447Y-106590662D01*
X141279471Y-106607577D01*
X141147912Y-106656646D01*
X141147906Y-106656649D01*
X141032812Y-106742809D01*
X141032809Y-106742812D01*
X140946649Y-106857906D01*
X140946645Y-106857913D01*
X140896403Y-106992620D01*
X140896401Y-106992627D01*
X140890000Y-107052155D01*
X140890000Y-107700000D01*
X141806988Y-107700000D01*
X141774075Y-107757007D01*
X141740000Y-107884174D01*
X141740000Y-108015826D01*
X141774075Y-108142993D01*
X141806988Y-108200000D01*
X140890000Y-108200000D01*
X140890000Y-108847844D01*
X140896401Y-108907372D01*
X140896403Y-108907379D01*
X140946645Y-109042086D01*
X140946649Y-109042093D01*
X141032809Y-109157187D01*
X141032812Y-109157190D01*
X141147906Y-109243350D01*
X141147913Y-109243354D01*
X141282620Y-109293596D01*
X141282627Y-109293598D01*
X141342155Y-109299999D01*
X141342172Y-109300000D01*
X141990000Y-109300000D01*
X141990000Y-108383012D01*
X142047007Y-108415925D01*
X142174174Y-108450000D01*
X142305826Y-108450000D01*
X142432993Y-108415925D01*
X142490000Y-108383012D01*
X142490000Y-109300000D01*
X143137828Y-109300000D01*
X143137844Y-109299999D01*
X143197372Y-109293598D01*
X143197379Y-109293596D01*
X143332086Y-109243354D01*
X143332093Y-109243350D01*
X143447187Y-109157190D01*
X143447190Y-109157187D01*
X143538669Y-109034989D01*
X143540728Y-109036530D01*
X143580570Y-108996687D01*
X143648843Y-108981834D01*
X143714308Y-109006249D01*
X143756181Y-109062181D01*
X143764000Y-109105518D01*
X143764000Y-113668000D01*
X143744315Y-113735039D01*
X143691511Y-113780794D01*
X143640000Y-113792000D01*
X139586860Y-113792000D01*
X139519821Y-113772315D01*
X139499179Y-113755681D01*
X136259699Y-110516201D01*
X136259691Y-110516195D01*
X136178657Y-110469411D01*
X136178654Y-110469410D01*
X136122404Y-110436934D01*
X136122403Y-110436933D01*
X136068744Y-110422555D01*
X135969268Y-110395900D01*
X131492732Y-110395900D01*
X131393256Y-110422555D01*
X131339597Y-110436933D01*
X131283344Y-110469411D01*
X131283343Y-110469410D01*
X131202308Y-110516195D01*
X131202300Y-110516201D01*
X130598201Y-111120300D01*
X130598199Y-111120303D01*
X130518933Y-111257597D01*
X130518933Y-111257598D01*
X130484816Y-111384924D01*
X130484659Y-111385509D01*
X130448293Y-111445170D01*
X130385446Y-111475698D01*
X130381070Y-111476354D01*
X130347270Y-111480804D01*
X130313527Y-111478593D01*
X130313293Y-111480374D01*
X130305236Y-111479313D01*
X130282760Y-111476354D01*
X130192727Y-111464500D01*
X130192720Y-111464500D01*
X129967280Y-111464500D01*
X129967272Y-111464500D01*
X129854764Y-111479313D01*
X129854763Y-111479313D01*
X129714770Y-111537300D01*
X129714767Y-111537301D01*
X129714767Y-111537302D01*
X129594549Y-111629549D01*
X129538892Y-111702083D01*
X129502300Y-111749770D01*
X129444313Y-111889763D01*
X129444313Y-111889764D01*
X129429500Y-112002272D01*
X129429500Y-112278500D01*
X129409815Y-112345539D01*
X129357011Y-112391294D01*
X129305500Y-112402500D01*
X127971798Y-112402500D01*
X127904759Y-112382815D01*
X127866259Y-112343597D01*
X127820340Y-112269150D01*
X127806017Y-112254827D01*
X127772532Y-112193504D01*
X127777516Y-112123812D01*
X127806021Y-112079460D01*
X127819947Y-112065535D01*
X127910448Y-111918811D01*
X127910453Y-111918800D01*
X127964680Y-111755152D01*
X127974999Y-111654154D01*
X127975000Y-111654141D01*
X127975000Y-111555000D01*
X126025001Y-111555000D01*
X126025001Y-111654154D01*
X126035319Y-111755152D01*
X126089546Y-111918800D01*
X126089551Y-111918811D01*
X126180052Y-112065534D01*
X126180055Y-112065538D01*
X126193982Y-112079465D01*
X126227467Y-112140788D01*
X126222483Y-112210480D01*
X126193984Y-112254825D01*
X126179661Y-112269148D01*
X126173893Y-112278500D01*
X126160425Y-112300336D01*
X126149408Y-112318197D01*
X126097460Y-112364921D01*
X126043869Y-112377100D01*
X125641672Y-112377100D01*
X125574633Y-112357415D01*
X125568787Y-112353418D01*
X125420734Y-112245851D01*
X125420729Y-112245848D01*
X125247807Y-112168857D01*
X125247802Y-112168855D01*
X125096035Y-112136597D01*
X125062646Y-112129500D01*
X124873354Y-112129500D01*
X124840897Y-112136398D01*
X124688197Y-112168855D01*
X124688192Y-112168857D01*
X124515270Y-112245848D01*
X124515265Y-112245851D01*
X124362129Y-112357111D01*
X124235466Y-112497785D01*
X124140821Y-112661715D01*
X124140818Y-112661722D01*
X124082327Y-112841740D01*
X124082326Y-112841744D01*
X124062540Y-113030000D01*
X124082326Y-113218256D01*
X124082327Y-113218259D01*
X124096265Y-113261156D01*
X124098260Y-113330997D01*
X124062180Y-113390830D01*
X123999479Y-113421658D01*
X123930064Y-113413693D01*
X123890653Y-113387155D01*
X121324679Y-110821181D01*
X121291194Y-110759858D01*
X121296178Y-110690166D01*
X121338050Y-110634233D01*
X121403514Y-110609816D01*
X121412360Y-110609500D01*
X125944899Y-110609500D01*
X126011938Y-110629185D01*
X126057693Y-110681989D01*
X126067637Y-110751147D01*
X126062605Y-110772504D01*
X126035319Y-110854847D01*
X126025000Y-110955845D01*
X126025000Y-111055000D01*
X127974999Y-111055000D01*
X127974999Y-110955860D01*
X127974998Y-110955845D01*
X127964680Y-110854847D01*
X127937395Y-110772504D01*
X127934993Y-110702675D01*
X127970725Y-110642634D01*
X128033246Y-110611441D01*
X128055101Y-110609500D01*
X128449804Y-110609500D01*
X128449805Y-110609499D01*
X128571035Y-110585386D01*
X128651784Y-110551937D01*
X128685233Y-110538083D01*
X128788008Y-110469411D01*
X128875411Y-110382008D01*
X129726859Y-109530558D01*
X129788180Y-109497075D01*
X129846204Y-109501224D01*
X129846912Y-109498583D01*
X129854764Y-109500687D01*
X129967280Y-109515500D01*
X129967287Y-109515500D01*
X130192713Y-109515500D01*
X130192720Y-109515500D01*
X130305236Y-109500687D01*
X130305236Y-109500686D01*
X130313295Y-109499626D01*
X130313698Y-109502689D01*
X130346302Y-109502689D01*
X130346705Y-109499626D01*
X130354763Y-109500686D01*
X130354764Y-109500687D01*
X130467280Y-109515500D01*
X130467287Y-109515500D01*
X130692713Y-109515500D01*
X130692720Y-109515500D01*
X130805236Y-109500687D01*
X130805236Y-109500686D01*
X130813295Y-109499626D01*
X130813698Y-109502689D01*
X130846302Y-109502689D01*
X130846705Y-109499626D01*
X130854763Y-109500686D01*
X130854764Y-109500687D01*
X130967280Y-109515500D01*
X130967287Y-109515500D01*
X131192713Y-109515500D01*
X131192720Y-109515500D01*
X131305236Y-109500687D01*
X131305236Y-109500686D01*
X131313295Y-109499626D01*
X131313698Y-109502689D01*
X131346302Y-109502689D01*
X131346705Y-109499626D01*
X131354763Y-109500686D01*
X131354764Y-109500687D01*
X131467280Y-109515500D01*
X131467287Y-109515500D01*
X131692713Y-109515500D01*
X131692720Y-109515500D01*
X131805236Y-109500687D01*
X131805236Y-109500686D01*
X131813295Y-109499626D01*
X131813698Y-109502689D01*
X131846302Y-109502689D01*
X131846705Y-109499626D01*
X131854763Y-109500686D01*
X131854764Y-109500687D01*
X131967280Y-109515500D01*
X131967287Y-109515500D01*
X132192713Y-109515500D01*
X132192720Y-109515500D01*
X132305236Y-109500687D01*
X132445233Y-109442698D01*
X132565451Y-109350451D01*
X132657698Y-109230233D01*
X132715687Y-109090236D01*
X132730500Y-108977720D01*
X132730500Y-107730281D01*
X132750185Y-107663242D01*
X132766819Y-107642600D01*
X133166673Y-107242746D01*
X133583411Y-106826008D01*
X133595778Y-106807500D01*
X133652083Y-106723233D01*
X133672951Y-106672853D01*
X133679166Y-106657850D01*
X133691212Y-106628768D01*
X133699386Y-106609035D01*
X133723500Y-106487803D01*
X133723500Y-106364197D01*
X133723500Y-105251154D01*
X137963001Y-105251154D01*
X137973319Y-105352152D01*
X138027546Y-105515800D01*
X138027551Y-105515811D01*
X138118052Y-105662534D01*
X138118055Y-105662538D01*
X138239961Y-105784444D01*
X138239965Y-105784447D01*
X138386688Y-105874948D01*
X138386699Y-105874953D01*
X138550347Y-105929180D01*
X138651352Y-105939499D01*
X138688000Y-105939499D01*
X139188000Y-105939499D01*
X139224640Y-105939499D01*
X139224654Y-105939498D01*
X139325652Y-105929180D01*
X139489300Y-105874953D01*
X139489311Y-105874948D01*
X139636034Y-105784447D01*
X139636038Y-105784444D01*
X139757944Y-105662538D01*
X139757947Y-105662534D01*
X139848448Y-105515811D01*
X139848453Y-105515800D01*
X139902680Y-105352152D01*
X139912999Y-105251154D01*
X139913000Y-105251141D01*
X139913000Y-105152000D01*
X139188000Y-105152000D01*
X139188000Y-105939499D01*
X138688000Y-105939499D01*
X138688000Y-105152000D01*
X137963001Y-105152000D01*
X137963001Y-105251154D01*
X133723500Y-105251154D01*
X133723500Y-104078197D01*
X133723499Y-104078191D01*
X133721326Y-104067263D01*
X133721326Y-104067262D01*
X133699387Y-103956972D01*
X133699386Y-103956965D01*
X133654412Y-103848392D01*
X133652764Y-103843786D01*
X133583414Y-103739996D01*
X133583413Y-103739994D01*
X133583411Y-103739992D01*
X133496008Y-103652589D01*
X133025238Y-103181819D01*
X132480011Y-102636591D01*
X132477029Y-102634599D01*
X132477020Y-102634589D01*
X132477019Y-102634592D01*
X132377238Y-102567920D01*
X132377226Y-102567913D01*
X132343785Y-102554062D01*
X132263035Y-102520614D01*
X132263027Y-102520612D01*
X132141807Y-102496500D01*
X132141803Y-102496500D01*
X120371282Y-102496500D01*
X120304243Y-102476815D01*
X120258488Y-102424011D01*
X120248544Y-102354853D01*
X120253351Y-102334182D01*
X120254190Y-102331600D01*
X120265674Y-102296256D01*
X120285460Y-102108000D01*
X120265674Y-101919744D01*
X120207179Y-101739716D01*
X120112533Y-101575784D01*
X120039350Y-101494506D01*
X120009120Y-101431515D01*
X120007500Y-101411534D01*
X120007500Y-90921612D01*
X120027185Y-90854573D01*
X120079989Y-90808818D01*
X120149147Y-90798874D01*
X120207662Y-90823759D01*
X120334487Y-90922471D01*
X120334491Y-90922474D01*
X120488820Y-91005993D01*
X120553190Y-91040828D01*
X120788386Y-91121571D01*
X121033665Y-91162500D01*
X121282335Y-91162500D01*
X121527614Y-91121571D01*
X121762810Y-91040828D01*
X121981509Y-90922474D01*
X122177744Y-90769738D01*
X122346164Y-90586785D01*
X122346165Y-90586783D01*
X122347270Y-90585583D01*
X122407157Y-90549593D01*
X122476995Y-90551693D01*
X122534611Y-90591217D01*
X122561713Y-90655616D01*
X122562500Y-90669566D01*
X122562500Y-96462719D01*
X122542815Y-96529758D01*
X122526181Y-96550400D01*
X122223400Y-96853181D01*
X122162077Y-96886666D01*
X122135719Y-96889500D01*
X122079354Y-96889500D01*
X122069084Y-96891683D01*
X121894197Y-96928855D01*
X121894192Y-96928857D01*
X121721270Y-97005848D01*
X121721268Y-97005850D01*
X121568129Y-97117111D01*
X121441466Y-97257785D01*
X121346821Y-97421715D01*
X121346818Y-97421722D01*
X121288327Y-97601740D01*
X121288326Y-97601744D01*
X121268540Y-97790000D01*
X121288326Y-97978256D01*
X121288327Y-97978259D01*
X121346818Y-98158277D01*
X121346821Y-98158284D01*
X121441467Y-98322216D01*
X121523517Y-98413341D01*
X121568129Y-98462888D01*
X121721265Y-98574148D01*
X121721270Y-98574151D01*
X121894192Y-98651142D01*
X121894197Y-98651144D01*
X122079354Y-98690500D01*
X122079355Y-98690500D01*
X122268644Y-98690500D01*
X122268646Y-98690500D01*
X122453803Y-98651144D01*
X122626730Y-98574151D01*
X122779871Y-98462888D01*
X122906533Y-98322216D01*
X123001179Y-98158284D01*
X123059674Y-97978256D01*
X123076989Y-97813505D01*
X123103572Y-97748894D01*
X123112618Y-97738799D01*
X123677411Y-97174008D01*
X123689320Y-97156185D01*
X123706676Y-97130211D01*
X123706676Y-97130210D01*
X123740754Y-97079208D01*
X123746083Y-97071233D01*
X123773166Y-97005849D01*
X123773167Y-97005848D01*
X123779088Y-96991552D01*
X123793386Y-96957035D01*
X123817500Y-96835803D01*
X123817500Y-96712197D01*
X123817500Y-87822197D01*
X123815678Y-87813035D01*
X123793386Y-87700965D01*
X123748412Y-87592392D01*
X123746764Y-87587786D01*
X123677414Y-87483996D01*
X123677413Y-87483994D01*
X123639214Y-87445795D01*
X123590008Y-87396589D01*
X122837819Y-86644400D01*
X122804334Y-86583077D01*
X122801500Y-86556719D01*
X122801500Y-80321281D01*
X122821185Y-80254242D01*
X122837819Y-80233600D01*
X125543074Y-77528345D01*
X131359000Y-77528345D01*
X131359000Y-77627500D01*
X132084000Y-77627500D01*
X132584000Y-77627500D01*
X133308999Y-77627500D01*
X133308999Y-77528360D01*
X133308998Y-77528345D01*
X133298680Y-77427347D01*
X133244453Y-77263699D01*
X133244448Y-77263688D01*
X133241497Y-77258903D01*
X134440000Y-77258903D01*
X134440000Y-77460000D01*
X135690000Y-77460000D01*
X136190000Y-77460000D01*
X137440000Y-77460000D01*
X137440000Y-77258903D01*
X137437102Y-77216175D01*
X137391168Y-77031476D01*
X137306609Y-76860977D01*
X137306607Y-76860974D01*
X137187367Y-76712633D01*
X137187366Y-76712632D01*
X137039025Y-76593392D01*
X137039022Y-76593390D01*
X136868523Y-76508831D01*
X136683824Y-76462897D01*
X136641097Y-76460000D01*
X136190000Y-76460000D01*
X136190000Y-77460000D01*
X135690000Y-77460000D01*
X135690000Y-76460000D01*
X135238903Y-76460000D01*
X135196175Y-76462897D01*
X135011476Y-76508831D01*
X134840977Y-76593390D01*
X134840974Y-76593392D01*
X134692633Y-76712632D01*
X134692632Y-76712633D01*
X134573392Y-76860974D01*
X134573390Y-76860977D01*
X134488831Y-77031476D01*
X134442897Y-77216175D01*
X134440000Y-77258903D01*
X133241497Y-77258903D01*
X133153947Y-77116965D01*
X133153944Y-77116961D01*
X133032038Y-76995055D01*
X133032034Y-76995052D01*
X132885311Y-76904551D01*
X132885300Y-76904546D01*
X132721652Y-76850319D01*
X132620654Y-76840000D01*
X132584000Y-76840000D01*
X132584000Y-77627500D01*
X132084000Y-77627500D01*
X132084000Y-76840000D01*
X132047361Y-76840000D01*
X132047343Y-76840001D01*
X131946347Y-76850319D01*
X131782699Y-76904546D01*
X131782688Y-76904551D01*
X131635965Y-76995052D01*
X131635961Y-76995055D01*
X131514055Y-77116961D01*
X131514052Y-77116965D01*
X131423551Y-77263688D01*
X131423546Y-77263699D01*
X131369319Y-77427347D01*
X131359000Y-77528345D01*
X125543074Y-77528345D01*
X125988906Y-77082513D01*
X128315000Y-77082513D01*
X128315000Y-77220000D01*
X129290000Y-77220000D01*
X129790000Y-77220000D01*
X130764999Y-77220000D01*
X130764999Y-77082528D01*
X130764998Y-77082513D01*
X130754505Y-76979802D01*
X130699358Y-76813380D01*
X130699356Y-76813375D01*
X130607315Y-76664154D01*
X130483345Y-76540184D01*
X130334124Y-76448143D01*
X130334119Y-76448141D01*
X130167697Y-76392994D01*
X130167690Y-76392993D01*
X130064986Y-76382500D01*
X129790000Y-76382500D01*
X129790000Y-77220000D01*
X129290000Y-77220000D01*
X129290000Y-76382500D01*
X129015029Y-76382500D01*
X129015012Y-76382501D01*
X128912302Y-76392994D01*
X128745880Y-76448141D01*
X128745875Y-76448143D01*
X128596654Y-76540184D01*
X128472684Y-76664154D01*
X128380643Y-76813375D01*
X128380641Y-76813380D01*
X128325494Y-76979802D01*
X128325493Y-76979809D01*
X128315000Y-77082513D01*
X125988906Y-77082513D01*
X128493600Y-74577819D01*
X128554923Y-74544334D01*
X128581281Y-74541500D01*
X128671767Y-74541500D01*
X128695956Y-74543882D01*
X128724197Y-74549500D01*
X135959804Y-74549500D01*
X135959805Y-74549499D01*
X136081035Y-74525386D01*
X136178618Y-74484965D01*
X136195233Y-74478083D01*
X136298008Y-74409411D01*
X136385411Y-74322008D01*
X137076859Y-73630558D01*
X137138180Y-73597075D01*
X137196204Y-73601224D01*
X137196912Y-73598583D01*
X137204764Y-73600687D01*
X137317280Y-73615500D01*
X137317287Y-73615500D01*
X137542713Y-73615500D01*
X137542720Y-73615500D01*
X137655236Y-73600687D01*
X137655236Y-73600686D01*
X137663295Y-73599626D01*
X137663698Y-73602689D01*
X137696302Y-73602689D01*
X137696705Y-73599626D01*
X137704763Y-73600686D01*
X137704764Y-73600687D01*
X137817280Y-73615500D01*
X137817287Y-73615500D01*
X138042713Y-73615500D01*
X138042720Y-73615500D01*
X138155236Y-73600687D01*
X138155236Y-73600686D01*
X138162315Y-73599755D01*
X138231350Y-73610520D01*
X138283606Y-73656900D01*
X138302500Y-73722694D01*
X138302500Y-74118719D01*
X138282815Y-74185758D01*
X138266181Y-74206400D01*
X138225400Y-74247181D01*
X138164077Y-74280666D01*
X138137719Y-74283500D01*
X138081354Y-74283500D01*
X138048897Y-74290398D01*
X137896197Y-74322855D01*
X137896192Y-74322857D01*
X137723270Y-74399848D01*
X137723265Y-74399851D01*
X137570129Y-74511111D01*
X137443466Y-74651785D01*
X137348821Y-74815715D01*
X137348818Y-74815722D01*
X137290327Y-74995740D01*
X137290326Y-74995744D01*
X137270540Y-75184000D01*
X137290326Y-75372256D01*
X137290327Y-75372259D01*
X137348818Y-75552277D01*
X137348820Y-75552281D01*
X137348821Y-75552284D01*
X137443467Y-75716216D01*
X137553129Y-75838008D01*
X137570129Y-75856888D01*
X137723265Y-75968148D01*
X137723270Y-75968151D01*
X137896192Y-76045142D01*
X137896197Y-76045144D01*
X138081354Y-76084500D01*
X138081355Y-76084500D01*
X138270644Y-76084500D01*
X138270646Y-76084500D01*
X138455803Y-76045144D01*
X138628730Y-75968151D01*
X138781871Y-75856888D01*
X138908533Y-75716216D01*
X139003179Y-75552284D01*
X139061674Y-75372256D01*
X139078989Y-75207505D01*
X139105572Y-75142894D01*
X139114609Y-75132808D01*
X139417411Y-74830008D01*
X139450660Y-74780248D01*
X139456581Y-74771387D01*
X139456581Y-74771386D01*
X139486083Y-74727233D01*
X139499937Y-74693784D01*
X139533386Y-74613035D01*
X139557500Y-74491803D01*
X139557500Y-74368197D01*
X139557500Y-73722023D01*
X139577185Y-73654984D01*
X139629989Y-73609229D01*
X139649411Y-73602247D01*
X139655223Y-73600688D01*
X139655236Y-73600687D01*
X139795233Y-73542698D01*
X139915451Y-73450451D01*
X140007698Y-73330233D01*
X140065687Y-73190236D01*
X140080500Y-73077720D01*
X140080500Y-71702280D01*
X140065687Y-71589764D01*
X140065686Y-71589762D01*
X140065686Y-71589759D01*
X140063583Y-71581909D01*
X140064713Y-71581606D01*
X140057500Y-71545332D01*
X140057500Y-71042194D01*
X140033386Y-70920970D01*
X140033385Y-70920969D01*
X140033385Y-70920965D01*
X140033383Y-70920960D01*
X139986086Y-70806773D01*
X139986079Y-70806760D01*
X139917412Y-70703993D01*
X139917411Y-70703992D01*
X139830008Y-70616589D01*
X139592008Y-70378589D01*
X139338011Y-70124591D01*
X139338007Y-70124588D01*
X139235239Y-70055920D01*
X139235226Y-70055913D01*
X139201785Y-70042062D01*
X139121035Y-70008614D01*
X139121027Y-70008612D01*
X138999807Y-69984500D01*
X138999803Y-69984500D01*
X138938361Y-69984500D01*
X138871322Y-69964815D01*
X138825567Y-69912011D01*
X138815623Y-69842853D01*
X138844648Y-69779297D01*
X138850680Y-69772819D01*
X138899344Y-69724154D01*
X141265001Y-69724154D01*
X141275319Y-69825152D01*
X141329546Y-69988800D01*
X141329551Y-69988811D01*
X141420052Y-70135534D01*
X141420055Y-70135538D01*
X141541961Y-70257444D01*
X141541965Y-70257447D01*
X141688688Y-70347948D01*
X141688699Y-70347953D01*
X141852347Y-70402180D01*
X141953352Y-70412499D01*
X141990000Y-70412499D01*
X142490000Y-70412499D01*
X142526640Y-70412499D01*
X142526654Y-70412498D01*
X142627652Y-70402180D01*
X142791300Y-70347953D01*
X142791311Y-70347948D01*
X142938034Y-70257447D01*
X142938038Y-70257444D01*
X143059944Y-70135538D01*
X143059947Y-70135534D01*
X143150448Y-69988811D01*
X143150453Y-69988800D01*
X143204680Y-69825152D01*
X143214999Y-69724154D01*
X143215000Y-69724141D01*
X143215000Y-69625000D01*
X142490000Y-69625000D01*
X142490000Y-70412499D01*
X141990000Y-70412499D01*
X141990000Y-69625000D01*
X141265001Y-69625000D01*
X141265001Y-69724154D01*
X138899344Y-69724154D01*
X138911798Y-69711700D01*
X138911800Y-69711698D01*
X138924269Y-69690100D01*
X138991067Y-69574402D01*
X139032100Y-69421268D01*
X139032100Y-69325138D01*
X139051785Y-69258099D01*
X139104589Y-69212344D01*
X139139918Y-69202198D01*
X139162733Y-69199195D01*
X139196470Y-69201406D01*
X139196705Y-69199626D01*
X139204763Y-69200686D01*
X139204764Y-69200687D01*
X139317280Y-69215500D01*
X139317287Y-69215500D01*
X139542713Y-69215500D01*
X139542720Y-69215500D01*
X139655236Y-69200687D01*
X139795233Y-69142698D01*
X139915451Y-69050451D01*
X140007698Y-68930233D01*
X140065687Y-68790236D01*
X140080500Y-68677720D01*
X140080500Y-68401500D01*
X140100185Y-68334461D01*
X140152989Y-68288706D01*
X140204500Y-68277500D01*
X140379737Y-68277500D01*
X140446776Y-68297185D01*
X140452622Y-68301182D01*
X140517265Y-68348148D01*
X140517270Y-68348151D01*
X140690192Y-68425142D01*
X140690197Y-68425144D01*
X140875354Y-68464500D01*
X140875355Y-68464500D01*
X141064644Y-68464500D01*
X141064646Y-68464500D01*
X141249803Y-68425144D01*
X141286741Y-68408697D01*
X141355987Y-68399411D01*
X141419265Y-68429037D01*
X141456480Y-68488171D01*
X141455817Y-68558038D01*
X141424867Y-68609648D01*
X141420059Y-68614456D01*
X141420052Y-68614465D01*
X141329551Y-68761188D01*
X141329546Y-68761199D01*
X141275319Y-68924847D01*
X141265000Y-69025845D01*
X141265000Y-69125000D01*
X143214999Y-69125000D01*
X143214999Y-69025860D01*
X143214998Y-69025845D01*
X143204680Y-68924847D01*
X143150453Y-68761199D01*
X143150448Y-68761188D01*
X143059947Y-68614465D01*
X143059944Y-68614461D01*
X143046017Y-68600534D01*
X143012532Y-68539211D01*
X143017516Y-68469519D01*
X143046017Y-68425172D01*
X143060340Y-68410850D01*
X143150908Y-68264016D01*
X143205174Y-68100253D01*
X143215500Y-67999177D01*
X143215499Y-67300824D01*
X143205174Y-67199747D01*
X143205173Y-67199746D01*
X143204486Y-67193012D01*
X143207087Y-67192746D01*
X143211404Y-67134892D01*
X143253447Y-67079087D01*
X143318986Y-67054871D01*
X143327828Y-67054583D01*
X143640405Y-67055598D01*
G37*
%TD.AperFunction*%
%TA.AperFunction,Conductor*%
G36*
X100131902Y-95853197D02*
G01*
X100187079Y-95896061D01*
X100210322Y-95961951D01*
X100210500Y-95968586D01*
X100210500Y-103828719D01*
X100190815Y-103895758D01*
X100174181Y-103916400D01*
X99843811Y-104246769D01*
X99782488Y-104280254D01*
X99768290Y-104282490D01*
X99768200Y-104282498D01*
X99646970Y-104306613D01*
X99646960Y-104306616D01*
X99532773Y-104353913D01*
X99532760Y-104353920D01*
X99429993Y-104422587D01*
X99401300Y-104451281D01*
X99360398Y-104492182D01*
X99299078Y-104525666D01*
X99272719Y-104528500D01*
X71058192Y-104528500D01*
X70936972Y-104552612D01*
X70936964Y-104552614D01*
X70856215Y-104586062D01*
X70822767Y-104599917D01*
X70807498Y-104610119D01*
X70731967Y-104660586D01*
X70731968Y-104660587D01*
X70719988Y-104668591D01*
X70719986Y-104668593D01*
X69381470Y-106007111D01*
X68949992Y-106438589D01*
X68923544Y-106465037D01*
X68862586Y-106525994D01*
X68862585Y-106525996D01*
X68793233Y-106629789D01*
X68791586Y-106634393D01*
X68746615Y-106742962D01*
X68746612Y-106742972D01*
X68726340Y-106844889D01*
X68726340Y-106844890D01*
X68722500Y-106864194D01*
X68722500Y-106957976D01*
X68702815Y-107025015D01*
X68650011Y-107070770D01*
X68630597Y-107077750D01*
X68624765Y-107079312D01*
X68484770Y-107137300D01*
X68484767Y-107137301D01*
X68484767Y-107137302D01*
X68364549Y-107229549D01*
X68273255Y-107348526D01*
X68272300Y-107349770D01*
X68214313Y-107489763D01*
X68214313Y-107489764D01*
X68199500Y-107602272D01*
X68199500Y-108977727D01*
X68214313Y-109090235D01*
X68216417Y-109098087D01*
X68215283Y-109098390D01*
X68222500Y-109134665D01*
X68222500Y-109551807D01*
X68246612Y-109673027D01*
X68246614Y-109673035D01*
X68280062Y-109753785D01*
X68293915Y-109787230D01*
X68339531Y-109855498D01*
X68339531Y-109855499D01*
X68362590Y-109890010D01*
X68362593Y-109890013D01*
X68854589Y-110382008D01*
X68909514Y-110436933D01*
X68941992Y-110469411D01*
X69044760Y-110538079D01*
X69044773Y-110538086D01*
X69158960Y-110585383D01*
X69158965Y-110585385D01*
X69158969Y-110585385D01*
X69158970Y-110585386D01*
X69280194Y-110609500D01*
X69280197Y-110609500D01*
X69403803Y-110609500D01*
X69595639Y-110609500D01*
X69662678Y-110629185D01*
X69708433Y-110681989D01*
X69718377Y-110751147D01*
X69689352Y-110814703D01*
X69683320Y-110821181D01*
X69480302Y-111024200D01*
X69368201Y-111136300D01*
X69368199Y-111136303D01*
X69288934Y-111273596D01*
X69259103Y-111384924D01*
X69222737Y-111444584D01*
X69159890Y-111475112D01*
X69155517Y-111475768D01*
X69117273Y-111480804D01*
X69083527Y-111478593D01*
X69083293Y-111480374D01*
X69075236Y-111479313D01*
X69052760Y-111476354D01*
X68962727Y-111464500D01*
X68962720Y-111464500D01*
X68737280Y-111464500D01*
X68737272Y-111464500D01*
X68624764Y-111479313D01*
X68624763Y-111479313D01*
X68484770Y-111537300D01*
X68484767Y-111537301D01*
X68484767Y-111537302D01*
X68364549Y-111629549D01*
X68308892Y-111702083D01*
X68272300Y-111749770D01*
X68214313Y-111889763D01*
X68214313Y-111889764D01*
X68199500Y-112002272D01*
X68199500Y-112136597D01*
X68179815Y-112203636D01*
X68127011Y-112249391D01*
X68057853Y-112259335D01*
X68023179Y-112247337D01*
X68022666Y-112248492D01*
X67843807Y-112168857D01*
X67843802Y-112168855D01*
X67692035Y-112136597D01*
X67658646Y-112129500D01*
X67469354Y-112129500D01*
X67436897Y-112136398D01*
X67284197Y-112168855D01*
X67284192Y-112168857D01*
X67111270Y-112245848D01*
X67111266Y-112245850D01*
X67036273Y-112300336D01*
X66970467Y-112323815D01*
X66902413Y-112307989D01*
X66866531Y-112273464D01*
X66864821Y-112274817D01*
X66860339Y-112269149D01*
X66846017Y-112254827D01*
X66812532Y-112193504D01*
X66817516Y-112123812D01*
X66846021Y-112079460D01*
X66859947Y-112065535D01*
X66950448Y-111918811D01*
X66950453Y-111918800D01*
X67004680Y-111755152D01*
X67014999Y-111654154D01*
X67015000Y-111654141D01*
X67015000Y-111555000D01*
X65914000Y-111555000D01*
X65846961Y-111535315D01*
X65801206Y-111482511D01*
X65790000Y-111431000D01*
X65790000Y-111055000D01*
X66290000Y-111055000D01*
X67014999Y-111055000D01*
X67014999Y-110955860D01*
X67014998Y-110955845D01*
X67004680Y-110854847D01*
X66950453Y-110691199D01*
X66950448Y-110691188D01*
X66859947Y-110544465D01*
X66859944Y-110544461D01*
X66738038Y-110422555D01*
X66738034Y-110422552D01*
X66591311Y-110332051D01*
X66591300Y-110332046D01*
X66427652Y-110277819D01*
X66326654Y-110267500D01*
X66290000Y-110267500D01*
X66290000Y-111055000D01*
X65790000Y-111055000D01*
X65790000Y-110267500D01*
X65753361Y-110267500D01*
X65753340Y-110267501D01*
X65668601Y-110276158D01*
X65599908Y-110263388D01*
X65549024Y-110215507D01*
X65532000Y-110152800D01*
X65532000Y-101788487D01*
X65551685Y-101721448D01*
X65604489Y-101675693D01*
X65673647Y-101665749D01*
X65706435Y-101675207D01*
X65760197Y-101699144D01*
X65945354Y-101738500D01*
X65945355Y-101738500D01*
X66134645Y-101738500D01*
X66134646Y-101738500D01*
X66211285Y-101722209D01*
X66237066Y-101719500D01*
X82890823Y-101719500D01*
X83009137Y-101695965D01*
X83061124Y-101685624D01*
X83213520Y-101622500D01*
X83221543Y-101619177D01*
X83221544Y-101619176D01*
X83221547Y-101619175D01*
X83365924Y-101522706D01*
X85774705Y-99113924D01*
X85871175Y-98969547D01*
X85881047Y-98945715D01*
X85886231Y-98933196D01*
X85937624Y-98809124D01*
X85967288Y-98659996D01*
X85971500Y-98638823D01*
X85971500Y-97978526D01*
X85991185Y-97911487D01*
X86043989Y-97865732D01*
X86052167Y-97862344D01*
X86182328Y-97813797D01*
X86182327Y-97813797D01*
X86182331Y-97813796D01*
X86297546Y-97727546D01*
X86383796Y-97612331D01*
X86432344Y-97482167D01*
X86474215Y-97426233D01*
X86539679Y-97401816D01*
X86548526Y-97401500D01*
X98130823Y-97401500D01*
X98245393Y-97378709D01*
X98301124Y-97367624D01*
X98381335Y-97334399D01*
X98461543Y-97301177D01*
X98461544Y-97301176D01*
X98461547Y-97301175D01*
X98605924Y-97204706D01*
X99912569Y-95898058D01*
X99973890Y-95864575D01*
X99975903Y-95864155D01*
X100062311Y-95846968D01*
X100131902Y-95853197D01*
G37*
%TD.AperFunction*%
%TA.AperFunction,Conductor*%
G36*
X82677092Y-106819185D02*
G01*
X82702199Y-106840523D01*
X82706129Y-106844888D01*
X82706131Y-106844890D01*
X82706135Y-106844893D01*
X82859265Y-106956148D01*
X82859270Y-106956151D01*
X83032192Y-107033142D01*
X83032197Y-107033144D01*
X83217354Y-107072500D01*
X83217355Y-107072500D01*
X83406644Y-107072500D01*
X83406646Y-107072500D01*
X83458340Y-107061512D01*
X83528006Y-107066828D01*
X83583740Y-107108965D01*
X83607845Y-107174545D01*
X83592668Y-107242746D01*
X83582496Y-107258288D01*
X83512302Y-107349766D01*
X83512300Y-107349769D01*
X83454313Y-107489763D01*
X83454313Y-107489764D01*
X83439500Y-107602272D01*
X83439500Y-108977727D01*
X83454313Y-109090235D01*
X83456417Y-109098087D01*
X83455283Y-109098390D01*
X83462500Y-109134665D01*
X83462500Y-109230500D01*
X83442815Y-109297539D01*
X83390011Y-109343294D01*
X83338500Y-109354500D01*
X71561804Y-109354500D01*
X71494765Y-109334815D01*
X71449010Y-109282011D01*
X71439066Y-109212853D01*
X71447243Y-109183047D01*
X71485687Y-109090236D01*
X71500500Y-108977720D01*
X71500500Y-108578281D01*
X71520185Y-108511242D01*
X71536819Y-108490600D01*
X71921600Y-108105819D01*
X71982923Y-108072334D01*
X72009281Y-108069500D01*
X72196053Y-108069500D01*
X72263092Y-108089185D01*
X72288199Y-108110523D01*
X72292129Y-108114888D01*
X72292132Y-108114891D01*
X72292135Y-108114893D01*
X72445265Y-108226148D01*
X72445270Y-108226151D01*
X72618192Y-108303142D01*
X72618197Y-108303144D01*
X72803354Y-108342500D01*
X72803355Y-108342500D01*
X72992644Y-108342500D01*
X72992646Y-108342500D01*
X73177803Y-108303144D01*
X73350730Y-108226151D01*
X73503871Y-108114888D01*
X73630533Y-107974216D01*
X73725179Y-107810284D01*
X73783674Y-107630256D01*
X73803460Y-107442000D01*
X73783674Y-107253744D01*
X73725179Y-107073716D01*
X73674247Y-106985499D01*
X73657775Y-106917599D01*
X73680628Y-106851572D01*
X73735550Y-106808382D01*
X73781635Y-106799500D01*
X82610053Y-106799500D01*
X82677092Y-106819185D01*
G37*
%TD.AperFunction*%
%TA.AperFunction,Conductor*%
G36*
X99145539Y-105803185D02*
G01*
X99191294Y-105855989D01*
X99202500Y-105907500D01*
X99202500Y-106957976D01*
X99182815Y-107025015D01*
X99130011Y-107070770D01*
X99110597Y-107077750D01*
X99104765Y-107079312D01*
X98964770Y-107137300D01*
X98964767Y-107137301D01*
X98964767Y-107137302D01*
X98844549Y-107229549D01*
X98753255Y-107348526D01*
X98752300Y-107349770D01*
X98694313Y-107489763D01*
X98694313Y-107489764D01*
X98679500Y-107602272D01*
X98679500Y-108977727D01*
X98694313Y-109090235D01*
X98696417Y-109098087D01*
X98695283Y-109098390D01*
X98702500Y-109134665D01*
X98702500Y-109230500D01*
X98682815Y-109297539D01*
X98630011Y-109343294D01*
X98578500Y-109354500D01*
X86801804Y-109354500D01*
X86734765Y-109334815D01*
X86689010Y-109282011D01*
X86679066Y-109212853D01*
X86687243Y-109183047D01*
X86725687Y-109090236D01*
X86740500Y-108977720D01*
X86740500Y-108578281D01*
X86760185Y-108511242D01*
X86776819Y-108490600D01*
X87161600Y-108105819D01*
X87222923Y-108072334D01*
X87249281Y-108069500D01*
X87690053Y-108069500D01*
X87757092Y-108089185D01*
X87782199Y-108110523D01*
X87786129Y-108114888D01*
X87786132Y-108114891D01*
X87786135Y-108114893D01*
X87939265Y-108226148D01*
X87939270Y-108226151D01*
X88112192Y-108303142D01*
X88112197Y-108303144D01*
X88297354Y-108342500D01*
X88297355Y-108342500D01*
X88486644Y-108342500D01*
X88486646Y-108342500D01*
X88671803Y-108303144D01*
X88844730Y-108226151D01*
X88997871Y-108114888D01*
X89124533Y-107974216D01*
X89219179Y-107810284D01*
X89277674Y-107630256D01*
X89297460Y-107442000D01*
X89277674Y-107253744D01*
X89219179Y-107073716D01*
X89124533Y-106909784D01*
X88997871Y-106769112D01*
X88997870Y-106769111D01*
X88844732Y-106657850D01*
X88844729Y-106657848D01*
X88671807Y-106580857D01*
X88671802Y-106580855D01*
X88526001Y-106549865D01*
X88486646Y-106541500D01*
X88297354Y-106541500D01*
X88264897Y-106548398D01*
X88112197Y-106580855D01*
X88112192Y-106580857D01*
X87939270Y-106657848D01*
X87939268Y-106657850D01*
X87786135Y-106769106D01*
X87786132Y-106769108D01*
X87784175Y-106771281D01*
X87782200Y-106773474D01*
X87722714Y-106810121D01*
X87690053Y-106814500D01*
X86989635Y-106814500D01*
X86922596Y-106794815D01*
X86876841Y-106742011D01*
X86866897Y-106672853D01*
X86882247Y-106628501D01*
X86890471Y-106614256D01*
X86933179Y-106540284D01*
X86991674Y-106360256D01*
X87011460Y-106172000D01*
X86991674Y-105983744D01*
X86979350Y-105945817D01*
X86977356Y-105875977D01*
X87013436Y-105816144D01*
X87076137Y-105785316D01*
X87097282Y-105783500D01*
X98998197Y-105783500D01*
X99078500Y-105783500D01*
X99145539Y-105803185D01*
G37*
%TD.AperFunction*%
%TA.AperFunction,Conductor*%
G36*
X127652758Y-104668185D02*
G01*
X127673400Y-104684819D01*
X129874245Y-106885664D01*
X129907730Y-106946987D01*
X129902746Y-107016679D01*
X129860874Y-107072612D01*
X129834017Y-107087906D01*
X129714770Y-107137300D01*
X129714767Y-107137301D01*
X129714767Y-107137302D01*
X129594549Y-107229549D01*
X129503255Y-107348526D01*
X129502300Y-107349770D01*
X129444313Y-107489763D01*
X129444313Y-107489764D01*
X129429500Y-107602272D01*
X129429500Y-108001719D01*
X129409815Y-108068758D01*
X129393181Y-108089400D01*
X128164400Y-109318181D01*
X128103077Y-109351666D01*
X128076719Y-109354500D01*
X120131500Y-109354500D01*
X120064461Y-109334815D01*
X120018706Y-109282011D01*
X120007500Y-109230500D01*
X120007500Y-106868465D01*
X120027185Y-106801426D01*
X120039343Y-106785500D01*
X120112533Y-106704216D01*
X120207179Y-106540284D01*
X120265674Y-106360256D01*
X120285460Y-106172000D01*
X120265674Y-105983744D01*
X120253350Y-105945817D01*
X120251356Y-105875977D01*
X120287436Y-105816144D01*
X120350137Y-105785316D01*
X120371282Y-105783500D01*
X126180719Y-105783500D01*
X126247758Y-105803185D01*
X126268400Y-105819819D01*
X127077371Y-106628790D01*
X127110856Y-106690113D01*
X127113010Y-106703505D01*
X127130326Y-106868256D01*
X127130327Y-106868259D01*
X127188818Y-107048277D01*
X127188821Y-107048284D01*
X127283467Y-107212216D01*
X127371813Y-107310334D01*
X127410129Y-107352888D01*
X127563265Y-107464148D01*
X127563270Y-107464151D01*
X127736192Y-107541142D01*
X127736197Y-107541144D01*
X127921354Y-107580500D01*
X127921355Y-107580500D01*
X128110644Y-107580500D01*
X128110646Y-107580500D01*
X128295803Y-107541144D01*
X128468730Y-107464151D01*
X128621871Y-107352888D01*
X128748533Y-107212216D01*
X128843179Y-107048284D01*
X128901674Y-106868256D01*
X128921460Y-106680000D01*
X128901674Y-106491744D01*
X128843179Y-106311716D01*
X128748533Y-106147784D01*
X128621871Y-106007112D01*
X128621870Y-106007111D01*
X128468734Y-105895851D01*
X128468729Y-105895848D01*
X128295807Y-105818857D01*
X128295802Y-105818855D01*
X128133920Y-105784447D01*
X128110646Y-105779500D01*
X128110645Y-105779500D01*
X128054281Y-105779500D01*
X127987242Y-105759815D01*
X127966600Y-105743181D01*
X127083601Y-104860181D01*
X127050116Y-104798858D01*
X127055100Y-104729166D01*
X127096972Y-104673233D01*
X127162436Y-104648816D01*
X127171282Y-104648500D01*
X127585719Y-104648500D01*
X127652758Y-104668185D01*
G37*
%TD.AperFunction*%
%TA.AperFunction,Conductor*%
G36*
X113334309Y-98988598D02*
G01*
X113362046Y-99009465D01*
X117534400Y-103181819D01*
X117567885Y-103243142D01*
X117562901Y-103312834D01*
X117521029Y-103368767D01*
X117455565Y-103393184D01*
X117446719Y-103393500D01*
X116151194Y-103393500D01*
X116029970Y-103417613D01*
X116029960Y-103417616D01*
X115915771Y-103464914D01*
X115915766Y-103464917D01*
X115906494Y-103471112D01*
X115901825Y-103474233D01*
X115866482Y-103497848D01*
X115812989Y-103533590D01*
X114718845Y-104627734D01*
X114700058Y-104643153D01*
X114661990Y-104668590D01*
X114661985Y-104668595D01*
X114574593Y-104755986D01*
X114574587Y-104755993D01*
X114505917Y-104858766D01*
X114458614Y-104972964D01*
X114458612Y-104972972D01*
X114434500Y-105094192D01*
X114434500Y-105217803D01*
X114440117Y-105246040D01*
X114442500Y-105270233D01*
X114442500Y-105928500D01*
X114422815Y-105995539D01*
X114370011Y-106041294D01*
X114318500Y-106052500D01*
X113984192Y-106052500D01*
X113862973Y-106076612D01*
X113862965Y-106076614D01*
X113808280Y-106099266D01*
X113808279Y-106099266D01*
X113748773Y-106123913D01*
X113748760Y-106123920D01*
X113676807Y-106171998D01*
X113676806Y-106172000D01*
X113646791Y-106192055D01*
X113645986Y-106192593D01*
X111028400Y-108810181D01*
X110967077Y-108843666D01*
X110940719Y-108846500D01*
X105531635Y-108846500D01*
X105464596Y-108826815D01*
X105418841Y-108774011D01*
X105408897Y-108704853D01*
X105424247Y-108660501D01*
X105424524Y-108660019D01*
X105475179Y-108572284D01*
X105533674Y-108392256D01*
X105553460Y-108204000D01*
X105533674Y-108015744D01*
X105475179Y-107835716D01*
X105380533Y-107671784D01*
X105307350Y-107590506D01*
X105277120Y-107527515D01*
X105275500Y-107507534D01*
X105275500Y-106483281D01*
X105295185Y-106416242D01*
X105311819Y-106395600D01*
X108080168Y-103627251D01*
X110977411Y-100730008D01*
X110985100Y-100718500D01*
X111046083Y-100627233D01*
X111046086Y-100627226D01*
X111081897Y-100540770D01*
X111081898Y-100540766D01*
X111093386Y-100513034D01*
X111117500Y-100391803D01*
X111117500Y-100268196D01*
X111117500Y-99756465D01*
X111137185Y-99689426D01*
X111149350Y-99673493D01*
X111155643Y-99666504D01*
X111217722Y-99597558D01*
X111277206Y-99560911D01*
X111347063Y-99562241D01*
X111405112Y-99601128D01*
X111427801Y-99642214D01*
X111440818Y-99682277D01*
X111440821Y-99682284D01*
X111535467Y-99846216D01*
X111656445Y-99980575D01*
X111662129Y-99986888D01*
X111815265Y-100098148D01*
X111815270Y-100098151D01*
X111988192Y-100175142D01*
X111988197Y-100175144D01*
X112173354Y-100214500D01*
X112173355Y-100214500D01*
X112362644Y-100214500D01*
X112362646Y-100214500D01*
X112547803Y-100175144D01*
X112720730Y-100098151D01*
X112873871Y-99986888D01*
X113000533Y-99846216D01*
X113095179Y-99682284D01*
X113153674Y-99502256D01*
X113173460Y-99314000D01*
X113153674Y-99125744D01*
X113153671Y-99125735D01*
X113153075Y-99122927D01*
X113153202Y-99121261D01*
X113152994Y-99119281D01*
X113153356Y-99119242D01*
X113158391Y-99053260D01*
X113200528Y-98997526D01*
X113266108Y-98973421D01*
X113334309Y-98988598D01*
G37*
%TD.AperFunction*%
%TA.AperFunction,Conductor*%
G36*
X127792757Y-73291185D02*
G01*
X127838512Y-73343989D01*
X127848456Y-73413147D01*
X127819431Y-73476703D01*
X127813399Y-73483181D01*
X124787750Y-76508831D01*
X121773992Y-79522589D01*
X121730289Y-79566292D01*
X121686586Y-79609994D01*
X121686585Y-79609996D01*
X121617233Y-79713789D01*
X121615586Y-79718393D01*
X121570615Y-79826962D01*
X121570612Y-79826972D01*
X121546997Y-79945696D01*
X121546996Y-79945702D01*
X121546500Y-79948190D01*
X121546500Y-86929807D01*
X121570612Y-87051028D01*
X121570613Y-87051032D01*
X121570614Y-87051035D01*
X121582102Y-87078768D01*
X121617915Y-87165230D01*
X121617916Y-87165232D01*
X121617917Y-87165233D01*
X121661056Y-87229795D01*
X121661187Y-87229990D01*
X121661187Y-87229991D01*
X121686590Y-87268010D01*
X121686593Y-87268013D01*
X122526181Y-88107600D01*
X122559666Y-88168923D01*
X122562500Y-88195281D01*
X122562500Y-88654433D01*
X122542815Y-88721472D01*
X122490011Y-88767227D01*
X122420853Y-88777171D01*
X122357297Y-88748146D01*
X122347270Y-88738416D01*
X122300033Y-88687103D01*
X122177744Y-88554262D01*
X121981509Y-88401526D01*
X121981507Y-88401525D01*
X121981506Y-88401524D01*
X121762811Y-88283172D01*
X121762802Y-88283169D01*
X121527616Y-88202429D01*
X121282335Y-88161500D01*
X121033665Y-88161500D01*
X120788383Y-88202429D01*
X120553197Y-88283169D01*
X120553188Y-88283172D01*
X120356471Y-88389631D01*
X120334491Y-88401526D01*
X120262262Y-88457744D01*
X120207662Y-88500241D01*
X120142668Y-88525883D01*
X120074128Y-88512316D01*
X120023803Y-88463848D01*
X120007500Y-88402387D01*
X120007500Y-87568196D01*
X120007499Y-87568195D01*
X120000705Y-87534035D01*
X119983386Y-87446966D01*
X119938407Y-87338379D01*
X119936763Y-87333784D01*
X119867414Y-87229995D01*
X119838189Y-87200770D01*
X119780008Y-87142589D01*
X116949000Y-84311581D01*
X113938011Y-81300591D01*
X113938007Y-81300588D01*
X113835239Y-81231920D01*
X113835226Y-81231913D01*
X113786283Y-81211641D01*
X113786282Y-81211640D01*
X113786282Y-81211641D01*
X113721035Y-81184614D01*
X113721032Y-81184613D01*
X113721028Y-81184612D01*
X113599807Y-81160500D01*
X113599803Y-81160500D01*
X110429947Y-81160500D01*
X110362908Y-81140815D01*
X110337800Y-81119476D01*
X110333871Y-81115112D01*
X110333869Y-81115111D01*
X110333867Y-81115108D01*
X110333864Y-81115106D01*
X110180734Y-81003851D01*
X110180729Y-81003848D01*
X110007807Y-80926857D01*
X110007802Y-80926855D01*
X109842951Y-80891816D01*
X109822646Y-80887500D01*
X109633354Y-80887500D01*
X109613049Y-80891816D01*
X109448197Y-80926855D01*
X109448192Y-80926857D01*
X109275270Y-81003848D01*
X109275265Y-81003851D01*
X109122129Y-81115111D01*
X108995466Y-81255785D01*
X108900821Y-81419715D01*
X108900818Y-81419722D01*
X108847258Y-81584564D01*
X108842326Y-81599744D01*
X108822540Y-81788000D01*
X108842326Y-81976256D01*
X108842327Y-81976259D01*
X108900818Y-82156277D01*
X108900821Y-82156284D01*
X108995467Y-82320216D01*
X109085204Y-82419879D01*
X109122129Y-82460888D01*
X109275265Y-82572148D01*
X109275270Y-82572151D01*
X109448192Y-82649142D01*
X109448197Y-82649144D01*
X109633354Y-82688500D01*
X109633355Y-82688500D01*
X109822644Y-82688500D01*
X109822646Y-82688500D01*
X110007803Y-82649144D01*
X110180730Y-82572151D01*
X110333871Y-82460888D01*
X110337799Y-82456525D01*
X110397286Y-82419879D01*
X110429947Y-82415500D01*
X113226719Y-82415500D01*
X113293758Y-82435185D01*
X113314400Y-82451819D01*
X118716181Y-87853600D01*
X118749666Y-87914923D01*
X118752500Y-87941281D01*
X118752500Y-101411534D01*
X118732815Y-101478573D01*
X118720650Y-101494506D01*
X118647466Y-101575785D01*
X118552821Y-101739715D01*
X118552818Y-101739722D01*
X118522996Y-101831506D01*
X118494326Y-101919744D01*
X118481036Y-102046197D01*
X118478972Y-102065832D01*
X118452387Y-102130446D01*
X118395090Y-102170431D01*
X118325271Y-102173091D01*
X118267970Y-102140551D01*
X112708259Y-96580840D01*
X112674774Y-96519517D01*
X112679758Y-96449825D01*
X112721630Y-96393892D01*
X112770157Y-96371870D01*
X112801803Y-96365144D01*
X112974730Y-96288151D01*
X113127871Y-96176888D01*
X113254533Y-96036216D01*
X113349179Y-95872284D01*
X113407674Y-95692256D01*
X113427460Y-95504000D01*
X113407674Y-95315744D01*
X113349179Y-95135716D01*
X113254533Y-94971784D01*
X113127871Y-94831112D01*
X113095708Y-94807744D01*
X112974734Y-94719851D01*
X112974730Y-94719849D01*
X112969061Y-94717325D01*
X112915825Y-94672073D01*
X112895506Y-94605223D01*
X112895500Y-94604047D01*
X112895500Y-91886194D01*
X112871386Y-91764970D01*
X112871385Y-91764969D01*
X112871385Y-91764965D01*
X112834290Y-91675408D01*
X112824086Y-91650773D01*
X112824079Y-91650760D01*
X112755412Y-91547993D01*
X112713245Y-91505826D01*
X112668008Y-91460589D01*
X112089600Y-90882181D01*
X112056115Y-90820858D01*
X112061099Y-90751166D01*
X112102971Y-90695233D01*
X112168435Y-90670816D01*
X112177281Y-90670500D01*
X114488804Y-90670500D01*
X114488805Y-90670499D01*
X114610035Y-90646386D01*
X114690784Y-90612937D01*
X114724233Y-90599083D01*
X114827008Y-90530411D01*
X114914411Y-90443008D01*
X115774600Y-89582819D01*
X115835923Y-89549334D01*
X115862281Y-89546500D01*
X115918644Y-89546500D01*
X115918646Y-89546500D01*
X116103803Y-89507144D01*
X116276730Y-89430151D01*
X116429871Y-89318888D01*
X116556533Y-89178216D01*
X116651179Y-89014284D01*
X116709674Y-88834256D01*
X116729460Y-88646000D01*
X116709674Y-88457744D01*
X116651179Y-88277716D01*
X116556533Y-88113784D01*
X116429871Y-87973112D01*
X116417276Y-87963961D01*
X116276734Y-87861851D01*
X116276729Y-87861848D01*
X116103807Y-87784857D01*
X116103802Y-87784855D01*
X115958001Y-87753865D01*
X115918646Y-87745500D01*
X115729354Y-87745500D01*
X115696897Y-87752398D01*
X115544197Y-87784855D01*
X115544192Y-87784857D01*
X115371270Y-87861848D01*
X115371265Y-87861851D01*
X115218129Y-87973111D01*
X115091466Y-88113785D01*
X114996821Y-88277715D01*
X114996818Y-88277722D01*
X114938327Y-88457740D01*
X114938326Y-88457744D01*
X114923429Y-88599485D01*
X114921011Y-88622489D01*
X114894426Y-88687103D01*
X114885371Y-88697208D01*
X114203400Y-89379181D01*
X114142077Y-89412666D01*
X114115719Y-89415500D01*
X112013691Y-89415500D01*
X111946652Y-89395815D01*
X111900897Y-89343011D01*
X111890370Y-89278541D01*
X111903460Y-89154000D01*
X111883674Y-88965744D01*
X111825179Y-88785716D01*
X111730533Y-88621784D01*
X111603871Y-88481112D01*
X111603823Y-88481077D01*
X111450734Y-88369851D01*
X111450729Y-88369848D01*
X111277807Y-88292857D01*
X111277802Y-88292855D01*
X111112796Y-88257783D01*
X111092646Y-88253500D01*
X111092645Y-88253500D01*
X111036281Y-88253500D01*
X110969242Y-88233815D01*
X110948600Y-88217181D01*
X107613819Y-84882400D01*
X107580334Y-84821077D01*
X107577500Y-84794719D01*
X107577500Y-79002500D01*
X107597185Y-78935461D01*
X107649989Y-78889706D01*
X107701500Y-78878500D01*
X107790644Y-78878500D01*
X107790646Y-78878500D01*
X107975803Y-78839144D01*
X108148730Y-78762151D01*
X108301871Y-78650888D01*
X108428533Y-78510216D01*
X108523179Y-78346284D01*
X108581674Y-78166256D01*
X108601460Y-77978000D01*
X108581674Y-77789744D01*
X108523179Y-77609716D01*
X108428533Y-77445784D01*
X108301871Y-77305112D01*
X108301870Y-77305111D01*
X108148727Y-77193846D01*
X108143104Y-77190600D01*
X108144061Y-77188941D01*
X108097814Y-77149617D01*
X108077505Y-77082764D01*
X108077500Y-77081608D01*
X108077500Y-76430867D01*
X108097185Y-76363828D01*
X108149989Y-76318073D01*
X108219147Y-76308129D01*
X108227279Y-76309576D01*
X108363354Y-76338500D01*
X108363355Y-76338500D01*
X108552644Y-76338500D01*
X108552646Y-76338500D01*
X108737803Y-76299144D01*
X108910730Y-76222151D01*
X109063871Y-76110888D01*
X109067799Y-76106525D01*
X109127286Y-76069879D01*
X109159947Y-76065500D01*
X124267804Y-76065500D01*
X124267805Y-76065499D01*
X124389035Y-76041386D01*
X124470110Y-76007803D01*
X124503233Y-75994083D01*
X124606008Y-75925411D01*
X124693411Y-75838008D01*
X127223600Y-73307819D01*
X127284923Y-73274334D01*
X127311281Y-73271500D01*
X127725718Y-73271500D01*
X127792757Y-73291185D01*
G37*
%TD.AperFunction*%
%TA.AperFunction,Conductor*%
G36*
X65706435Y-83387207D02*
G01*
X65760197Y-83411144D01*
X65945354Y-83450500D01*
X65945355Y-83450500D01*
X66134645Y-83450500D01*
X66134646Y-83450500D01*
X66211285Y-83434209D01*
X66237066Y-83431500D01*
X73573180Y-83431500D01*
X92949000Y-83431500D01*
X93016039Y-83451185D01*
X93061794Y-83503989D01*
X93073000Y-83555500D01*
X93073000Y-84012218D01*
X93053315Y-84079257D01*
X93000511Y-84125012D01*
X92931353Y-84134956D01*
X92867797Y-84105931D01*
X92861319Y-84099899D01*
X92602011Y-83840591D01*
X92602007Y-83840588D01*
X92499239Y-83771920D01*
X92499226Y-83771913D01*
X92465785Y-83758062D01*
X92385035Y-83724614D01*
X92385027Y-83724612D01*
X92263807Y-83700500D01*
X92263803Y-83700500D01*
X83119803Y-83700500D01*
X82996196Y-83700500D01*
X82996194Y-83700500D01*
X82874970Y-83724613D01*
X82874960Y-83724616D01*
X82760773Y-83771913D01*
X82760760Y-83771920D01*
X82657991Y-83840589D01*
X82657987Y-83840592D01*
X82187000Y-84311581D01*
X82149992Y-84348589D01*
X82119760Y-84378821D01*
X82062586Y-84435994D01*
X82062585Y-84435996D01*
X81993233Y-84539789D01*
X81991586Y-84544393D01*
X81954345Y-84634301D01*
X81946614Y-84652965D01*
X81929180Y-84740614D01*
X81929180Y-84740615D01*
X81922500Y-84774195D01*
X81922500Y-85086173D01*
X81902815Y-85153212D01*
X81869624Y-85187748D01*
X81678594Y-85321508D01*
X81511505Y-85488597D01*
X81375965Y-85682169D01*
X81375964Y-85682171D01*
X81276098Y-85896335D01*
X81276094Y-85896344D01*
X81214938Y-86124586D01*
X81214936Y-86124596D01*
X81194341Y-86359999D01*
X81194341Y-86360000D01*
X81214936Y-86595403D01*
X81214938Y-86595413D01*
X81276094Y-86823655D01*
X81276096Y-86823659D01*
X81276097Y-86823663D01*
X81356004Y-86995023D01*
X81375965Y-87037830D01*
X81375967Y-87037834D01*
X81484281Y-87192521D01*
X81511501Y-87231396D01*
X81511506Y-87231402D01*
X81678597Y-87398493D01*
X81678603Y-87398498D01*
X81864158Y-87528425D01*
X81907783Y-87583002D01*
X81914977Y-87652500D01*
X81883454Y-87714855D01*
X81864158Y-87731575D01*
X81678597Y-87861505D01*
X81511505Y-88028597D01*
X81375965Y-88222169D01*
X81375964Y-88222171D01*
X81276098Y-88436335D01*
X81276094Y-88436344D01*
X81214938Y-88664586D01*
X81214936Y-88664596D01*
X81194341Y-88899999D01*
X81194341Y-88900000D01*
X81214936Y-89135403D01*
X81214938Y-89135413D01*
X81276094Y-89363655D01*
X81276096Y-89363659D01*
X81276097Y-89363663D01*
X81351500Y-89525365D01*
X81375965Y-89577830D01*
X81375967Y-89577834D01*
X81466858Y-89707639D01*
X81511501Y-89771396D01*
X81511506Y-89771402D01*
X81678597Y-89938493D01*
X81678603Y-89938498D01*
X81864158Y-90068425D01*
X81907783Y-90123002D01*
X81914977Y-90192500D01*
X81883454Y-90254855D01*
X81864158Y-90271575D01*
X81678597Y-90401505D01*
X81511505Y-90568597D01*
X81375965Y-90762169D01*
X81375964Y-90762171D01*
X81276098Y-90976335D01*
X81276094Y-90976344D01*
X81214938Y-91204586D01*
X81214936Y-91204596D01*
X81194341Y-91439999D01*
X81194341Y-91440000D01*
X81214936Y-91675403D01*
X81214938Y-91675413D01*
X81276094Y-91903655D01*
X81276096Y-91903659D01*
X81276097Y-91903663D01*
X81368983Y-92102857D01*
X81375965Y-92117830D01*
X81375967Y-92117834D01*
X81475010Y-92259281D01*
X81504992Y-92302100D01*
X81511501Y-92311395D01*
X81511506Y-92311402D01*
X81678597Y-92478493D01*
X81678603Y-92478498D01*
X81864158Y-92608425D01*
X81907783Y-92663002D01*
X81914977Y-92732500D01*
X81883454Y-92794855D01*
X81864158Y-92811575D01*
X81678597Y-92941505D01*
X81511505Y-93108597D01*
X81375965Y-93302169D01*
X81375964Y-93302171D01*
X81276098Y-93516335D01*
X81276094Y-93516344D01*
X81214938Y-93744586D01*
X81214936Y-93744596D01*
X81194341Y-93979999D01*
X81194341Y-93980000D01*
X81214936Y-94215403D01*
X81214938Y-94215413D01*
X81276094Y-94443655D01*
X81276096Y-94443659D01*
X81276097Y-94443663D01*
X81354248Y-94611258D01*
X81375965Y-94657830D01*
X81375967Y-94657834D01*
X81480933Y-94807740D01*
X81497298Y-94831112D01*
X81511501Y-94851395D01*
X81511506Y-94851402D01*
X81678597Y-95018493D01*
X81678603Y-95018498D01*
X81864158Y-95148425D01*
X81907783Y-95203002D01*
X81914977Y-95272500D01*
X81883454Y-95334855D01*
X81864158Y-95351575D01*
X81678597Y-95481505D01*
X81511505Y-95648597D01*
X81375965Y-95842169D01*
X81375964Y-95842171D01*
X81276098Y-96056335D01*
X81276094Y-96056344D01*
X81214938Y-96284586D01*
X81214936Y-96284596D01*
X81194341Y-96519999D01*
X81194341Y-96520000D01*
X81214936Y-96755403D01*
X81214938Y-96755413D01*
X81276094Y-96983655D01*
X81276096Y-96983659D01*
X81276097Y-96983663D01*
X81344433Y-97130210D01*
X81375965Y-97197830D01*
X81375967Y-97197834D01*
X81426498Y-97269999D01*
X81511505Y-97391401D01*
X81678599Y-97558495D01*
X81759172Y-97614913D01*
X81872165Y-97694032D01*
X81872167Y-97694033D01*
X81872170Y-97694035D01*
X82086337Y-97793903D01*
X82314592Y-97855063D01*
X82491034Y-97870500D01*
X82549999Y-97875659D01*
X82550000Y-97875659D01*
X82550001Y-97875659D01*
X82608966Y-97870500D01*
X82785408Y-97855063D01*
X83013663Y-97793903D01*
X83227830Y-97694035D01*
X83421401Y-97558495D01*
X83543329Y-97436566D01*
X83604648Y-97403084D01*
X83674340Y-97408068D01*
X83730274Y-97449939D01*
X83747189Y-97480917D01*
X83796202Y-97612328D01*
X83796206Y-97612335D01*
X83882452Y-97727544D01*
X83882455Y-97727547D01*
X83997664Y-97813793D01*
X83997671Y-97813797D01*
X84127833Y-97862344D01*
X84183767Y-97904215D01*
X84208184Y-97969679D01*
X84208500Y-97978526D01*
X84208500Y-98135508D01*
X84188815Y-98202547D01*
X84172181Y-98223189D01*
X82475189Y-99920181D01*
X82413866Y-99953666D01*
X82387508Y-99956500D01*
X66237066Y-99956500D01*
X66211285Y-99953790D01*
X66210702Y-99953666D01*
X66134646Y-99937500D01*
X65945354Y-99937500D01*
X65912897Y-99944398D01*
X65760197Y-99976855D01*
X65760196Y-99976855D01*
X65706435Y-100000792D01*
X65637185Y-100010076D01*
X65573908Y-99980447D01*
X65536696Y-99921312D01*
X65532000Y-99887512D01*
X65532000Y-97638150D01*
X70540484Y-97638150D01*
X73356053Y-97638150D01*
X73356053Y-86183131D01*
X70540484Y-86183131D01*
X70540484Y-97638150D01*
X65532000Y-97638150D01*
X65532000Y-83500487D01*
X65551685Y-83433448D01*
X65604489Y-83387693D01*
X65673647Y-83377749D01*
X65706435Y-83387207D01*
G37*
%TD.AperFunction*%
%TA.AperFunction,Conductor*%
G36*
X142490000Y-97270000D02*
G01*
X142738492Y-97270000D01*
X142738495Y-97269999D01*
X142931681Y-97231572D01*
X142931693Y-97231569D01*
X143113671Y-97156192D01*
X143113684Y-97156185D01*
X143277462Y-97046751D01*
X143277466Y-97046748D01*
X143416748Y-96907466D01*
X143416751Y-96907462D01*
X143526185Y-96743684D01*
X143529059Y-96738308D01*
X143530573Y-96739117D01*
X143569279Y-96691087D01*
X143635573Y-96669021D01*
X143703272Y-96686299D01*
X143750883Y-96737436D01*
X143764000Y-96792942D01*
X143764000Y-99857837D01*
X143744315Y-99924876D01*
X143691511Y-99970631D01*
X143622353Y-99980575D01*
X143558797Y-99951550D01*
X143521023Y-99892772D01*
X143520225Y-99889930D01*
X143513905Y-99866344D01*
X143513904Y-99866343D01*
X143513903Y-99866337D01*
X143414035Y-99652171D01*
X143378295Y-99601128D01*
X143278494Y-99458597D01*
X143111402Y-99291506D01*
X143111395Y-99291501D01*
X142917834Y-99155967D01*
X142917830Y-99155965D01*
X142827673Y-99113924D01*
X142703663Y-99056097D01*
X142703659Y-99056096D01*
X142703655Y-99056094D01*
X142475413Y-98994938D01*
X142475403Y-98994936D01*
X142240001Y-98974341D01*
X142239999Y-98974341D01*
X142004596Y-98994936D01*
X142004586Y-98994938D01*
X141776344Y-99056094D01*
X141776335Y-99056098D01*
X141562171Y-99155964D01*
X141562169Y-99155965D01*
X141368597Y-99291505D01*
X141201505Y-99458597D01*
X141086475Y-99622879D01*
X141031898Y-99666504D01*
X140962400Y-99673698D01*
X140900045Y-99642175D01*
X140864631Y-99581945D01*
X140860900Y-99551756D01*
X140860900Y-97004477D01*
X140880585Y-96937438D01*
X140933389Y-96891683D01*
X141002547Y-96881739D01*
X141066103Y-96910764D01*
X141072581Y-96916796D01*
X141202533Y-97046748D01*
X141202537Y-97046751D01*
X141366315Y-97156185D01*
X141366328Y-97156192D01*
X141548306Y-97231569D01*
X141548318Y-97231572D01*
X141741504Y-97269999D01*
X141741508Y-97270000D01*
X141990000Y-97270000D01*
X141990000Y-96570000D01*
X142490000Y-96570000D01*
X142490000Y-97270000D01*
G37*
%TD.AperFunction*%
%TA.AperFunction,Conductor*%
G36*
X142490000Y-88630000D02*
G01*
X142738492Y-88630000D01*
X142738495Y-88629999D01*
X142931681Y-88591572D01*
X142931693Y-88591569D01*
X143113671Y-88516192D01*
X143113684Y-88516185D01*
X143277462Y-88406751D01*
X143277466Y-88406748D01*
X143416748Y-88267466D01*
X143416751Y-88267462D01*
X143526185Y-88103684D01*
X143529059Y-88098308D01*
X143530573Y-88099117D01*
X143569279Y-88051087D01*
X143635573Y-88029021D01*
X143703272Y-88046299D01*
X143750883Y-88097436D01*
X143764000Y-88152942D01*
X143764000Y-95747057D01*
X143744315Y-95814096D01*
X143691511Y-95859851D01*
X143622353Y-95869795D01*
X143558797Y-95840770D01*
X143530182Y-95801091D01*
X143529059Y-95801692D01*
X143526185Y-95796315D01*
X143416751Y-95632537D01*
X143416748Y-95632533D01*
X143277466Y-95493251D01*
X143277462Y-95493248D01*
X143113684Y-95383814D01*
X143113671Y-95383807D01*
X142931693Y-95308430D01*
X142931681Y-95308427D01*
X142738495Y-95270000D01*
X142490000Y-95270000D01*
X142490000Y-95970000D01*
X141990000Y-95970000D01*
X141990000Y-95270000D01*
X141741504Y-95270000D01*
X141548318Y-95308427D01*
X141548307Y-95308430D01*
X141513329Y-95322918D01*
X141443860Y-95330385D01*
X141381381Y-95299109D01*
X141345730Y-95239020D01*
X141344262Y-95184164D01*
X141349322Y-95158730D01*
X141354861Y-95130877D01*
X141368900Y-95060307D01*
X141368900Y-89089692D01*
X141343810Y-88963561D01*
X141343809Y-88963560D01*
X141343809Y-88963556D01*
X141294592Y-88844736D01*
X141290001Y-88837865D01*
X141289050Y-88836442D01*
X141289049Y-88836440D01*
X141223138Y-88737797D01*
X141157201Y-88671860D01*
X141123716Y-88610537D01*
X141128700Y-88540845D01*
X141170572Y-88484912D01*
X141236036Y-88460495D01*
X141304309Y-88475347D01*
X141313773Y-88481077D01*
X141366316Y-88516185D01*
X141366328Y-88516192D01*
X141548306Y-88591569D01*
X141548318Y-88591572D01*
X141741504Y-88629999D01*
X141741508Y-88630000D01*
X141990000Y-88630000D01*
X141990000Y-87930000D01*
X142490000Y-87930000D01*
X142490000Y-88630000D01*
G37*
%TD.AperFunction*%
%TA.AperFunction,Conductor*%
G36*
X95202129Y-89175802D02*
G01*
X95258062Y-89217674D01*
X95282323Y-89281175D01*
X95283793Y-89297976D01*
X95283793Y-89297979D01*
X95340422Y-89509322D01*
X95340424Y-89509326D01*
X95340425Y-89509330D01*
X95376103Y-89585842D01*
X95432897Y-89707638D01*
X95432898Y-89707639D01*
X95558402Y-89886877D01*
X95713123Y-90041598D01*
X95892361Y-90167102D01*
X96090670Y-90259575D01*
X96302023Y-90316207D01*
X96443758Y-90328606D01*
X96508824Y-90354058D01*
X96549803Y-90410649D01*
X96553682Y-90480410D01*
X96520630Y-90539815D01*
X92381266Y-94679181D01*
X92319943Y-94712666D01*
X92293585Y-94715500D01*
X86431232Y-94715500D01*
X86364193Y-94695815D01*
X86318438Y-94643011D01*
X86308494Y-94573853D01*
X86318850Y-94539095D01*
X86363429Y-94443492D01*
X86363432Y-94443486D01*
X86420636Y-94230000D01*
X85523012Y-94230000D01*
X85555925Y-94172993D01*
X85590000Y-94045826D01*
X85590000Y-93914174D01*
X85555925Y-93787007D01*
X85523012Y-93730000D01*
X86420636Y-93730000D01*
X86420635Y-93729999D01*
X86382210Y-93586594D01*
X86383873Y-93516744D01*
X86423035Y-93458881D01*
X86487264Y-93431377D01*
X86501985Y-93430500D01*
X90646804Y-93430500D01*
X90646805Y-93430499D01*
X90768035Y-93406386D01*
X90848784Y-93372937D01*
X90882233Y-93359083D01*
X90985008Y-93290411D01*
X91072411Y-93203008D01*
X95071116Y-89204301D01*
X95132437Y-89170818D01*
X95202129Y-89175802D01*
G37*
%TD.AperFunction*%
%TA.AperFunction,Conductor*%
G36*
X85283039Y-93450185D02*
G01*
X85328794Y-93502989D01*
X85338131Y-93545908D01*
X85282993Y-93514075D01*
X85155826Y-93480000D01*
X85024174Y-93480000D01*
X84897007Y-93514075D01*
X84842656Y-93545454D01*
X84859685Y-93487461D01*
X84912489Y-93441706D01*
X84964000Y-93430500D01*
X85216000Y-93430500D01*
X85283039Y-93450185D01*
G37*
%TD.AperFunction*%
%TA.AperFunction,Conductor*%
G36*
X85340000Y-92051500D02*
G01*
X85320315Y-92118539D01*
X85267511Y-92164294D01*
X85216000Y-92175500D01*
X84964000Y-92175500D01*
X84896961Y-92155815D01*
X84851206Y-92103011D01*
X84840000Y-92051500D01*
X84840000Y-91873012D01*
X84897007Y-91905925D01*
X85024174Y-91940000D01*
X85155826Y-91940000D01*
X85282993Y-91905925D01*
X85340000Y-91873012D01*
X85340000Y-92051500D01*
G37*
%TD.AperFunction*%
%TA.AperFunction,Conductor*%
G36*
X96056991Y-79028152D02*
G01*
X96112924Y-79070024D01*
X96136977Y-79131370D01*
X96142326Y-79182256D01*
X96142327Y-79182259D01*
X96200818Y-79362277D01*
X96200821Y-79362284D01*
X96295467Y-79526216D01*
X96410336Y-79653791D01*
X96422129Y-79666888D01*
X96575265Y-79778148D01*
X96575270Y-79778151D01*
X96748192Y-79855142D01*
X96748197Y-79855144D01*
X96933354Y-79894500D01*
X96933355Y-79894500D01*
X97122644Y-79894500D01*
X97122646Y-79894500D01*
X97307803Y-79855144D01*
X97480730Y-79778151D01*
X97514365Y-79753713D01*
X97580169Y-79730233D01*
X97648223Y-79746057D01*
X97674931Y-79766350D01*
X104493649Y-86585068D01*
X104527134Y-86646391D01*
X104522150Y-86716083D01*
X104480278Y-86772016D01*
X104414814Y-86796433D01*
X104358516Y-86787311D01*
X104358338Y-86787237D01*
X104323035Y-86772614D01*
X104323030Y-86772613D01*
X104323027Y-86772612D01*
X104201807Y-86748500D01*
X104201803Y-86748500D01*
X96073803Y-86748500D01*
X95950197Y-86748500D01*
X95950192Y-86748500D01*
X95828972Y-86772612D01*
X95828964Y-86772614D01*
X95771461Y-86796433D01*
X95748215Y-86806062D01*
X95714767Y-86819917D01*
X95696636Y-86832032D01*
X95611989Y-86888590D01*
X95611988Y-86888591D01*
X90361400Y-92139181D01*
X90300077Y-92172666D01*
X90273719Y-92175500D01*
X86431232Y-92175500D01*
X86364193Y-92155815D01*
X86318438Y-92103011D01*
X86308494Y-92033853D01*
X86318850Y-91999095D01*
X86363429Y-91903492D01*
X86363432Y-91903486D01*
X86420636Y-91690000D01*
X85523012Y-91690000D01*
X85555925Y-91632993D01*
X85590000Y-91505826D01*
X85590000Y-91374174D01*
X85555925Y-91247007D01*
X85523012Y-91190000D01*
X86420636Y-91190000D01*
X86420635Y-91189999D01*
X86363432Y-90976513D01*
X86363429Y-90976507D01*
X86263600Y-90762422D01*
X86263599Y-90762420D01*
X86128113Y-90568926D01*
X86128108Y-90568920D01*
X85961078Y-90401890D01*
X85775405Y-90271879D01*
X85731780Y-90217302D01*
X85724588Y-90147804D01*
X85756110Y-90085449D01*
X85775406Y-90068730D01*
X85775842Y-90068425D01*
X85961401Y-89938495D01*
X86128495Y-89771401D01*
X86264035Y-89577830D01*
X86363903Y-89363663D01*
X86425063Y-89135408D01*
X86445659Y-88900000D01*
X86443894Y-88879832D01*
X86435660Y-88785715D01*
X86425063Y-88664592D01*
X86374356Y-88475347D01*
X86363905Y-88436344D01*
X86363904Y-88436343D01*
X86363903Y-88436337D01*
X86264035Y-88222171D01*
X86258425Y-88214158D01*
X86128494Y-88028597D01*
X85961402Y-87861506D01*
X85961396Y-87861501D01*
X85775842Y-87731575D01*
X85732217Y-87676998D01*
X85725023Y-87607500D01*
X85756546Y-87545145D01*
X85775842Y-87528425D01*
X85839299Y-87483992D01*
X85961401Y-87398495D01*
X86128495Y-87231401D01*
X86264035Y-87037830D01*
X86363903Y-86823663D01*
X86425063Y-86595408D01*
X86445659Y-86360000D01*
X86425063Y-86124592D01*
X86363903Y-85896337D01*
X86264035Y-85682171D01*
X86258425Y-85674158D01*
X86128494Y-85488597D01*
X85961402Y-85321506D01*
X85961395Y-85321501D01*
X85763396Y-85182860D01*
X85764324Y-85181534D01*
X85721214Y-85136325D01*
X85707988Y-85067718D01*
X85733953Y-85002852D01*
X85790866Y-84962322D01*
X85831427Y-84955500D01*
X91890719Y-84955500D01*
X91957758Y-84975185D01*
X91978400Y-84991819D01*
X93041371Y-86054790D01*
X93074856Y-86116113D01*
X93077010Y-86129505D01*
X93094326Y-86294256D01*
X93094327Y-86294259D01*
X93152818Y-86474277D01*
X93152821Y-86474284D01*
X93247467Y-86638216D01*
X93367941Y-86772016D01*
X93374129Y-86778888D01*
X93527265Y-86890148D01*
X93527270Y-86890151D01*
X93700192Y-86967142D01*
X93700197Y-86967144D01*
X93885354Y-87006500D01*
X93885355Y-87006500D01*
X94074644Y-87006500D01*
X94074646Y-87006500D01*
X94259803Y-86967144D01*
X94432730Y-86890151D01*
X94585871Y-86778888D01*
X94712533Y-86638216D01*
X94791643Y-86501192D01*
X94842210Y-86452978D01*
X94910817Y-86439754D01*
X94949464Y-86449912D01*
X94970197Y-86459144D01*
X95155354Y-86498500D01*
X95155355Y-86498500D01*
X95344644Y-86498500D01*
X95344646Y-86498500D01*
X95529803Y-86459144D01*
X95702730Y-86382151D01*
X95855871Y-86270888D01*
X95982533Y-86130216D01*
X96077179Y-85966284D01*
X96135674Y-85786256D01*
X96155460Y-85598000D01*
X96135674Y-85409744D01*
X96077179Y-85229716D01*
X95982533Y-85065784D01*
X95855871Y-84925112D01*
X95746265Y-84845479D01*
X95731475Y-84832846D01*
X94872319Y-83973689D01*
X94838834Y-83912366D01*
X94836000Y-83886008D01*
X94836000Y-83578362D01*
X94855685Y-83511323D01*
X94908489Y-83465568D01*
X94977647Y-83455624D01*
X94999005Y-83460656D01*
X95004707Y-83462545D01*
X95004713Y-83462549D01*
X95164315Y-83515436D01*
X95262826Y-83525500D01*
X95262831Y-83525500D01*
X95796169Y-83525500D01*
X95796174Y-83525500D01*
X95894685Y-83515436D01*
X96054287Y-83462549D01*
X96197391Y-83374281D01*
X96203056Y-83368616D01*
X96264377Y-83335128D01*
X96334069Y-83340109D01*
X96341169Y-83343010D01*
X96494197Y-83411144D01*
X96679354Y-83450500D01*
X96679355Y-83450500D01*
X96868644Y-83450500D01*
X96868646Y-83450500D01*
X97053803Y-83411144D01*
X97226730Y-83334151D01*
X97379871Y-83222888D01*
X97506533Y-83082216D01*
X97601179Y-82918284D01*
X97659674Y-82738256D01*
X97679460Y-82550000D01*
X97659674Y-82361744D01*
X97601179Y-82181716D01*
X97506533Y-82017784D01*
X97379871Y-81877112D01*
X97379870Y-81877111D01*
X97226734Y-81765851D01*
X97226729Y-81765848D01*
X97053807Y-81688857D01*
X97053802Y-81688855D01*
X96905314Y-81657294D01*
X96868646Y-81649500D01*
X96679354Y-81649500D01*
X96642686Y-81657294D01*
X96494199Y-81688855D01*
X96341176Y-81756986D01*
X96271926Y-81766270D01*
X96208649Y-81736642D01*
X96203059Y-81731387D01*
X96197391Y-81725719D01*
X96197387Y-81725716D01*
X96054295Y-81637455D01*
X96054289Y-81637452D01*
X96054287Y-81637451D01*
X95894685Y-81584564D01*
X95894683Y-81584563D01*
X95796181Y-81574500D01*
X95796174Y-81574500D01*
X95262826Y-81574500D01*
X95262818Y-81574500D01*
X95164316Y-81584563D01*
X95164315Y-81584564D01*
X95004713Y-81637451D01*
X95004712Y-81637451D01*
X94999004Y-81639343D01*
X94929176Y-81641745D01*
X94869134Y-81606013D01*
X94837941Y-81543493D01*
X94836000Y-81521637D01*
X94836000Y-80197992D01*
X94855685Y-80130953D01*
X94872319Y-80110311D01*
X95372638Y-79609992D01*
X95925978Y-79056651D01*
X95987299Y-79023168D01*
X96056991Y-79028152D01*
G37*
%TD.AperFunction*%
%TA.AperFunction,Conductor*%
G36*
X139498139Y-81165185D02*
G01*
X139543894Y-81217989D01*
X139555100Y-81269500D01*
X139555100Y-86861523D01*
X139535415Y-86928562D01*
X139482611Y-86974317D01*
X139413453Y-86984261D01*
X139349897Y-86955236D01*
X139343419Y-86949204D01*
X139247466Y-86853251D01*
X139247462Y-86853248D01*
X139083684Y-86743814D01*
X139083671Y-86743807D01*
X138901693Y-86668430D01*
X138901681Y-86668427D01*
X138708495Y-86630000D01*
X138310000Y-86630000D01*
X138310000Y-87330000D01*
X137810000Y-87330000D01*
X137810000Y-86630000D01*
X137411504Y-86630000D01*
X137218318Y-86668427D01*
X137218306Y-86668430D01*
X137036328Y-86743807D01*
X137036315Y-86743814D01*
X136872537Y-86853248D01*
X136872533Y-86853251D01*
X136733251Y-86992533D01*
X136733248Y-86992537D01*
X136623814Y-87156315D01*
X136623807Y-87156328D01*
X136548430Y-87338307D01*
X136548430Y-87338309D01*
X136540138Y-87380000D01*
X137343012Y-87380000D01*
X137325795Y-87389940D01*
X137269940Y-87445795D01*
X137230444Y-87514204D01*
X137210000Y-87590504D01*
X137210000Y-87669496D01*
X137230444Y-87745796D01*
X137269940Y-87814205D01*
X137325795Y-87870060D01*
X137343012Y-87880000D01*
X136540138Y-87880000D01*
X136548430Y-87921690D01*
X136548430Y-87921692D01*
X136595991Y-88036515D01*
X136603460Y-88105984D01*
X136572185Y-88168463D01*
X136569114Y-88171646D01*
X136542318Y-88198443D01*
X136542313Y-88198449D01*
X136458718Y-88339801D01*
X136412899Y-88497513D01*
X136412704Y-88499998D01*
X136412705Y-88500000D01*
X137235000Y-88500000D01*
X137235000Y-88031000D01*
X137254685Y-87963961D01*
X137307489Y-87918206D01*
X137359000Y-87907000D01*
X137389777Y-87907000D01*
X137394204Y-87909556D01*
X137470504Y-87930000D01*
X137680911Y-87930000D01*
X137723794Y-87979489D01*
X137735000Y-88031000D01*
X137735000Y-88625500D01*
X137715315Y-88692539D01*
X137662511Y-88738294D01*
X137611000Y-88749500D01*
X136994298Y-88749500D01*
X136957432Y-88752401D01*
X136957426Y-88752402D01*
X136799606Y-88798254D01*
X136799603Y-88798255D01*
X136661664Y-88879832D01*
X136598543Y-88897100D01*
X135845802Y-88897100D01*
X135778763Y-88877415D01*
X135758121Y-88860781D01*
X135309219Y-88411878D01*
X135275734Y-88350555D01*
X135272900Y-88324197D01*
X135272900Y-84634301D01*
X135292585Y-84567262D01*
X135309219Y-84546620D01*
X135403611Y-84452228D01*
X135776582Y-84079257D01*
X136259020Y-83596817D01*
X136320343Y-83563333D01*
X136346701Y-83560499D01*
X136641123Y-83560499D01*
X136641123Y-83560498D01*
X136683889Y-83557600D01*
X136868693Y-83511641D01*
X137039296Y-83427030D01*
X137187722Y-83307722D01*
X137307030Y-83159296D01*
X137391641Y-82988693D01*
X137437600Y-82803889D01*
X137440500Y-82761123D01*
X137440499Y-81858878D01*
X137437600Y-81816111D01*
X137391641Y-81631307D01*
X137368458Y-81584563D01*
X137307032Y-81460707D01*
X137307030Y-81460704D01*
X137215783Y-81347187D01*
X137189124Y-81282603D01*
X137201615Y-81213859D01*
X137249288Y-81162780D01*
X137312430Y-81145500D01*
X139431100Y-81145500D01*
X139498139Y-81165185D01*
G37*
%TD.AperFunction*%
%TA.AperFunction,Conductor*%
G36*
X143731240Y-82001701D02*
G01*
X143762154Y-82064359D01*
X143764000Y-82085673D01*
X143764000Y-87107057D01*
X143744315Y-87174096D01*
X143691511Y-87219851D01*
X143622353Y-87229795D01*
X143558797Y-87200770D01*
X143530182Y-87161091D01*
X143529059Y-87161692D01*
X143526185Y-87156315D01*
X143416751Y-86992537D01*
X143416748Y-86992533D01*
X143277466Y-86853251D01*
X143277462Y-86853248D01*
X143113684Y-86743814D01*
X143113671Y-86743807D01*
X142931693Y-86668430D01*
X142931681Y-86668427D01*
X142738495Y-86630000D01*
X142490000Y-86630000D01*
X142490000Y-87330000D01*
X141990000Y-87330000D01*
X141990000Y-86630000D01*
X141741504Y-86630000D01*
X141548318Y-86668427D01*
X141548306Y-86668430D01*
X141366328Y-86743807D01*
X141366315Y-86743814D01*
X141202537Y-86853248D01*
X141202533Y-86853251D01*
X141072581Y-86983204D01*
X141011258Y-87016689D01*
X140941566Y-87011705D01*
X140885633Y-86969833D01*
X140861216Y-86904369D01*
X140860900Y-86895523D01*
X140860900Y-82245236D01*
X140880585Y-82178197D01*
X140933389Y-82132442D01*
X141002547Y-82122498D01*
X141063260Y-82149133D01*
X141186593Y-82249698D01*
X141366951Y-82343909D01*
X141562582Y-82399886D01*
X141681963Y-82410500D01*
X142798036Y-82410499D01*
X142917418Y-82399886D01*
X143113049Y-82343909D01*
X143293407Y-82249698D01*
X143451109Y-82121109D01*
X143543898Y-82007311D01*
X143601519Y-81967795D01*
X143671357Y-81965703D01*
X143731240Y-82001701D01*
G37*
%TD.AperFunction*%
%TA.AperFunction,Conductor*%
G36*
X68449014Y-66811470D02*
G01*
X68515987Y-66831372D01*
X68536290Y-66847788D01*
X71654200Y-69965698D01*
X71766302Y-70077800D01*
X71903598Y-70157067D01*
X72056732Y-70198100D01*
X72056734Y-70198100D01*
X77295266Y-70198100D01*
X77295268Y-70198100D01*
X77448402Y-70157067D01*
X77585698Y-70077800D01*
X77697800Y-69965698D01*
X77951800Y-69711698D01*
X77964269Y-69690100D01*
X78031067Y-69574402D01*
X78072100Y-69421268D01*
X78072100Y-69325138D01*
X78091785Y-69258099D01*
X78144589Y-69212344D01*
X78179918Y-69202198D01*
X78202733Y-69199195D01*
X78236470Y-69201406D01*
X78236705Y-69199626D01*
X78244763Y-69200686D01*
X78244764Y-69200687D01*
X78357280Y-69215500D01*
X78357287Y-69215500D01*
X78582713Y-69215500D01*
X78582720Y-69215500D01*
X78695236Y-69200687D01*
X78835233Y-69142698D01*
X78955451Y-69050451D01*
X79047698Y-68930233D01*
X79105687Y-68790236D01*
X79120500Y-68677720D01*
X79120500Y-68457402D01*
X79140185Y-68390363D01*
X79192989Y-68344608D01*
X79262147Y-68334664D01*
X79296817Y-68346667D01*
X79297334Y-68345508D01*
X79303269Y-68348150D01*
X79303270Y-68348151D01*
X79336019Y-68362732D01*
X79476192Y-68425142D01*
X79476197Y-68425144D01*
X79661354Y-68464500D01*
X79661355Y-68464500D01*
X79850644Y-68464500D01*
X79850646Y-68464500D01*
X80035803Y-68425144D01*
X80208730Y-68348151D01*
X80247094Y-68320277D01*
X80312900Y-68296797D01*
X80380954Y-68312622D01*
X80425517Y-68355497D01*
X80459660Y-68410850D01*
X80459661Y-68410851D01*
X80473982Y-68425172D01*
X80507467Y-68486495D01*
X80502483Y-68556187D01*
X80473985Y-68600532D01*
X80460052Y-68614465D01*
X80369551Y-68761188D01*
X80369546Y-68761199D01*
X80315319Y-68924847D01*
X80305000Y-69025845D01*
X80305000Y-69125000D01*
X82254999Y-69125000D01*
X82254999Y-69025860D01*
X82254998Y-69025845D01*
X82244680Y-68924847D01*
X82190453Y-68761199D01*
X82190448Y-68761188D01*
X82099947Y-68614465D01*
X82099944Y-68614461D01*
X82086017Y-68600534D01*
X82052532Y-68539211D01*
X82057516Y-68469519D01*
X82086017Y-68425172D01*
X82100340Y-68410850D01*
X82190908Y-68264016D01*
X82245174Y-68100253D01*
X82255500Y-67999177D01*
X82255499Y-67300824D01*
X82245174Y-67199747D01*
X82190908Y-67035984D01*
X82190906Y-67035980D01*
X82189445Y-67032847D01*
X82189087Y-67030492D01*
X82188636Y-67029130D01*
X82188868Y-67029052D01*
X82178956Y-66963769D01*
X82207477Y-66899986D01*
X82265955Y-66861749D01*
X82302219Y-66856448D01*
X83738658Y-66861112D01*
X83805628Y-66881013D01*
X83825931Y-66897429D01*
X86955321Y-70026819D01*
X86988806Y-70088142D01*
X86983822Y-70157834D01*
X86941950Y-70213767D01*
X86876486Y-70238184D01*
X86867640Y-70238500D01*
X82258613Y-70238500D01*
X82191574Y-70218815D01*
X82145819Y-70166011D01*
X82135875Y-70096853D01*
X82153074Y-70049403D01*
X82190451Y-69988805D01*
X82190453Y-69988800D01*
X82244680Y-69825152D01*
X82254999Y-69724154D01*
X82255000Y-69724141D01*
X82255000Y-69625000D01*
X80305001Y-69625000D01*
X80305001Y-69724154D01*
X80315319Y-69825152D01*
X80369546Y-69988800D01*
X80369548Y-69988805D01*
X80406926Y-70049403D01*
X80425366Y-70116795D01*
X80404444Y-70183459D01*
X80350802Y-70228229D01*
X80301387Y-70238500D01*
X79932194Y-70238500D01*
X79810970Y-70262613D01*
X79810960Y-70262616D01*
X79696773Y-70309913D01*
X79696760Y-70309920D01*
X79593991Y-70378589D01*
X79593987Y-70378592D01*
X78823141Y-71149438D01*
X78761818Y-71182923D01*
X78703798Y-71178773D01*
X78703090Y-71181417D01*
X78695240Y-71179313D01*
X78582727Y-71164500D01*
X78582720Y-71164500D01*
X78357280Y-71164500D01*
X78357272Y-71164500D01*
X78270393Y-71175938D01*
X78244764Y-71179313D01*
X78244762Y-71179313D01*
X78236708Y-71180374D01*
X78236316Y-71177399D01*
X78203684Y-71177399D01*
X78203292Y-71180374D01*
X78195237Y-71179313D01*
X78195236Y-71179313D01*
X78166271Y-71175499D01*
X78082727Y-71164500D01*
X78082720Y-71164500D01*
X77857280Y-71164500D01*
X77857272Y-71164500D01*
X77770393Y-71175938D01*
X77744764Y-71179313D01*
X77744762Y-71179313D01*
X77736708Y-71180374D01*
X77736316Y-71177399D01*
X77703684Y-71177399D01*
X77703292Y-71180374D01*
X77695237Y-71179313D01*
X77695236Y-71179313D01*
X77666271Y-71175499D01*
X77582727Y-71164500D01*
X77582720Y-71164500D01*
X77357280Y-71164500D01*
X77357272Y-71164500D01*
X77270393Y-71175938D01*
X77244764Y-71179313D01*
X77244762Y-71179313D01*
X77236708Y-71180374D01*
X77236316Y-71177399D01*
X77203684Y-71177399D01*
X77203292Y-71180374D01*
X77195237Y-71179313D01*
X77195236Y-71179313D01*
X77166271Y-71175499D01*
X77082727Y-71164500D01*
X77082720Y-71164500D01*
X76857280Y-71164500D01*
X76857272Y-71164500D01*
X76770393Y-71175938D01*
X76744764Y-71179313D01*
X76744762Y-71179313D01*
X76736708Y-71180374D01*
X76736316Y-71177399D01*
X76703684Y-71177399D01*
X76703292Y-71180374D01*
X76695237Y-71179313D01*
X76695236Y-71179313D01*
X76666271Y-71175499D01*
X76582727Y-71164500D01*
X76582720Y-71164500D01*
X76357280Y-71164500D01*
X76357272Y-71164500D01*
X76244764Y-71179313D01*
X76244763Y-71179313D01*
X76104770Y-71237300D01*
X75984549Y-71329549D01*
X75892300Y-71449770D01*
X75834313Y-71589763D01*
X75834313Y-71589764D01*
X75819500Y-71702272D01*
X75819500Y-73077727D01*
X75834313Y-73190235D01*
X75836417Y-73198087D01*
X75835283Y-73198390D01*
X75842500Y-73234665D01*
X75842500Y-75007807D01*
X75866612Y-75129028D01*
X75866613Y-75129032D01*
X75866614Y-75129035D01*
X75880207Y-75161851D01*
X75889382Y-75184000D01*
X75889382Y-75184001D01*
X75913915Y-75243230D01*
X75948840Y-75295498D01*
X75948840Y-75295499D01*
X75982590Y-75346010D01*
X75982593Y-75346013D01*
X77998589Y-77362008D01*
X78063928Y-77427347D01*
X78085994Y-77449413D01*
X78085996Y-77449414D01*
X78188756Y-77518076D01*
X78188758Y-77518077D01*
X78188767Y-77518083D01*
X78213542Y-77528345D01*
X78236071Y-77537677D01*
X78278254Y-77555149D01*
X78302966Y-77565386D01*
X78424192Y-77589499D01*
X78424196Y-77589500D01*
X78424197Y-77589500D01*
X78547804Y-77589500D01*
X94600508Y-77589500D01*
X94667547Y-77609185D01*
X94713302Y-77661989D01*
X94723246Y-77731147D01*
X94694221Y-77794703D01*
X94688189Y-77801181D01*
X93269796Y-79219572D01*
X93269795Y-79219573D01*
X93173322Y-79363956D01*
X93106877Y-79524371D01*
X93106874Y-79524383D01*
X93089845Y-79609996D01*
X93081134Y-79653790D01*
X93077067Y-79674235D01*
X93073000Y-79694679D01*
X93073000Y-81544500D01*
X93053315Y-81611539D01*
X93000511Y-81657294D01*
X92949000Y-81668500D01*
X66237066Y-81668500D01*
X66211285Y-81665790D01*
X66171314Y-81657294D01*
X66134646Y-81649500D01*
X65945354Y-81649500D01*
X65912897Y-81656398D01*
X65760197Y-81688855D01*
X65760196Y-81688855D01*
X65706435Y-81712792D01*
X65637185Y-81722076D01*
X65573908Y-81692447D01*
X65536696Y-81633312D01*
X65532000Y-81599512D01*
X65532000Y-66926402D01*
X65551685Y-66859363D01*
X65604489Y-66813608D01*
X65656398Y-66802403D01*
X68449014Y-66811470D01*
G37*
%TD.AperFunction*%
%TA.AperFunction,Conductor*%
G36*
X102693539Y-71513185D02*
G01*
X102739294Y-71565989D01*
X102750500Y-71617500D01*
X102750500Y-74487534D01*
X102730815Y-74554573D01*
X102718650Y-74570506D01*
X102645466Y-74651785D01*
X102566583Y-74788415D01*
X102516016Y-74836631D01*
X102447409Y-74849854D01*
X102382544Y-74823886D01*
X102371515Y-74814096D01*
X101746013Y-74188593D01*
X101746009Y-74188590D01*
X101746008Y-74188589D01*
X101715194Y-74168000D01*
X101715192Y-74167998D01*
X101643235Y-74119918D01*
X101643236Y-74119918D01*
X101607304Y-74105035D01*
X101607302Y-74105034D01*
X101529035Y-74072614D01*
X101529027Y-74072612D01*
X101407807Y-74048500D01*
X101407803Y-74048500D01*
X93961500Y-74048500D01*
X93894461Y-74028815D01*
X93848706Y-73976011D01*
X93837500Y-73924500D01*
X93837500Y-73722023D01*
X93857185Y-73654984D01*
X93909989Y-73609229D01*
X93929411Y-73602247D01*
X93935223Y-73600688D01*
X93935236Y-73600687D01*
X94075233Y-73542698D01*
X94195451Y-73450451D01*
X94287698Y-73330233D01*
X94345687Y-73190236D01*
X94360500Y-73077720D01*
X94360500Y-71702280D01*
X94351469Y-71633684D01*
X94362234Y-71564651D01*
X94408614Y-71512395D01*
X94474408Y-71493500D01*
X102626500Y-71493500D01*
X102693539Y-71513185D01*
G37*
%TD.AperFunction*%
%TA.AperFunction,Conductor*%
G36*
X89811311Y-71513185D02*
G01*
X89857066Y-71565989D01*
X89867010Y-71635147D01*
X89837985Y-71698703D01*
X89822825Y-71712616D01*
X89822958Y-71712764D01*
X89818129Y-71717111D01*
X89691466Y-71857785D01*
X89596821Y-72021715D01*
X89596818Y-72021722D01*
X89549044Y-72168757D01*
X89538326Y-72201744D01*
X89518540Y-72390000D01*
X89538326Y-72578256D01*
X89538327Y-72578259D01*
X89596818Y-72758277D01*
X89596820Y-72758281D01*
X89596821Y-72758284D01*
X89639508Y-72832220D01*
X89655980Y-72900120D01*
X89633127Y-72966147D01*
X89578205Y-73009337D01*
X89557901Y-73015509D01*
X89382197Y-73052855D01*
X89382192Y-73052857D01*
X89209270Y-73129848D01*
X89209265Y-73129851D01*
X89056129Y-73241111D01*
X88929466Y-73381785D01*
X88834821Y-73545715D01*
X88834818Y-73545722D01*
X88778231Y-73719880D01*
X88776326Y-73725744D01*
X88756540Y-73914000D01*
X88776326Y-74102256D01*
X88776327Y-74102259D01*
X88788649Y-74140182D01*
X88790644Y-74210023D01*
X88754564Y-74269856D01*
X88691863Y-74300684D01*
X88670718Y-74302500D01*
X78797281Y-74302500D01*
X78730242Y-74282815D01*
X78709600Y-74266181D01*
X78641819Y-74198400D01*
X78608334Y-74137077D01*
X78605500Y-74110719D01*
X78605500Y-73719880D01*
X78625185Y-73652841D01*
X78677989Y-73607086D01*
X78691610Y-73602188D01*
X78695232Y-73600687D01*
X78695236Y-73600687D01*
X78835233Y-73542698D01*
X78955451Y-73450451D01*
X79047698Y-73330233D01*
X79105687Y-73190236D01*
X79120500Y-73077720D01*
X79120500Y-72678281D01*
X79140185Y-72611242D01*
X79156819Y-72590600D01*
X80217600Y-71529819D01*
X80278923Y-71496334D01*
X80305281Y-71493500D01*
X89744272Y-71493500D01*
X89811311Y-71513185D01*
G37*
%TD.AperFunction*%
%TA.AperFunction,Conductor*%
G36*
X121492631Y-71513185D02*
G01*
X121538386Y-71565989D01*
X121548530Y-71633684D01*
X121545886Y-71653770D01*
X121539500Y-71702272D01*
X121539500Y-71892500D01*
X121519815Y-71959539D01*
X121467011Y-72005294D01*
X121415500Y-72016500D01*
X120589947Y-72016500D01*
X120522908Y-71996815D01*
X120497800Y-71975476D01*
X120493871Y-71971112D01*
X120493869Y-71971111D01*
X120493867Y-71971108D01*
X120493864Y-71971106D01*
X120340734Y-71859851D01*
X120340729Y-71859848D01*
X120167807Y-71782857D01*
X120167802Y-71782855D01*
X120013311Y-71750018D01*
X119982646Y-71743500D01*
X119793354Y-71743500D01*
X119762689Y-71750018D01*
X119608197Y-71782855D01*
X119608192Y-71782857D01*
X119435270Y-71859848D01*
X119435265Y-71859851D01*
X119282129Y-71971111D01*
X119155466Y-72111785D01*
X119060821Y-72275715D01*
X119060818Y-72275722D01*
X119021235Y-72397548D01*
X119002326Y-72455744D01*
X118982540Y-72644000D01*
X119002326Y-72832256D01*
X119002327Y-72832259D01*
X119060818Y-73012277D01*
X119060821Y-73012284D01*
X119155467Y-73176216D01*
X119273095Y-73306855D01*
X119282129Y-73316888D01*
X119414618Y-73413147D01*
X119435270Y-73428151D01*
X119439922Y-73430222D01*
X119493157Y-73475473D01*
X119513477Y-73542322D01*
X119494431Y-73609545D01*
X119442064Y-73655800D01*
X119389483Y-73667500D01*
X110798298Y-73667500D01*
X110731259Y-73647815D01*
X110706148Y-73626472D01*
X110690622Y-73609229D01*
X110587871Y-73495112D01*
X110587870Y-73495111D01*
X110434734Y-73383851D01*
X110434729Y-73383848D01*
X110261807Y-73306857D01*
X110261802Y-73306855D01*
X110108798Y-73274334D01*
X110076646Y-73267500D01*
X109887354Y-73267500D01*
X109887353Y-73267500D01*
X109738157Y-73299212D01*
X109668490Y-73293896D01*
X109612757Y-73251759D01*
X109588652Y-73186179D01*
X109589437Y-73161747D01*
X109600500Y-73077720D01*
X109600500Y-71702280D01*
X109591469Y-71633684D01*
X109602234Y-71564651D01*
X109648614Y-71512395D01*
X109714408Y-71493500D01*
X121425592Y-71493500D01*
X121492631Y-71513185D01*
G37*
%TD.AperFunction*%
%TA.AperFunction,Conductor*%
G36*
X99283127Y-66911581D02*
G01*
X99350097Y-66931482D01*
X99370400Y-66947898D01*
X102449321Y-70026819D01*
X102482806Y-70088142D01*
X102477822Y-70157834D01*
X102435950Y-70213767D01*
X102370486Y-70238184D01*
X102361640Y-70238500D01*
X97498613Y-70238500D01*
X97431574Y-70218815D01*
X97385819Y-70166011D01*
X97375875Y-70096853D01*
X97393074Y-70049403D01*
X97430451Y-69988805D01*
X97430453Y-69988800D01*
X97484680Y-69825152D01*
X97494999Y-69724154D01*
X97495000Y-69724141D01*
X97495000Y-69625000D01*
X95545001Y-69625000D01*
X95545001Y-69724154D01*
X95555319Y-69825152D01*
X95609546Y-69988800D01*
X95609548Y-69988805D01*
X95646926Y-70049403D01*
X95665366Y-70116795D01*
X95644444Y-70183459D01*
X95590802Y-70228229D01*
X95541387Y-70238500D01*
X92710360Y-70238500D01*
X92643321Y-70218815D01*
X92597566Y-70166011D01*
X92587622Y-70096853D01*
X92616647Y-70033297D01*
X92622679Y-70026819D01*
X92876679Y-69772819D01*
X93191800Y-69457698D01*
X93271067Y-69320402D01*
X93277010Y-69298219D01*
X93313375Y-69238560D01*
X93376222Y-69208031D01*
X93380601Y-69207375D01*
X93442731Y-69199196D01*
X93476470Y-69201406D01*
X93476705Y-69199626D01*
X93484763Y-69200686D01*
X93484764Y-69200687D01*
X93597280Y-69215500D01*
X93597287Y-69215500D01*
X93822713Y-69215500D01*
X93822720Y-69215500D01*
X93935236Y-69200687D01*
X94075233Y-69142698D01*
X94195451Y-69050451D01*
X94287698Y-68930233D01*
X94345687Y-68790236D01*
X94360500Y-68677720D01*
X94360500Y-68401500D01*
X94380185Y-68334461D01*
X94432989Y-68288706D01*
X94484500Y-68277500D01*
X94659737Y-68277500D01*
X94726776Y-68297185D01*
X94732622Y-68301182D01*
X94797265Y-68348148D01*
X94797270Y-68348151D01*
X94970192Y-68425142D01*
X94970197Y-68425144D01*
X95155354Y-68464500D01*
X95155355Y-68464500D01*
X95344644Y-68464500D01*
X95344646Y-68464500D01*
X95529803Y-68425144D01*
X95566741Y-68408697D01*
X95635987Y-68399411D01*
X95699265Y-68429037D01*
X95736480Y-68488171D01*
X95735817Y-68558038D01*
X95704867Y-68609648D01*
X95700059Y-68614456D01*
X95700052Y-68614465D01*
X95609551Y-68761188D01*
X95609546Y-68761199D01*
X95555319Y-68924847D01*
X95545000Y-69025845D01*
X95545000Y-69125000D01*
X97494999Y-69125000D01*
X97494999Y-69025860D01*
X97494998Y-69025845D01*
X97484680Y-68924847D01*
X97430453Y-68761199D01*
X97430448Y-68761188D01*
X97339947Y-68614465D01*
X97339944Y-68614461D01*
X97326017Y-68600534D01*
X97292532Y-68539211D01*
X97297516Y-68469519D01*
X97326017Y-68425172D01*
X97340340Y-68410850D01*
X97430908Y-68264016D01*
X97485174Y-68100253D01*
X97495500Y-67999177D01*
X97495499Y-67300824D01*
X97485174Y-67199747D01*
X97441843Y-67068986D01*
X97439442Y-66999160D01*
X97475173Y-66939118D01*
X97537694Y-66907925D01*
X97559932Y-66905986D01*
X99283127Y-66911581D01*
G37*
%TD.AperFunction*%
%TA.AperFunction,Conductor*%
G36*
X114791558Y-66961933D02*
G01*
X114858528Y-66981834D01*
X114878831Y-66998250D01*
X117907400Y-70026819D01*
X117940885Y-70088142D01*
X117935901Y-70157834D01*
X117894029Y-70213767D01*
X117828565Y-70238184D01*
X117819719Y-70238500D01*
X112738613Y-70238500D01*
X112671574Y-70218815D01*
X112625819Y-70166011D01*
X112615875Y-70096853D01*
X112633074Y-70049403D01*
X112670451Y-69988805D01*
X112670453Y-69988800D01*
X112724680Y-69825152D01*
X112734999Y-69724154D01*
X112735000Y-69724141D01*
X112735000Y-69625000D01*
X110785001Y-69625000D01*
X110785001Y-69724154D01*
X110795319Y-69825152D01*
X110849546Y-69988800D01*
X110849548Y-69988805D01*
X110886926Y-70049403D01*
X110905366Y-70116795D01*
X110884444Y-70183459D01*
X110830802Y-70228229D01*
X110781387Y-70238500D01*
X107696360Y-70238500D01*
X107629321Y-70218815D01*
X107583566Y-70166011D01*
X107573622Y-70096853D01*
X107602647Y-70033297D01*
X107608679Y-70026819D01*
X107669800Y-69965698D01*
X108010498Y-69625000D01*
X108424863Y-69210634D01*
X108486184Y-69177151D01*
X108555875Y-69182135D01*
X108594302Y-69205089D01*
X108600000Y-69210086D01*
X108682730Y-69199195D01*
X108716469Y-69201415D01*
X108716705Y-69199626D01*
X108724763Y-69200686D01*
X108724764Y-69200687D01*
X108837280Y-69215500D01*
X108837287Y-69215500D01*
X109062713Y-69215500D01*
X109062720Y-69215500D01*
X109175236Y-69200687D01*
X109315233Y-69142698D01*
X109435451Y-69050451D01*
X109527698Y-68930233D01*
X109585687Y-68790236D01*
X109600500Y-68677720D01*
X109600500Y-68401500D01*
X109620185Y-68334461D01*
X109672989Y-68288706D01*
X109724500Y-68277500D01*
X109899737Y-68277500D01*
X109966776Y-68297185D01*
X109972622Y-68301182D01*
X110037265Y-68348148D01*
X110037270Y-68348151D01*
X110210192Y-68425142D01*
X110210197Y-68425144D01*
X110395354Y-68464500D01*
X110395355Y-68464500D01*
X110584644Y-68464500D01*
X110584646Y-68464500D01*
X110769803Y-68425144D01*
X110806741Y-68408697D01*
X110875987Y-68399411D01*
X110939265Y-68429037D01*
X110976480Y-68488171D01*
X110975817Y-68558038D01*
X110944867Y-68609648D01*
X110940059Y-68614456D01*
X110940052Y-68614465D01*
X110849551Y-68761188D01*
X110849546Y-68761199D01*
X110795319Y-68924847D01*
X110785000Y-69025845D01*
X110785000Y-69125000D01*
X112734999Y-69125000D01*
X112734999Y-69025860D01*
X112734998Y-69025845D01*
X112724680Y-68924847D01*
X112670453Y-68761199D01*
X112670448Y-68761188D01*
X112579947Y-68614465D01*
X112579944Y-68614461D01*
X112566017Y-68600534D01*
X112532532Y-68539211D01*
X112537516Y-68469519D01*
X112566017Y-68425172D01*
X112580340Y-68410850D01*
X112670908Y-68264016D01*
X112725174Y-68100253D01*
X112735500Y-67999177D01*
X112735499Y-67300824D01*
X112725174Y-67199747D01*
X112698257Y-67118520D01*
X112695856Y-67048695D01*
X112731587Y-66988653D01*
X112794107Y-66957459D01*
X112816348Y-66955520D01*
X114791558Y-66961933D01*
G37*
%TD.AperFunction*%
%TA.AperFunction,Conductor*%
G36*
X129607583Y-67010037D02*
G01*
X129674553Y-67029938D01*
X129694856Y-67046354D01*
X132421321Y-69772819D01*
X132454806Y-69834142D01*
X132449822Y-69903834D01*
X132407950Y-69959767D01*
X132342486Y-69984184D01*
X132333640Y-69984500D01*
X128083598Y-69984500D01*
X128016559Y-69964815D01*
X127970804Y-69912011D01*
X127960860Y-69842853D01*
X127963461Y-69831816D01*
X127963264Y-69831774D01*
X127964680Y-69825156D01*
X127974999Y-69724154D01*
X127975000Y-69724141D01*
X127975000Y-69625000D01*
X126025001Y-69625000D01*
X126025001Y-69724154D01*
X126035319Y-69825151D01*
X126036737Y-69831776D01*
X126034474Y-69832260D01*
X126036514Y-69891307D01*
X126000791Y-69951354D01*
X125938275Y-69982556D01*
X125916402Y-69984500D01*
X124398195Y-69984500D01*
X124276970Y-70008613D01*
X124276960Y-70008616D01*
X124162773Y-70055913D01*
X124162760Y-70055920D01*
X124059993Y-70124587D01*
X124032498Y-70152083D01*
X123982398Y-70202182D01*
X123921078Y-70235666D01*
X123894719Y-70238500D01*
X123190360Y-70238500D01*
X123123321Y-70218815D01*
X123077566Y-70166011D01*
X123067622Y-70096853D01*
X123096647Y-70033297D01*
X123102679Y-70026819D01*
X123356679Y-69772819D01*
X123671800Y-69457698D01*
X123751067Y-69320402D01*
X123757010Y-69298219D01*
X123793375Y-69238560D01*
X123856222Y-69208031D01*
X123860601Y-69207375D01*
X123922731Y-69199196D01*
X123956470Y-69201406D01*
X123956705Y-69199626D01*
X123964763Y-69200686D01*
X123964764Y-69200687D01*
X124077280Y-69215500D01*
X124077287Y-69215500D01*
X124302713Y-69215500D01*
X124302720Y-69215500D01*
X124415236Y-69200687D01*
X124555233Y-69142698D01*
X124675451Y-69050451D01*
X124767698Y-68930233D01*
X124825687Y-68790236D01*
X124840500Y-68677720D01*
X124840500Y-68401500D01*
X124860185Y-68334461D01*
X124912989Y-68288706D01*
X124964500Y-68277500D01*
X125139737Y-68277500D01*
X125206776Y-68297185D01*
X125212622Y-68301182D01*
X125277265Y-68348148D01*
X125277270Y-68348151D01*
X125450192Y-68425142D01*
X125450197Y-68425144D01*
X125635354Y-68464500D01*
X125635355Y-68464500D01*
X125824644Y-68464500D01*
X125824646Y-68464500D01*
X126009803Y-68425144D01*
X126046741Y-68408697D01*
X126115987Y-68399411D01*
X126179265Y-68429037D01*
X126216480Y-68488171D01*
X126215817Y-68558038D01*
X126184867Y-68609648D01*
X126180059Y-68614456D01*
X126180052Y-68614465D01*
X126089551Y-68761188D01*
X126089546Y-68761199D01*
X126035319Y-68924847D01*
X126025000Y-69025845D01*
X126025000Y-69125000D01*
X127974999Y-69125000D01*
X127974999Y-69025860D01*
X127974998Y-69025845D01*
X127964680Y-68924847D01*
X127910453Y-68761199D01*
X127910448Y-68761188D01*
X127819947Y-68614465D01*
X127819944Y-68614461D01*
X127806017Y-68600534D01*
X127772532Y-68539211D01*
X127777516Y-68469519D01*
X127806017Y-68425172D01*
X127820340Y-68410850D01*
X127910908Y-68264016D01*
X127965174Y-68100253D01*
X127975500Y-67999177D01*
X127975499Y-67300824D01*
X127965174Y-67199747D01*
X127954672Y-67168057D01*
X127952270Y-67098230D01*
X127988000Y-67038188D01*
X128050520Y-67006994D01*
X128072764Y-67005054D01*
X129607583Y-67010037D01*
G37*
%TD.AperFunction*%
%TD*%
M02*
