%TF.GenerationSoftware,KiCad,Pcbnew,8.0.3*%
%TF.CreationDate,2024-06-21T15:52:04+03:00*%
%TF.ProjectId,pm,706d2e6b-6963-4616-945f-706362585858,rev?*%
%TF.SameCoordinates,Original*%
%TF.FileFunction,Legend,Top*%
%TF.FilePolarity,Positive*%
%FSLAX46Y46*%
G04 Gerber Fmt 4.6, Leading zero omitted, Abs format (unit mm)*
G04 Created by KiCad (PCBNEW 8.0.3) date 2024-06-21 15:52:04*
%MOMM*%
%LPD*%
G01*
G04 APERTURE LIST*
%ADD10C,0.150000*%
%ADD11C,0.120000*%
G04 APERTURE END LIST*
D10*
X120596095Y-91616819D02*
X121167523Y-91616819D01*
X120881809Y-92616819D02*
X120881809Y-91616819D01*
X121500857Y-92616819D02*
X121500857Y-91616819D01*
X121500857Y-91616819D02*
X121881809Y-91616819D01*
X121881809Y-91616819D02*
X121977047Y-91664438D01*
X121977047Y-91664438D02*
X122024666Y-91712057D01*
X122024666Y-91712057D02*
X122072285Y-91807295D01*
X122072285Y-91807295D02*
X122072285Y-91950152D01*
X122072285Y-91950152D02*
X122024666Y-92045390D01*
X122024666Y-92045390D02*
X121977047Y-92093009D01*
X121977047Y-92093009D02*
X121881809Y-92140628D01*
X121881809Y-92140628D02*
X121500857Y-92140628D01*
X123024666Y-92616819D02*
X122453238Y-92616819D01*
X122738952Y-92616819D02*
X122738952Y-91616819D01*
X122738952Y-91616819D02*
X122643714Y-91759676D01*
X122643714Y-91759676D02*
X122548476Y-91854914D01*
X122548476Y-91854914D02*
X122453238Y-91902533D01*
X83010476Y-98304819D02*
X83010476Y-99019104D01*
X83010476Y-99019104D02*
X82962857Y-99161961D01*
X82962857Y-99161961D02*
X82867619Y-99257200D01*
X82867619Y-99257200D02*
X82724762Y-99304819D01*
X82724762Y-99304819D02*
X82629524Y-99304819D01*
X83439048Y-98400057D02*
X83486667Y-98352438D01*
X83486667Y-98352438D02*
X83581905Y-98304819D01*
X83581905Y-98304819D02*
X83820000Y-98304819D01*
X83820000Y-98304819D02*
X83915238Y-98352438D01*
X83915238Y-98352438D02*
X83962857Y-98400057D01*
X83962857Y-98400057D02*
X84010476Y-98495295D01*
X84010476Y-98495295D02*
X84010476Y-98590533D01*
X84010476Y-98590533D02*
X83962857Y-98733390D01*
X83962857Y-98733390D02*
X83391429Y-99304819D01*
X83391429Y-99304819D02*
X84010476Y-99304819D01*
X84962857Y-99304819D02*
X84391429Y-99304819D01*
X84677143Y-99304819D02*
X84677143Y-98304819D01*
X84677143Y-98304819D02*
X84581905Y-98447676D01*
X84581905Y-98447676D02*
X84486667Y-98542914D01*
X84486667Y-98542914D02*
X84391429Y-98590533D01*
X94003905Y-81574819D02*
X94003905Y-80574819D01*
X94003905Y-80574819D02*
X94242000Y-80574819D01*
X94242000Y-80574819D02*
X94384857Y-80622438D01*
X94384857Y-80622438D02*
X94480095Y-80717676D01*
X94480095Y-80717676D02*
X94527714Y-80812914D01*
X94527714Y-80812914D02*
X94575333Y-81003390D01*
X94575333Y-81003390D02*
X94575333Y-81146247D01*
X94575333Y-81146247D02*
X94527714Y-81336723D01*
X94527714Y-81336723D02*
X94480095Y-81431961D01*
X94480095Y-81431961D02*
X94384857Y-81527200D01*
X94384857Y-81527200D02*
X94242000Y-81574819D01*
X94242000Y-81574819D02*
X94003905Y-81574819D01*
X95527714Y-81574819D02*
X94956286Y-81574819D01*
X95242000Y-81574819D02*
X95242000Y-80574819D01*
X95242000Y-80574819D02*
X95146762Y-80717676D01*
X95146762Y-80717676D02*
X95051524Y-80812914D01*
X95051524Y-80812914D02*
X94956286Y-80860533D01*
X100023628Y-92006190D02*
X100499819Y-92006190D01*
X99499819Y-92339523D02*
X100023628Y-92006190D01*
X100023628Y-92006190D02*
X99499819Y-91672857D01*
X100499819Y-90815714D02*
X100499819Y-91387142D01*
X100499819Y-91101428D02*
X99499819Y-91101428D01*
X99499819Y-91101428D02*
X99642676Y-91196666D01*
X99642676Y-91196666D02*
X99737914Y-91291904D01*
X99737914Y-91291904D02*
X99785533Y-91387142D01*
X137851905Y-74964819D02*
X137851905Y-75774342D01*
X137851905Y-75774342D02*
X137899524Y-75869580D01*
X137899524Y-75869580D02*
X137947143Y-75917200D01*
X137947143Y-75917200D02*
X138042381Y-75964819D01*
X138042381Y-75964819D02*
X138232857Y-75964819D01*
X138232857Y-75964819D02*
X138328095Y-75917200D01*
X138328095Y-75917200D02*
X138375714Y-75869580D01*
X138375714Y-75869580D02*
X138423333Y-75774342D01*
X138423333Y-75774342D02*
X138423333Y-74964819D01*
X139423333Y-75964819D02*
X138851905Y-75964819D01*
X139137619Y-75964819D02*
X139137619Y-74964819D01*
X139137619Y-74964819D02*
X139042381Y-75107676D01*
X139042381Y-75107676D02*
X138947143Y-75202914D01*
X138947143Y-75202914D02*
X138851905Y-75250533D01*
X139804286Y-75060057D02*
X139851905Y-75012438D01*
X139851905Y-75012438D02*
X139947143Y-74964819D01*
X139947143Y-74964819D02*
X140185238Y-74964819D01*
X140185238Y-74964819D02*
X140280476Y-75012438D01*
X140280476Y-75012438D02*
X140328095Y-75060057D01*
X140328095Y-75060057D02*
X140375714Y-75155295D01*
X140375714Y-75155295D02*
X140375714Y-75250533D01*
X140375714Y-75250533D02*
X140328095Y-75393390D01*
X140328095Y-75393390D02*
X139756667Y-75964819D01*
X139756667Y-75964819D02*
X140375714Y-75964819D01*
X134377580Y-83446857D02*
X134425200Y-83494476D01*
X134425200Y-83494476D02*
X134472819Y-83637333D01*
X134472819Y-83637333D02*
X134472819Y-83732571D01*
X134472819Y-83732571D02*
X134425200Y-83875428D01*
X134425200Y-83875428D02*
X134329961Y-83970666D01*
X134329961Y-83970666D02*
X134234723Y-84018285D01*
X134234723Y-84018285D02*
X134044247Y-84065904D01*
X134044247Y-84065904D02*
X133901390Y-84065904D01*
X133901390Y-84065904D02*
X133710914Y-84018285D01*
X133710914Y-84018285D02*
X133615676Y-83970666D01*
X133615676Y-83970666D02*
X133520438Y-83875428D01*
X133520438Y-83875428D02*
X133472819Y-83732571D01*
X133472819Y-83732571D02*
X133472819Y-83637333D01*
X133472819Y-83637333D02*
X133520438Y-83494476D01*
X133520438Y-83494476D02*
X133568057Y-83446857D01*
X133568057Y-83065904D02*
X133520438Y-83018285D01*
X133520438Y-83018285D02*
X133472819Y-82923047D01*
X133472819Y-82923047D02*
X133472819Y-82684952D01*
X133472819Y-82684952D02*
X133520438Y-82589714D01*
X133520438Y-82589714D02*
X133568057Y-82542095D01*
X133568057Y-82542095D02*
X133663295Y-82494476D01*
X133663295Y-82494476D02*
X133758533Y-82494476D01*
X133758533Y-82494476D02*
X133901390Y-82542095D01*
X133901390Y-82542095D02*
X134472819Y-83113523D01*
X134472819Y-83113523D02*
X134472819Y-82494476D01*
X133472819Y-81637333D02*
X133472819Y-81827809D01*
X133472819Y-81827809D02*
X133520438Y-81923047D01*
X133520438Y-81923047D02*
X133568057Y-81970666D01*
X133568057Y-81970666D02*
X133710914Y-82065904D01*
X133710914Y-82065904D02*
X133901390Y-82113523D01*
X133901390Y-82113523D02*
X134282342Y-82113523D01*
X134282342Y-82113523D02*
X134377580Y-82065904D01*
X134377580Y-82065904D02*
X134425200Y-82018285D01*
X134425200Y-82018285D02*
X134472819Y-81923047D01*
X134472819Y-81923047D02*
X134472819Y-81732571D01*
X134472819Y-81732571D02*
X134425200Y-81637333D01*
X134425200Y-81637333D02*
X134377580Y-81589714D01*
X134377580Y-81589714D02*
X134282342Y-81542095D01*
X134282342Y-81542095D02*
X134044247Y-81542095D01*
X134044247Y-81542095D02*
X133949009Y-81589714D01*
X133949009Y-81589714D02*
X133901390Y-81637333D01*
X133901390Y-81637333D02*
X133853771Y-81732571D01*
X133853771Y-81732571D02*
X133853771Y-81923047D01*
X133853771Y-81923047D02*
X133901390Y-82018285D01*
X133901390Y-82018285D02*
X133949009Y-82065904D01*
X133949009Y-82065904D02*
X134044247Y-82113523D01*
X128219580Y-83317857D02*
X128267200Y-83365476D01*
X128267200Y-83365476D02*
X128314819Y-83508333D01*
X128314819Y-83508333D02*
X128314819Y-83603571D01*
X128314819Y-83603571D02*
X128267200Y-83746428D01*
X128267200Y-83746428D02*
X128171961Y-83841666D01*
X128171961Y-83841666D02*
X128076723Y-83889285D01*
X128076723Y-83889285D02*
X127886247Y-83936904D01*
X127886247Y-83936904D02*
X127743390Y-83936904D01*
X127743390Y-83936904D02*
X127552914Y-83889285D01*
X127552914Y-83889285D02*
X127457676Y-83841666D01*
X127457676Y-83841666D02*
X127362438Y-83746428D01*
X127362438Y-83746428D02*
X127314819Y-83603571D01*
X127314819Y-83603571D02*
X127314819Y-83508333D01*
X127314819Y-83508333D02*
X127362438Y-83365476D01*
X127362438Y-83365476D02*
X127410057Y-83317857D01*
X127410057Y-82936904D02*
X127362438Y-82889285D01*
X127362438Y-82889285D02*
X127314819Y-82794047D01*
X127314819Y-82794047D02*
X127314819Y-82555952D01*
X127314819Y-82555952D02*
X127362438Y-82460714D01*
X127362438Y-82460714D02*
X127410057Y-82413095D01*
X127410057Y-82413095D02*
X127505295Y-82365476D01*
X127505295Y-82365476D02*
X127600533Y-82365476D01*
X127600533Y-82365476D02*
X127743390Y-82413095D01*
X127743390Y-82413095D02*
X128314819Y-82984523D01*
X128314819Y-82984523D02*
X128314819Y-82365476D01*
X127314819Y-81460714D02*
X127314819Y-81936904D01*
X127314819Y-81936904D02*
X127791009Y-81984523D01*
X127791009Y-81984523D02*
X127743390Y-81936904D01*
X127743390Y-81936904D02*
X127695771Y-81841666D01*
X127695771Y-81841666D02*
X127695771Y-81603571D01*
X127695771Y-81603571D02*
X127743390Y-81508333D01*
X127743390Y-81508333D02*
X127791009Y-81460714D01*
X127791009Y-81460714D02*
X127886247Y-81413095D01*
X127886247Y-81413095D02*
X128124342Y-81413095D01*
X128124342Y-81413095D02*
X128219580Y-81460714D01*
X128219580Y-81460714D02*
X128267200Y-81508333D01*
X128267200Y-81508333D02*
X128314819Y-81603571D01*
X128314819Y-81603571D02*
X128314819Y-81841666D01*
X128314819Y-81841666D02*
X128267200Y-81936904D01*
X128267200Y-81936904D02*
X128219580Y-81984523D01*
X83069580Y-68679166D02*
X83117200Y-68726785D01*
X83117200Y-68726785D02*
X83164819Y-68869642D01*
X83164819Y-68869642D02*
X83164819Y-68964880D01*
X83164819Y-68964880D02*
X83117200Y-69107737D01*
X83117200Y-69107737D02*
X83021961Y-69202975D01*
X83021961Y-69202975D02*
X82926723Y-69250594D01*
X82926723Y-69250594D02*
X82736247Y-69298213D01*
X82736247Y-69298213D02*
X82593390Y-69298213D01*
X82593390Y-69298213D02*
X82402914Y-69250594D01*
X82402914Y-69250594D02*
X82307676Y-69202975D01*
X82307676Y-69202975D02*
X82212438Y-69107737D01*
X82212438Y-69107737D02*
X82164819Y-68964880D01*
X82164819Y-68964880D02*
X82164819Y-68869642D01*
X82164819Y-68869642D02*
X82212438Y-68726785D01*
X82212438Y-68726785D02*
X82260057Y-68679166D01*
X82164819Y-67774404D02*
X82164819Y-68250594D01*
X82164819Y-68250594D02*
X82641009Y-68298213D01*
X82641009Y-68298213D02*
X82593390Y-68250594D01*
X82593390Y-68250594D02*
X82545771Y-68155356D01*
X82545771Y-68155356D02*
X82545771Y-67917261D01*
X82545771Y-67917261D02*
X82593390Y-67822023D01*
X82593390Y-67822023D02*
X82641009Y-67774404D01*
X82641009Y-67774404D02*
X82736247Y-67726785D01*
X82736247Y-67726785D02*
X82974342Y-67726785D01*
X82974342Y-67726785D02*
X83069580Y-67774404D01*
X83069580Y-67774404D02*
X83117200Y-67822023D01*
X83117200Y-67822023D02*
X83164819Y-67917261D01*
X83164819Y-67917261D02*
X83164819Y-68155356D01*
X83164819Y-68155356D02*
X83117200Y-68250594D01*
X83117200Y-68250594D02*
X83069580Y-68298213D01*
X110689580Y-112334166D02*
X110737200Y-112381785D01*
X110737200Y-112381785D02*
X110784819Y-112524642D01*
X110784819Y-112524642D02*
X110784819Y-112619880D01*
X110784819Y-112619880D02*
X110737200Y-112762737D01*
X110737200Y-112762737D02*
X110641961Y-112857975D01*
X110641961Y-112857975D02*
X110546723Y-112905594D01*
X110546723Y-112905594D02*
X110356247Y-112953213D01*
X110356247Y-112953213D02*
X110213390Y-112953213D01*
X110213390Y-112953213D02*
X110022914Y-112905594D01*
X110022914Y-112905594D02*
X109927676Y-112857975D01*
X109927676Y-112857975D02*
X109832438Y-112762737D01*
X109832438Y-112762737D02*
X109784819Y-112619880D01*
X109784819Y-112619880D02*
X109784819Y-112524642D01*
X109784819Y-112524642D02*
X109832438Y-112381785D01*
X109832438Y-112381785D02*
X109880057Y-112334166D01*
X110213390Y-111762737D02*
X110165771Y-111857975D01*
X110165771Y-111857975D02*
X110118152Y-111905594D01*
X110118152Y-111905594D02*
X110022914Y-111953213D01*
X110022914Y-111953213D02*
X109975295Y-111953213D01*
X109975295Y-111953213D02*
X109880057Y-111905594D01*
X109880057Y-111905594D02*
X109832438Y-111857975D01*
X109832438Y-111857975D02*
X109784819Y-111762737D01*
X109784819Y-111762737D02*
X109784819Y-111572261D01*
X109784819Y-111572261D02*
X109832438Y-111477023D01*
X109832438Y-111477023D02*
X109880057Y-111429404D01*
X109880057Y-111429404D02*
X109975295Y-111381785D01*
X109975295Y-111381785D02*
X110022914Y-111381785D01*
X110022914Y-111381785D02*
X110118152Y-111429404D01*
X110118152Y-111429404D02*
X110165771Y-111477023D01*
X110165771Y-111477023D02*
X110213390Y-111572261D01*
X110213390Y-111572261D02*
X110213390Y-111762737D01*
X110213390Y-111762737D02*
X110261009Y-111857975D01*
X110261009Y-111857975D02*
X110308628Y-111905594D01*
X110308628Y-111905594D02*
X110403866Y-111953213D01*
X110403866Y-111953213D02*
X110594342Y-111953213D01*
X110594342Y-111953213D02*
X110689580Y-111905594D01*
X110689580Y-111905594D02*
X110737200Y-111857975D01*
X110737200Y-111857975D02*
X110784819Y-111762737D01*
X110784819Y-111762737D02*
X110784819Y-111572261D01*
X110784819Y-111572261D02*
X110737200Y-111477023D01*
X110737200Y-111477023D02*
X110689580Y-111429404D01*
X110689580Y-111429404D02*
X110594342Y-111381785D01*
X110594342Y-111381785D02*
X110403866Y-111381785D01*
X110403866Y-111381785D02*
X110308628Y-111429404D01*
X110308628Y-111429404D02*
X110261009Y-111477023D01*
X110261009Y-111477023D02*
X110213390Y-111572261D01*
X120194819Y-70951904D02*
X121004342Y-70951904D01*
X121004342Y-70951904D02*
X121099580Y-70904285D01*
X121099580Y-70904285D02*
X121147200Y-70856666D01*
X121147200Y-70856666D02*
X121194819Y-70761428D01*
X121194819Y-70761428D02*
X121194819Y-70570952D01*
X121194819Y-70570952D02*
X121147200Y-70475714D01*
X121147200Y-70475714D02*
X121099580Y-70428095D01*
X121099580Y-70428095D02*
X121004342Y-70380476D01*
X121004342Y-70380476D02*
X120194819Y-70380476D01*
X120528152Y-69475714D02*
X121194819Y-69475714D01*
X120147200Y-69713809D02*
X120861485Y-69951904D01*
X120861485Y-69951904D02*
X120861485Y-69332857D01*
X134123580Y-79382857D02*
X134171200Y-79430476D01*
X134171200Y-79430476D02*
X134218819Y-79573333D01*
X134218819Y-79573333D02*
X134218819Y-79668571D01*
X134218819Y-79668571D02*
X134171200Y-79811428D01*
X134171200Y-79811428D02*
X134075961Y-79906666D01*
X134075961Y-79906666D02*
X133980723Y-79954285D01*
X133980723Y-79954285D02*
X133790247Y-80001904D01*
X133790247Y-80001904D02*
X133647390Y-80001904D01*
X133647390Y-80001904D02*
X133456914Y-79954285D01*
X133456914Y-79954285D02*
X133361676Y-79906666D01*
X133361676Y-79906666D02*
X133266438Y-79811428D01*
X133266438Y-79811428D02*
X133218819Y-79668571D01*
X133218819Y-79668571D02*
X133218819Y-79573333D01*
X133218819Y-79573333D02*
X133266438Y-79430476D01*
X133266438Y-79430476D02*
X133314057Y-79382857D01*
X134218819Y-78430476D02*
X134218819Y-79001904D01*
X134218819Y-78716190D02*
X133218819Y-78716190D01*
X133218819Y-78716190D02*
X133361676Y-78811428D01*
X133361676Y-78811428D02*
X133456914Y-78906666D01*
X133456914Y-78906666D02*
X133504533Y-79001904D01*
X133647390Y-77859047D02*
X133599771Y-77954285D01*
X133599771Y-77954285D02*
X133552152Y-78001904D01*
X133552152Y-78001904D02*
X133456914Y-78049523D01*
X133456914Y-78049523D02*
X133409295Y-78049523D01*
X133409295Y-78049523D02*
X133314057Y-78001904D01*
X133314057Y-78001904D02*
X133266438Y-77954285D01*
X133266438Y-77954285D02*
X133218819Y-77859047D01*
X133218819Y-77859047D02*
X133218819Y-77668571D01*
X133218819Y-77668571D02*
X133266438Y-77573333D01*
X133266438Y-77573333D02*
X133314057Y-77525714D01*
X133314057Y-77525714D02*
X133409295Y-77478095D01*
X133409295Y-77478095D02*
X133456914Y-77478095D01*
X133456914Y-77478095D02*
X133552152Y-77525714D01*
X133552152Y-77525714D02*
X133599771Y-77573333D01*
X133599771Y-77573333D02*
X133647390Y-77668571D01*
X133647390Y-77668571D02*
X133647390Y-77859047D01*
X133647390Y-77859047D02*
X133695009Y-77954285D01*
X133695009Y-77954285D02*
X133742628Y-78001904D01*
X133742628Y-78001904D02*
X133837866Y-78049523D01*
X133837866Y-78049523D02*
X134028342Y-78049523D01*
X134028342Y-78049523D02*
X134123580Y-78001904D01*
X134123580Y-78001904D02*
X134171200Y-77954285D01*
X134171200Y-77954285D02*
X134218819Y-77859047D01*
X134218819Y-77859047D02*
X134218819Y-77668571D01*
X134218819Y-77668571D02*
X134171200Y-77573333D01*
X134171200Y-77573333D02*
X134123580Y-77525714D01*
X134123580Y-77525714D02*
X134028342Y-77478095D01*
X134028342Y-77478095D02*
X133837866Y-77478095D01*
X133837866Y-77478095D02*
X133742628Y-77525714D01*
X133742628Y-77525714D02*
X133695009Y-77573333D01*
X133695009Y-77573333D02*
X133647390Y-77668571D01*
X144029580Y-68679166D02*
X144077200Y-68726785D01*
X144077200Y-68726785D02*
X144124819Y-68869642D01*
X144124819Y-68869642D02*
X144124819Y-68964880D01*
X144124819Y-68964880D02*
X144077200Y-69107737D01*
X144077200Y-69107737D02*
X143981961Y-69202975D01*
X143981961Y-69202975D02*
X143886723Y-69250594D01*
X143886723Y-69250594D02*
X143696247Y-69298213D01*
X143696247Y-69298213D02*
X143553390Y-69298213D01*
X143553390Y-69298213D02*
X143362914Y-69250594D01*
X143362914Y-69250594D02*
X143267676Y-69202975D01*
X143267676Y-69202975D02*
X143172438Y-69107737D01*
X143172438Y-69107737D02*
X143124819Y-68964880D01*
X143124819Y-68964880D02*
X143124819Y-68869642D01*
X143124819Y-68869642D02*
X143172438Y-68726785D01*
X143172438Y-68726785D02*
X143220057Y-68679166D01*
X144124819Y-67726785D02*
X144124819Y-68298213D01*
X144124819Y-68012499D02*
X143124819Y-68012499D01*
X143124819Y-68012499D02*
X143267676Y-68107737D01*
X143267676Y-68107737D02*
X143362914Y-68202975D01*
X143362914Y-68202975D02*
X143410533Y-68298213D01*
X88090476Y-123444819D02*
X88090476Y-124159104D01*
X88090476Y-124159104D02*
X88042857Y-124301961D01*
X88042857Y-124301961D02*
X87947619Y-124397200D01*
X87947619Y-124397200D02*
X87804762Y-124444819D01*
X87804762Y-124444819D02*
X87709524Y-124444819D01*
X89090476Y-124444819D02*
X88519048Y-124444819D01*
X88804762Y-124444819D02*
X88804762Y-123444819D01*
X88804762Y-123444819D02*
X88709524Y-123587676D01*
X88709524Y-123587676D02*
X88614286Y-123682914D01*
X88614286Y-123682914D02*
X88519048Y-123730533D01*
X89947619Y-123778152D02*
X89947619Y-124444819D01*
X89709524Y-123397200D02*
X89471429Y-124111485D01*
X89471429Y-124111485D02*
X90090476Y-124111485D01*
X119046666Y-55804819D02*
X119046666Y-56519104D01*
X119046666Y-56519104D02*
X118999047Y-56661961D01*
X118999047Y-56661961D02*
X118903809Y-56757200D01*
X118903809Y-56757200D02*
X118760952Y-56804819D01*
X118760952Y-56804819D02*
X118665714Y-56804819D01*
X119665714Y-56233390D02*
X119570476Y-56185771D01*
X119570476Y-56185771D02*
X119522857Y-56138152D01*
X119522857Y-56138152D02*
X119475238Y-56042914D01*
X119475238Y-56042914D02*
X119475238Y-55995295D01*
X119475238Y-55995295D02*
X119522857Y-55900057D01*
X119522857Y-55900057D02*
X119570476Y-55852438D01*
X119570476Y-55852438D02*
X119665714Y-55804819D01*
X119665714Y-55804819D02*
X119856190Y-55804819D01*
X119856190Y-55804819D02*
X119951428Y-55852438D01*
X119951428Y-55852438D02*
X119999047Y-55900057D01*
X119999047Y-55900057D02*
X120046666Y-55995295D01*
X120046666Y-55995295D02*
X120046666Y-56042914D01*
X120046666Y-56042914D02*
X119999047Y-56138152D01*
X119999047Y-56138152D02*
X119951428Y-56185771D01*
X119951428Y-56185771D02*
X119856190Y-56233390D01*
X119856190Y-56233390D02*
X119665714Y-56233390D01*
X119665714Y-56233390D02*
X119570476Y-56281009D01*
X119570476Y-56281009D02*
X119522857Y-56328628D01*
X119522857Y-56328628D02*
X119475238Y-56423866D01*
X119475238Y-56423866D02*
X119475238Y-56614342D01*
X119475238Y-56614342D02*
X119522857Y-56709580D01*
X119522857Y-56709580D02*
X119570476Y-56757200D01*
X119570476Y-56757200D02*
X119665714Y-56804819D01*
X119665714Y-56804819D02*
X119856190Y-56804819D01*
X119856190Y-56804819D02*
X119951428Y-56757200D01*
X119951428Y-56757200D02*
X119999047Y-56709580D01*
X119999047Y-56709580D02*
X120046666Y-56614342D01*
X120046666Y-56614342D02*
X120046666Y-56423866D01*
X120046666Y-56423866D02*
X119999047Y-56328628D01*
X119999047Y-56328628D02*
X119951428Y-56281009D01*
X119951428Y-56281009D02*
X119856190Y-56233390D01*
X125929580Y-112334166D02*
X125977200Y-112381785D01*
X125977200Y-112381785D02*
X126024819Y-112524642D01*
X126024819Y-112524642D02*
X126024819Y-112619880D01*
X126024819Y-112619880D02*
X125977200Y-112762737D01*
X125977200Y-112762737D02*
X125881961Y-112857975D01*
X125881961Y-112857975D02*
X125786723Y-112905594D01*
X125786723Y-112905594D02*
X125596247Y-112953213D01*
X125596247Y-112953213D02*
X125453390Y-112953213D01*
X125453390Y-112953213D02*
X125262914Y-112905594D01*
X125262914Y-112905594D02*
X125167676Y-112857975D01*
X125167676Y-112857975D02*
X125072438Y-112762737D01*
X125072438Y-112762737D02*
X125024819Y-112619880D01*
X125024819Y-112619880D02*
X125024819Y-112524642D01*
X125024819Y-112524642D02*
X125072438Y-112381785D01*
X125072438Y-112381785D02*
X125120057Y-112334166D01*
X125024819Y-112000832D02*
X125024819Y-111334166D01*
X125024819Y-111334166D02*
X126024819Y-111762737D01*
X103330476Y-123444819D02*
X103330476Y-124159104D01*
X103330476Y-124159104D02*
X103282857Y-124301961D01*
X103282857Y-124301961D02*
X103187619Y-124397200D01*
X103187619Y-124397200D02*
X103044762Y-124444819D01*
X103044762Y-124444819D02*
X102949524Y-124444819D01*
X104330476Y-124444819D02*
X103759048Y-124444819D01*
X104044762Y-124444819D02*
X104044762Y-123444819D01*
X104044762Y-123444819D02*
X103949524Y-123587676D01*
X103949524Y-123587676D02*
X103854286Y-123682914D01*
X103854286Y-123682914D02*
X103759048Y-123730533D01*
X105187619Y-123444819D02*
X104997143Y-123444819D01*
X104997143Y-123444819D02*
X104901905Y-123492438D01*
X104901905Y-123492438D02*
X104854286Y-123540057D01*
X104854286Y-123540057D02*
X104759048Y-123682914D01*
X104759048Y-123682914D02*
X104711429Y-123873390D01*
X104711429Y-123873390D02*
X104711429Y-124254342D01*
X104711429Y-124254342D02*
X104759048Y-124349580D01*
X104759048Y-124349580D02*
X104806667Y-124397200D01*
X104806667Y-124397200D02*
X104901905Y-124444819D01*
X104901905Y-124444819D02*
X105092381Y-124444819D01*
X105092381Y-124444819D02*
X105187619Y-124397200D01*
X105187619Y-124397200D02*
X105235238Y-124349580D01*
X105235238Y-124349580D02*
X105282857Y-124254342D01*
X105282857Y-124254342D02*
X105282857Y-124016247D01*
X105282857Y-124016247D02*
X105235238Y-123921009D01*
X105235238Y-123921009D02*
X105187619Y-123873390D01*
X105187619Y-123873390D02*
X105092381Y-123825771D01*
X105092381Y-123825771D02*
X104901905Y-123825771D01*
X104901905Y-123825771D02*
X104806667Y-123873390D01*
X104806667Y-123873390D02*
X104759048Y-123921009D01*
X104759048Y-123921009D02*
X104711429Y-124016247D01*
X88144819Y-64673333D02*
X88859104Y-64673333D01*
X88859104Y-64673333D02*
X89001961Y-64720952D01*
X89001961Y-64720952D02*
X89097200Y-64816190D01*
X89097200Y-64816190D02*
X89144819Y-64959047D01*
X89144819Y-64959047D02*
X89144819Y-65054285D01*
X89144819Y-64197142D02*
X88144819Y-64197142D01*
X88144819Y-64197142D02*
X88144819Y-63816190D01*
X88144819Y-63816190D02*
X88192438Y-63720952D01*
X88192438Y-63720952D02*
X88240057Y-63673333D01*
X88240057Y-63673333D02*
X88335295Y-63625714D01*
X88335295Y-63625714D02*
X88478152Y-63625714D01*
X88478152Y-63625714D02*
X88573390Y-63673333D01*
X88573390Y-63673333D02*
X88621009Y-63720952D01*
X88621009Y-63720952D02*
X88668628Y-63816190D01*
X88668628Y-63816190D02*
X88668628Y-64197142D01*
X88240057Y-63244761D02*
X88192438Y-63197142D01*
X88192438Y-63197142D02*
X88144819Y-63101904D01*
X88144819Y-63101904D02*
X88144819Y-62863809D01*
X88144819Y-62863809D02*
X88192438Y-62768571D01*
X88192438Y-62768571D02*
X88240057Y-62720952D01*
X88240057Y-62720952D02*
X88335295Y-62673333D01*
X88335295Y-62673333D02*
X88430533Y-62673333D01*
X88430533Y-62673333D02*
X88573390Y-62720952D01*
X88573390Y-62720952D02*
X89144819Y-63292380D01*
X89144819Y-63292380D02*
X89144819Y-62673333D01*
X88564819Y-117673333D02*
X89279104Y-117673333D01*
X89279104Y-117673333D02*
X89421961Y-117720952D01*
X89421961Y-117720952D02*
X89517200Y-117816190D01*
X89517200Y-117816190D02*
X89564819Y-117959047D01*
X89564819Y-117959047D02*
X89564819Y-118054285D01*
X89564819Y-117197142D02*
X88564819Y-117197142D01*
X88564819Y-117197142D02*
X88564819Y-116816190D01*
X88564819Y-116816190D02*
X88612438Y-116720952D01*
X88612438Y-116720952D02*
X88660057Y-116673333D01*
X88660057Y-116673333D02*
X88755295Y-116625714D01*
X88755295Y-116625714D02*
X88898152Y-116625714D01*
X88898152Y-116625714D02*
X88993390Y-116673333D01*
X88993390Y-116673333D02*
X89041009Y-116720952D01*
X89041009Y-116720952D02*
X89088628Y-116816190D01*
X89088628Y-116816190D02*
X89088628Y-117197142D01*
X88564819Y-116292380D02*
X88564819Y-115625714D01*
X88564819Y-115625714D02*
X89564819Y-116054285D01*
X137867580Y-104682357D02*
X137915200Y-104729976D01*
X137915200Y-104729976D02*
X137962819Y-104872833D01*
X137962819Y-104872833D02*
X137962819Y-104968071D01*
X137962819Y-104968071D02*
X137915200Y-105110928D01*
X137915200Y-105110928D02*
X137819961Y-105206166D01*
X137819961Y-105206166D02*
X137724723Y-105253785D01*
X137724723Y-105253785D02*
X137534247Y-105301404D01*
X137534247Y-105301404D02*
X137391390Y-105301404D01*
X137391390Y-105301404D02*
X137200914Y-105253785D01*
X137200914Y-105253785D02*
X137105676Y-105206166D01*
X137105676Y-105206166D02*
X137010438Y-105110928D01*
X137010438Y-105110928D02*
X136962819Y-104968071D01*
X136962819Y-104968071D02*
X136962819Y-104872833D01*
X136962819Y-104872833D02*
X137010438Y-104729976D01*
X137010438Y-104729976D02*
X137058057Y-104682357D01*
X137962819Y-103729976D02*
X137962819Y-104301404D01*
X137962819Y-104015690D02*
X136962819Y-104015690D01*
X136962819Y-104015690D02*
X137105676Y-104110928D01*
X137105676Y-104110928D02*
X137200914Y-104206166D01*
X137200914Y-104206166D02*
X137248533Y-104301404D01*
X137962819Y-103253785D02*
X137962819Y-103063309D01*
X137962819Y-103063309D02*
X137915200Y-102968071D01*
X137915200Y-102968071D02*
X137867580Y-102920452D01*
X137867580Y-102920452D02*
X137724723Y-102825214D01*
X137724723Y-102825214D02*
X137534247Y-102777595D01*
X137534247Y-102777595D02*
X137153295Y-102777595D01*
X137153295Y-102777595D02*
X137058057Y-102825214D01*
X137058057Y-102825214D02*
X137010438Y-102872833D01*
X137010438Y-102872833D02*
X136962819Y-102968071D01*
X136962819Y-102968071D02*
X136962819Y-103158547D01*
X136962819Y-103158547D02*
X137010438Y-103253785D01*
X137010438Y-103253785D02*
X137058057Y-103301404D01*
X137058057Y-103301404D02*
X137153295Y-103349023D01*
X137153295Y-103349023D02*
X137391390Y-103349023D01*
X137391390Y-103349023D02*
X137486628Y-103301404D01*
X137486628Y-103301404D02*
X137534247Y-103253785D01*
X137534247Y-103253785D02*
X137581866Y-103158547D01*
X137581866Y-103158547D02*
X137581866Y-102968071D01*
X137581866Y-102968071D02*
X137534247Y-102872833D01*
X137534247Y-102872833D02*
X137486628Y-102825214D01*
X137486628Y-102825214D02*
X137391390Y-102777595D01*
X103384819Y-64673333D02*
X104099104Y-64673333D01*
X104099104Y-64673333D02*
X104241961Y-64720952D01*
X104241961Y-64720952D02*
X104337200Y-64816190D01*
X104337200Y-64816190D02*
X104384819Y-64959047D01*
X104384819Y-64959047D02*
X104384819Y-65054285D01*
X104384819Y-64197142D02*
X103384819Y-64197142D01*
X103384819Y-64197142D02*
X103384819Y-63816190D01*
X103384819Y-63816190D02*
X103432438Y-63720952D01*
X103432438Y-63720952D02*
X103480057Y-63673333D01*
X103480057Y-63673333D02*
X103575295Y-63625714D01*
X103575295Y-63625714D02*
X103718152Y-63625714D01*
X103718152Y-63625714D02*
X103813390Y-63673333D01*
X103813390Y-63673333D02*
X103861009Y-63720952D01*
X103861009Y-63720952D02*
X103908628Y-63816190D01*
X103908628Y-63816190D02*
X103908628Y-64197142D01*
X103384819Y-63292380D02*
X103384819Y-62673333D01*
X103384819Y-62673333D02*
X103765771Y-63006666D01*
X103765771Y-63006666D02*
X103765771Y-62863809D01*
X103765771Y-62863809D02*
X103813390Y-62768571D01*
X103813390Y-62768571D02*
X103861009Y-62720952D01*
X103861009Y-62720952D02*
X103956247Y-62673333D01*
X103956247Y-62673333D02*
X104194342Y-62673333D01*
X104194342Y-62673333D02*
X104289580Y-62720952D01*
X104289580Y-62720952D02*
X104337200Y-62768571D01*
X104337200Y-62768571D02*
X104384819Y-62863809D01*
X104384819Y-62863809D02*
X104384819Y-63149523D01*
X104384819Y-63149523D02*
X104337200Y-63244761D01*
X104337200Y-63244761D02*
X104289580Y-63292380D01*
X115683333Y-119114819D02*
X115350000Y-118638628D01*
X115111905Y-119114819D02*
X115111905Y-118114819D01*
X115111905Y-118114819D02*
X115492857Y-118114819D01*
X115492857Y-118114819D02*
X115588095Y-118162438D01*
X115588095Y-118162438D02*
X115635714Y-118210057D01*
X115635714Y-118210057D02*
X115683333Y-118305295D01*
X115683333Y-118305295D02*
X115683333Y-118448152D01*
X115683333Y-118448152D02*
X115635714Y-118543390D01*
X115635714Y-118543390D02*
X115588095Y-118591009D01*
X115588095Y-118591009D02*
X115492857Y-118638628D01*
X115492857Y-118638628D02*
X115111905Y-118638628D01*
X116159524Y-119114819D02*
X116350000Y-119114819D01*
X116350000Y-119114819D02*
X116445238Y-119067200D01*
X116445238Y-119067200D02*
X116492857Y-119019580D01*
X116492857Y-119019580D02*
X116588095Y-118876723D01*
X116588095Y-118876723D02*
X116635714Y-118686247D01*
X116635714Y-118686247D02*
X116635714Y-118305295D01*
X116635714Y-118305295D02*
X116588095Y-118210057D01*
X116588095Y-118210057D02*
X116540476Y-118162438D01*
X116540476Y-118162438D02*
X116445238Y-118114819D01*
X116445238Y-118114819D02*
X116254762Y-118114819D01*
X116254762Y-118114819D02*
X116159524Y-118162438D01*
X116159524Y-118162438D02*
X116111905Y-118210057D01*
X116111905Y-118210057D02*
X116064286Y-118305295D01*
X116064286Y-118305295D02*
X116064286Y-118543390D01*
X116064286Y-118543390D02*
X116111905Y-118638628D01*
X116111905Y-118638628D02*
X116159524Y-118686247D01*
X116159524Y-118686247D02*
X116254762Y-118733866D01*
X116254762Y-118733866D02*
X116445238Y-118733866D01*
X116445238Y-118733866D02*
X116540476Y-118686247D01*
X116540476Y-118686247D02*
X116588095Y-118638628D01*
X116588095Y-118638628D02*
X116635714Y-118543390D01*
X104954819Y-70951904D02*
X105764342Y-70951904D01*
X105764342Y-70951904D02*
X105859580Y-70904285D01*
X105859580Y-70904285D02*
X105907200Y-70856666D01*
X105907200Y-70856666D02*
X105954819Y-70761428D01*
X105954819Y-70761428D02*
X105954819Y-70570952D01*
X105954819Y-70570952D02*
X105907200Y-70475714D01*
X105907200Y-70475714D02*
X105859580Y-70428095D01*
X105859580Y-70428095D02*
X105764342Y-70380476D01*
X105764342Y-70380476D02*
X104954819Y-70380476D01*
X104954819Y-69999523D02*
X104954819Y-69380476D01*
X104954819Y-69380476D02*
X105335771Y-69713809D01*
X105335771Y-69713809D02*
X105335771Y-69570952D01*
X105335771Y-69570952D02*
X105383390Y-69475714D01*
X105383390Y-69475714D02*
X105431009Y-69428095D01*
X105431009Y-69428095D02*
X105526247Y-69380476D01*
X105526247Y-69380476D02*
X105764342Y-69380476D01*
X105764342Y-69380476D02*
X105859580Y-69428095D01*
X105859580Y-69428095D02*
X105907200Y-69475714D01*
X105907200Y-69475714D02*
X105954819Y-69570952D01*
X105954819Y-69570952D02*
X105954819Y-69856666D01*
X105954819Y-69856666D02*
X105907200Y-69951904D01*
X105907200Y-69951904D02*
X105859580Y-69999523D01*
X72904819Y-64673333D02*
X73619104Y-64673333D01*
X73619104Y-64673333D02*
X73761961Y-64720952D01*
X73761961Y-64720952D02*
X73857200Y-64816190D01*
X73857200Y-64816190D02*
X73904819Y-64959047D01*
X73904819Y-64959047D02*
X73904819Y-65054285D01*
X73904819Y-64197142D02*
X72904819Y-64197142D01*
X72904819Y-64197142D02*
X72904819Y-63816190D01*
X72904819Y-63816190D02*
X72952438Y-63720952D01*
X72952438Y-63720952D02*
X73000057Y-63673333D01*
X73000057Y-63673333D02*
X73095295Y-63625714D01*
X73095295Y-63625714D02*
X73238152Y-63625714D01*
X73238152Y-63625714D02*
X73333390Y-63673333D01*
X73333390Y-63673333D02*
X73381009Y-63720952D01*
X73381009Y-63720952D02*
X73428628Y-63816190D01*
X73428628Y-63816190D02*
X73428628Y-64197142D01*
X73904819Y-62673333D02*
X73904819Y-63244761D01*
X73904819Y-62959047D02*
X72904819Y-62959047D01*
X72904819Y-62959047D02*
X73047676Y-63054285D01*
X73047676Y-63054285D02*
X73142914Y-63149523D01*
X73142914Y-63149523D02*
X73190533Y-63244761D01*
X102234819Y-111251904D02*
X103044342Y-111251904D01*
X103044342Y-111251904D02*
X103139580Y-111204285D01*
X103139580Y-111204285D02*
X103187200Y-111156666D01*
X103187200Y-111156666D02*
X103234819Y-111061428D01*
X103234819Y-111061428D02*
X103234819Y-110870952D01*
X103234819Y-110870952D02*
X103187200Y-110775714D01*
X103187200Y-110775714D02*
X103139580Y-110728095D01*
X103139580Y-110728095D02*
X103044342Y-110680476D01*
X103044342Y-110680476D02*
X102234819Y-110680476D01*
X102663390Y-110061428D02*
X102615771Y-110156666D01*
X102615771Y-110156666D02*
X102568152Y-110204285D01*
X102568152Y-110204285D02*
X102472914Y-110251904D01*
X102472914Y-110251904D02*
X102425295Y-110251904D01*
X102425295Y-110251904D02*
X102330057Y-110204285D01*
X102330057Y-110204285D02*
X102282438Y-110156666D01*
X102282438Y-110156666D02*
X102234819Y-110061428D01*
X102234819Y-110061428D02*
X102234819Y-109870952D01*
X102234819Y-109870952D02*
X102282438Y-109775714D01*
X102282438Y-109775714D02*
X102330057Y-109728095D01*
X102330057Y-109728095D02*
X102425295Y-109680476D01*
X102425295Y-109680476D02*
X102472914Y-109680476D01*
X102472914Y-109680476D02*
X102568152Y-109728095D01*
X102568152Y-109728095D02*
X102615771Y-109775714D01*
X102615771Y-109775714D02*
X102663390Y-109870952D01*
X102663390Y-109870952D02*
X102663390Y-110061428D01*
X102663390Y-110061428D02*
X102711009Y-110156666D01*
X102711009Y-110156666D02*
X102758628Y-110204285D01*
X102758628Y-110204285D02*
X102853866Y-110251904D01*
X102853866Y-110251904D02*
X103044342Y-110251904D01*
X103044342Y-110251904D02*
X103139580Y-110204285D01*
X103139580Y-110204285D02*
X103187200Y-110156666D01*
X103187200Y-110156666D02*
X103234819Y-110061428D01*
X103234819Y-110061428D02*
X103234819Y-109870952D01*
X103234819Y-109870952D02*
X103187200Y-109775714D01*
X103187200Y-109775714D02*
X103139580Y-109728095D01*
X103139580Y-109728095D02*
X103044342Y-109680476D01*
X103044342Y-109680476D02*
X102853866Y-109680476D01*
X102853866Y-109680476D02*
X102758628Y-109728095D01*
X102758628Y-109728095D02*
X102711009Y-109775714D01*
X102711009Y-109775714D02*
X102663390Y-109870952D01*
X69963333Y-119114819D02*
X69630000Y-118638628D01*
X69391905Y-119114819D02*
X69391905Y-118114819D01*
X69391905Y-118114819D02*
X69772857Y-118114819D01*
X69772857Y-118114819D02*
X69868095Y-118162438D01*
X69868095Y-118162438D02*
X69915714Y-118210057D01*
X69915714Y-118210057D02*
X69963333Y-118305295D01*
X69963333Y-118305295D02*
X69963333Y-118448152D01*
X69963333Y-118448152D02*
X69915714Y-118543390D01*
X69915714Y-118543390D02*
X69868095Y-118591009D01*
X69868095Y-118591009D02*
X69772857Y-118638628D01*
X69772857Y-118638628D02*
X69391905Y-118638628D01*
X70820476Y-118114819D02*
X70630000Y-118114819D01*
X70630000Y-118114819D02*
X70534762Y-118162438D01*
X70534762Y-118162438D02*
X70487143Y-118210057D01*
X70487143Y-118210057D02*
X70391905Y-118352914D01*
X70391905Y-118352914D02*
X70344286Y-118543390D01*
X70344286Y-118543390D02*
X70344286Y-118924342D01*
X70344286Y-118924342D02*
X70391905Y-119019580D01*
X70391905Y-119019580D02*
X70439524Y-119067200D01*
X70439524Y-119067200D02*
X70534762Y-119114819D01*
X70534762Y-119114819D02*
X70725238Y-119114819D01*
X70725238Y-119114819D02*
X70820476Y-119067200D01*
X70820476Y-119067200D02*
X70868095Y-119019580D01*
X70868095Y-119019580D02*
X70915714Y-118924342D01*
X70915714Y-118924342D02*
X70915714Y-118686247D01*
X70915714Y-118686247D02*
X70868095Y-118591009D01*
X70868095Y-118591009D02*
X70820476Y-118543390D01*
X70820476Y-118543390D02*
X70725238Y-118495771D01*
X70725238Y-118495771D02*
X70534762Y-118495771D01*
X70534762Y-118495771D02*
X70439524Y-118543390D01*
X70439524Y-118543390D02*
X70391905Y-118591009D01*
X70391905Y-118591009D02*
X70344286Y-118686247D01*
X122743333Y-62474819D02*
X122410000Y-61998628D01*
X122171905Y-62474819D02*
X122171905Y-61474819D01*
X122171905Y-61474819D02*
X122552857Y-61474819D01*
X122552857Y-61474819D02*
X122648095Y-61522438D01*
X122648095Y-61522438D02*
X122695714Y-61570057D01*
X122695714Y-61570057D02*
X122743333Y-61665295D01*
X122743333Y-61665295D02*
X122743333Y-61808152D01*
X122743333Y-61808152D02*
X122695714Y-61903390D01*
X122695714Y-61903390D02*
X122648095Y-61951009D01*
X122648095Y-61951009D02*
X122552857Y-61998628D01*
X122552857Y-61998628D02*
X122171905Y-61998628D01*
X123600476Y-61808152D02*
X123600476Y-62474819D01*
X123362381Y-61427200D02*
X123124286Y-62141485D01*
X123124286Y-62141485D02*
X123743333Y-62141485D01*
X73326666Y-55804819D02*
X73326666Y-56519104D01*
X73326666Y-56519104D02*
X73279047Y-56661961D01*
X73279047Y-56661961D02*
X73183809Y-56757200D01*
X73183809Y-56757200D02*
X73040952Y-56804819D01*
X73040952Y-56804819D02*
X72945714Y-56804819D01*
X73755238Y-55900057D02*
X73802857Y-55852438D01*
X73802857Y-55852438D02*
X73898095Y-55804819D01*
X73898095Y-55804819D02*
X74136190Y-55804819D01*
X74136190Y-55804819D02*
X74231428Y-55852438D01*
X74231428Y-55852438D02*
X74279047Y-55900057D01*
X74279047Y-55900057D02*
X74326666Y-55995295D01*
X74326666Y-55995295D02*
X74326666Y-56090533D01*
X74326666Y-56090533D02*
X74279047Y-56233390D01*
X74279047Y-56233390D02*
X73707619Y-56804819D01*
X73707619Y-56804819D02*
X74326666Y-56804819D01*
X103806666Y-55804819D02*
X103806666Y-56519104D01*
X103806666Y-56519104D02*
X103759047Y-56661961D01*
X103759047Y-56661961D02*
X103663809Y-56757200D01*
X103663809Y-56757200D02*
X103520952Y-56804819D01*
X103520952Y-56804819D02*
X103425714Y-56804819D01*
X104711428Y-55804819D02*
X104520952Y-55804819D01*
X104520952Y-55804819D02*
X104425714Y-55852438D01*
X104425714Y-55852438D02*
X104378095Y-55900057D01*
X104378095Y-55900057D02*
X104282857Y-56042914D01*
X104282857Y-56042914D02*
X104235238Y-56233390D01*
X104235238Y-56233390D02*
X104235238Y-56614342D01*
X104235238Y-56614342D02*
X104282857Y-56709580D01*
X104282857Y-56709580D02*
X104330476Y-56757200D01*
X104330476Y-56757200D02*
X104425714Y-56804819D01*
X104425714Y-56804819D02*
X104616190Y-56804819D01*
X104616190Y-56804819D02*
X104711428Y-56757200D01*
X104711428Y-56757200D02*
X104759047Y-56709580D01*
X104759047Y-56709580D02*
X104806666Y-56614342D01*
X104806666Y-56614342D02*
X104806666Y-56376247D01*
X104806666Y-56376247D02*
X104759047Y-56281009D01*
X104759047Y-56281009D02*
X104711428Y-56233390D01*
X104711428Y-56233390D02*
X104616190Y-56185771D01*
X104616190Y-56185771D02*
X104425714Y-56185771D01*
X104425714Y-56185771D02*
X104330476Y-56233390D01*
X104330476Y-56233390D02*
X104282857Y-56281009D01*
X104282857Y-56281009D02*
X104235238Y-56376247D01*
X126664819Y-122729523D02*
X127379104Y-122729523D01*
X127379104Y-122729523D02*
X127521961Y-122777142D01*
X127521961Y-122777142D02*
X127617200Y-122872380D01*
X127617200Y-122872380D02*
X127664819Y-123015237D01*
X127664819Y-123015237D02*
X127664819Y-123110475D01*
X127664819Y-121729523D02*
X127664819Y-122300951D01*
X127664819Y-122015237D02*
X126664819Y-122015237D01*
X126664819Y-122015237D02*
X126807676Y-122110475D01*
X126807676Y-122110475D02*
X126902914Y-122205713D01*
X126902914Y-122205713D02*
X126950533Y-122300951D01*
X127664819Y-121253332D02*
X127664819Y-121062856D01*
X127664819Y-121062856D02*
X127617200Y-120967618D01*
X127617200Y-120967618D02*
X127569580Y-120919999D01*
X127569580Y-120919999D02*
X127426723Y-120824761D01*
X127426723Y-120824761D02*
X127236247Y-120777142D01*
X127236247Y-120777142D02*
X126855295Y-120777142D01*
X126855295Y-120777142D02*
X126760057Y-120824761D01*
X126760057Y-120824761D02*
X126712438Y-120872380D01*
X126712438Y-120872380D02*
X126664819Y-120967618D01*
X126664819Y-120967618D02*
X126664819Y-121158094D01*
X126664819Y-121158094D02*
X126712438Y-121253332D01*
X126712438Y-121253332D02*
X126760057Y-121300951D01*
X126760057Y-121300951D02*
X126855295Y-121348570D01*
X126855295Y-121348570D02*
X127093390Y-121348570D01*
X127093390Y-121348570D02*
X127188628Y-121300951D01*
X127188628Y-121300951D02*
X127236247Y-121253332D01*
X127236247Y-121253332D02*
X127283866Y-121158094D01*
X127283866Y-121158094D02*
X127283866Y-120967618D01*
X127283866Y-120967618D02*
X127236247Y-120872380D01*
X127236247Y-120872380D02*
X127188628Y-120824761D01*
X127188628Y-120824761D02*
X127093390Y-120777142D01*
X80209580Y-112810357D02*
X80257200Y-112857976D01*
X80257200Y-112857976D02*
X80304819Y-113000833D01*
X80304819Y-113000833D02*
X80304819Y-113096071D01*
X80304819Y-113096071D02*
X80257200Y-113238928D01*
X80257200Y-113238928D02*
X80161961Y-113334166D01*
X80161961Y-113334166D02*
X80066723Y-113381785D01*
X80066723Y-113381785D02*
X79876247Y-113429404D01*
X79876247Y-113429404D02*
X79733390Y-113429404D01*
X79733390Y-113429404D02*
X79542914Y-113381785D01*
X79542914Y-113381785D02*
X79447676Y-113334166D01*
X79447676Y-113334166D02*
X79352438Y-113238928D01*
X79352438Y-113238928D02*
X79304819Y-113096071D01*
X79304819Y-113096071D02*
X79304819Y-113000833D01*
X79304819Y-113000833D02*
X79352438Y-112857976D01*
X79352438Y-112857976D02*
X79400057Y-112810357D01*
X80304819Y-111857976D02*
X80304819Y-112429404D01*
X80304819Y-112143690D02*
X79304819Y-112143690D01*
X79304819Y-112143690D02*
X79447676Y-112238928D01*
X79447676Y-112238928D02*
X79542914Y-112334166D01*
X79542914Y-112334166D02*
X79590533Y-112429404D01*
X79304819Y-111238928D02*
X79304819Y-111143690D01*
X79304819Y-111143690D02*
X79352438Y-111048452D01*
X79352438Y-111048452D02*
X79400057Y-111000833D01*
X79400057Y-111000833D02*
X79495295Y-110953214D01*
X79495295Y-110953214D02*
X79685771Y-110905595D01*
X79685771Y-110905595D02*
X79923866Y-110905595D01*
X79923866Y-110905595D02*
X80114342Y-110953214D01*
X80114342Y-110953214D02*
X80209580Y-111000833D01*
X80209580Y-111000833D02*
X80257200Y-111048452D01*
X80257200Y-111048452D02*
X80304819Y-111143690D01*
X80304819Y-111143690D02*
X80304819Y-111238928D01*
X80304819Y-111238928D02*
X80257200Y-111334166D01*
X80257200Y-111334166D02*
X80209580Y-111381785D01*
X80209580Y-111381785D02*
X80114342Y-111429404D01*
X80114342Y-111429404D02*
X79923866Y-111477023D01*
X79923866Y-111477023D02*
X79685771Y-111477023D01*
X79685771Y-111477023D02*
X79495295Y-111429404D01*
X79495295Y-111429404D02*
X79400057Y-111381785D01*
X79400057Y-111381785D02*
X79352438Y-111334166D01*
X79352438Y-111334166D02*
X79304819Y-111238928D01*
X88566666Y-55804819D02*
X88566666Y-56519104D01*
X88566666Y-56519104D02*
X88519047Y-56661961D01*
X88519047Y-56661961D02*
X88423809Y-56757200D01*
X88423809Y-56757200D02*
X88280952Y-56804819D01*
X88280952Y-56804819D02*
X88185714Y-56804819D01*
X89471428Y-56138152D02*
X89471428Y-56804819D01*
X89233333Y-55757200D02*
X88995238Y-56471485D01*
X88995238Y-56471485D02*
X89614285Y-56471485D01*
X100443333Y-119114819D02*
X100110000Y-118638628D01*
X99871905Y-119114819D02*
X99871905Y-118114819D01*
X99871905Y-118114819D02*
X100252857Y-118114819D01*
X100252857Y-118114819D02*
X100348095Y-118162438D01*
X100348095Y-118162438D02*
X100395714Y-118210057D01*
X100395714Y-118210057D02*
X100443333Y-118305295D01*
X100443333Y-118305295D02*
X100443333Y-118448152D01*
X100443333Y-118448152D02*
X100395714Y-118543390D01*
X100395714Y-118543390D02*
X100348095Y-118591009D01*
X100348095Y-118591009D02*
X100252857Y-118638628D01*
X100252857Y-118638628D02*
X99871905Y-118638628D01*
X101014762Y-118543390D02*
X100919524Y-118495771D01*
X100919524Y-118495771D02*
X100871905Y-118448152D01*
X100871905Y-118448152D02*
X100824286Y-118352914D01*
X100824286Y-118352914D02*
X100824286Y-118305295D01*
X100824286Y-118305295D02*
X100871905Y-118210057D01*
X100871905Y-118210057D02*
X100919524Y-118162438D01*
X100919524Y-118162438D02*
X101014762Y-118114819D01*
X101014762Y-118114819D02*
X101205238Y-118114819D01*
X101205238Y-118114819D02*
X101300476Y-118162438D01*
X101300476Y-118162438D02*
X101348095Y-118210057D01*
X101348095Y-118210057D02*
X101395714Y-118305295D01*
X101395714Y-118305295D02*
X101395714Y-118352914D01*
X101395714Y-118352914D02*
X101348095Y-118448152D01*
X101348095Y-118448152D02*
X101300476Y-118495771D01*
X101300476Y-118495771D02*
X101205238Y-118543390D01*
X101205238Y-118543390D02*
X101014762Y-118543390D01*
X101014762Y-118543390D02*
X100919524Y-118591009D01*
X100919524Y-118591009D02*
X100871905Y-118638628D01*
X100871905Y-118638628D02*
X100824286Y-118733866D01*
X100824286Y-118733866D02*
X100824286Y-118924342D01*
X100824286Y-118924342D02*
X100871905Y-119019580D01*
X100871905Y-119019580D02*
X100919524Y-119067200D01*
X100919524Y-119067200D02*
X101014762Y-119114819D01*
X101014762Y-119114819D02*
X101205238Y-119114819D01*
X101205238Y-119114819D02*
X101300476Y-119067200D01*
X101300476Y-119067200D02*
X101348095Y-119019580D01*
X101348095Y-119019580D02*
X101395714Y-118924342D01*
X101395714Y-118924342D02*
X101395714Y-118733866D01*
X101395714Y-118733866D02*
X101348095Y-118638628D01*
X101348095Y-118638628D02*
X101300476Y-118591009D01*
X101300476Y-118591009D02*
X101205238Y-118543390D01*
X92263333Y-62474819D02*
X91930000Y-61998628D01*
X91691905Y-62474819D02*
X91691905Y-61474819D01*
X91691905Y-61474819D02*
X92072857Y-61474819D01*
X92072857Y-61474819D02*
X92168095Y-61522438D01*
X92168095Y-61522438D02*
X92215714Y-61570057D01*
X92215714Y-61570057D02*
X92263333Y-61665295D01*
X92263333Y-61665295D02*
X92263333Y-61808152D01*
X92263333Y-61808152D02*
X92215714Y-61903390D01*
X92215714Y-61903390D02*
X92168095Y-61951009D01*
X92168095Y-61951009D02*
X92072857Y-61998628D01*
X92072857Y-61998628D02*
X91691905Y-61998628D01*
X92644286Y-61570057D02*
X92691905Y-61522438D01*
X92691905Y-61522438D02*
X92787143Y-61474819D01*
X92787143Y-61474819D02*
X93025238Y-61474819D01*
X93025238Y-61474819D02*
X93120476Y-61522438D01*
X93120476Y-61522438D02*
X93168095Y-61570057D01*
X93168095Y-61570057D02*
X93215714Y-61665295D01*
X93215714Y-61665295D02*
X93215714Y-61760533D01*
X93215714Y-61760533D02*
X93168095Y-61903390D01*
X93168095Y-61903390D02*
X92596667Y-62474819D01*
X92596667Y-62474819D02*
X93215714Y-62474819D01*
X113549580Y-68679166D02*
X113597200Y-68726785D01*
X113597200Y-68726785D02*
X113644819Y-68869642D01*
X113644819Y-68869642D02*
X113644819Y-68964880D01*
X113644819Y-68964880D02*
X113597200Y-69107737D01*
X113597200Y-69107737D02*
X113501961Y-69202975D01*
X113501961Y-69202975D02*
X113406723Y-69250594D01*
X113406723Y-69250594D02*
X113216247Y-69298213D01*
X113216247Y-69298213D02*
X113073390Y-69298213D01*
X113073390Y-69298213D02*
X112882914Y-69250594D01*
X112882914Y-69250594D02*
X112787676Y-69202975D01*
X112787676Y-69202975D02*
X112692438Y-69107737D01*
X112692438Y-69107737D02*
X112644819Y-68964880D01*
X112644819Y-68964880D02*
X112644819Y-68869642D01*
X112644819Y-68869642D02*
X112692438Y-68726785D01*
X112692438Y-68726785D02*
X112740057Y-68679166D01*
X112644819Y-68345832D02*
X112644819Y-67726785D01*
X112644819Y-67726785D02*
X113025771Y-68060118D01*
X113025771Y-68060118D02*
X113025771Y-67917261D01*
X113025771Y-67917261D02*
X113073390Y-67822023D01*
X113073390Y-67822023D02*
X113121009Y-67774404D01*
X113121009Y-67774404D02*
X113216247Y-67726785D01*
X113216247Y-67726785D02*
X113454342Y-67726785D01*
X113454342Y-67726785D02*
X113549580Y-67774404D01*
X113549580Y-67774404D02*
X113597200Y-67822023D01*
X113597200Y-67822023D02*
X113644819Y-67917261D01*
X113644819Y-67917261D02*
X113644819Y-68202975D01*
X113644819Y-68202975D02*
X113597200Y-68298213D01*
X113597200Y-68298213D02*
X113549580Y-68345832D01*
X95764819Y-59093333D02*
X96479104Y-59093333D01*
X96479104Y-59093333D02*
X96621961Y-59140952D01*
X96621961Y-59140952D02*
X96717200Y-59236190D01*
X96717200Y-59236190D02*
X96764819Y-59379047D01*
X96764819Y-59379047D02*
X96764819Y-59474285D01*
X95764819Y-58712380D02*
X95764819Y-58093333D01*
X95764819Y-58093333D02*
X96145771Y-58426666D01*
X96145771Y-58426666D02*
X96145771Y-58283809D01*
X96145771Y-58283809D02*
X96193390Y-58188571D01*
X96193390Y-58188571D02*
X96241009Y-58140952D01*
X96241009Y-58140952D02*
X96336247Y-58093333D01*
X96336247Y-58093333D02*
X96574342Y-58093333D01*
X96574342Y-58093333D02*
X96669580Y-58140952D01*
X96669580Y-58140952D02*
X96717200Y-58188571D01*
X96717200Y-58188571D02*
X96764819Y-58283809D01*
X96764819Y-58283809D02*
X96764819Y-58569523D01*
X96764819Y-58569523D02*
X96717200Y-58664761D01*
X96717200Y-58664761D02*
X96669580Y-58712380D01*
X118624819Y-64673333D02*
X119339104Y-64673333D01*
X119339104Y-64673333D02*
X119481961Y-64720952D01*
X119481961Y-64720952D02*
X119577200Y-64816190D01*
X119577200Y-64816190D02*
X119624819Y-64959047D01*
X119624819Y-64959047D02*
X119624819Y-65054285D01*
X119624819Y-64197142D02*
X118624819Y-64197142D01*
X118624819Y-64197142D02*
X118624819Y-63816190D01*
X118624819Y-63816190D02*
X118672438Y-63720952D01*
X118672438Y-63720952D02*
X118720057Y-63673333D01*
X118720057Y-63673333D02*
X118815295Y-63625714D01*
X118815295Y-63625714D02*
X118958152Y-63625714D01*
X118958152Y-63625714D02*
X119053390Y-63673333D01*
X119053390Y-63673333D02*
X119101009Y-63720952D01*
X119101009Y-63720952D02*
X119148628Y-63816190D01*
X119148628Y-63816190D02*
X119148628Y-64197142D01*
X118958152Y-62768571D02*
X119624819Y-62768571D01*
X118577200Y-63006666D02*
X119291485Y-63244761D01*
X119291485Y-63244761D02*
X119291485Y-62625714D01*
X135434819Y-70951904D02*
X136244342Y-70951904D01*
X136244342Y-70951904D02*
X136339580Y-70904285D01*
X136339580Y-70904285D02*
X136387200Y-70856666D01*
X136387200Y-70856666D02*
X136434819Y-70761428D01*
X136434819Y-70761428D02*
X136434819Y-70570952D01*
X136434819Y-70570952D02*
X136387200Y-70475714D01*
X136387200Y-70475714D02*
X136339580Y-70428095D01*
X136339580Y-70428095D02*
X136244342Y-70380476D01*
X136244342Y-70380476D02*
X135434819Y-70380476D01*
X135434819Y-69428095D02*
X135434819Y-69904285D01*
X135434819Y-69904285D02*
X135911009Y-69951904D01*
X135911009Y-69951904D02*
X135863390Y-69904285D01*
X135863390Y-69904285D02*
X135815771Y-69809047D01*
X135815771Y-69809047D02*
X135815771Y-69570952D01*
X135815771Y-69570952D02*
X135863390Y-69475714D01*
X135863390Y-69475714D02*
X135911009Y-69428095D01*
X135911009Y-69428095D02*
X136006247Y-69380476D01*
X136006247Y-69380476D02*
X136244342Y-69380476D01*
X136244342Y-69380476D02*
X136339580Y-69428095D01*
X136339580Y-69428095D02*
X136387200Y-69475714D01*
X136387200Y-69475714D02*
X136434819Y-69570952D01*
X136434819Y-69570952D02*
X136434819Y-69809047D01*
X136434819Y-69809047D02*
X136387200Y-69904285D01*
X136387200Y-69904285D02*
X136339580Y-69951904D01*
X138543333Y-62474819D02*
X138210000Y-61998628D01*
X137971905Y-62474819D02*
X137971905Y-61474819D01*
X137971905Y-61474819D02*
X138352857Y-61474819D01*
X138352857Y-61474819D02*
X138448095Y-61522438D01*
X138448095Y-61522438D02*
X138495714Y-61570057D01*
X138495714Y-61570057D02*
X138543333Y-61665295D01*
X138543333Y-61665295D02*
X138543333Y-61808152D01*
X138543333Y-61808152D02*
X138495714Y-61903390D01*
X138495714Y-61903390D02*
X138448095Y-61951009D01*
X138448095Y-61951009D02*
X138352857Y-61998628D01*
X138352857Y-61998628D02*
X137971905Y-61998628D01*
X139448095Y-61474819D02*
X138971905Y-61474819D01*
X138971905Y-61474819D02*
X138924286Y-61951009D01*
X138924286Y-61951009D02*
X138971905Y-61903390D01*
X138971905Y-61903390D02*
X139067143Y-61855771D01*
X139067143Y-61855771D02*
X139305238Y-61855771D01*
X139305238Y-61855771D02*
X139400476Y-61903390D01*
X139400476Y-61903390D02*
X139448095Y-61951009D01*
X139448095Y-61951009D02*
X139495714Y-62046247D01*
X139495714Y-62046247D02*
X139495714Y-62284342D01*
X139495714Y-62284342D02*
X139448095Y-62379580D01*
X139448095Y-62379580D02*
X139400476Y-62427200D01*
X139400476Y-62427200D02*
X139305238Y-62474819D01*
X139305238Y-62474819D02*
X139067143Y-62474819D01*
X139067143Y-62474819D02*
X138971905Y-62427200D01*
X138971905Y-62427200D02*
X138924286Y-62379580D01*
X86994819Y-111251904D02*
X87804342Y-111251904D01*
X87804342Y-111251904D02*
X87899580Y-111204285D01*
X87899580Y-111204285D02*
X87947200Y-111156666D01*
X87947200Y-111156666D02*
X87994819Y-111061428D01*
X87994819Y-111061428D02*
X87994819Y-110870952D01*
X87994819Y-110870952D02*
X87947200Y-110775714D01*
X87947200Y-110775714D02*
X87899580Y-110728095D01*
X87899580Y-110728095D02*
X87804342Y-110680476D01*
X87804342Y-110680476D02*
X86994819Y-110680476D01*
X86994819Y-110299523D02*
X86994819Y-109632857D01*
X86994819Y-109632857D02*
X87994819Y-110061428D01*
X133864819Y-64673333D02*
X134579104Y-64673333D01*
X134579104Y-64673333D02*
X134721961Y-64720952D01*
X134721961Y-64720952D02*
X134817200Y-64816190D01*
X134817200Y-64816190D02*
X134864819Y-64959047D01*
X134864819Y-64959047D02*
X134864819Y-65054285D01*
X134864819Y-64197142D02*
X133864819Y-64197142D01*
X133864819Y-64197142D02*
X133864819Y-63816190D01*
X133864819Y-63816190D02*
X133912438Y-63720952D01*
X133912438Y-63720952D02*
X133960057Y-63673333D01*
X133960057Y-63673333D02*
X134055295Y-63625714D01*
X134055295Y-63625714D02*
X134198152Y-63625714D01*
X134198152Y-63625714D02*
X134293390Y-63673333D01*
X134293390Y-63673333D02*
X134341009Y-63720952D01*
X134341009Y-63720952D02*
X134388628Y-63816190D01*
X134388628Y-63816190D02*
X134388628Y-64197142D01*
X133864819Y-62720952D02*
X133864819Y-63197142D01*
X133864819Y-63197142D02*
X134341009Y-63244761D01*
X134341009Y-63244761D02*
X134293390Y-63197142D01*
X134293390Y-63197142D02*
X134245771Y-63101904D01*
X134245771Y-63101904D02*
X134245771Y-62863809D01*
X134245771Y-62863809D02*
X134293390Y-62768571D01*
X134293390Y-62768571D02*
X134341009Y-62720952D01*
X134341009Y-62720952D02*
X134436247Y-62673333D01*
X134436247Y-62673333D02*
X134674342Y-62673333D01*
X134674342Y-62673333D02*
X134769580Y-62720952D01*
X134769580Y-62720952D02*
X134817200Y-62768571D01*
X134817200Y-62768571D02*
X134864819Y-62863809D01*
X134864819Y-62863809D02*
X134864819Y-63101904D01*
X134864819Y-63101904D02*
X134817200Y-63197142D01*
X134817200Y-63197142D02*
X134769580Y-63244761D01*
X74474819Y-70951904D02*
X75284342Y-70951904D01*
X75284342Y-70951904D02*
X75379580Y-70904285D01*
X75379580Y-70904285D02*
X75427200Y-70856666D01*
X75427200Y-70856666D02*
X75474819Y-70761428D01*
X75474819Y-70761428D02*
X75474819Y-70570952D01*
X75474819Y-70570952D02*
X75427200Y-70475714D01*
X75427200Y-70475714D02*
X75379580Y-70428095D01*
X75379580Y-70428095D02*
X75284342Y-70380476D01*
X75284342Y-70380476D02*
X74474819Y-70380476D01*
X75474819Y-69380476D02*
X75474819Y-69951904D01*
X75474819Y-69666190D02*
X74474819Y-69666190D01*
X74474819Y-69666190D02*
X74617676Y-69761428D01*
X74617676Y-69761428D02*
X74712914Y-69856666D01*
X74712914Y-69856666D02*
X74760533Y-69951904D01*
X117474819Y-111251904D02*
X118284342Y-111251904D01*
X118284342Y-111251904D02*
X118379580Y-111204285D01*
X118379580Y-111204285D02*
X118427200Y-111156666D01*
X118427200Y-111156666D02*
X118474819Y-111061428D01*
X118474819Y-111061428D02*
X118474819Y-110870952D01*
X118474819Y-110870952D02*
X118427200Y-110775714D01*
X118427200Y-110775714D02*
X118379580Y-110728095D01*
X118379580Y-110728095D02*
X118284342Y-110680476D01*
X118284342Y-110680476D02*
X117474819Y-110680476D01*
X118474819Y-110156666D02*
X118474819Y-109966190D01*
X118474819Y-109966190D02*
X118427200Y-109870952D01*
X118427200Y-109870952D02*
X118379580Y-109823333D01*
X118379580Y-109823333D02*
X118236723Y-109728095D01*
X118236723Y-109728095D02*
X118046247Y-109680476D01*
X118046247Y-109680476D02*
X117665295Y-109680476D01*
X117665295Y-109680476D02*
X117570057Y-109728095D01*
X117570057Y-109728095D02*
X117522438Y-109775714D01*
X117522438Y-109775714D02*
X117474819Y-109870952D01*
X117474819Y-109870952D02*
X117474819Y-110061428D01*
X117474819Y-110061428D02*
X117522438Y-110156666D01*
X117522438Y-110156666D02*
X117570057Y-110204285D01*
X117570057Y-110204285D02*
X117665295Y-110251904D01*
X117665295Y-110251904D02*
X117903390Y-110251904D01*
X117903390Y-110251904D02*
X117998628Y-110204285D01*
X117998628Y-110204285D02*
X118046247Y-110156666D01*
X118046247Y-110156666D02*
X118093866Y-110061428D01*
X118093866Y-110061428D02*
X118093866Y-109870952D01*
X118093866Y-109870952D02*
X118046247Y-109775714D01*
X118046247Y-109775714D02*
X117998628Y-109728095D01*
X117998628Y-109728095D02*
X117903390Y-109680476D01*
X126244819Y-59093333D02*
X126959104Y-59093333D01*
X126959104Y-59093333D02*
X127101961Y-59140952D01*
X127101961Y-59140952D02*
X127197200Y-59236190D01*
X127197200Y-59236190D02*
X127244819Y-59379047D01*
X127244819Y-59379047D02*
X127244819Y-59474285D01*
X126244819Y-58712380D02*
X126244819Y-58045714D01*
X126244819Y-58045714D02*
X127244819Y-58474285D01*
X73324819Y-117673333D02*
X74039104Y-117673333D01*
X74039104Y-117673333D02*
X74181961Y-117720952D01*
X74181961Y-117720952D02*
X74277200Y-117816190D01*
X74277200Y-117816190D02*
X74324819Y-117959047D01*
X74324819Y-117959047D02*
X74324819Y-118054285D01*
X74324819Y-117197142D02*
X73324819Y-117197142D01*
X73324819Y-117197142D02*
X73324819Y-116816190D01*
X73324819Y-116816190D02*
X73372438Y-116720952D01*
X73372438Y-116720952D02*
X73420057Y-116673333D01*
X73420057Y-116673333D02*
X73515295Y-116625714D01*
X73515295Y-116625714D02*
X73658152Y-116625714D01*
X73658152Y-116625714D02*
X73753390Y-116673333D01*
X73753390Y-116673333D02*
X73801009Y-116720952D01*
X73801009Y-116720952D02*
X73848628Y-116816190D01*
X73848628Y-116816190D02*
X73848628Y-117197142D01*
X73324819Y-115768571D02*
X73324819Y-115959047D01*
X73324819Y-115959047D02*
X73372438Y-116054285D01*
X73372438Y-116054285D02*
X73420057Y-116101904D01*
X73420057Y-116101904D02*
X73562914Y-116197142D01*
X73562914Y-116197142D02*
X73753390Y-116244761D01*
X73753390Y-116244761D02*
X74134342Y-116244761D01*
X74134342Y-116244761D02*
X74229580Y-116197142D01*
X74229580Y-116197142D02*
X74277200Y-116149523D01*
X74277200Y-116149523D02*
X74324819Y-116054285D01*
X74324819Y-116054285D02*
X74324819Y-115863809D01*
X74324819Y-115863809D02*
X74277200Y-115768571D01*
X74277200Y-115768571D02*
X74229580Y-115720952D01*
X74229580Y-115720952D02*
X74134342Y-115673333D01*
X74134342Y-115673333D02*
X73896247Y-115673333D01*
X73896247Y-115673333D02*
X73801009Y-115720952D01*
X73801009Y-115720952D02*
X73753390Y-115768571D01*
X73753390Y-115768571D02*
X73705771Y-115863809D01*
X73705771Y-115863809D02*
X73705771Y-116054285D01*
X73705771Y-116054285D02*
X73753390Y-116149523D01*
X73753390Y-116149523D02*
X73801009Y-116197142D01*
X73801009Y-116197142D02*
X73896247Y-116244761D01*
X129899580Y-75340357D02*
X129947200Y-75387976D01*
X129947200Y-75387976D02*
X129994819Y-75530833D01*
X129994819Y-75530833D02*
X129994819Y-75626071D01*
X129994819Y-75626071D02*
X129947200Y-75768928D01*
X129947200Y-75768928D02*
X129851961Y-75864166D01*
X129851961Y-75864166D02*
X129756723Y-75911785D01*
X129756723Y-75911785D02*
X129566247Y-75959404D01*
X129566247Y-75959404D02*
X129423390Y-75959404D01*
X129423390Y-75959404D02*
X129232914Y-75911785D01*
X129232914Y-75911785D02*
X129137676Y-75864166D01*
X129137676Y-75864166D02*
X129042438Y-75768928D01*
X129042438Y-75768928D02*
X128994819Y-75626071D01*
X128994819Y-75626071D02*
X128994819Y-75530833D01*
X128994819Y-75530833D02*
X129042438Y-75387976D01*
X129042438Y-75387976D02*
X129090057Y-75340357D01*
X129090057Y-74959404D02*
X129042438Y-74911785D01*
X129042438Y-74911785D02*
X128994819Y-74816547D01*
X128994819Y-74816547D02*
X128994819Y-74578452D01*
X128994819Y-74578452D02*
X129042438Y-74483214D01*
X129042438Y-74483214D02*
X129090057Y-74435595D01*
X129090057Y-74435595D02*
X129185295Y-74387976D01*
X129185295Y-74387976D02*
X129280533Y-74387976D01*
X129280533Y-74387976D02*
X129423390Y-74435595D01*
X129423390Y-74435595D02*
X129994819Y-75007023D01*
X129994819Y-75007023D02*
X129994819Y-74387976D01*
X129090057Y-74007023D02*
X129042438Y-73959404D01*
X129042438Y-73959404D02*
X128994819Y-73864166D01*
X128994819Y-73864166D02*
X128994819Y-73626071D01*
X128994819Y-73626071D02*
X129042438Y-73530833D01*
X129042438Y-73530833D02*
X129090057Y-73483214D01*
X129090057Y-73483214D02*
X129185295Y-73435595D01*
X129185295Y-73435595D02*
X129280533Y-73435595D01*
X129280533Y-73435595D02*
X129423390Y-73483214D01*
X129423390Y-73483214D02*
X129994819Y-74054642D01*
X129994819Y-74054642D02*
X129994819Y-73435595D01*
X118570476Y-123444819D02*
X118570476Y-124159104D01*
X118570476Y-124159104D02*
X118522857Y-124301961D01*
X118522857Y-124301961D02*
X118427619Y-124397200D01*
X118427619Y-124397200D02*
X118284762Y-124444819D01*
X118284762Y-124444819D02*
X118189524Y-124444819D01*
X119570476Y-124444819D02*
X118999048Y-124444819D01*
X119284762Y-124444819D02*
X119284762Y-123444819D01*
X119284762Y-123444819D02*
X119189524Y-123587676D01*
X119189524Y-123587676D02*
X119094286Y-123682914D01*
X119094286Y-123682914D02*
X118999048Y-123730533D01*
X120141905Y-123873390D02*
X120046667Y-123825771D01*
X120046667Y-123825771D02*
X119999048Y-123778152D01*
X119999048Y-123778152D02*
X119951429Y-123682914D01*
X119951429Y-123682914D02*
X119951429Y-123635295D01*
X119951429Y-123635295D02*
X119999048Y-123540057D01*
X119999048Y-123540057D02*
X120046667Y-123492438D01*
X120046667Y-123492438D02*
X120141905Y-123444819D01*
X120141905Y-123444819D02*
X120332381Y-123444819D01*
X120332381Y-123444819D02*
X120427619Y-123492438D01*
X120427619Y-123492438D02*
X120475238Y-123540057D01*
X120475238Y-123540057D02*
X120522857Y-123635295D01*
X120522857Y-123635295D02*
X120522857Y-123682914D01*
X120522857Y-123682914D02*
X120475238Y-123778152D01*
X120475238Y-123778152D02*
X120427619Y-123825771D01*
X120427619Y-123825771D02*
X120332381Y-123873390D01*
X120332381Y-123873390D02*
X120141905Y-123873390D01*
X120141905Y-123873390D02*
X120046667Y-123921009D01*
X120046667Y-123921009D02*
X119999048Y-123968628D01*
X119999048Y-123968628D02*
X119951429Y-124063866D01*
X119951429Y-124063866D02*
X119951429Y-124254342D01*
X119951429Y-124254342D02*
X119999048Y-124349580D01*
X119999048Y-124349580D02*
X120046667Y-124397200D01*
X120046667Y-124397200D02*
X120141905Y-124444819D01*
X120141905Y-124444819D02*
X120332381Y-124444819D01*
X120332381Y-124444819D02*
X120427619Y-124397200D01*
X120427619Y-124397200D02*
X120475238Y-124349580D01*
X120475238Y-124349580D02*
X120522857Y-124254342D01*
X120522857Y-124254342D02*
X120522857Y-124063866D01*
X120522857Y-124063866D02*
X120475238Y-123968628D01*
X120475238Y-123968628D02*
X120427619Y-123921009D01*
X120427619Y-123921009D02*
X120332381Y-123873390D01*
X94179580Y-112334166D02*
X94227200Y-112381785D01*
X94227200Y-112381785D02*
X94274819Y-112524642D01*
X94274819Y-112524642D02*
X94274819Y-112619880D01*
X94274819Y-112619880D02*
X94227200Y-112762737D01*
X94227200Y-112762737D02*
X94131961Y-112857975D01*
X94131961Y-112857975D02*
X94036723Y-112905594D01*
X94036723Y-112905594D02*
X93846247Y-112953213D01*
X93846247Y-112953213D02*
X93703390Y-112953213D01*
X93703390Y-112953213D02*
X93512914Y-112905594D01*
X93512914Y-112905594D02*
X93417676Y-112857975D01*
X93417676Y-112857975D02*
X93322438Y-112762737D01*
X93322438Y-112762737D02*
X93274819Y-112619880D01*
X93274819Y-112619880D02*
X93274819Y-112524642D01*
X93274819Y-112524642D02*
X93322438Y-112381785D01*
X93322438Y-112381785D02*
X93370057Y-112334166D01*
X94274819Y-111857975D02*
X94274819Y-111667499D01*
X94274819Y-111667499D02*
X94227200Y-111572261D01*
X94227200Y-111572261D02*
X94179580Y-111524642D01*
X94179580Y-111524642D02*
X94036723Y-111429404D01*
X94036723Y-111429404D02*
X93846247Y-111381785D01*
X93846247Y-111381785D02*
X93465295Y-111381785D01*
X93465295Y-111381785D02*
X93370057Y-111429404D01*
X93370057Y-111429404D02*
X93322438Y-111477023D01*
X93322438Y-111477023D02*
X93274819Y-111572261D01*
X93274819Y-111572261D02*
X93274819Y-111762737D01*
X93274819Y-111762737D02*
X93322438Y-111857975D01*
X93322438Y-111857975D02*
X93370057Y-111905594D01*
X93370057Y-111905594D02*
X93465295Y-111953213D01*
X93465295Y-111953213D02*
X93703390Y-111953213D01*
X93703390Y-111953213D02*
X93798628Y-111905594D01*
X93798628Y-111905594D02*
X93846247Y-111857975D01*
X93846247Y-111857975D02*
X93893866Y-111762737D01*
X93893866Y-111762737D02*
X93893866Y-111572261D01*
X93893866Y-111572261D02*
X93846247Y-111477023D01*
X93846247Y-111477023D02*
X93798628Y-111429404D01*
X93798628Y-111429404D02*
X93703390Y-111381785D01*
X72850476Y-123444819D02*
X72850476Y-124159104D01*
X72850476Y-124159104D02*
X72802857Y-124301961D01*
X72802857Y-124301961D02*
X72707619Y-124397200D01*
X72707619Y-124397200D02*
X72564762Y-124444819D01*
X72564762Y-124444819D02*
X72469524Y-124444819D01*
X73850476Y-124444819D02*
X73279048Y-124444819D01*
X73564762Y-124444819D02*
X73564762Y-123444819D01*
X73564762Y-123444819D02*
X73469524Y-123587676D01*
X73469524Y-123587676D02*
X73374286Y-123682914D01*
X73374286Y-123682914D02*
X73279048Y-123730533D01*
X74231429Y-123540057D02*
X74279048Y-123492438D01*
X74279048Y-123492438D02*
X74374286Y-123444819D01*
X74374286Y-123444819D02*
X74612381Y-123444819D01*
X74612381Y-123444819D02*
X74707619Y-123492438D01*
X74707619Y-123492438D02*
X74755238Y-123540057D01*
X74755238Y-123540057D02*
X74802857Y-123635295D01*
X74802857Y-123635295D02*
X74802857Y-123730533D01*
X74802857Y-123730533D02*
X74755238Y-123873390D01*
X74755238Y-123873390D02*
X74183810Y-124444819D01*
X74183810Y-124444819D02*
X74802857Y-124444819D01*
X133810476Y-123444819D02*
X133810476Y-124159104D01*
X133810476Y-124159104D02*
X133762857Y-124301961D01*
X133762857Y-124301961D02*
X133667619Y-124397200D01*
X133667619Y-124397200D02*
X133524762Y-124444819D01*
X133524762Y-124444819D02*
X133429524Y-124444819D01*
X134239048Y-123540057D02*
X134286667Y-123492438D01*
X134286667Y-123492438D02*
X134381905Y-123444819D01*
X134381905Y-123444819D02*
X134620000Y-123444819D01*
X134620000Y-123444819D02*
X134715238Y-123492438D01*
X134715238Y-123492438D02*
X134762857Y-123540057D01*
X134762857Y-123540057D02*
X134810476Y-123635295D01*
X134810476Y-123635295D02*
X134810476Y-123730533D01*
X134810476Y-123730533D02*
X134762857Y-123873390D01*
X134762857Y-123873390D02*
X134191429Y-124444819D01*
X134191429Y-124444819D02*
X134810476Y-124444819D01*
X135429524Y-123444819D02*
X135524762Y-123444819D01*
X135524762Y-123444819D02*
X135620000Y-123492438D01*
X135620000Y-123492438D02*
X135667619Y-123540057D01*
X135667619Y-123540057D02*
X135715238Y-123635295D01*
X135715238Y-123635295D02*
X135762857Y-123825771D01*
X135762857Y-123825771D02*
X135762857Y-124063866D01*
X135762857Y-124063866D02*
X135715238Y-124254342D01*
X135715238Y-124254342D02*
X135667619Y-124349580D01*
X135667619Y-124349580D02*
X135620000Y-124397200D01*
X135620000Y-124397200D02*
X135524762Y-124444819D01*
X135524762Y-124444819D02*
X135429524Y-124444819D01*
X135429524Y-124444819D02*
X135334286Y-124397200D01*
X135334286Y-124397200D02*
X135286667Y-124349580D01*
X135286667Y-124349580D02*
X135239048Y-124254342D01*
X135239048Y-124254342D02*
X135191429Y-124063866D01*
X135191429Y-124063866D02*
X135191429Y-123825771D01*
X135191429Y-123825771D02*
X135239048Y-123635295D01*
X135239048Y-123635295D02*
X135286667Y-123540057D01*
X135286667Y-123540057D02*
X135334286Y-123492438D01*
X135334286Y-123492438D02*
X135429524Y-123444819D01*
X71754819Y-111251904D02*
X72564342Y-111251904D01*
X72564342Y-111251904D02*
X72659580Y-111204285D01*
X72659580Y-111204285D02*
X72707200Y-111156666D01*
X72707200Y-111156666D02*
X72754819Y-111061428D01*
X72754819Y-111061428D02*
X72754819Y-110870952D01*
X72754819Y-110870952D02*
X72707200Y-110775714D01*
X72707200Y-110775714D02*
X72659580Y-110728095D01*
X72659580Y-110728095D02*
X72564342Y-110680476D01*
X72564342Y-110680476D02*
X71754819Y-110680476D01*
X71754819Y-109775714D02*
X71754819Y-109966190D01*
X71754819Y-109966190D02*
X71802438Y-110061428D01*
X71802438Y-110061428D02*
X71850057Y-110109047D01*
X71850057Y-110109047D02*
X71992914Y-110204285D01*
X71992914Y-110204285D02*
X72183390Y-110251904D01*
X72183390Y-110251904D02*
X72564342Y-110251904D01*
X72564342Y-110251904D02*
X72659580Y-110204285D01*
X72659580Y-110204285D02*
X72707200Y-110156666D01*
X72707200Y-110156666D02*
X72754819Y-110061428D01*
X72754819Y-110061428D02*
X72754819Y-109870952D01*
X72754819Y-109870952D02*
X72707200Y-109775714D01*
X72707200Y-109775714D02*
X72659580Y-109728095D01*
X72659580Y-109728095D02*
X72564342Y-109680476D01*
X72564342Y-109680476D02*
X72326247Y-109680476D01*
X72326247Y-109680476D02*
X72231009Y-109728095D01*
X72231009Y-109728095D02*
X72183390Y-109775714D01*
X72183390Y-109775714D02*
X72135771Y-109870952D01*
X72135771Y-109870952D02*
X72135771Y-110061428D01*
X72135771Y-110061428D02*
X72183390Y-110156666D01*
X72183390Y-110156666D02*
X72231009Y-110204285D01*
X72231009Y-110204285D02*
X72326247Y-110251904D01*
X80524819Y-59093333D02*
X81239104Y-59093333D01*
X81239104Y-59093333D02*
X81381961Y-59140952D01*
X81381961Y-59140952D02*
X81477200Y-59236190D01*
X81477200Y-59236190D02*
X81524819Y-59379047D01*
X81524819Y-59379047D02*
X81524819Y-59474285D01*
X81524819Y-58093333D02*
X81524819Y-58664761D01*
X81524819Y-58379047D02*
X80524819Y-58379047D01*
X80524819Y-58379047D02*
X80667676Y-58474285D01*
X80667676Y-58474285D02*
X80762914Y-58569523D01*
X80762914Y-58569523D02*
X80810533Y-58664761D01*
X119044819Y-117673333D02*
X119759104Y-117673333D01*
X119759104Y-117673333D02*
X119901961Y-117720952D01*
X119901961Y-117720952D02*
X119997200Y-117816190D01*
X119997200Y-117816190D02*
X120044819Y-117959047D01*
X120044819Y-117959047D02*
X120044819Y-118054285D01*
X120044819Y-117197142D02*
X119044819Y-117197142D01*
X119044819Y-117197142D02*
X119044819Y-116816190D01*
X119044819Y-116816190D02*
X119092438Y-116720952D01*
X119092438Y-116720952D02*
X119140057Y-116673333D01*
X119140057Y-116673333D02*
X119235295Y-116625714D01*
X119235295Y-116625714D02*
X119378152Y-116625714D01*
X119378152Y-116625714D02*
X119473390Y-116673333D01*
X119473390Y-116673333D02*
X119521009Y-116720952D01*
X119521009Y-116720952D02*
X119568628Y-116816190D01*
X119568628Y-116816190D02*
X119568628Y-117197142D01*
X120044819Y-116149523D02*
X120044819Y-115959047D01*
X120044819Y-115959047D02*
X119997200Y-115863809D01*
X119997200Y-115863809D02*
X119949580Y-115816190D01*
X119949580Y-115816190D02*
X119806723Y-115720952D01*
X119806723Y-115720952D02*
X119616247Y-115673333D01*
X119616247Y-115673333D02*
X119235295Y-115673333D01*
X119235295Y-115673333D02*
X119140057Y-115720952D01*
X119140057Y-115720952D02*
X119092438Y-115768571D01*
X119092438Y-115768571D02*
X119044819Y-115863809D01*
X119044819Y-115863809D02*
X119044819Y-116054285D01*
X119044819Y-116054285D02*
X119092438Y-116149523D01*
X119092438Y-116149523D02*
X119140057Y-116197142D01*
X119140057Y-116197142D02*
X119235295Y-116244761D01*
X119235295Y-116244761D02*
X119473390Y-116244761D01*
X119473390Y-116244761D02*
X119568628Y-116197142D01*
X119568628Y-116197142D02*
X119616247Y-116149523D01*
X119616247Y-116149523D02*
X119663866Y-116054285D01*
X119663866Y-116054285D02*
X119663866Y-115863809D01*
X119663866Y-115863809D02*
X119616247Y-115768571D01*
X119616247Y-115768571D02*
X119568628Y-115720952D01*
X119568628Y-115720952D02*
X119473390Y-115673333D01*
X134284819Y-118149523D02*
X134999104Y-118149523D01*
X134999104Y-118149523D02*
X135141961Y-118197142D01*
X135141961Y-118197142D02*
X135237200Y-118292380D01*
X135237200Y-118292380D02*
X135284819Y-118435237D01*
X135284819Y-118435237D02*
X135284819Y-118530475D01*
X135284819Y-117673332D02*
X134284819Y-117673332D01*
X134284819Y-117673332D02*
X134284819Y-117292380D01*
X134284819Y-117292380D02*
X134332438Y-117197142D01*
X134332438Y-117197142D02*
X134380057Y-117149523D01*
X134380057Y-117149523D02*
X134475295Y-117101904D01*
X134475295Y-117101904D02*
X134618152Y-117101904D01*
X134618152Y-117101904D02*
X134713390Y-117149523D01*
X134713390Y-117149523D02*
X134761009Y-117197142D01*
X134761009Y-117197142D02*
X134808628Y-117292380D01*
X134808628Y-117292380D02*
X134808628Y-117673332D01*
X135284819Y-116149523D02*
X135284819Y-116720951D01*
X135284819Y-116435237D02*
X134284819Y-116435237D01*
X134284819Y-116435237D02*
X134427676Y-116530475D01*
X134427676Y-116530475D02*
X134522914Y-116625713D01*
X134522914Y-116625713D02*
X134570533Y-116720951D01*
X134284819Y-115530475D02*
X134284819Y-115435237D01*
X134284819Y-115435237D02*
X134332438Y-115339999D01*
X134332438Y-115339999D02*
X134380057Y-115292380D01*
X134380057Y-115292380D02*
X134475295Y-115244761D01*
X134475295Y-115244761D02*
X134665771Y-115197142D01*
X134665771Y-115197142D02*
X134903866Y-115197142D01*
X134903866Y-115197142D02*
X135094342Y-115244761D01*
X135094342Y-115244761D02*
X135189580Y-115292380D01*
X135189580Y-115292380D02*
X135237200Y-115339999D01*
X135237200Y-115339999D02*
X135284819Y-115435237D01*
X135284819Y-115435237D02*
X135284819Y-115530475D01*
X135284819Y-115530475D02*
X135237200Y-115625713D01*
X135237200Y-115625713D02*
X135189580Y-115673332D01*
X135189580Y-115673332D02*
X135094342Y-115720951D01*
X135094342Y-115720951D02*
X134903866Y-115768570D01*
X134903866Y-115768570D02*
X134665771Y-115768570D01*
X134665771Y-115768570D02*
X134475295Y-115720951D01*
X134475295Y-115720951D02*
X134380057Y-115673332D01*
X134380057Y-115673332D02*
X134332438Y-115625713D01*
X134332438Y-115625713D02*
X134284819Y-115530475D01*
X130447142Y-119114819D02*
X130113809Y-118638628D01*
X129875714Y-119114819D02*
X129875714Y-118114819D01*
X129875714Y-118114819D02*
X130256666Y-118114819D01*
X130256666Y-118114819D02*
X130351904Y-118162438D01*
X130351904Y-118162438D02*
X130399523Y-118210057D01*
X130399523Y-118210057D02*
X130447142Y-118305295D01*
X130447142Y-118305295D02*
X130447142Y-118448152D01*
X130447142Y-118448152D02*
X130399523Y-118543390D01*
X130399523Y-118543390D02*
X130351904Y-118591009D01*
X130351904Y-118591009D02*
X130256666Y-118638628D01*
X130256666Y-118638628D02*
X129875714Y-118638628D01*
X131399523Y-119114819D02*
X130828095Y-119114819D01*
X131113809Y-119114819D02*
X131113809Y-118114819D01*
X131113809Y-118114819D02*
X131018571Y-118257676D01*
X131018571Y-118257676D02*
X130923333Y-118352914D01*
X130923333Y-118352914D02*
X130828095Y-118400533D01*
X132018571Y-118114819D02*
X132113809Y-118114819D01*
X132113809Y-118114819D02*
X132209047Y-118162438D01*
X132209047Y-118162438D02*
X132256666Y-118210057D01*
X132256666Y-118210057D02*
X132304285Y-118305295D01*
X132304285Y-118305295D02*
X132351904Y-118495771D01*
X132351904Y-118495771D02*
X132351904Y-118733866D01*
X132351904Y-118733866D02*
X132304285Y-118924342D01*
X132304285Y-118924342D02*
X132256666Y-119019580D01*
X132256666Y-119019580D02*
X132209047Y-119067200D01*
X132209047Y-119067200D02*
X132113809Y-119114819D01*
X132113809Y-119114819D02*
X132018571Y-119114819D01*
X132018571Y-119114819D02*
X131923333Y-119067200D01*
X131923333Y-119067200D02*
X131875714Y-119019580D01*
X131875714Y-119019580D02*
X131828095Y-118924342D01*
X131828095Y-118924342D02*
X131780476Y-118733866D01*
X131780476Y-118733866D02*
X131780476Y-118495771D01*
X131780476Y-118495771D02*
X131828095Y-118305295D01*
X131828095Y-118305295D02*
X131875714Y-118210057D01*
X131875714Y-118210057D02*
X131923333Y-118162438D01*
X131923333Y-118162438D02*
X132018571Y-118114819D01*
X77023333Y-62474819D02*
X76690000Y-61998628D01*
X76451905Y-62474819D02*
X76451905Y-61474819D01*
X76451905Y-61474819D02*
X76832857Y-61474819D01*
X76832857Y-61474819D02*
X76928095Y-61522438D01*
X76928095Y-61522438D02*
X76975714Y-61570057D01*
X76975714Y-61570057D02*
X77023333Y-61665295D01*
X77023333Y-61665295D02*
X77023333Y-61808152D01*
X77023333Y-61808152D02*
X76975714Y-61903390D01*
X76975714Y-61903390D02*
X76928095Y-61951009D01*
X76928095Y-61951009D02*
X76832857Y-61998628D01*
X76832857Y-61998628D02*
X76451905Y-61998628D01*
X77975714Y-62474819D02*
X77404286Y-62474819D01*
X77690000Y-62474819D02*
X77690000Y-61474819D01*
X77690000Y-61474819D02*
X77594762Y-61617676D01*
X77594762Y-61617676D02*
X77499524Y-61712914D01*
X77499524Y-61712914D02*
X77404286Y-61760533D01*
X141484819Y-59093333D02*
X142199104Y-59093333D01*
X142199104Y-59093333D02*
X142341961Y-59140952D01*
X142341961Y-59140952D02*
X142437200Y-59236190D01*
X142437200Y-59236190D02*
X142484819Y-59379047D01*
X142484819Y-59379047D02*
X142484819Y-59474285D01*
X142484819Y-58569523D02*
X142484819Y-58379047D01*
X142484819Y-58379047D02*
X142437200Y-58283809D01*
X142437200Y-58283809D02*
X142389580Y-58236190D01*
X142389580Y-58236190D02*
X142246723Y-58140952D01*
X142246723Y-58140952D02*
X142056247Y-58093333D01*
X142056247Y-58093333D02*
X141675295Y-58093333D01*
X141675295Y-58093333D02*
X141580057Y-58140952D01*
X141580057Y-58140952D02*
X141532438Y-58188571D01*
X141532438Y-58188571D02*
X141484819Y-58283809D01*
X141484819Y-58283809D02*
X141484819Y-58474285D01*
X141484819Y-58474285D02*
X141532438Y-58569523D01*
X141532438Y-58569523D02*
X141580057Y-58617142D01*
X141580057Y-58617142D02*
X141675295Y-58664761D01*
X141675295Y-58664761D02*
X141913390Y-58664761D01*
X141913390Y-58664761D02*
X142008628Y-58617142D01*
X142008628Y-58617142D02*
X142056247Y-58569523D01*
X142056247Y-58569523D02*
X142103866Y-58474285D01*
X142103866Y-58474285D02*
X142103866Y-58283809D01*
X142103866Y-58283809D02*
X142056247Y-58188571D01*
X142056247Y-58188571D02*
X142008628Y-58140952D01*
X142008628Y-58140952D02*
X141913390Y-58093333D01*
X80944819Y-122729523D02*
X81659104Y-122729523D01*
X81659104Y-122729523D02*
X81801961Y-122777142D01*
X81801961Y-122777142D02*
X81897200Y-122872380D01*
X81897200Y-122872380D02*
X81944819Y-123015237D01*
X81944819Y-123015237D02*
X81944819Y-123110475D01*
X81944819Y-121729523D02*
X81944819Y-122300951D01*
X81944819Y-122015237D02*
X80944819Y-122015237D01*
X80944819Y-122015237D02*
X81087676Y-122110475D01*
X81087676Y-122110475D02*
X81182914Y-122205713D01*
X81182914Y-122205713D02*
X81230533Y-122300951D01*
X80944819Y-121396189D02*
X80944819Y-120777142D01*
X80944819Y-120777142D02*
X81325771Y-121110475D01*
X81325771Y-121110475D02*
X81325771Y-120967618D01*
X81325771Y-120967618D02*
X81373390Y-120872380D01*
X81373390Y-120872380D02*
X81421009Y-120824761D01*
X81421009Y-120824761D02*
X81516247Y-120777142D01*
X81516247Y-120777142D02*
X81754342Y-120777142D01*
X81754342Y-120777142D02*
X81849580Y-120824761D01*
X81849580Y-120824761D02*
X81897200Y-120872380D01*
X81897200Y-120872380D02*
X81944819Y-120967618D01*
X81944819Y-120967618D02*
X81944819Y-121253332D01*
X81944819Y-121253332D02*
X81897200Y-121348570D01*
X81897200Y-121348570D02*
X81849580Y-121396189D01*
X64969580Y-112334166D02*
X65017200Y-112381785D01*
X65017200Y-112381785D02*
X65064819Y-112524642D01*
X65064819Y-112524642D02*
X65064819Y-112619880D01*
X65064819Y-112619880D02*
X65017200Y-112762737D01*
X65017200Y-112762737D02*
X64921961Y-112857975D01*
X64921961Y-112857975D02*
X64826723Y-112905594D01*
X64826723Y-112905594D02*
X64636247Y-112953213D01*
X64636247Y-112953213D02*
X64493390Y-112953213D01*
X64493390Y-112953213D02*
X64302914Y-112905594D01*
X64302914Y-112905594D02*
X64207676Y-112857975D01*
X64207676Y-112857975D02*
X64112438Y-112762737D01*
X64112438Y-112762737D02*
X64064819Y-112619880D01*
X64064819Y-112619880D02*
X64064819Y-112524642D01*
X64064819Y-112524642D02*
X64112438Y-112381785D01*
X64112438Y-112381785D02*
X64160057Y-112334166D01*
X64064819Y-111477023D02*
X64064819Y-111667499D01*
X64064819Y-111667499D02*
X64112438Y-111762737D01*
X64112438Y-111762737D02*
X64160057Y-111810356D01*
X64160057Y-111810356D02*
X64302914Y-111905594D01*
X64302914Y-111905594D02*
X64493390Y-111953213D01*
X64493390Y-111953213D02*
X64874342Y-111953213D01*
X64874342Y-111953213D02*
X64969580Y-111905594D01*
X64969580Y-111905594D02*
X65017200Y-111857975D01*
X65017200Y-111857975D02*
X65064819Y-111762737D01*
X65064819Y-111762737D02*
X65064819Y-111572261D01*
X65064819Y-111572261D02*
X65017200Y-111477023D01*
X65017200Y-111477023D02*
X64969580Y-111429404D01*
X64969580Y-111429404D02*
X64874342Y-111381785D01*
X64874342Y-111381785D02*
X64636247Y-111381785D01*
X64636247Y-111381785D02*
X64541009Y-111429404D01*
X64541009Y-111429404D02*
X64493390Y-111477023D01*
X64493390Y-111477023D02*
X64445771Y-111572261D01*
X64445771Y-111572261D02*
X64445771Y-111762737D01*
X64445771Y-111762737D02*
X64493390Y-111857975D01*
X64493390Y-111857975D02*
X64541009Y-111905594D01*
X64541009Y-111905594D02*
X64636247Y-111953213D01*
X96184819Y-122729523D02*
X96899104Y-122729523D01*
X96899104Y-122729523D02*
X97041961Y-122777142D01*
X97041961Y-122777142D02*
X97137200Y-122872380D01*
X97137200Y-122872380D02*
X97184819Y-123015237D01*
X97184819Y-123015237D02*
X97184819Y-123110475D01*
X97184819Y-121729523D02*
X97184819Y-122300951D01*
X97184819Y-122015237D02*
X96184819Y-122015237D01*
X96184819Y-122015237D02*
X96327676Y-122110475D01*
X96327676Y-122110475D02*
X96422914Y-122205713D01*
X96422914Y-122205713D02*
X96470533Y-122300951D01*
X96184819Y-120824761D02*
X96184819Y-121300951D01*
X96184819Y-121300951D02*
X96661009Y-121348570D01*
X96661009Y-121348570D02*
X96613390Y-121300951D01*
X96613390Y-121300951D02*
X96565771Y-121205713D01*
X96565771Y-121205713D02*
X96565771Y-120967618D01*
X96565771Y-120967618D02*
X96613390Y-120872380D01*
X96613390Y-120872380D02*
X96661009Y-120824761D01*
X96661009Y-120824761D02*
X96756247Y-120777142D01*
X96756247Y-120777142D02*
X96994342Y-120777142D01*
X96994342Y-120777142D02*
X97089580Y-120824761D01*
X97089580Y-120824761D02*
X97137200Y-120872380D01*
X97137200Y-120872380D02*
X97184819Y-120967618D01*
X97184819Y-120967618D02*
X97184819Y-121205713D01*
X97184819Y-121205713D02*
X97137200Y-121300951D01*
X97137200Y-121300951D02*
X97089580Y-121348570D01*
X133810476Y-55804819D02*
X133810476Y-56519104D01*
X133810476Y-56519104D02*
X133762857Y-56661961D01*
X133762857Y-56661961D02*
X133667619Y-56757200D01*
X133667619Y-56757200D02*
X133524762Y-56804819D01*
X133524762Y-56804819D02*
X133429524Y-56804819D01*
X134810476Y-56804819D02*
X134239048Y-56804819D01*
X134524762Y-56804819D02*
X134524762Y-55804819D01*
X134524762Y-55804819D02*
X134429524Y-55947676D01*
X134429524Y-55947676D02*
X134334286Y-56042914D01*
X134334286Y-56042914D02*
X134239048Y-56090533D01*
X135429524Y-55804819D02*
X135524762Y-55804819D01*
X135524762Y-55804819D02*
X135620000Y-55852438D01*
X135620000Y-55852438D02*
X135667619Y-55900057D01*
X135667619Y-55900057D02*
X135715238Y-55995295D01*
X135715238Y-55995295D02*
X135762857Y-56185771D01*
X135762857Y-56185771D02*
X135762857Y-56423866D01*
X135762857Y-56423866D02*
X135715238Y-56614342D01*
X135715238Y-56614342D02*
X135667619Y-56709580D01*
X135667619Y-56709580D02*
X135620000Y-56757200D01*
X135620000Y-56757200D02*
X135524762Y-56804819D01*
X135524762Y-56804819D02*
X135429524Y-56804819D01*
X135429524Y-56804819D02*
X135334286Y-56757200D01*
X135334286Y-56757200D02*
X135286667Y-56709580D01*
X135286667Y-56709580D02*
X135239048Y-56614342D01*
X135239048Y-56614342D02*
X135191429Y-56423866D01*
X135191429Y-56423866D02*
X135191429Y-56185771D01*
X135191429Y-56185771D02*
X135239048Y-55995295D01*
X135239048Y-55995295D02*
X135286667Y-55900057D01*
X135286667Y-55900057D02*
X135334286Y-55852438D01*
X135334286Y-55852438D02*
X135429524Y-55804819D01*
X111004819Y-59093333D02*
X111719104Y-59093333D01*
X111719104Y-59093333D02*
X111861961Y-59140952D01*
X111861961Y-59140952D02*
X111957200Y-59236190D01*
X111957200Y-59236190D02*
X112004819Y-59379047D01*
X112004819Y-59379047D02*
X112004819Y-59474285D01*
X111004819Y-58140952D02*
X111004819Y-58617142D01*
X111004819Y-58617142D02*
X111481009Y-58664761D01*
X111481009Y-58664761D02*
X111433390Y-58617142D01*
X111433390Y-58617142D02*
X111385771Y-58521904D01*
X111385771Y-58521904D02*
X111385771Y-58283809D01*
X111385771Y-58283809D02*
X111433390Y-58188571D01*
X111433390Y-58188571D02*
X111481009Y-58140952D01*
X111481009Y-58140952D02*
X111576247Y-58093333D01*
X111576247Y-58093333D02*
X111814342Y-58093333D01*
X111814342Y-58093333D02*
X111909580Y-58140952D01*
X111909580Y-58140952D02*
X111957200Y-58188571D01*
X111957200Y-58188571D02*
X112004819Y-58283809D01*
X112004819Y-58283809D02*
X112004819Y-58521904D01*
X112004819Y-58521904D02*
X111957200Y-58617142D01*
X111957200Y-58617142D02*
X111909580Y-58664761D01*
X103804819Y-117673333D02*
X104519104Y-117673333D01*
X104519104Y-117673333D02*
X104661961Y-117720952D01*
X104661961Y-117720952D02*
X104757200Y-117816190D01*
X104757200Y-117816190D02*
X104804819Y-117959047D01*
X104804819Y-117959047D02*
X104804819Y-118054285D01*
X104804819Y-117197142D02*
X103804819Y-117197142D01*
X103804819Y-117197142D02*
X103804819Y-116816190D01*
X103804819Y-116816190D02*
X103852438Y-116720952D01*
X103852438Y-116720952D02*
X103900057Y-116673333D01*
X103900057Y-116673333D02*
X103995295Y-116625714D01*
X103995295Y-116625714D02*
X104138152Y-116625714D01*
X104138152Y-116625714D02*
X104233390Y-116673333D01*
X104233390Y-116673333D02*
X104281009Y-116720952D01*
X104281009Y-116720952D02*
X104328628Y-116816190D01*
X104328628Y-116816190D02*
X104328628Y-117197142D01*
X104233390Y-116054285D02*
X104185771Y-116149523D01*
X104185771Y-116149523D02*
X104138152Y-116197142D01*
X104138152Y-116197142D02*
X104042914Y-116244761D01*
X104042914Y-116244761D02*
X103995295Y-116244761D01*
X103995295Y-116244761D02*
X103900057Y-116197142D01*
X103900057Y-116197142D02*
X103852438Y-116149523D01*
X103852438Y-116149523D02*
X103804819Y-116054285D01*
X103804819Y-116054285D02*
X103804819Y-115863809D01*
X103804819Y-115863809D02*
X103852438Y-115768571D01*
X103852438Y-115768571D02*
X103900057Y-115720952D01*
X103900057Y-115720952D02*
X103995295Y-115673333D01*
X103995295Y-115673333D02*
X104042914Y-115673333D01*
X104042914Y-115673333D02*
X104138152Y-115720952D01*
X104138152Y-115720952D02*
X104185771Y-115768571D01*
X104185771Y-115768571D02*
X104233390Y-115863809D01*
X104233390Y-115863809D02*
X104233390Y-116054285D01*
X104233390Y-116054285D02*
X104281009Y-116149523D01*
X104281009Y-116149523D02*
X104328628Y-116197142D01*
X104328628Y-116197142D02*
X104423866Y-116244761D01*
X104423866Y-116244761D02*
X104614342Y-116244761D01*
X104614342Y-116244761D02*
X104709580Y-116197142D01*
X104709580Y-116197142D02*
X104757200Y-116149523D01*
X104757200Y-116149523D02*
X104804819Y-116054285D01*
X104804819Y-116054285D02*
X104804819Y-115863809D01*
X104804819Y-115863809D02*
X104757200Y-115768571D01*
X104757200Y-115768571D02*
X104709580Y-115720952D01*
X104709580Y-115720952D02*
X104614342Y-115673333D01*
X104614342Y-115673333D02*
X104423866Y-115673333D01*
X104423866Y-115673333D02*
X104328628Y-115720952D01*
X104328628Y-115720952D02*
X104281009Y-115768571D01*
X104281009Y-115768571D02*
X104233390Y-115863809D01*
X111424819Y-122729523D02*
X112139104Y-122729523D01*
X112139104Y-122729523D02*
X112281961Y-122777142D01*
X112281961Y-122777142D02*
X112377200Y-122872380D01*
X112377200Y-122872380D02*
X112424819Y-123015237D01*
X112424819Y-123015237D02*
X112424819Y-123110475D01*
X112424819Y-121729523D02*
X112424819Y-122300951D01*
X112424819Y-122015237D02*
X111424819Y-122015237D01*
X111424819Y-122015237D02*
X111567676Y-122110475D01*
X111567676Y-122110475D02*
X111662914Y-122205713D01*
X111662914Y-122205713D02*
X111710533Y-122300951D01*
X111424819Y-121396189D02*
X111424819Y-120729523D01*
X111424819Y-120729523D02*
X112424819Y-121158094D01*
X128789580Y-68679166D02*
X128837200Y-68726785D01*
X128837200Y-68726785D02*
X128884819Y-68869642D01*
X128884819Y-68869642D02*
X128884819Y-68964880D01*
X128884819Y-68964880D02*
X128837200Y-69107737D01*
X128837200Y-69107737D02*
X128741961Y-69202975D01*
X128741961Y-69202975D02*
X128646723Y-69250594D01*
X128646723Y-69250594D02*
X128456247Y-69298213D01*
X128456247Y-69298213D02*
X128313390Y-69298213D01*
X128313390Y-69298213D02*
X128122914Y-69250594D01*
X128122914Y-69250594D02*
X128027676Y-69202975D01*
X128027676Y-69202975D02*
X127932438Y-69107737D01*
X127932438Y-69107737D02*
X127884819Y-68964880D01*
X127884819Y-68964880D02*
X127884819Y-68869642D01*
X127884819Y-68869642D02*
X127932438Y-68726785D01*
X127932438Y-68726785D02*
X127980057Y-68679166D01*
X127980057Y-68298213D02*
X127932438Y-68250594D01*
X127932438Y-68250594D02*
X127884819Y-68155356D01*
X127884819Y-68155356D02*
X127884819Y-67917261D01*
X127884819Y-67917261D02*
X127932438Y-67822023D01*
X127932438Y-67822023D02*
X127980057Y-67774404D01*
X127980057Y-67774404D02*
X128075295Y-67726785D01*
X128075295Y-67726785D02*
X128170533Y-67726785D01*
X128170533Y-67726785D02*
X128313390Y-67774404D01*
X128313390Y-67774404D02*
X128884819Y-68345832D01*
X128884819Y-68345832D02*
X128884819Y-67726785D01*
X132984819Y-111728094D02*
X133794342Y-111728094D01*
X133794342Y-111728094D02*
X133889580Y-111680475D01*
X133889580Y-111680475D02*
X133937200Y-111632856D01*
X133937200Y-111632856D02*
X133984819Y-111537618D01*
X133984819Y-111537618D02*
X133984819Y-111347142D01*
X133984819Y-111347142D02*
X133937200Y-111251904D01*
X133937200Y-111251904D02*
X133889580Y-111204285D01*
X133889580Y-111204285D02*
X133794342Y-111156666D01*
X133794342Y-111156666D02*
X132984819Y-111156666D01*
X133984819Y-110156666D02*
X133984819Y-110728094D01*
X133984819Y-110442380D02*
X132984819Y-110442380D01*
X132984819Y-110442380D02*
X133127676Y-110537618D01*
X133127676Y-110537618D02*
X133222914Y-110632856D01*
X133222914Y-110632856D02*
X133270533Y-110728094D01*
X132984819Y-109537618D02*
X132984819Y-109442380D01*
X132984819Y-109442380D02*
X133032438Y-109347142D01*
X133032438Y-109347142D02*
X133080057Y-109299523D01*
X133080057Y-109299523D02*
X133175295Y-109251904D01*
X133175295Y-109251904D02*
X133365771Y-109204285D01*
X133365771Y-109204285D02*
X133603866Y-109204285D01*
X133603866Y-109204285D02*
X133794342Y-109251904D01*
X133794342Y-109251904D02*
X133889580Y-109299523D01*
X133889580Y-109299523D02*
X133937200Y-109347142D01*
X133937200Y-109347142D02*
X133984819Y-109442380D01*
X133984819Y-109442380D02*
X133984819Y-109537618D01*
X133984819Y-109537618D02*
X133937200Y-109632856D01*
X133937200Y-109632856D02*
X133889580Y-109680475D01*
X133889580Y-109680475D02*
X133794342Y-109728094D01*
X133794342Y-109728094D02*
X133603866Y-109775713D01*
X133603866Y-109775713D02*
X133365771Y-109775713D01*
X133365771Y-109775713D02*
X133175295Y-109728094D01*
X133175295Y-109728094D02*
X133080057Y-109680475D01*
X133080057Y-109680475D02*
X133032438Y-109632856D01*
X133032438Y-109632856D02*
X132984819Y-109537618D01*
X65704819Y-122729523D02*
X66419104Y-122729523D01*
X66419104Y-122729523D02*
X66561961Y-122777142D01*
X66561961Y-122777142D02*
X66657200Y-122872380D01*
X66657200Y-122872380D02*
X66704819Y-123015237D01*
X66704819Y-123015237D02*
X66704819Y-123110475D01*
X66704819Y-121729523D02*
X66704819Y-122300951D01*
X66704819Y-122015237D02*
X65704819Y-122015237D01*
X65704819Y-122015237D02*
X65847676Y-122110475D01*
X65847676Y-122110475D02*
X65942914Y-122205713D01*
X65942914Y-122205713D02*
X65990533Y-122300951D01*
X66704819Y-120777142D02*
X66704819Y-121348570D01*
X66704819Y-121062856D02*
X65704819Y-121062856D01*
X65704819Y-121062856D02*
X65847676Y-121158094D01*
X65847676Y-121158094D02*
X65942914Y-121253332D01*
X65942914Y-121253332D02*
X65990533Y-121348570D01*
X89714819Y-70951904D02*
X90524342Y-70951904D01*
X90524342Y-70951904D02*
X90619580Y-70904285D01*
X90619580Y-70904285D02*
X90667200Y-70856666D01*
X90667200Y-70856666D02*
X90714819Y-70761428D01*
X90714819Y-70761428D02*
X90714819Y-70570952D01*
X90714819Y-70570952D02*
X90667200Y-70475714D01*
X90667200Y-70475714D02*
X90619580Y-70428095D01*
X90619580Y-70428095D02*
X90524342Y-70380476D01*
X90524342Y-70380476D02*
X89714819Y-70380476D01*
X89810057Y-69951904D02*
X89762438Y-69904285D01*
X89762438Y-69904285D02*
X89714819Y-69809047D01*
X89714819Y-69809047D02*
X89714819Y-69570952D01*
X89714819Y-69570952D02*
X89762438Y-69475714D01*
X89762438Y-69475714D02*
X89810057Y-69428095D01*
X89810057Y-69428095D02*
X89905295Y-69380476D01*
X89905295Y-69380476D02*
X90000533Y-69380476D01*
X90000533Y-69380476D02*
X90143390Y-69428095D01*
X90143390Y-69428095D02*
X90714819Y-69999523D01*
X90714819Y-69999523D02*
X90714819Y-69380476D01*
X107503333Y-62474819D02*
X107170000Y-61998628D01*
X106931905Y-62474819D02*
X106931905Y-61474819D01*
X106931905Y-61474819D02*
X107312857Y-61474819D01*
X107312857Y-61474819D02*
X107408095Y-61522438D01*
X107408095Y-61522438D02*
X107455714Y-61570057D01*
X107455714Y-61570057D02*
X107503333Y-61665295D01*
X107503333Y-61665295D02*
X107503333Y-61808152D01*
X107503333Y-61808152D02*
X107455714Y-61903390D01*
X107455714Y-61903390D02*
X107408095Y-61951009D01*
X107408095Y-61951009D02*
X107312857Y-61998628D01*
X107312857Y-61998628D02*
X106931905Y-61998628D01*
X107836667Y-61474819D02*
X108455714Y-61474819D01*
X108455714Y-61474819D02*
X108122381Y-61855771D01*
X108122381Y-61855771D02*
X108265238Y-61855771D01*
X108265238Y-61855771D02*
X108360476Y-61903390D01*
X108360476Y-61903390D02*
X108408095Y-61951009D01*
X108408095Y-61951009D02*
X108455714Y-62046247D01*
X108455714Y-62046247D02*
X108455714Y-62284342D01*
X108455714Y-62284342D02*
X108408095Y-62379580D01*
X108408095Y-62379580D02*
X108360476Y-62427200D01*
X108360476Y-62427200D02*
X108265238Y-62474819D01*
X108265238Y-62474819D02*
X107979524Y-62474819D01*
X107979524Y-62474819D02*
X107884286Y-62427200D01*
X107884286Y-62427200D02*
X107836667Y-62379580D01*
X85203333Y-119114819D02*
X84870000Y-118638628D01*
X84631905Y-119114819D02*
X84631905Y-118114819D01*
X84631905Y-118114819D02*
X85012857Y-118114819D01*
X85012857Y-118114819D02*
X85108095Y-118162438D01*
X85108095Y-118162438D02*
X85155714Y-118210057D01*
X85155714Y-118210057D02*
X85203333Y-118305295D01*
X85203333Y-118305295D02*
X85203333Y-118448152D01*
X85203333Y-118448152D02*
X85155714Y-118543390D01*
X85155714Y-118543390D02*
X85108095Y-118591009D01*
X85108095Y-118591009D02*
X85012857Y-118638628D01*
X85012857Y-118638628D02*
X84631905Y-118638628D01*
X85536667Y-118114819D02*
X86203333Y-118114819D01*
X86203333Y-118114819D02*
X85774762Y-119114819D01*
X98309580Y-68679166D02*
X98357200Y-68726785D01*
X98357200Y-68726785D02*
X98404819Y-68869642D01*
X98404819Y-68869642D02*
X98404819Y-68964880D01*
X98404819Y-68964880D02*
X98357200Y-69107737D01*
X98357200Y-69107737D02*
X98261961Y-69202975D01*
X98261961Y-69202975D02*
X98166723Y-69250594D01*
X98166723Y-69250594D02*
X97976247Y-69298213D01*
X97976247Y-69298213D02*
X97833390Y-69298213D01*
X97833390Y-69298213D02*
X97642914Y-69250594D01*
X97642914Y-69250594D02*
X97547676Y-69202975D01*
X97547676Y-69202975D02*
X97452438Y-69107737D01*
X97452438Y-69107737D02*
X97404819Y-68964880D01*
X97404819Y-68964880D02*
X97404819Y-68869642D01*
X97404819Y-68869642D02*
X97452438Y-68726785D01*
X97452438Y-68726785D02*
X97500057Y-68679166D01*
X97738152Y-67822023D02*
X98404819Y-67822023D01*
X97357200Y-68060118D02*
X98071485Y-68298213D01*
X98071485Y-68298213D02*
X98071485Y-67679166D01*
X135119819Y-92759523D02*
X135834104Y-92759523D01*
X135834104Y-92759523D02*
X135976961Y-92807142D01*
X135976961Y-92807142D02*
X136072200Y-92902380D01*
X136072200Y-92902380D02*
X136119819Y-93045237D01*
X136119819Y-93045237D02*
X136119819Y-93140475D01*
X135215057Y-92330951D02*
X135167438Y-92283332D01*
X135167438Y-92283332D02*
X135119819Y-92188094D01*
X135119819Y-92188094D02*
X135119819Y-91949999D01*
X135119819Y-91949999D02*
X135167438Y-91854761D01*
X135167438Y-91854761D02*
X135215057Y-91807142D01*
X135215057Y-91807142D02*
X135310295Y-91759523D01*
X135310295Y-91759523D02*
X135405533Y-91759523D01*
X135405533Y-91759523D02*
X135548390Y-91807142D01*
X135548390Y-91807142D02*
X136119819Y-92378570D01*
X136119819Y-92378570D02*
X136119819Y-91759523D01*
X135119819Y-90854761D02*
X135119819Y-91330951D01*
X135119819Y-91330951D02*
X135596009Y-91378570D01*
X135596009Y-91378570D02*
X135548390Y-91330951D01*
X135548390Y-91330951D02*
X135500771Y-91235713D01*
X135500771Y-91235713D02*
X135500771Y-90997618D01*
X135500771Y-90997618D02*
X135548390Y-90902380D01*
X135548390Y-90902380D02*
X135596009Y-90854761D01*
X135596009Y-90854761D02*
X135691247Y-90807142D01*
X135691247Y-90807142D02*
X135929342Y-90807142D01*
X135929342Y-90807142D02*
X136024580Y-90854761D01*
X136024580Y-90854761D02*
X136072200Y-90902380D01*
X136072200Y-90902380D02*
X136119819Y-90997618D01*
X136119819Y-90997618D02*
X136119819Y-91235713D01*
X136119819Y-91235713D02*
X136072200Y-91330951D01*
X136072200Y-91330951D02*
X136024580Y-91378570D01*
X128730476Y-86034819D02*
X128730476Y-86749104D01*
X128730476Y-86749104D02*
X128682857Y-86891961D01*
X128682857Y-86891961D02*
X128587619Y-86987200D01*
X128587619Y-86987200D02*
X128444762Y-87034819D01*
X128444762Y-87034819D02*
X128349524Y-87034819D01*
X129159048Y-86130057D02*
X129206667Y-86082438D01*
X129206667Y-86082438D02*
X129301905Y-86034819D01*
X129301905Y-86034819D02*
X129540000Y-86034819D01*
X129540000Y-86034819D02*
X129635238Y-86082438D01*
X129635238Y-86082438D02*
X129682857Y-86130057D01*
X129682857Y-86130057D02*
X129730476Y-86225295D01*
X129730476Y-86225295D02*
X129730476Y-86320533D01*
X129730476Y-86320533D02*
X129682857Y-86463390D01*
X129682857Y-86463390D02*
X129111429Y-87034819D01*
X129111429Y-87034819D02*
X129730476Y-87034819D01*
X130063810Y-86034819D02*
X130682857Y-86034819D01*
X130682857Y-86034819D02*
X130349524Y-86415771D01*
X130349524Y-86415771D02*
X130492381Y-86415771D01*
X130492381Y-86415771D02*
X130587619Y-86463390D01*
X130587619Y-86463390D02*
X130635238Y-86511009D01*
X130635238Y-86511009D02*
X130682857Y-86606247D01*
X130682857Y-86606247D02*
X130682857Y-86844342D01*
X130682857Y-86844342D02*
X130635238Y-86939580D01*
X130635238Y-86939580D02*
X130587619Y-86987200D01*
X130587619Y-86987200D02*
X130492381Y-87034819D01*
X130492381Y-87034819D02*
X130206667Y-87034819D01*
X130206667Y-87034819D02*
X130111429Y-86987200D01*
X130111429Y-86987200D02*
X130063810Y-86939580D01*
X141430476Y-109734819D02*
X141430476Y-110449104D01*
X141430476Y-110449104D02*
X141382857Y-110591961D01*
X141382857Y-110591961D02*
X141287619Y-110687200D01*
X141287619Y-110687200D02*
X141144762Y-110734819D01*
X141144762Y-110734819D02*
X141049524Y-110734819D01*
X141859048Y-109830057D02*
X141906667Y-109782438D01*
X141906667Y-109782438D02*
X142001905Y-109734819D01*
X142001905Y-109734819D02*
X142240000Y-109734819D01*
X142240000Y-109734819D02*
X142335238Y-109782438D01*
X142335238Y-109782438D02*
X142382857Y-109830057D01*
X142382857Y-109830057D02*
X142430476Y-109925295D01*
X142430476Y-109925295D02*
X142430476Y-110020533D01*
X142430476Y-110020533D02*
X142382857Y-110163390D01*
X142382857Y-110163390D02*
X141811429Y-110734819D01*
X141811429Y-110734819D02*
X142430476Y-110734819D01*
X143287619Y-110068152D02*
X143287619Y-110734819D01*
X143049524Y-109687200D02*
X142811429Y-110401485D01*
X142811429Y-110401485D02*
X143430476Y-110401485D01*
D11*
%TO.C,TP1*%
X122658000Y-89662000D02*
G75*
G02*
X119658000Y-89662000I-1500000J0D01*
G01*
X119658000Y-89662000D02*
G75*
G02*
X122658000Y-89662000I1500000J0D01*
G01*
%TO.C,J21*%
X86420000Y-97850000D02*
X85090000Y-97850000D01*
X86420000Y-96520000D02*
X86420000Y-97850000D01*
X86420000Y-95250000D02*
X86420000Y-85030000D01*
X86420000Y-95250000D02*
X83820000Y-95250000D01*
X86420000Y-85030000D02*
X81220000Y-85030000D01*
X83820000Y-97850000D02*
X81220000Y-97850000D01*
X83820000Y-95250000D02*
X83820000Y-97850000D01*
X81220000Y-97850000D02*
X81220000Y-85030000D01*
%TO.C,D1*%
X93257000Y-81815000D02*
X93257000Y-83285000D01*
X93257000Y-83285000D02*
X95542000Y-83285000D01*
X95542000Y-81815000D02*
X93257000Y-81815000D01*
%TO.C,Y1*%
X99045000Y-88405000D02*
X99045000Y-94655000D01*
X93995000Y-88405000D02*
X93995000Y-94655000D01*
X93995000Y-88405000D02*
G75*
G02*
X99045000Y-88405000I2525000J0D01*
G01*
X99045000Y-94655000D02*
G75*
G02*
X93995000Y-94655000I-2525000J0D01*
G01*
%TO.C,U12*%
X137240000Y-76600000D02*
X141000000Y-76600000D01*
X137240000Y-83420000D02*
X141000000Y-83420000D01*
X141000000Y-76600000D02*
X141000000Y-77860000D01*
X141000000Y-83420000D02*
X141000000Y-82160000D01*
X135960000Y-76700000D02*
X135720000Y-76370000D01*
X136200000Y-76370000D01*
X135960000Y-76700000D01*
G36*
X135960000Y-76700000D02*
G01*
X135720000Y-76370000D01*
X136200000Y-76370000D01*
X135960000Y-76700000D01*
G37*
%TO.C,C26*%
X133098000Y-82657733D02*
X133098000Y-82950267D01*
X132078000Y-82657733D02*
X132078000Y-82950267D01*
%TO.C,C25*%
X130275000Y-82936252D02*
X130275000Y-82413748D01*
X128805000Y-82936252D02*
X128805000Y-82413748D01*
%TO.C,C5*%
X80770000Y-68366233D02*
X80770000Y-68658767D01*
X81790000Y-68366233D02*
X81790000Y-68658767D01*
%TO.C,C8*%
X111250000Y-112313767D02*
X111250000Y-112021233D01*
X112270000Y-112313767D02*
X112270000Y-112021233D01*
%TO.C,U4*%
X121580000Y-70190000D02*
X121580000Y-68690000D01*
X121580000Y-70190000D02*
X121580000Y-71690000D01*
X124800000Y-70190000D02*
X124800000Y-68690000D01*
X124800000Y-70190000D02*
X124800000Y-71690000D01*
X121780000Y-72402500D02*
X121450000Y-72642500D01*
X121450000Y-72162500D01*
X121780000Y-72402500D01*
G36*
X121780000Y-72402500D02*
G01*
X121450000Y-72642500D01*
X121450000Y-72162500D01*
X121780000Y-72402500D01*
G37*
%TO.C,C18*%
X132844000Y-78593733D02*
X132844000Y-78886267D01*
X131824000Y-78593733D02*
X131824000Y-78886267D01*
%TO.C,C1*%
X141730000Y-68366233D02*
X141730000Y-68658767D01*
X142750000Y-68366233D02*
X142750000Y-68658767D01*
%TO.C,J14*%
X80780000Y-124690000D02*
X82780000Y-124690000D01*
X80780000Y-125940000D02*
X80780000Y-124690000D01*
X81170000Y-125080000D02*
X81170000Y-132550000D01*
X81170000Y-132550000D02*
X96630000Y-132550000D01*
X82320000Y-126040000D02*
X85320000Y-126040000D01*
X82320000Y-127390000D02*
X83070000Y-127390000D01*
X82320000Y-131690000D02*
X82320000Y-127390000D01*
X82570000Y-127040000D02*
X82320000Y-126040000D01*
X83070000Y-127040000D02*
X82570000Y-127040000D01*
X83070000Y-127390000D02*
X83070000Y-127040000D01*
X83070000Y-131690000D02*
X82320000Y-131690000D01*
X84570000Y-127040000D02*
X84570000Y-127390000D01*
X84570000Y-127390000D02*
X85320000Y-127390000D01*
X85070000Y-127040000D02*
X84570000Y-127040000D01*
X85320000Y-126040000D02*
X85070000Y-127040000D01*
X85320000Y-127390000D02*
X85320000Y-131690000D01*
X85320000Y-131690000D02*
X84570000Y-131690000D01*
X87400000Y-126040000D02*
X90400000Y-126040000D01*
X87400000Y-127390000D02*
X88150000Y-127390000D01*
X87400000Y-131690000D02*
X87400000Y-127390000D01*
X87650000Y-127040000D02*
X87400000Y-126040000D01*
X88150000Y-127040000D02*
X87650000Y-127040000D01*
X88150000Y-127390000D02*
X88150000Y-127040000D01*
X88150000Y-131690000D02*
X87400000Y-131690000D01*
X89650000Y-127040000D02*
X89650000Y-127390000D01*
X89650000Y-127390000D02*
X90400000Y-127390000D01*
X90150000Y-127040000D02*
X89650000Y-127040000D01*
X90400000Y-126040000D02*
X90150000Y-127040000D01*
X90400000Y-127390000D02*
X90400000Y-131690000D01*
X90400000Y-131690000D02*
X89650000Y-131690000D01*
X92480000Y-126040000D02*
X95480000Y-126040000D01*
X92480000Y-127390000D02*
X93230000Y-127390000D01*
X92480000Y-131690000D02*
X92480000Y-127390000D01*
X92730000Y-127040000D02*
X92480000Y-126040000D01*
X93230000Y-127040000D02*
X92730000Y-127040000D01*
X93230000Y-127390000D02*
X93230000Y-127040000D01*
X93230000Y-131690000D02*
X92480000Y-131690000D01*
X94730000Y-127040000D02*
X94730000Y-127390000D01*
X94730000Y-127390000D02*
X95480000Y-127390000D01*
X95230000Y-127040000D02*
X94730000Y-127040000D01*
X95480000Y-126040000D02*
X95230000Y-127040000D01*
X95480000Y-127390000D02*
X95480000Y-131690000D01*
X95480000Y-131690000D02*
X94730000Y-131690000D01*
X96630000Y-125080000D02*
X81170000Y-125080000D01*
X96630000Y-132550000D02*
X96630000Y-125080000D01*
X83070000Y-131690000D02*
G75*
G02*
X84569647Y-131689844I750000J-1700000D01*
G01*
X88150000Y-131690000D02*
G75*
G02*
X89649647Y-131689844I750000J-1700000D01*
G01*
X93230000Y-131690000D02*
G75*
G02*
X94729647Y-131689844I750000J-1700000D01*
G01*
%TO.C,J8*%
X111650000Y-47790000D02*
X111650000Y-55260000D01*
X111650000Y-55260000D02*
X127110000Y-55260000D01*
X112800000Y-48650000D02*
X113550000Y-48650000D01*
X112800000Y-52950000D02*
X112800000Y-48650000D01*
X112800000Y-54300000D02*
X113050000Y-53300000D01*
X113050000Y-53300000D02*
X113550000Y-53300000D01*
X113550000Y-52950000D02*
X112800000Y-52950000D01*
X113550000Y-53300000D02*
X113550000Y-52950000D01*
X115050000Y-48650000D02*
X115800000Y-48650000D01*
X115050000Y-52950000D02*
X115050000Y-53300000D01*
X115050000Y-53300000D02*
X115550000Y-53300000D01*
X115550000Y-53300000D02*
X115800000Y-54300000D01*
X115800000Y-48650000D02*
X115800000Y-52950000D01*
X115800000Y-52950000D02*
X115050000Y-52950000D01*
X115800000Y-54300000D02*
X112800000Y-54300000D01*
X117880000Y-48650000D02*
X118630000Y-48650000D01*
X117880000Y-52950000D02*
X117880000Y-48650000D01*
X117880000Y-54300000D02*
X118130000Y-53300000D01*
X118130000Y-53300000D02*
X118630000Y-53300000D01*
X118630000Y-52950000D02*
X117880000Y-52950000D01*
X118630000Y-53300000D02*
X118630000Y-52950000D01*
X120130000Y-48650000D02*
X120880000Y-48650000D01*
X120130000Y-52950000D02*
X120130000Y-53300000D01*
X120130000Y-53300000D02*
X120630000Y-53300000D01*
X120630000Y-53300000D02*
X120880000Y-54300000D01*
X120880000Y-48650000D02*
X120880000Y-52950000D01*
X120880000Y-52950000D02*
X120130000Y-52950000D01*
X120880000Y-54300000D02*
X117880000Y-54300000D01*
X122960000Y-48650000D02*
X123710000Y-48650000D01*
X122960000Y-52950000D02*
X122960000Y-48650000D01*
X122960000Y-54300000D02*
X123210000Y-53300000D01*
X123210000Y-53300000D02*
X123710000Y-53300000D01*
X123710000Y-52950000D02*
X122960000Y-52950000D01*
X123710000Y-53300000D02*
X123710000Y-52950000D01*
X125210000Y-48650000D02*
X125960000Y-48650000D01*
X125210000Y-52950000D02*
X125210000Y-53300000D01*
X125210000Y-53300000D02*
X125710000Y-53300000D01*
X125710000Y-53300000D02*
X125960000Y-54300000D01*
X125960000Y-48650000D02*
X125960000Y-52950000D01*
X125960000Y-52950000D02*
X125210000Y-52950000D01*
X125960000Y-54300000D02*
X122960000Y-54300000D01*
X127110000Y-47790000D02*
X111650000Y-47790000D01*
X127110000Y-55260000D02*
X127110000Y-47790000D01*
X127500000Y-54400000D02*
X127500000Y-55650000D01*
X127500000Y-55650000D02*
X125500000Y-55650000D01*
X115050000Y-48650000D02*
G75*
G02*
X113550353Y-48650156I-750000J1700000D01*
G01*
X120130000Y-48650000D02*
G75*
G02*
X118630353Y-48650156I-750000J1700000D01*
G01*
X125210000Y-48650000D02*
G75*
G02*
X123710353Y-48650156I-750000J1700000D01*
G01*
%TO.C,C7*%
X126490000Y-112313767D02*
X126490000Y-112021233D01*
X127510000Y-112313767D02*
X127510000Y-112021233D01*
%TO.C,J16*%
X96020000Y-124690000D02*
X98020000Y-124690000D01*
X96020000Y-125940000D02*
X96020000Y-124690000D01*
X96410000Y-125080000D02*
X96410000Y-132550000D01*
X96410000Y-132550000D02*
X111870000Y-132550000D01*
X97560000Y-126040000D02*
X100560000Y-126040000D01*
X97560000Y-127390000D02*
X98310000Y-127390000D01*
X97560000Y-131690000D02*
X97560000Y-127390000D01*
X97810000Y-127040000D02*
X97560000Y-126040000D01*
X98310000Y-127040000D02*
X97810000Y-127040000D01*
X98310000Y-127390000D02*
X98310000Y-127040000D01*
X98310000Y-131690000D02*
X97560000Y-131690000D01*
X99810000Y-127040000D02*
X99810000Y-127390000D01*
X99810000Y-127390000D02*
X100560000Y-127390000D01*
X100310000Y-127040000D02*
X99810000Y-127040000D01*
X100560000Y-126040000D02*
X100310000Y-127040000D01*
X100560000Y-127390000D02*
X100560000Y-131690000D01*
X100560000Y-131690000D02*
X99810000Y-131690000D01*
X102640000Y-126040000D02*
X105640000Y-126040000D01*
X102640000Y-127390000D02*
X103390000Y-127390000D01*
X102640000Y-131690000D02*
X102640000Y-127390000D01*
X102890000Y-127040000D02*
X102640000Y-126040000D01*
X103390000Y-127040000D02*
X102890000Y-127040000D01*
X103390000Y-127390000D02*
X103390000Y-127040000D01*
X103390000Y-131690000D02*
X102640000Y-131690000D01*
X104890000Y-127040000D02*
X104890000Y-127390000D01*
X104890000Y-127390000D02*
X105640000Y-127390000D01*
X105390000Y-127040000D02*
X104890000Y-127040000D01*
X105640000Y-126040000D02*
X105390000Y-127040000D01*
X105640000Y-127390000D02*
X105640000Y-131690000D01*
X105640000Y-131690000D02*
X104890000Y-131690000D01*
X107720000Y-126040000D02*
X110720000Y-126040000D01*
X107720000Y-127390000D02*
X108470000Y-127390000D01*
X107720000Y-131690000D02*
X107720000Y-127390000D01*
X107970000Y-127040000D02*
X107720000Y-126040000D01*
X108470000Y-127040000D02*
X107970000Y-127040000D01*
X108470000Y-127390000D02*
X108470000Y-127040000D01*
X108470000Y-131690000D02*
X107720000Y-131690000D01*
X109970000Y-127040000D02*
X109970000Y-127390000D01*
X109970000Y-127390000D02*
X110720000Y-127390000D01*
X110470000Y-127040000D02*
X109970000Y-127040000D01*
X110720000Y-126040000D02*
X110470000Y-127040000D01*
X110720000Y-127390000D02*
X110720000Y-131690000D01*
X110720000Y-131690000D02*
X109970000Y-131690000D01*
X111870000Y-125080000D02*
X96410000Y-125080000D01*
X111870000Y-132550000D02*
X111870000Y-125080000D01*
X98310000Y-131690000D02*
G75*
G02*
X99809647Y-131689844I750000J-1700000D01*
G01*
X103390000Y-131690000D02*
G75*
G02*
X104889647Y-131689844I750000J-1700000D01*
G01*
X108470000Y-131690000D02*
G75*
G02*
X109969647Y-131689844I750000J-1700000D01*
G01*
%TO.C,JP2*%
X82490000Y-62510000D02*
X82490000Y-65170000D01*
X85090000Y-62510000D02*
X82490000Y-62510000D01*
X85090000Y-62510000D02*
X85090000Y-65170000D01*
X85090000Y-65170000D02*
X82490000Y-65170000D01*
X86360000Y-62510000D02*
X87690000Y-62510000D01*
X87690000Y-62510000D02*
X87690000Y-63840000D01*
%TO.C,JP7*%
X90110000Y-118170000D02*
X90110000Y-116840000D01*
X91440000Y-118170000D02*
X90110000Y-118170000D01*
X92710000Y-115510000D02*
X95310000Y-115510000D01*
X92710000Y-118170000D02*
X92710000Y-115510000D01*
X92710000Y-118170000D02*
X95310000Y-118170000D01*
X95310000Y-118170000D02*
X95310000Y-115510000D01*
%TO.C,C19*%
X138428000Y-104185767D02*
X138428000Y-103893233D01*
X139448000Y-104185767D02*
X139448000Y-103893233D01*
%TO.C,JP3*%
X97730000Y-62510000D02*
X97730000Y-65170000D01*
X100330000Y-62510000D02*
X97730000Y-62510000D01*
X100330000Y-62510000D02*
X100330000Y-65170000D01*
X100330000Y-65170000D02*
X97730000Y-65170000D01*
X101600000Y-62510000D02*
X102930000Y-62510000D01*
X102930000Y-62510000D02*
X102930000Y-63840000D01*
%TO.C,R9*%
X116577064Y-115930000D02*
X115122936Y-115930000D01*
X116577064Y-117750000D02*
X115122936Y-117750000D01*
%TO.C,U3*%
X106340000Y-70190000D02*
X106340000Y-68690000D01*
X106340000Y-70190000D02*
X106340000Y-71690000D01*
X109560000Y-70190000D02*
X109560000Y-68690000D01*
X109560000Y-70190000D02*
X109560000Y-71690000D01*
X106540000Y-72402500D02*
X106210000Y-72642500D01*
X106210000Y-72162500D01*
X106540000Y-72402500D01*
G36*
X106540000Y-72402500D02*
G01*
X106210000Y-72642500D01*
X106210000Y-72162500D01*
X106540000Y-72402500D01*
G37*
%TO.C,JP1*%
X67250000Y-62510000D02*
X67250000Y-65170000D01*
X69850000Y-62510000D02*
X67250000Y-62510000D01*
X69850000Y-62510000D02*
X69850000Y-65170000D01*
X69850000Y-65170000D02*
X67250000Y-65170000D01*
X71120000Y-62510000D02*
X72450000Y-62510000D01*
X72450000Y-62510000D02*
X72450000Y-63840000D01*
%TO.C,U8*%
X98720000Y-110490000D02*
X98720000Y-108990000D01*
X98720000Y-110490000D02*
X98720000Y-111990000D01*
X101940000Y-110490000D02*
X101940000Y-108990000D01*
X101940000Y-110490000D02*
X101940000Y-111990000D01*
X102070000Y-108517500D02*
X101740000Y-108277500D01*
X102070000Y-108037500D01*
X102070000Y-108517500D01*
G36*
X102070000Y-108517500D02*
G01*
X101740000Y-108277500D01*
X102070000Y-108037500D01*
X102070000Y-108517500D01*
G37*
%TO.C,R6*%
X70857064Y-115930000D02*
X69402936Y-115930000D01*
X70857064Y-117750000D02*
X69402936Y-117750000D01*
%TO.C,R4*%
X122182936Y-62930000D02*
X123637064Y-62930000D01*
X122182936Y-64750000D02*
X123637064Y-64750000D01*
%TO.C,J2*%
X65930000Y-47790000D02*
X65930000Y-55260000D01*
X65930000Y-55260000D02*
X81390000Y-55260000D01*
X67080000Y-48650000D02*
X67830000Y-48650000D01*
X67080000Y-52950000D02*
X67080000Y-48650000D01*
X67080000Y-54300000D02*
X67330000Y-53300000D01*
X67330000Y-53300000D02*
X67830000Y-53300000D01*
X67830000Y-52950000D02*
X67080000Y-52950000D01*
X67830000Y-53300000D02*
X67830000Y-52950000D01*
X69330000Y-48650000D02*
X70080000Y-48650000D01*
X69330000Y-52950000D02*
X69330000Y-53300000D01*
X69330000Y-53300000D02*
X69830000Y-53300000D01*
X69830000Y-53300000D02*
X70080000Y-54300000D01*
X70080000Y-48650000D02*
X70080000Y-52950000D01*
X70080000Y-52950000D02*
X69330000Y-52950000D01*
X70080000Y-54300000D02*
X67080000Y-54300000D01*
X72160000Y-48650000D02*
X72910000Y-48650000D01*
X72160000Y-52950000D02*
X72160000Y-48650000D01*
X72160000Y-54300000D02*
X72410000Y-53300000D01*
X72410000Y-53300000D02*
X72910000Y-53300000D01*
X72910000Y-52950000D02*
X72160000Y-52950000D01*
X72910000Y-53300000D02*
X72910000Y-52950000D01*
X74410000Y-48650000D02*
X75160000Y-48650000D01*
X74410000Y-52950000D02*
X74410000Y-53300000D01*
X74410000Y-53300000D02*
X74910000Y-53300000D01*
X74910000Y-53300000D02*
X75160000Y-54300000D01*
X75160000Y-48650000D02*
X75160000Y-52950000D01*
X75160000Y-52950000D02*
X74410000Y-52950000D01*
X75160000Y-54300000D02*
X72160000Y-54300000D01*
X77240000Y-48650000D02*
X77990000Y-48650000D01*
X77240000Y-52950000D02*
X77240000Y-48650000D01*
X77240000Y-54300000D02*
X77490000Y-53300000D01*
X77490000Y-53300000D02*
X77990000Y-53300000D01*
X77990000Y-52950000D02*
X77240000Y-52950000D01*
X77990000Y-53300000D02*
X77990000Y-52950000D01*
X79490000Y-48650000D02*
X80240000Y-48650000D01*
X79490000Y-52950000D02*
X79490000Y-53300000D01*
X79490000Y-53300000D02*
X79990000Y-53300000D01*
X79990000Y-53300000D02*
X80240000Y-54300000D01*
X80240000Y-48650000D02*
X80240000Y-52950000D01*
X80240000Y-52950000D02*
X79490000Y-52950000D01*
X80240000Y-54300000D02*
X77240000Y-54300000D01*
X81390000Y-47790000D02*
X65930000Y-47790000D01*
X81390000Y-55260000D02*
X81390000Y-47790000D01*
X81780000Y-54400000D02*
X81780000Y-55650000D01*
X81780000Y-55650000D02*
X79780000Y-55650000D01*
X69330000Y-48650000D02*
G75*
G02*
X67830353Y-48650156I-750000J1700000D01*
G01*
X74410000Y-48650000D02*
G75*
G02*
X72910353Y-48650156I-750000J1700000D01*
G01*
X79490000Y-48650000D02*
G75*
G02*
X77990353Y-48650156I-750000J1700000D01*
G01*
%TO.C,J6*%
X96410000Y-47790000D02*
X96410000Y-55260000D01*
X96410000Y-55260000D02*
X111870000Y-55260000D01*
X97560000Y-48650000D02*
X98310000Y-48650000D01*
X97560000Y-52950000D02*
X97560000Y-48650000D01*
X97560000Y-54300000D02*
X97810000Y-53300000D01*
X97810000Y-53300000D02*
X98310000Y-53300000D01*
X98310000Y-52950000D02*
X97560000Y-52950000D01*
X98310000Y-53300000D02*
X98310000Y-52950000D01*
X99810000Y-48650000D02*
X100560000Y-48650000D01*
X99810000Y-52950000D02*
X99810000Y-53300000D01*
X99810000Y-53300000D02*
X100310000Y-53300000D01*
X100310000Y-53300000D02*
X100560000Y-54300000D01*
X100560000Y-48650000D02*
X100560000Y-52950000D01*
X100560000Y-52950000D02*
X99810000Y-52950000D01*
X100560000Y-54300000D02*
X97560000Y-54300000D01*
X102640000Y-48650000D02*
X103390000Y-48650000D01*
X102640000Y-52950000D02*
X102640000Y-48650000D01*
X102640000Y-54300000D02*
X102890000Y-53300000D01*
X102890000Y-53300000D02*
X103390000Y-53300000D01*
X103390000Y-52950000D02*
X102640000Y-52950000D01*
X103390000Y-53300000D02*
X103390000Y-52950000D01*
X104890000Y-48650000D02*
X105640000Y-48650000D01*
X104890000Y-52950000D02*
X104890000Y-53300000D01*
X104890000Y-53300000D02*
X105390000Y-53300000D01*
X105390000Y-53300000D02*
X105640000Y-54300000D01*
X105640000Y-48650000D02*
X105640000Y-52950000D01*
X105640000Y-52950000D02*
X104890000Y-52950000D01*
X105640000Y-54300000D02*
X102640000Y-54300000D01*
X107720000Y-48650000D02*
X108470000Y-48650000D01*
X107720000Y-52950000D02*
X107720000Y-48650000D01*
X107720000Y-54300000D02*
X107970000Y-53300000D01*
X107970000Y-53300000D02*
X108470000Y-53300000D01*
X108470000Y-52950000D02*
X107720000Y-52950000D01*
X108470000Y-53300000D02*
X108470000Y-52950000D01*
X109970000Y-48650000D02*
X110720000Y-48650000D01*
X109970000Y-52950000D02*
X109970000Y-53300000D01*
X109970000Y-53300000D02*
X110470000Y-53300000D01*
X110470000Y-53300000D02*
X110720000Y-54300000D01*
X110720000Y-48650000D02*
X110720000Y-52950000D01*
X110720000Y-52950000D02*
X109970000Y-52950000D01*
X110720000Y-54300000D02*
X107720000Y-54300000D01*
X111870000Y-47790000D02*
X96410000Y-47790000D01*
X111870000Y-55260000D02*
X111870000Y-47790000D01*
X112260000Y-54400000D02*
X112260000Y-55650000D01*
X112260000Y-55650000D02*
X110260000Y-55650000D01*
X99810000Y-48650000D02*
G75*
G02*
X98310353Y-48650156I-750000J1700000D01*
G01*
X104890000Y-48650000D02*
G75*
G02*
X103390353Y-48650156I-750000J1700000D01*
G01*
X109970000Y-48650000D02*
G75*
G02*
X108470353Y-48650156I-750000J1700000D01*
G01*
%TO.C,J19*%
X128210000Y-123250000D02*
X128210000Y-121920000D01*
X129540000Y-123250000D02*
X128210000Y-123250000D01*
X130810000Y-120590000D02*
X135950000Y-120590000D01*
X130810000Y-123250000D02*
X130810000Y-120590000D01*
X130810000Y-123250000D02*
X135950000Y-123250000D01*
X135950000Y-123250000D02*
X135950000Y-120590000D01*
%TO.C,C10*%
X80770000Y-112313767D02*
X80770000Y-112021233D01*
X81790000Y-112313767D02*
X81790000Y-112021233D01*
%TO.C,J4*%
X81170000Y-47790000D02*
X81170000Y-55260000D01*
X81170000Y-55260000D02*
X96630000Y-55260000D01*
X82320000Y-48650000D02*
X83070000Y-48650000D01*
X82320000Y-52950000D02*
X82320000Y-48650000D01*
X82320000Y-54300000D02*
X82570000Y-53300000D01*
X82570000Y-53300000D02*
X83070000Y-53300000D01*
X83070000Y-52950000D02*
X82320000Y-52950000D01*
X83070000Y-53300000D02*
X83070000Y-52950000D01*
X84570000Y-48650000D02*
X85320000Y-48650000D01*
X84570000Y-52950000D02*
X84570000Y-53300000D01*
X84570000Y-53300000D02*
X85070000Y-53300000D01*
X85070000Y-53300000D02*
X85320000Y-54300000D01*
X85320000Y-48650000D02*
X85320000Y-52950000D01*
X85320000Y-52950000D02*
X84570000Y-52950000D01*
X85320000Y-54300000D02*
X82320000Y-54300000D01*
X87400000Y-48650000D02*
X88150000Y-48650000D01*
X87400000Y-52950000D02*
X87400000Y-48650000D01*
X87400000Y-54300000D02*
X87650000Y-53300000D01*
X87650000Y-53300000D02*
X88150000Y-53300000D01*
X88150000Y-52950000D02*
X87400000Y-52950000D01*
X88150000Y-53300000D02*
X88150000Y-52950000D01*
X89650000Y-48650000D02*
X90400000Y-48650000D01*
X89650000Y-52950000D02*
X89650000Y-53300000D01*
X89650000Y-53300000D02*
X90150000Y-53300000D01*
X90150000Y-53300000D02*
X90400000Y-54300000D01*
X90400000Y-48650000D02*
X90400000Y-52950000D01*
X90400000Y-52950000D02*
X89650000Y-52950000D01*
X90400000Y-54300000D02*
X87400000Y-54300000D01*
X92480000Y-48650000D02*
X93230000Y-48650000D01*
X92480000Y-52950000D02*
X92480000Y-48650000D01*
X92480000Y-54300000D02*
X92730000Y-53300000D01*
X92730000Y-53300000D02*
X93230000Y-53300000D01*
X93230000Y-52950000D02*
X92480000Y-52950000D01*
X93230000Y-53300000D02*
X93230000Y-52950000D01*
X94730000Y-48650000D02*
X95480000Y-48650000D01*
X94730000Y-52950000D02*
X94730000Y-53300000D01*
X94730000Y-53300000D02*
X95230000Y-53300000D01*
X95230000Y-53300000D02*
X95480000Y-54300000D01*
X95480000Y-48650000D02*
X95480000Y-52950000D01*
X95480000Y-52950000D02*
X94730000Y-52950000D01*
X95480000Y-54300000D02*
X92480000Y-54300000D01*
X96630000Y-47790000D02*
X81170000Y-47790000D01*
X96630000Y-55260000D02*
X96630000Y-47790000D01*
X97020000Y-54400000D02*
X97020000Y-55650000D01*
X97020000Y-55650000D02*
X95020000Y-55650000D01*
X84570000Y-48650000D02*
G75*
G02*
X83070353Y-48650156I-750000J1700000D01*
G01*
X89650000Y-48650000D02*
G75*
G02*
X88150353Y-48650156I-750000J1700000D01*
G01*
X94730000Y-48650000D02*
G75*
G02*
X93230353Y-48650156I-750000J1700000D01*
G01*
%TO.C,R8*%
X101337064Y-115930000D02*
X99882936Y-115930000D01*
X101337064Y-117750000D02*
X99882936Y-117750000D01*
%TO.C,R2*%
X91702936Y-62930000D02*
X93157064Y-62930000D01*
X91702936Y-64750000D02*
X93157064Y-64750000D01*
%TO.C,C3*%
X111250000Y-68366233D02*
X111250000Y-68658767D01*
X112270000Y-68366233D02*
X112270000Y-68658767D01*
%TO.C,J3*%
X87570000Y-57430000D02*
X87570000Y-60090000D01*
X92710000Y-57430000D02*
X87570000Y-57430000D01*
X92710000Y-57430000D02*
X92710000Y-60090000D01*
X92710000Y-60090000D02*
X87570000Y-60090000D01*
X93980000Y-57430000D02*
X95310000Y-57430000D01*
X95310000Y-57430000D02*
X95310000Y-58760000D01*
%TO.C,JP4*%
X112970000Y-62510000D02*
X112970000Y-65170000D01*
X115570000Y-62510000D02*
X112970000Y-62510000D01*
X115570000Y-62510000D02*
X115570000Y-65170000D01*
X115570000Y-65170000D02*
X112970000Y-65170000D01*
X116840000Y-62510000D02*
X118170000Y-62510000D01*
X118170000Y-62510000D02*
X118170000Y-63840000D01*
%TO.C,U5*%
X136820000Y-70190000D02*
X136820000Y-68690000D01*
X136820000Y-70190000D02*
X136820000Y-71690000D01*
X140040000Y-70190000D02*
X140040000Y-68690000D01*
X140040000Y-70190000D02*
X140040000Y-71690000D01*
X137020000Y-72402500D02*
X136690000Y-72642500D01*
X136690000Y-72162500D01*
X137020000Y-72402500D01*
G36*
X137020000Y-72402500D02*
G01*
X136690000Y-72642500D01*
X136690000Y-72162500D01*
X137020000Y-72402500D01*
G37*
%TO.C,R5*%
X137982936Y-62930000D02*
X139437064Y-62930000D01*
X137982936Y-64750000D02*
X139437064Y-64750000D01*
%TO.C,U7*%
X83480000Y-110490000D02*
X83480000Y-108990000D01*
X83480000Y-110490000D02*
X83480000Y-111990000D01*
X86700000Y-110490000D02*
X86700000Y-108990000D01*
X86700000Y-110490000D02*
X86700000Y-111990000D01*
X86830000Y-108517500D02*
X86500000Y-108277500D01*
X86830000Y-108037500D01*
X86830000Y-108517500D01*
G36*
X86830000Y-108517500D02*
G01*
X86500000Y-108277500D01*
X86830000Y-108037500D01*
X86830000Y-108517500D01*
G37*
%TO.C,JP5*%
X128210000Y-62510000D02*
X128210000Y-65170000D01*
X130810000Y-62510000D02*
X128210000Y-62510000D01*
X130810000Y-62510000D02*
X130810000Y-65170000D01*
X130810000Y-65170000D02*
X128210000Y-65170000D01*
X132080000Y-62510000D02*
X133410000Y-62510000D01*
X133410000Y-62510000D02*
X133410000Y-63840000D01*
%TO.C,U1*%
X75860000Y-70190000D02*
X75860000Y-68690000D01*
X75860000Y-70190000D02*
X75860000Y-71690000D01*
X79080000Y-70190000D02*
X79080000Y-68690000D01*
X79080000Y-70190000D02*
X79080000Y-71690000D01*
X76060000Y-72402500D02*
X75730000Y-72642500D01*
X75730000Y-72162500D01*
X76060000Y-72402500D01*
G36*
X76060000Y-72402500D02*
G01*
X75730000Y-72642500D01*
X75730000Y-72162500D01*
X76060000Y-72402500D01*
G37*
%TO.C,U9*%
X113960000Y-110490000D02*
X113960000Y-108990000D01*
X113960000Y-110490000D02*
X113960000Y-111990000D01*
X117180000Y-110490000D02*
X117180000Y-108990000D01*
X117180000Y-110490000D02*
X117180000Y-111990000D01*
X117310000Y-108517500D02*
X116980000Y-108277500D01*
X117310000Y-108037500D01*
X117310000Y-108517500D01*
G36*
X117310000Y-108517500D02*
G01*
X116980000Y-108277500D01*
X117310000Y-108037500D01*
X117310000Y-108517500D01*
G37*
%TO.C,J7*%
X118050000Y-57430000D02*
X118050000Y-60090000D01*
X123190000Y-57430000D02*
X118050000Y-57430000D01*
X123190000Y-57430000D02*
X123190000Y-60090000D01*
X123190000Y-60090000D02*
X118050000Y-60090000D01*
X124460000Y-57430000D02*
X125790000Y-57430000D01*
X125790000Y-57430000D02*
X125790000Y-58760000D01*
%TO.C,JP6*%
X74870000Y-118170000D02*
X74870000Y-116840000D01*
X76200000Y-118170000D02*
X74870000Y-118170000D01*
X77470000Y-115510000D02*
X80070000Y-115510000D01*
X77470000Y-118170000D02*
X77470000Y-115510000D01*
X77470000Y-118170000D02*
X80070000Y-118170000D01*
X80070000Y-118170000D02*
X80070000Y-115510000D01*
%TO.C,C22*%
X128805000Y-78768752D02*
X128805000Y-78246248D01*
X130275000Y-78768752D02*
X130275000Y-78246248D01*
%TO.C,J18*%
X111260000Y-124690000D02*
X113260000Y-124690000D01*
X111260000Y-125940000D02*
X111260000Y-124690000D01*
X111650000Y-125080000D02*
X111650000Y-132550000D01*
X111650000Y-132550000D02*
X127110000Y-132550000D01*
X112800000Y-126040000D02*
X115800000Y-126040000D01*
X112800000Y-127390000D02*
X113550000Y-127390000D01*
X112800000Y-131690000D02*
X112800000Y-127390000D01*
X113050000Y-127040000D02*
X112800000Y-126040000D01*
X113550000Y-127040000D02*
X113050000Y-127040000D01*
X113550000Y-127390000D02*
X113550000Y-127040000D01*
X113550000Y-131690000D02*
X112800000Y-131690000D01*
X115050000Y-127040000D02*
X115050000Y-127390000D01*
X115050000Y-127390000D02*
X115800000Y-127390000D01*
X115550000Y-127040000D02*
X115050000Y-127040000D01*
X115800000Y-126040000D02*
X115550000Y-127040000D01*
X115800000Y-127390000D02*
X115800000Y-131690000D01*
X115800000Y-131690000D02*
X115050000Y-131690000D01*
X117880000Y-126040000D02*
X120880000Y-126040000D01*
X117880000Y-127390000D02*
X118630000Y-127390000D01*
X117880000Y-131690000D02*
X117880000Y-127390000D01*
X118130000Y-127040000D02*
X117880000Y-126040000D01*
X118630000Y-127040000D02*
X118130000Y-127040000D01*
X118630000Y-127390000D02*
X118630000Y-127040000D01*
X118630000Y-131690000D02*
X117880000Y-131690000D01*
X120130000Y-127040000D02*
X120130000Y-127390000D01*
X120130000Y-127390000D02*
X120880000Y-127390000D01*
X120630000Y-127040000D02*
X120130000Y-127040000D01*
X120880000Y-126040000D02*
X120630000Y-127040000D01*
X120880000Y-127390000D02*
X120880000Y-131690000D01*
X120880000Y-131690000D02*
X120130000Y-131690000D01*
X122960000Y-126040000D02*
X125960000Y-126040000D01*
X122960000Y-127390000D02*
X123710000Y-127390000D01*
X122960000Y-131690000D02*
X122960000Y-127390000D01*
X123210000Y-127040000D02*
X122960000Y-126040000D01*
X123710000Y-127040000D02*
X123210000Y-127040000D01*
X123710000Y-127390000D02*
X123710000Y-127040000D01*
X123710000Y-131690000D02*
X122960000Y-131690000D01*
X125210000Y-127040000D02*
X125210000Y-127390000D01*
X125210000Y-127390000D02*
X125960000Y-127390000D01*
X125710000Y-127040000D02*
X125210000Y-127040000D01*
X125960000Y-126040000D02*
X125710000Y-127040000D01*
X125960000Y-127390000D02*
X125960000Y-131690000D01*
X125960000Y-131690000D02*
X125210000Y-131690000D01*
X127110000Y-125080000D02*
X111650000Y-125080000D01*
X127110000Y-132550000D02*
X127110000Y-125080000D01*
X113550000Y-131690000D02*
G75*
G02*
X115049647Y-131689844I750000J-1700000D01*
G01*
X118630000Y-131690000D02*
G75*
G02*
X120129647Y-131689844I750000J-1700000D01*
G01*
X123710000Y-131690000D02*
G75*
G02*
X125209647Y-131689844I750000J-1700000D01*
G01*
%TO.C,C9*%
X94740000Y-112313767D02*
X94740000Y-112021233D01*
X95760000Y-112313767D02*
X95760000Y-112021233D01*
%TO.C,J12*%
X65540000Y-124690000D02*
X67540000Y-124690000D01*
X65540000Y-125940000D02*
X65540000Y-124690000D01*
X65930000Y-125080000D02*
X65930000Y-132550000D01*
X65930000Y-132550000D02*
X81390000Y-132550000D01*
X67080000Y-126040000D02*
X70080000Y-126040000D01*
X67080000Y-127390000D02*
X67830000Y-127390000D01*
X67080000Y-131690000D02*
X67080000Y-127390000D01*
X67330000Y-127040000D02*
X67080000Y-126040000D01*
X67830000Y-127040000D02*
X67330000Y-127040000D01*
X67830000Y-127390000D02*
X67830000Y-127040000D01*
X67830000Y-131690000D02*
X67080000Y-131690000D01*
X69330000Y-127040000D02*
X69330000Y-127390000D01*
X69330000Y-127390000D02*
X70080000Y-127390000D01*
X69830000Y-127040000D02*
X69330000Y-127040000D01*
X70080000Y-126040000D02*
X69830000Y-127040000D01*
X70080000Y-127390000D02*
X70080000Y-131690000D01*
X70080000Y-131690000D02*
X69330000Y-131690000D01*
X72160000Y-126040000D02*
X75160000Y-126040000D01*
X72160000Y-127390000D02*
X72910000Y-127390000D01*
X72160000Y-131690000D02*
X72160000Y-127390000D01*
X72410000Y-127040000D02*
X72160000Y-126040000D01*
X72910000Y-127040000D02*
X72410000Y-127040000D01*
X72910000Y-127390000D02*
X72910000Y-127040000D01*
X72910000Y-131690000D02*
X72160000Y-131690000D01*
X74410000Y-127040000D02*
X74410000Y-127390000D01*
X74410000Y-127390000D02*
X75160000Y-127390000D01*
X74910000Y-127040000D02*
X74410000Y-127040000D01*
X75160000Y-126040000D02*
X74910000Y-127040000D01*
X75160000Y-127390000D02*
X75160000Y-131690000D01*
X75160000Y-131690000D02*
X74410000Y-131690000D01*
X77240000Y-126040000D02*
X80240000Y-126040000D01*
X77240000Y-127390000D02*
X77990000Y-127390000D01*
X77240000Y-131690000D02*
X77240000Y-127390000D01*
X77490000Y-127040000D02*
X77240000Y-126040000D01*
X77990000Y-127040000D02*
X77490000Y-127040000D01*
X77990000Y-127390000D02*
X77990000Y-127040000D01*
X77990000Y-131690000D02*
X77240000Y-131690000D01*
X79490000Y-127040000D02*
X79490000Y-127390000D01*
X79490000Y-127390000D02*
X80240000Y-127390000D01*
X79990000Y-127040000D02*
X79490000Y-127040000D01*
X80240000Y-126040000D02*
X79990000Y-127040000D01*
X80240000Y-127390000D02*
X80240000Y-131690000D01*
X80240000Y-131690000D02*
X79490000Y-131690000D01*
X81390000Y-125080000D02*
X65930000Y-125080000D01*
X81390000Y-132550000D02*
X81390000Y-125080000D01*
X67830000Y-131690000D02*
G75*
G02*
X69329647Y-131689844I750000J-1700000D01*
G01*
X72910000Y-131690000D02*
G75*
G02*
X74409647Y-131689844I750000J-1700000D01*
G01*
X77990000Y-131690000D02*
G75*
G02*
X79489647Y-131689844I750000J-1700000D01*
G01*
%TO.C,J20*%
X126500000Y-124690000D02*
X128500000Y-124690000D01*
X126500000Y-125940000D02*
X126500000Y-124690000D01*
X126890000Y-125080000D02*
X126890000Y-132550000D01*
X126890000Y-132550000D02*
X142350000Y-132550000D01*
X128040000Y-126040000D02*
X131040000Y-126040000D01*
X128040000Y-127390000D02*
X128790000Y-127390000D01*
X128040000Y-131690000D02*
X128040000Y-127390000D01*
X128290000Y-127040000D02*
X128040000Y-126040000D01*
X128790000Y-127040000D02*
X128290000Y-127040000D01*
X128790000Y-127390000D02*
X128790000Y-127040000D01*
X128790000Y-131690000D02*
X128040000Y-131690000D01*
X130290000Y-127040000D02*
X130290000Y-127390000D01*
X130290000Y-127390000D02*
X131040000Y-127390000D01*
X130790000Y-127040000D02*
X130290000Y-127040000D01*
X131040000Y-126040000D02*
X130790000Y-127040000D01*
X131040000Y-127390000D02*
X131040000Y-131690000D01*
X131040000Y-131690000D02*
X130290000Y-131690000D01*
X133120000Y-126040000D02*
X136120000Y-126040000D01*
X133120000Y-127390000D02*
X133870000Y-127390000D01*
X133120000Y-131690000D02*
X133120000Y-127390000D01*
X133370000Y-127040000D02*
X133120000Y-126040000D01*
X133870000Y-127040000D02*
X133370000Y-127040000D01*
X133870000Y-127390000D02*
X133870000Y-127040000D01*
X133870000Y-131690000D02*
X133120000Y-131690000D01*
X135370000Y-127040000D02*
X135370000Y-127390000D01*
X135370000Y-127390000D02*
X136120000Y-127390000D01*
X135870000Y-127040000D02*
X135370000Y-127040000D01*
X136120000Y-126040000D02*
X135870000Y-127040000D01*
X136120000Y-127390000D02*
X136120000Y-131690000D01*
X136120000Y-131690000D02*
X135370000Y-131690000D01*
X138200000Y-126040000D02*
X141200000Y-126040000D01*
X138200000Y-127390000D02*
X138950000Y-127390000D01*
X138200000Y-131690000D02*
X138200000Y-127390000D01*
X138450000Y-127040000D02*
X138200000Y-126040000D01*
X138950000Y-127040000D02*
X138450000Y-127040000D01*
X138950000Y-127390000D02*
X138950000Y-127040000D01*
X138950000Y-131690000D02*
X138200000Y-131690000D01*
X140450000Y-127040000D02*
X140450000Y-127390000D01*
X140450000Y-127390000D02*
X141200000Y-127390000D01*
X140950000Y-127040000D02*
X140450000Y-127040000D01*
X141200000Y-126040000D02*
X140950000Y-127040000D01*
X141200000Y-127390000D02*
X141200000Y-131690000D01*
X141200000Y-131690000D02*
X140450000Y-131690000D01*
X142350000Y-125080000D02*
X126890000Y-125080000D01*
X142350000Y-132550000D02*
X142350000Y-125080000D01*
X128790000Y-131690000D02*
G75*
G02*
X130289647Y-131689844I750000J-1700000D01*
G01*
X133870000Y-131690000D02*
G75*
G02*
X135369647Y-131689844I750000J-1700000D01*
G01*
X138950000Y-131690000D02*
G75*
G02*
X140449647Y-131689844I750000J-1700000D01*
G01*
%TO.C,U6*%
X68240000Y-110490000D02*
X68240000Y-108990000D01*
X68240000Y-110490000D02*
X68240000Y-111990000D01*
X71460000Y-110490000D02*
X71460000Y-108990000D01*
X71460000Y-110490000D02*
X71460000Y-111990000D01*
X71590000Y-108517500D02*
X71260000Y-108277500D01*
X71590000Y-108037500D01*
X71590000Y-108517500D01*
G36*
X71590000Y-108517500D02*
G01*
X71260000Y-108277500D01*
X71590000Y-108037500D01*
X71590000Y-108517500D01*
G37*
%TO.C,J1*%
X72330000Y-57430000D02*
X72330000Y-60090000D01*
X77470000Y-57430000D02*
X72330000Y-57430000D01*
X77470000Y-57430000D02*
X77470000Y-60090000D01*
X77470000Y-60090000D02*
X72330000Y-60090000D01*
X78740000Y-57430000D02*
X80070000Y-57430000D01*
X80070000Y-57430000D02*
X80070000Y-58760000D01*
%TO.C,JP9*%
X120590000Y-118170000D02*
X120590000Y-116840000D01*
X121920000Y-118170000D02*
X120590000Y-118170000D01*
X123190000Y-115510000D02*
X125790000Y-115510000D01*
X123190000Y-118170000D02*
X123190000Y-115510000D01*
X123190000Y-118170000D02*
X125790000Y-118170000D01*
X125790000Y-118170000D02*
X125790000Y-115510000D01*
%TO.C,JP10*%
X135830000Y-118170000D02*
X135830000Y-116840000D01*
X137160000Y-118170000D02*
X135830000Y-118170000D01*
X138430000Y-115510000D02*
X141030000Y-115510000D01*
X138430000Y-118170000D02*
X138430000Y-115510000D01*
X138430000Y-118170000D02*
X141030000Y-118170000D01*
X141030000Y-118170000D02*
X141030000Y-115510000D01*
%TO.C,R10*%
X131817064Y-115930000D02*
X130362936Y-115930000D01*
X131817064Y-117750000D02*
X130362936Y-117750000D01*
%TO.C,R1*%
X76462936Y-62930000D02*
X77917064Y-62930000D01*
X76462936Y-64750000D02*
X77917064Y-64750000D01*
%TO.C,J9*%
X133290000Y-57430000D02*
X133290000Y-60090000D01*
X138430000Y-57430000D02*
X133290000Y-57430000D01*
X138430000Y-57430000D02*
X138430000Y-60090000D01*
X138430000Y-60090000D02*
X133290000Y-60090000D01*
X139700000Y-57430000D02*
X141030000Y-57430000D01*
X141030000Y-57430000D02*
X141030000Y-58760000D01*
%TO.C,J13*%
X82490000Y-123250000D02*
X82490000Y-121920000D01*
X83820000Y-123250000D02*
X82490000Y-123250000D01*
X85090000Y-120590000D02*
X90230000Y-120590000D01*
X85090000Y-123250000D02*
X85090000Y-120590000D01*
X85090000Y-123250000D02*
X90230000Y-123250000D01*
X90230000Y-123250000D02*
X90230000Y-120590000D01*
%TO.C,C6*%
X65530000Y-112313767D02*
X65530000Y-112021233D01*
X66550000Y-112313767D02*
X66550000Y-112021233D01*
%TO.C,J15*%
X97730000Y-123250000D02*
X97730000Y-121920000D01*
X99060000Y-123250000D02*
X97730000Y-123250000D01*
X100330000Y-120590000D02*
X105470000Y-120590000D01*
X100330000Y-123250000D02*
X100330000Y-120590000D01*
X100330000Y-123250000D02*
X105470000Y-123250000D01*
X105470000Y-123250000D02*
X105470000Y-120590000D01*
%TO.C,J10*%
X126890000Y-47790000D02*
X126890000Y-55260000D01*
X126890000Y-55260000D02*
X142350000Y-55260000D01*
X128040000Y-48650000D02*
X128790000Y-48650000D01*
X128040000Y-52950000D02*
X128040000Y-48650000D01*
X128040000Y-54300000D02*
X128290000Y-53300000D01*
X128290000Y-53300000D02*
X128790000Y-53300000D01*
X128790000Y-52950000D02*
X128040000Y-52950000D01*
X128790000Y-53300000D02*
X128790000Y-52950000D01*
X130290000Y-48650000D02*
X131040000Y-48650000D01*
X130290000Y-52950000D02*
X130290000Y-53300000D01*
X130290000Y-53300000D02*
X130790000Y-53300000D01*
X130790000Y-53300000D02*
X131040000Y-54300000D01*
X131040000Y-48650000D02*
X131040000Y-52950000D01*
X131040000Y-52950000D02*
X130290000Y-52950000D01*
X131040000Y-54300000D02*
X128040000Y-54300000D01*
X133120000Y-48650000D02*
X133870000Y-48650000D01*
X133120000Y-52950000D02*
X133120000Y-48650000D01*
X133120000Y-54300000D02*
X133370000Y-53300000D01*
X133370000Y-53300000D02*
X133870000Y-53300000D01*
X133870000Y-52950000D02*
X133120000Y-52950000D01*
X133870000Y-53300000D02*
X133870000Y-52950000D01*
X135370000Y-48650000D02*
X136120000Y-48650000D01*
X135370000Y-52950000D02*
X135370000Y-53300000D01*
X135370000Y-53300000D02*
X135870000Y-53300000D01*
X135870000Y-53300000D02*
X136120000Y-54300000D01*
X136120000Y-48650000D02*
X136120000Y-52950000D01*
X136120000Y-52950000D02*
X135370000Y-52950000D01*
X136120000Y-54300000D02*
X133120000Y-54300000D01*
X138200000Y-48650000D02*
X138950000Y-48650000D01*
X138200000Y-52950000D02*
X138200000Y-48650000D01*
X138200000Y-54300000D02*
X138450000Y-53300000D01*
X138450000Y-53300000D02*
X138950000Y-53300000D01*
X138950000Y-52950000D02*
X138200000Y-52950000D01*
X138950000Y-53300000D02*
X138950000Y-52950000D01*
X140450000Y-48650000D02*
X141200000Y-48650000D01*
X140450000Y-52950000D02*
X140450000Y-53300000D01*
X140450000Y-53300000D02*
X140950000Y-53300000D01*
X140950000Y-53300000D02*
X141200000Y-54300000D01*
X141200000Y-48650000D02*
X141200000Y-52950000D01*
X141200000Y-52950000D02*
X140450000Y-52950000D01*
X141200000Y-54300000D02*
X138200000Y-54300000D01*
X142350000Y-47790000D02*
X126890000Y-47790000D01*
X142350000Y-55260000D02*
X142350000Y-47790000D01*
X142740000Y-54400000D02*
X142740000Y-55650000D01*
X142740000Y-55650000D02*
X140740000Y-55650000D01*
X130290000Y-48650000D02*
G75*
G02*
X128790353Y-48650156I-750000J1700000D01*
G01*
X135370000Y-48650000D02*
G75*
G02*
X133870353Y-48650156I-750000J1700000D01*
G01*
X140450000Y-48650000D02*
G75*
G02*
X138950353Y-48650156I-750000J1700000D01*
G01*
%TO.C,J5*%
X102810000Y-57430000D02*
X102810000Y-60090000D01*
X107950000Y-57430000D02*
X102810000Y-57430000D01*
X107950000Y-57430000D02*
X107950000Y-60090000D01*
X107950000Y-60090000D02*
X102810000Y-60090000D01*
X109220000Y-57430000D02*
X110550000Y-57430000D01*
X110550000Y-57430000D02*
X110550000Y-58760000D01*
%TO.C,JP8*%
X105350000Y-118170000D02*
X105350000Y-116840000D01*
X106680000Y-118170000D02*
X105350000Y-118170000D01*
X107950000Y-115510000D02*
X110550000Y-115510000D01*
X107950000Y-118170000D02*
X107950000Y-115510000D01*
X107950000Y-118170000D02*
X110550000Y-118170000D01*
X110550000Y-118170000D02*
X110550000Y-115510000D01*
%TO.C,J17*%
X112970000Y-123250000D02*
X112970000Y-121920000D01*
X114300000Y-123250000D02*
X112970000Y-123250000D01*
X115570000Y-120590000D02*
X120710000Y-120590000D01*
X115570000Y-123250000D02*
X115570000Y-120590000D01*
X115570000Y-123250000D02*
X120710000Y-123250000D01*
X120710000Y-123250000D02*
X120710000Y-120590000D01*
%TO.C,C2*%
X126490000Y-68366233D02*
X126490000Y-68658767D01*
X127510000Y-68366233D02*
X127510000Y-68658767D01*
%TO.C,U10*%
X129470000Y-110490000D02*
X129470000Y-108990000D01*
X129470000Y-110490000D02*
X129470000Y-111990000D01*
X132690000Y-110490000D02*
X132690000Y-108990000D01*
X132690000Y-110490000D02*
X132690000Y-111990000D01*
X132820000Y-108517500D02*
X132490000Y-108277500D01*
X132820000Y-108037500D01*
X132820000Y-108517500D01*
G36*
X132820000Y-108517500D02*
G01*
X132490000Y-108277500D01*
X132820000Y-108037500D01*
X132820000Y-108517500D01*
G37*
%TO.C,J11*%
X67250000Y-123250000D02*
X67250000Y-121920000D01*
X68580000Y-123250000D02*
X67250000Y-123250000D01*
X69850000Y-120590000D02*
X74990000Y-120590000D01*
X69850000Y-123250000D02*
X69850000Y-120590000D01*
X69850000Y-123250000D02*
X74990000Y-123250000D01*
X74990000Y-123250000D02*
X74990000Y-120590000D01*
%TO.C,U2*%
X91100000Y-70190000D02*
X91100000Y-68690000D01*
X91100000Y-70190000D02*
X91100000Y-71690000D01*
X94320000Y-70190000D02*
X94320000Y-68690000D01*
X94320000Y-70190000D02*
X94320000Y-71690000D01*
X91300000Y-72402500D02*
X90970000Y-72642500D01*
X90970000Y-72162500D01*
X91300000Y-72402500D01*
G36*
X91300000Y-72402500D02*
G01*
X90970000Y-72642500D01*
X90970000Y-72162500D01*
X91300000Y-72402500D01*
G37*
%TO.C,R3*%
X106942936Y-62930000D02*
X108397064Y-62930000D01*
X106942936Y-64750000D02*
X108397064Y-64750000D01*
%TO.C,R7*%
X86097064Y-115930000D02*
X84642936Y-115930000D01*
X86097064Y-117750000D02*
X84642936Y-117750000D01*
%TO.C,C4*%
X96010000Y-68366233D02*
X96010000Y-68658767D01*
X97030000Y-68366233D02*
X97030000Y-68658767D01*
%TO.C,J25*%
X141065000Y-96620000D02*
X139365000Y-96620000D01*
X141065000Y-87280000D02*
X139365000Y-87280000D01*
%TO.C,J23*%
X128210000Y-87580000D02*
X129540000Y-87580000D01*
X128210000Y-88910000D02*
X128210000Y-87580000D01*
X128210000Y-90180000D02*
X128210000Y-97860000D01*
X128210000Y-90180000D02*
X130870000Y-90180000D01*
X128210000Y-97860000D02*
X130870000Y-97860000D01*
X130870000Y-90180000D02*
X130870000Y-97860000D01*
%TO.C,J24*%
X143570000Y-109280000D02*
X142240000Y-109280000D01*
X143570000Y-107950000D02*
X143570000Y-109280000D01*
X143570000Y-106680000D02*
X143570000Y-99000000D01*
X143570000Y-106680000D02*
X140910000Y-106680000D01*
X143570000Y-99000000D02*
X140910000Y-99000000D01*
X140910000Y-106680000D02*
X140910000Y-99000000D01*
%TD*%
M02*
