M48
; DRILL file {KiCad 8.0.3} date 2024-06-21T15:52:02+0300
; FORMAT={-:-/ absolute / metric / decimal}
; #@! TF.CreationDate,2024-06-21T15:52:02+03:00
; #@! TF.GenerationSoftware,Kicad,Pcbnew,8.0.3
; #@! TF.FileFunction,Plated,1,2,PTH
FMAT,2
METRIC
; #@! TA.AperFunction,Plated,PTH,ViaDrill
T1C0.300
; #@! TA.AperFunction,Plated,PTH,ViaDrill
T2C0.400
; #@! TA.AperFunction,Plated,PTH,ComponentDrill
T3C0.600
; #@! TA.AperFunction,Plated,PTH,ComponentDrill
T4C0.800
; #@! TA.AperFunction,Plated,PTH,ComponentDrill
T5C1.000
; #@! TA.AperFunction,Plated,PTH,ComponentDrill
T6C1.200
%
G90
G05
T1
X139.446Y-90.17
X139.446Y-93.218
T2
X66.04Y-82.55
X66.04Y-100.838
X67.564Y-113.03
X68.072Y-103.124
X69.088Y-111.252
X72.898Y-107.442
X76.2Y-86.614
X76.2Y-96.52
X79.248Y-107.95
X79.756Y-67.564
X79.756Y-69.596
X82.55Y-111.252
X82.804Y-113.03
X83.312Y-106.172
X83.566Y-72.898
X86.106Y-106.172
X88.392Y-107.442
X89.408Y-75.946
X89.662Y-73.914
X90.424Y-72.39
X92.202Y-100.584
X93.726Y-108.966
X93.98Y-86.106
X94.742Y-69.596
X95.25Y-67.564
X95.25Y-85.598
X96.774Y-82.55
X97.028Y-78.994
X97.282Y-110.998
X97.536Y-113.03
X98.552Y-72.644
X99.314Y-100.076
X99.822Y-94.742
X100.33Y-88.646
X100.838Y-106.172
X101.346Y-75.946
X103.124Y-106.426
X103.378Y-75.184
X103.378Y-79.502
X103.632Y-104.648
X103.886Y-88.9
X104.648Y-93.218
X104.648Y-108.204
X105.664Y-75.946
X106.426Y-92.964
X106.934Y-106.68
X107.696Y-77.978
X108.458Y-75.438
X108.712Y-88.646
X108.712Y-97.028
X109.728Y-81.788
X109.982Y-69.596
X109.982Y-74.168
X109.982Y-91.948
X110.49Y-67.564
X110.49Y-99.06
X110.998Y-89.154
X111.76Y-106.68
X112.014Y-77.724
X112.268Y-99.314
X112.522Y-95.504
X112.776Y-102.362
X113.284Y-113.03
X113.792Y-110.998
X115.57Y-72.644
X115.824Y-88.646
X116.078Y-106.172
X118.11Y-106.68
X119.38Y-102.108
X119.38Y-106.172
X119.888Y-72.644
X121.92Y-77.47
X122.174Y-97.79
X122.682Y-74.168
X124.968Y-113.03
X125.222Y-69.596
X125.222Y-96.266
X125.476Y-107.442
X125.73Y-67.564
X125.73Y-85.09
X125.984Y-72.39
X128.016Y-106.68
X128.778Y-110.998
X131.572Y-105.664
X133.35Y-77.724
X133.858Y-93.218
X134.366Y-77.724
X134.874Y-94.996
X135.382Y-72.644
X136.398Y-108.204
X137.16Y-106.68
X138.176Y-75.184
X138.176Y-80.01
X139.192Y-69.596
X139.954Y-80.01
X140.97Y-67.564
T4
X96.52Y-89.08
X96.52Y-93.98
T5
X68.58Y-63.84
X68.58Y-121.92
X71.12Y-63.84
X71.12Y-121.92
X73.66Y-58.76
X73.66Y-121.92
X76.2Y-58.76
X76.2Y-116.84
X78.74Y-58.76
X78.74Y-116.84
X82.55Y-86.36
X82.55Y-88.9
X82.55Y-91.44
X82.55Y-93.98
X82.55Y-96.52
X83.82Y-63.84
X83.82Y-121.92
X85.09Y-86.36
X85.09Y-88.9
X85.09Y-91.44
X85.09Y-93.98
X85.09Y-96.52
X86.36Y-63.84
X86.36Y-121.92
X88.9Y-58.76
X88.9Y-121.92
X91.44Y-58.76
X91.44Y-116.84
X93.98Y-58.76
X93.98Y-116.84
X99.06Y-63.84
X99.06Y-121.92
X101.6Y-63.84
X101.6Y-121.92
X104.14Y-58.76
X104.14Y-121.92
X106.68Y-58.76
X106.68Y-116.84
X109.22Y-58.76
X109.22Y-116.84
X114.3Y-63.84
X114.3Y-121.92
X116.84Y-63.84
X116.84Y-121.92
X119.38Y-58.76
X119.38Y-121.92
X121.158Y-89.662
X121.92Y-58.76
X121.92Y-116.84
X124.46Y-58.76
X124.46Y-116.84
X129.54Y-63.84
X129.54Y-88.91
X129.54Y-91.45
X129.54Y-93.99
X129.54Y-96.53
X129.54Y-121.92
X132.08Y-63.84
X132.08Y-121.92
X134.62Y-58.76
X134.62Y-121.92
X137.16Y-58.76
X137.16Y-116.84
X139.7Y-58.76
X139.7Y-116.84
X142.24Y-100.33
X142.24Y-102.87
X142.24Y-105.41
X142.24Y-107.95
T6
X68.58Y-50.8
X68.58Y-129.54
X73.66Y-50.8
X73.66Y-129.54
X78.74Y-50.8
X78.74Y-129.54
X83.82Y-50.8
X83.82Y-129.54
X88.9Y-50.8
X88.9Y-129.54
X93.98Y-50.8
X93.98Y-129.54
X99.06Y-50.8
X99.06Y-129.54
X104.14Y-50.8
X104.14Y-129.54
X109.22Y-50.8
X109.22Y-129.54
X114.3Y-50.8
X114.3Y-129.54
X119.38Y-50.8
X119.38Y-129.54
X124.46Y-50.8
X124.46Y-129.54
X129.54Y-50.8
X129.54Y-129.54
X134.62Y-50.8
X134.62Y-129.54
X139.7Y-50.8
X139.7Y-129.54
T3
X137.51Y-87.63G85X138.61Y-87.63
G05
X137.51Y-96.27G85X138.61Y-96.27
G05
X141.84Y-87.63G85X142.64Y-87.63
G05
X141.84Y-96.27G85X142.64Y-96.27
G05
M30
